<svg id="Layer_1" data-name="Layer 1" xmlns="http://www.w3.org/2000/svg" viewBox="0 0 184 300"><title>exp</title><path d="M31.85,80.29H28.74V88.5h-.31V80.29H25.32V80h6.53Z"/><path d="M34.7,88l0-.12,2.19-5.73h.35L34.45,89.6,34.3,90a1.55,1.55,0,0,1-1.51,1.11,1.29,1.29,0,0,1-.47-.06v-.31a1.41,1.41,0,0,0,.43,0,1.2,1.2,0,0,0,.82-.28,2.34,2.34,0,0,0,.57-.95l.39-1.05L32,82.16h.35Z"/><path d="M43.33,85.39a3.92,3.92,0,0,1-.63,2.35,2,2,0,0,1-1.74.88,2.7,2.7,0,0,1-1.29-.3,2.2,2.2,0,0,1-.88-.8v3.42h-.31V82.16h.31v1.13a2.32,2.32,0,0,1,.89-.92A2.42,2.42,0,0,1,40.94,82a2.08,2.08,0,0,1,1.76.86,3.93,3.93,0,0,1,.63,2.39ZM43,85.27a3.68,3.68,0,0,0-.54-2.14A1.76,1.76,0,0,0,41,82.36a2.23,2.23,0,0,0-1.35.41A2.29,2.29,0,0,0,38.79,84v3a2.06,2.06,0,0,0,.81,1A2.46,2.46,0,0,0,41,88.3a1.74,1.74,0,0,0,1.51-.77A4,4,0,0,0,43,85.27Z"/><path d="M47.34,88.62a2.49,2.49,0,0,1-1.41-.42,2.77,2.77,0,0,1-1-1.13,3.52,3.52,0,0,1-.36-1.6v-.26a3.69,3.69,0,0,1,.35-1.61,2.81,2.81,0,0,1,1-1.15A2.38,2.38,0,0,1,47.22,82,2.19,2.19,0,0,1,49,82.8a2.86,2.86,0,0,1,.68,2v.33H44.88v.34a3.1,3.1,0,0,0,.32,1.43,2.62,2.62,0,0,0,.9,1,2.2,2.2,0,0,0,1.24.37,2.54,2.54,0,0,0,1.08-.21,2.16,2.16,0,0,0,.8-.66l.22.16A2.37,2.37,0,0,1,47.34,88.62Zm-.12-6.26a2.06,2.06,0,0,0-1.57.69,3,3,0,0,0-.76,1.75h4.42v-.07a2.71,2.71,0,0,0-.27-1.2,2,2,0,0,0-.75-.86A1.91,1.91,0,0,0,47.22,82.36Z"/><path d="M89.11,89.67l.15.51.16-.51L92,82h.32l-2.9,8.53h-.35L86.19,82h.31Z"/><path d="M96.91,90.5a5,5,0,0,1-.1-1.16,2.4,2.4,0,0,1-.93.94,2.62,2.62,0,0,1-1.34.34,1.76,1.76,0,0,1-1.29-.48,1.69,1.69,0,0,1-.49-1.25,1.64,1.64,0,0,1,.72-1.39,3.22,3.22,0,0,1,1.9-.54h1.43V86a1.61,1.61,0,0,0-.46-1.24,1.81,1.81,0,0,0-1.3-.44,2,2,0,0,0-1.32.44,1.4,1.4,0,0,0-.52,1.11l-.29,0a1.66,1.66,0,0,1,.62-1.31A2.2,2.2,0,0,1,95.05,84a2,2,0,0,1,1.48.52A1.94,1.94,0,0,1,97.1,86v3a4.46,4.46,0,0,0,.15,1.42v0Zm-2.37-.2a2.37,2.37,0,0,0,1.39-.4,2.42,2.42,0,0,0,.88-1.12v-1.5H95.48a2.93,2.93,0,0,0-1.9.54,1.36,1.36,0,0,0-.53,1.09,1.32,1.32,0,0,0,.42,1A1.48,1.48,0,0,0,94.54,90.3Z"/><path d="M99.31,90.5H99v-9h.29Z"/><path d="M105.06,90.5v-1a2,2,0,0,1-.74.84,2.35,2.35,0,0,1-1.24.31,1.68,1.68,0,0,1-1.42-.61,2.92,2.92,0,0,1-.48-1.77V84.16h.29v4.1a2.42,2.42,0,0,0,.41,1.52,1.41,1.41,0,0,0,1.19.52,2,2,0,0,0,1.34-.43,2,2,0,0,0,.65-1.25V84.16h.3V90.5Z"/><path d="M109.25,90.62A2.16,2.16,0,0,1,108,90.2a2.78,2.78,0,0,1-.91-1.13,3.78,3.78,0,0,1-.33-1.6v-.26A4,4,0,0,1,107,85.6a2.79,2.79,0,0,1,.88-1.15,2,2,0,0,1,1.22-.41,1.94,1.94,0,0,1,1.58.76,3,3,0,0,1,.61,2v.33H107v.34a3.51,3.51,0,0,0,.29,1.43,2.53,2.53,0,0,0,.82,1,1.89,1.89,0,0,0,1.13.37,2.19,2.19,0,0,0,1-.21,2,2,0,0,0,.72-.66l.2.16A2.11,2.11,0,0,1,109.25,90.62Zm-.11-6.26a1.81,1.81,0,0,0-1.43.69A3.1,3.1,0,0,0,107,86.8h4v-.07a2.84,2.84,0,0,0-.25-1.2,2,2,0,0,0-.68-.86A1.6,1.6,0,0,0,109.14,84.36Z"/><path d="M116.23,89c0-.77-.6-1.3-1.79-1.57a3.41,3.41,0,0,1-1.5-.65,1.42,1.42,0,0,1-.42-1.09,1.46,1.46,0,0,1,.53-1.15,2.12,2.12,0,0,1,1.4-.45,2.26,2.26,0,0,1,1.5.49,1.69,1.69,0,0,1,.56,1.32h-.29a1.37,1.37,0,0,0-.49-1.06,1.87,1.87,0,0,0-1.28-.43,1.83,1.83,0,0,0-1.2.36,1.12,1.12,0,0,0-.44.91,1.17,1.17,0,0,0,.16.67,1.46,1.46,0,0,0,.54.44,5.13,5.13,0,0,0,1.09.38,4.24,4.24,0,0,1,1.13.43,1.6,1.6,0,0,1,.6.58,1.71,1.71,0,0,1,.19.82,1.49,1.49,0,0,1-.56,1.21,2.31,2.31,0,0,1-1.47.46,2.33,2.33,0,0,1-1.56-.49,1.51,1.51,0,0,1-.6-1.24h.29a1.36,1.36,0,0,0,.54,1,2.12,2.12,0,0,0,1.33.37,2,2,0,0,0,1.26-.39A1.22,1.22,0,0,0,116.23,89Z"/><path d="M26,108v-.71h1.48v-6.06H26.06v-.71h3.7v.71H28.29v6.07h1.55v.7Z"/><path d="M31.86,102.52h.84v1a2.54,2.54,0,0,1,.82-.81,2,2,0,0,1,1-.3,1.41,1.41,0,0,1,1.17.56,2.75,2.75,0,0,1,.44,1.74V108h-.84v-3.3a2.07,2.07,0,0,0-.27-1.19.87.87,0,0,0-.74-.37,1.49,1.49,0,0,0-.75.22,1.69,1.69,0,0,0-.62.6,1.67,1.67,0,0,0-.25.88V108h-.84Z"/><path d="M42.33,107.5a2.87,2.87,0,0,1-1.74.58,1.44,1.44,0,0,1-1.29-.55,3.3,3.3,0,0,1-.38-1.8c0-.13,0-.37,0-.71l.11-1.8H37.84v-.7H39.1l.08-1.47,1-.15.12,0,0,.08a1.32,1.32,0,0,0-.13.2.57.57,0,0,0,0,.26l-.14,1.1h1.83v.7H39.92l-.11,1.86c0,.32,0,.54,0,.64A2.57,2.57,0,0,0,40,107a.76.76,0,0,0,.71.34,1.59,1.59,0,0,0,.66-.13,3.6,3.6,0,0,0,.68-.42Z"/><path d="M91.26,107.5v-6.44l-1.51.44-.19-.47,2-1h.59v7.49Z"/><path d="M95.27,109.09l-.42-.3a2.51,2.51,0,0,0,.55-1.48v-.91h.69v.73A2.53,2.53,0,0,1,95.27,109.09Z"/><path d="M100.59,106.83l1-1c.65-.64,1.14-1.15,1.46-1.52a5.65,5.65,0,0,0,.77-1.1,2.29,2.29,0,0,0,.29-1.13,1.37,1.37,0,0,0-.35-1.06,1.3,1.3,0,0,0-.92-.32,1.94,1.94,0,0,0-1,.23,1.32,1.32,0,0,0-.59.5c0,.09-.09.18-.14.27a.62.62,0,0,0-.07.16h.06s0,0,0,0l0,.07-.11-.06-.61-.48A2.56,2.56,0,0,1,102.8,100a2.13,2.13,0,0,1,1.55.57,2.08,2.08,0,0,1,.6,1.56,2.74,2.74,0,0,1-.32,1.26,5.47,5.47,0,0,1-.79,1.17c-.33.36-.78.83-1.35,1.4l-.82.83h2.79a1,1,0,0,0,.28,0,.29.29,0,0,0,.16-.09H105v.85h-4.39Z"/><path d="M106.48,109.09l-.41-.3a2.58,2.58,0,0,0,.55-1.48v-.91h.68v.73A2.5,2.5,0,0,1,106.48,109.09Z"/><path d="M115.67,104.24a1.85,1.85,0,0,1,.38,1.21,2.29,2.29,0,0,1-.26,1.1,2,2,0,0,1-.77.79,2.41,2.41,0,0,1-1.21.29,3,3,0,0,1-1.13-.21,2.5,2.5,0,0,1-.92-.64l.55-.66h0a2.61,2.61,0,0,0,.62.59,1.56,1.56,0,0,0,.82.2,1.31,1.31,0,0,0,1.06-.41,1.58,1.58,0,0,0,.36-1.09,1.35,1.35,0,0,0-.45-1.11,1.92,1.92,0,0,0-1.27-.38l-.38,0v-.67a2.07,2.07,0,0,0,1.46-.4,1.46,1.46,0,0,0,.39-1.08,1.07,1.07,0,0,0-.3-.8,1,1,0,0,0-.77-.3,1.93,1.93,0,0,0-1.37.55l-.5-.51a2.47,2.47,0,0,1,1.86-.76,2,2,0,0,1,1.42.51,1.79,1.79,0,0,1,.52,1.35,1.88,1.88,0,0,1-.3,1.06,1.55,1.55,0,0,1-.87.64A2.14,2.14,0,0,1,115.67,104.24Zm-3.37,1.81,0,0,0,0C112.29,106.05,112.28,106,112.3,106.05Zm.12.06a.09.09,0,0,1-.07,0l0-.06.06.06S112.44,106.12,112.42,106.11Z"/><path d="M29.14,126l.41.47a1.75,1.75,0,0,1,.41,1.18,2.12,2.12,0,0,1-.27,1,2.09,2.09,0,0,1-.83.81,3,3,0,0,1-1.4.31,3.09,3.09,0,0,1-2.34-.95l.44-.76h0a2.25,2.25,0,0,0,.83.69,2.5,2.5,0,0,0,1.18.26,1.67,1.67,0,0,0,1.11-.37,1.16,1.16,0,0,0,.44-.91,1,1,0,0,0-.14-.58,1.39,1.39,0,0,0-.49-.47,8.86,8.86,0,0,0-1.08-.54,3.8,3.8,0,0,1-1.58-1,1.84,1.84,0,0,1-.48-1.24A1.65,1.65,0,0,1,26,122.6a2.49,2.49,0,0,1,1.66-.5,2.79,2.79,0,0,1,1.15.24,2.76,2.76,0,0,1,.93.69l-.47.62v0a2.17,2.17,0,0,0-.75-.69,2.2,2.2,0,0,0-1-.19,1.36,1.36,0,0,0-.93.32,1,1,0,0,0-.35.77,1.17,1.17,0,0,0,.15.61,1.56,1.56,0,0,0,.54.5,7.14,7.14,0,0,0,1.16.55Zm-3.56,2,0,0C25.51,128,25.52,128,25.58,128Zm.11,0s0,0-.05,0l-.06,0,0,0,.09,0Zm3.42-4.35s0,0,.05,0l.06,0,0,0-.07,0Zm.16,0-.05,0,0,0Q29.32,123.76,29.27,123.73Z"/><path d="M35.83,129.16a2.81,2.81,0,0,1-1.74.59,1.44,1.44,0,0,1-1.29-.55,3.3,3.3,0,0,1-.38-1.8c0-.14,0-.37,0-.71l.11-1.8H31.34v-.71H32.6l.08-1.46,1-.16h.12l0,.07a1.35,1.35,0,0,0-.13.21.54.54,0,0,0,0,.26l-.14,1.09h1.83v.71H33.42l-.11,1.86c0,.32,0,.53,0,.64a2.57,2.57,0,0,0,.23,1.3.76.76,0,0,0,.71.34,1.59,1.59,0,0,0,.66-.13,3.6,3.6,0,0,0,.68-.42Z"/><path d="M41.61,125.32h0a2.73,2.73,0,0,0-.58-.43,1.35,1.35,0,0,0-.55-.11,1.67,1.67,0,0,0-.81.22,1.55,1.55,0,0,0-.63.66,2.23,2.23,0,0,0-.24,1.09v2.92h-.87v-5.5h.9l0,1a1.83,1.83,0,0,1,.71-.84,1.88,1.88,0,0,1,1-.3,2,2,0,0,1,1.46.6Zm-.13.05s0,0,0,0l.07,0,0,.06-.08-.05Zm.17,0-.06,0,0,0C41.67,125.38,41.68,125.4,41.65,125.4Z"/><path d="M43.7,129.67V129h1.4v-4.09H43.77v-.7H46V129h1.28v.7Zm1.36-6.82a.63.63,0,0,1,0-.87.56.56,0,0,1,.44-.19.63.63,0,0,1,.44.19.6.6,0,0,1,.18.44.58.58,0,0,1-.18.43.62.62,0,0,1-.44.18A.58.58,0,0,1,45.06,122.85Z"/><path d="M49.36,124.18h.84v1a2.61,2.61,0,0,1,.82-.8,2,2,0,0,1,1-.3,1.41,1.41,0,0,1,1.17.56,2.74,2.74,0,0,1,.44,1.73v3.33h-.84v-3.3a2,2,0,0,0-.27-1.19.87.87,0,0,0-.74-.37,1.58,1.58,0,0,0-.75.21,1.81,1.81,0,0,0-.62.61,1.64,1.64,0,0,0-.25.88v3.16h-.84Z"/><path d="M59.89,124.73a1.67,1.67,0,0,0-1,.26,2,2,0,0,1,.2.9,2.14,2.14,0,0,1-.23,1,1.78,1.78,0,0,1-.67.69,2.11,2.11,0,0,1-1,.25,2.19,2.19,0,0,1-.85-.17.82.82,0,0,0-.22.5c0,.19.13.33.37.42a4.79,4.79,0,0,0,1.31.12,2.54,2.54,0,0,1,1.59.36,1.25,1.25,0,0,1,.43,1,1.46,1.46,0,0,1-.58,1.18,2.83,2.83,0,0,1-1.8.47,3.93,3.93,0,0,1-1.84-.36,1.14,1.14,0,0,1-.66-1.06,1.19,1.19,0,0,1,.24-.74,1.64,1.64,0,0,1,.61-.49.83.83,0,0,1-.4-.73,1.56,1.56,0,0,1,.49-1,1.69,1.69,0,0,1-.45-.64,2,2,0,0,1-.16-.81,2,2,0,0,1,.24-1,1.71,1.71,0,0,1,.67-.69,2,2,0,0,1,1-.25,1.87,1.87,0,0,1,1.41.56,2.32,2.32,0,0,1,.59-.39,1.83,1.83,0,0,1,.68-.12h.2l.11.71Zm-.94,5a.65.65,0,0,0-.41-.24,3.44,3.44,0,0,0-.9-.08,4.75,4.75,0,0,1-1.38-.16,1.26,1.26,0,0,0-.4.4,1.17,1.17,0,0,0-.11.54.69.69,0,0,0,.45.63,2.82,2.82,0,0,0,1.28.23,2.44,2.44,0,0,0,1.18-.23.72.72,0,0,0,.39-.64A.94.94,0,0,0,59,129.76Zm-.88-3a1.16,1.16,0,0,0,.34-.85,1.15,1.15,0,0,0-.34-.85,1.12,1.12,0,0,0-.86-.35,1.14,1.14,0,0,0-.86.35,1.19,1.19,0,0,0-.34.85,1.2,1.2,0,0,0,.34.85,1.18,1.18,0,0,0,.86.35A1.16,1.16,0,0,0,58.07,126.74Z"/><path d="M89.69,124.48a1.07,1.07,0,0,1-.24-.71,3.49,3.49,0,0,1,1.27-2.26l.41.37a2.69,2.69,0,0,0-.55.66,1.2,1.2,0,0,0-.23.6.28.28,0,0,0,.07.19c0,.06.12.12.2.2a1.27,1.27,0,0,1,.26.26.45.45,0,0,1,.09.28.7.7,0,0,1-.2.49.73.73,0,0,1-.52.2A.71.71,0,0,1,89.69,124.48Zm2.48,0a1.07,1.07,0,0,1-.24-.71,3.53,3.53,0,0,1,1.27-2.26l.41.37a2.93,2.93,0,0,0-.55.66,1.3,1.3,0,0,0-.23.6.34.34,0,0,0,.07.19,2.12,2.12,0,0,0,.21.2,1.59,1.59,0,0,1,.26.26.45.45,0,0,1,.09.28.67.67,0,0,1-.21.49.71.71,0,0,1-.51.2A.72.72,0,0,1,92.17,124.48Z"/><path d="M95.29,121.69h1v.08a.29.29,0,0,0-.09.16,1.07,1.07,0,0,0,0,.29v6.23h3.6v.72H95.29Z"/><path d="M102.19,128.9a2.46,2.46,0,0,1-.9-1,3.31,3.31,0,0,1-.32-1.47,3.35,3.35,0,0,1,.32-1.48,2.53,2.53,0,0,1,.9-1,2.5,2.5,0,0,1,2.62,0,2.53,2.53,0,0,1,.9,1,3.35,3.35,0,0,1,.32,1.48,3.31,3.31,0,0,1-.32,1.47,2.46,2.46,0,0,1-.9,1,2.56,2.56,0,0,1-2.62,0Zm2.14-.63a1.83,1.83,0,0,0,.58-.77,2.72,2.72,0,0,0,.21-1.09,2.38,2.38,0,0,0-.46-1.53,1.42,1.42,0,0,0-2.32,0,2.38,2.38,0,0,0-.46,1.53,2.72,2.72,0,0,0,.21,1.09,1.83,1.83,0,0,0,.58.77,1.41,1.41,0,0,0,1.66,0Z"/><path d="M111.61,124.82h0a2.42,2.42,0,0,0-.58-.43,1.35,1.35,0,0,0-.55-.11,1.67,1.67,0,0,0-.81.22,1.58,1.58,0,0,0-.63.65,2.29,2.29,0,0,0-.24,1.1v2.92h-.87v-5.5h.9l0,1a1.83,1.83,0,0,1,.71-.84,1.88,1.88,0,0,1,1-.3,2,2,0,0,1,1.46.6Zm-.13.05s0,0,0,0l.07,0,0,.06-.08-.05Zm.17,0-.06,0,0,0C111.67,124.88,111.68,124.9,111.65,124.89Z"/><path d="M113.81,128.54a2.88,2.88,0,0,1-.72-2.1,3.38,3.38,0,0,1,.33-1.55,2.46,2.46,0,0,1,.91-1,2.43,2.43,0,0,1,1.28-.34,2.1,2.1,0,0,1,1.61.66,2.76,2.76,0,0,1,.62,1.94c0,.09,0,.22,0,.4h-3.9a2.22,2.22,0,0,0,.56,1.52,1.75,1.75,0,0,0,1.31.52,1.8,1.8,0,0,0,1.41-.61l.48.47a2.35,2.35,0,0,1-1.92.84A2.61,2.61,0,0,1,113.81,128.54Zm3.15-2.66a1.81,1.81,0,0,0-.39-1.22,1.29,1.29,0,0,0-1-.45,1.49,1.49,0,0,0-1,.42,2,2,0,0,0-.55,1.25Z"/><path d="M119,123.68h.79v.54a1.5,1.5,0,0,1,.49-.48,1.12,1.12,0,0,1,.62-.19,1,1,0,0,1,.63.23,1,1,0,0,1,.35.57,1.25,1.25,0,0,1,.49-.58,1.29,1.29,0,0,1,.74-.22.92.92,0,0,1,.81.39,1.67,1.67,0,0,1,.25,1v4.22h-.79v-3.89a1.86,1.86,0,0,0-.14-.89.4.4,0,0,0-.38-.2.59.59,0,0,0-.42.2,1.45,1.45,0,0,0-.33.52,1.77,1.77,0,0,0-.13.63v3.63h-.8v-3.82a2.08,2.08,0,0,0-.13-.91.49.49,0,0,0-.47-.23.57.57,0,0,0-.37.16,1.23,1.23,0,0,0-.3.46,1.76,1.76,0,0,0-.12.68v3.66H119Z"/><path d="M126.92,121.79a1.08,1.08,0,0,1,.24.72,3.49,3.49,0,0,1-1.27,2.25l-.41-.37a3,3,0,0,0,.56-.66,1.26,1.26,0,0,0,.22-.6.3.3,0,0,0-.07-.19,1.24,1.24,0,0,0-.2-.19,2.1,2.1,0,0,1-.26-.27.44.44,0,0,1-.09-.27.7.7,0,0,1,.2-.5.73.73,0,0,1,.52-.2A.7.7,0,0,1,126.92,121.79Zm2.49,0a1.08,1.08,0,0,1,.24.72,3.54,3.54,0,0,1-1.27,2.25l-.41-.37a2.93,2.93,0,0,0,.55-.66,1.3,1.3,0,0,0,.23-.6.37.37,0,0,0-.07-.19,1.37,1.37,0,0,0-.21-.19,2.1,2.1,0,0,1-.26-.27.44.44,0,0,1-.09-.27.67.67,0,0,1,.21-.5.71.71,0,0,1,.51-.2A.72.72,0,0,1,129.41,121.79Z"/><path d="M131.27,130.76l-.42-.3a2.54,2.54,0,0,0,.55-1.49v-.91h.69v.74A2.55,2.55,0,0,1,131.27,130.76Z"/><path d="M136.9,124.48a1.07,1.07,0,0,1-.24-.71,3.53,3.53,0,0,1,1.27-2.26l.41.37a2.93,2.93,0,0,0-.55.66,1.3,1.3,0,0,0-.23.6.34.34,0,0,0,.07.19,2.12,2.12,0,0,0,.21.2,1.59,1.59,0,0,1,.26.26.45.45,0,0,1,.09.28.67.67,0,0,1-.21.49.71.71,0,0,1-.51.2A.72.72,0,0,1,136.9,124.48Zm2.49,0a1.07,1.07,0,0,1-.24-.71,3.49,3.49,0,0,1,1.27-2.26l.41.37a3,3,0,0,0-.56.66,1.26,1.26,0,0,0-.22.6.28.28,0,0,0,.07.19,1.86,1.86,0,0,0,.2.2,1.59,1.59,0,0,1,.26.26.45.45,0,0,1,.09.28.7.7,0,0,1-.2.49.73.73,0,0,1-.52.2A.7.7,0,0,1,139.39,124.48Z"/><path d="M142.92,129.17v-.7h1.4v-4.09H143v-.7h2.19v4.79h1.29v.7Zm1.35-6.82a.58.58,0,0,1-.18-.43.64.64,0,0,1,.17-.45.6.6,0,0,1,.44-.18.65.65,0,0,1,.63.63.59.59,0,0,1-.19.43.6.6,0,0,1-.44.18A.6.6,0,0,1,144.27,122.35Z"/><path d="M148.43,123.68h.88v1.08a1.62,1.62,0,0,1,.62-.9,1.85,1.85,0,0,1,1-.3,2.22,2.22,0,0,1,1.15.32,2.29,2.29,0,0,1,.83,1,3.48,3.48,0,0,1,.31,1.55A3.66,3.66,0,0,1,153,128a2.37,2.37,0,0,1-.86,1,2.07,2.07,0,0,1-1.13.34,2,2,0,0,1-.93-.23,2,2,0,0,1-.71-.63v2.72h-.89Zm3.49,4.36a2.38,2.38,0,0,0,.45-1.62,2.62,2.62,0,0,0-.4-1.57,1.4,1.4,0,0,0-2.23,0,2.83,2.83,0,0,0-.43,1.73,2.42,2.42,0,0,0,.42,1.44,1.31,1.31,0,0,0,1.08.49A1.41,1.41,0,0,0,151.92,128Z"/><path d="M158.57,126.62a1.2,1.2,0,0,1,.43.95,1.52,1.52,0,0,1-.59,1.23,2.59,2.59,0,0,1-1.68.49,3.28,3.28,0,0,1-2.33-.87l.48-.81v0a3,3,0,0,0,.77.72,2.06,2.06,0,0,0,1.08.24,1.88,1.88,0,0,0,1-.24.73.73,0,0,0,.07-1.22,4,4,0,0,0-1.08-.48c-1.37-.39-2.06-1-2.06-1.7a1.18,1.18,0,0,1,.52-1,2.54,2.54,0,0,1,1.49-.37,3.32,3.32,0,0,1,1.26.21,2.76,2.76,0,0,1,.93.65l-.49.6,0,0a1.64,1.64,0,0,0-.71-.61,2.12,2.12,0,0,0-.94-.22,1.76,1.76,0,0,0-.85.18.56.56,0,0,0-.33.5.68.68,0,0,0,.34.55,4,4,0,0,0,1.21.51A4.06,4.06,0,0,1,158.57,126.62Zm-3.7.91,0,0,0,0S154.86,127.53,154.87,127.53Zm.15,0s0,0-.1,0l0-.06.07,0Zm3.34-2.5,0,0-.06-.06S158.29,125,158.36,125.06Zm.06,0h0l0,0,0,0S158.43,125.08,158.42,125.09Z"/><path d="M161,128.66a2.93,2.93,0,0,1-.51-1.92l0-3.06h.83v3.06a2.29,2.29,0,0,0,.35,1.42,1.07,1.07,0,0,0,.9.44,1.34,1.34,0,0,0,1-.48,2.07,2.07,0,0,0,.43-1.41v-3h.84v4.63c0,.2,0,.35,0,.48a1.13,1.13,0,0,0,.1.38h-.83a1,1,0,0,1-.1-.38c0-.12,0-.28,0-.46a1.93,1.93,0,0,1-.71.71,2,2,0,0,1-1,.26A1.69,1.69,0,0,1,161,128.66Z"/><path d="M166.17,123.68H167v.54a1.44,1.44,0,0,1,.5-.48,1.08,1.08,0,0,1,.62-.19,1,1,0,0,1,.63.23,1,1,0,0,1,.34.57,1.34,1.34,0,0,1,1.24-.8.92.92,0,0,1,.81.39,1.6,1.6,0,0,1,.24,1v4.22h-.79v-3.89a1.89,1.89,0,0,0-.13-.89.42.42,0,0,0-.38-.2.56.56,0,0,0-.42.2,1.45,1.45,0,0,0-.33.52,1.58,1.58,0,0,0-.13.63v3.63h-.81v-3.82a2.3,2.3,0,0,0-.12-.91.51.51,0,0,0-.48-.23.53.53,0,0,0-.36.16,1.13,1.13,0,0,0-.31.46,1.76,1.76,0,0,0-.12.68v3.66h-.79Z"/><path d="M174.14,121.79a1.08,1.08,0,0,1,.24.72,3.49,3.49,0,0,1-1.27,2.25l-.41-.37a2.69,2.69,0,0,0,.55-.66,1.3,1.3,0,0,0,.23-.6.3.3,0,0,0-.07-.19,1.37,1.37,0,0,0-.21-.19,1.47,1.47,0,0,1-.25-.27.39.39,0,0,1-.1-.27.67.67,0,0,1,.21-.5.73.73,0,0,1,1.08.08Zm2.48,0a1.08,1.08,0,0,1,.24.72,3.49,3.49,0,0,1-1.27,2.25l-.41-.37a2.69,2.69,0,0,0,.55-.66,1.2,1.2,0,0,0,.23-.6.3.3,0,0,0-.07-.19,1.88,1.88,0,0,0-.2-.19,2.1,2.1,0,0,1-.26-.27.44.44,0,0,1-.09-.27.7.7,0,0,1,.2-.5.73.73,0,0,1,.52-.2A.71.71,0,0,1,176.62,121.79Z"/><path d="M25.57,152.4v-9.11H29V144H26.34v7.71H29v.68Z"/><path d="M31,151.33v-.7h1.48v-6.07H31.06v-.7h3.7v.7H33.29v6.08h1.55v.69Z"/><path d="M36.86,145.85h.84v1a2.5,2.5,0,0,1,.82-.8,2,2,0,0,1,1-.3,1.41,1.41,0,0,1,1.17.55,2.79,2.79,0,0,1,.44,1.74v3.32h-.84V148a2,2,0,0,0-.27-1.18.88.88,0,0,0-.74-.38,1.49,1.49,0,0,0-.75.22,1.78,1.78,0,0,0-.62.6,1.7,1.7,0,0,0-.25.89v3.15h-.84Z"/><path d="M47.33,150.83a2.88,2.88,0,0,1-1.74.59,1.46,1.46,0,0,1-1.29-.55,3.32,3.32,0,0,1-.38-1.81c0-.13,0-.37,0-.7l.11-1.8H42.84v-.71H44.1l.08-1.47,1-.15h.12l0,.07a2.12,2.12,0,0,0-.13.2.62.62,0,0,0,0,.27L45,145.85h1.83v.71H44.92l-.11,1.86q0,.48,0,.63a2.55,2.55,0,0,0,.23,1.3.77.77,0,0,0,.71.35,1.59,1.59,0,0,0,.66-.14,3.06,3.06,0,0,0,.68-.41Z"/><path d="M53,152.4H49.57v-.68h2.68V144H49.58v-.72H53Z"/><path d="M90.07,151.9v-9.11H93.5v.72H90.84v7.71h2.68v.68Z"/><path d="M97.26,150.83v-6.44l-1.51.44-.19-.46,2-1h.59v7.48Z"/><path d="M102.48,152.49a3.5,3.5,0,0,0,.56-.67,1.2,1.2,0,0,0,.22-.59.28.28,0,0,0-.06-.18l-.22-.22a2.81,2.81,0,0,1-.25-.26.45.45,0,0,1-.08-.26.69.69,0,0,1,.2-.51.69.69,0,0,1,.51-.2.75.75,0,0,1,.57.28,1.07,1.07,0,0,1,.24.71,3.65,3.65,0,0,1-1.28,2.26Z"/><path d="M107.38,150.16l1-1c.65-.65,1.13-1.16,1.46-1.53a5.6,5.6,0,0,0,.77-1.09,2.47,2.47,0,0,0,.29-1.14,1.37,1.37,0,0,0-.35-1,1.28,1.28,0,0,0-.92-.33,2.06,2.06,0,0,0-1,.23,1.34,1.34,0,0,0-.58.5c0,.09-.1.18-.14.27a.91.91,0,0,0-.08.17h0l0,0s0,0,0,0l0,.07-.11-.06-.61-.48a2.61,2.61,0,0,1,1-1.07,2.67,2.67,0,0,1,1.4-.38,2.14,2.14,0,0,1,1.56.58,2.08,2.08,0,0,1,.59,1.56,2.73,2.73,0,0,1-.31,1.26,5.73,5.73,0,0,1-.8,1.16c-.32.37-.77.84-1.35,1.4l-.81.83h2.78l.28,0a.34.34,0,0,0,.16-.1h.09v.85h-4.39Z"/><path d="M114.48,152.49a3.5,3.5,0,0,0,.56-.67,1.2,1.2,0,0,0,.22-.59.28.28,0,0,0-.06-.18l-.22-.22a2.81,2.81,0,0,1-.25-.26.45.45,0,0,1-.08-.26.69.69,0,0,1,.2-.51.69.69,0,0,1,.51-.2.75.75,0,0,1,.57.28,1.07,1.07,0,0,1,.24.71,3.65,3.65,0,0,1-1.28,2.26Z"/><path d="M123.24,147.57a1.85,1.85,0,0,1,.38,1.21,2.26,2.26,0,0,1-.26,1.1,2,2,0,0,1-.77.79,2.31,2.31,0,0,1-1.21.3,3,3,0,0,1-1.13-.22,2.39,2.39,0,0,1-.92-.64l.55-.66h0a2.42,2.42,0,0,0,.62.59,1.47,1.47,0,0,0,.82.21,1.34,1.34,0,0,0,1.06-.41,1.59,1.59,0,0,0,.36-1.09,1.37,1.37,0,0,0-.45-1.12,1.92,1.92,0,0,0-1.27-.37l-.38,0v-.67a2,2,0,0,0,1.46-.4,1.46,1.46,0,0,0,.39-1.08,1.09,1.09,0,0,0-.3-.8,1,1,0,0,0-.77-.3,1.93,1.93,0,0,0-1.37.55l-.5-.5a2.47,2.47,0,0,1,1.86-.77,2,2,0,0,1,1.42.51,1.79,1.79,0,0,1,.52,1.35,1.91,1.91,0,0,1-.3,1.07,1.58,1.58,0,0,1-.87.63A2.21,2.21,0,0,1,123.24,147.57Zm-3.37,1.81,0,0,0,0C119.86,149.39,119.85,149.37,119.87,149.38Zm.12.07-.07,0,0-.06.06.06A0,0,0,0,1,120,149.45Z"/><path d="M129.52,151.9h-3.45v-.68h2.68v-7.71h-2.67v-.72h3.44Z"/><path d="M131.27,152.43l-.42-.31a2.49,2.49,0,0,0,.55-1.48v-.91h.69v.73A2.56,2.56,0,0,1,131.27,152.43Z"/><path d="M137.29,151.9v-9.11h3.43v.72h-2.67v7.71h2.68v.68Z"/><path d="M142.59,150.16l1-1c.65-.65,1.14-1.16,1.46-1.53a5.6,5.6,0,0,0,.77-1.09,2.36,2.36,0,0,0,.29-1.14,1.33,1.33,0,0,0-.35-1,1.26,1.26,0,0,0-.92-.33,2.05,2.05,0,0,0-.95.23,1.32,1.32,0,0,0-.59.5c0,.09-.09.18-.14.27a.62.62,0,0,0-.07.17h0l.05,0s0,0,0,0l0,.07-.11-.06-.61-.48a2.68,2.68,0,0,1,1-1.07,2.71,2.71,0,0,1,1.41-.38,2.1,2.1,0,0,1,1.55.58,2,2,0,0,1,.6,1.56,2.74,2.74,0,0,1-.32,1.26,5.68,5.68,0,0,1-.79,1.16c-.33.37-.78.84-1.35,1.4l-.82.83h2.79l.28,0a.39.39,0,0,0,.16-.1H147v.85h-4.39Z"/><path d="M150.47,150.83v-6.44l-1.51.44-.19-.46,2-1h.58v7.48Z"/><path d="M158.73,151.9h-3.44v-.68H158v-7.71H155.3v-.72h3.43Z"/><path d="M25.58,165.52H27.7a3,3,0,0,1,1.87.49,1.6,1.6,0,0,1,.61,1.33,1.83,1.83,0,0,1-.29,1,1.55,1.55,0,0,1-.81.64,2.11,2.11,0,0,1,1,.75,1.93,1.93,0,0,1,.39,1.16,1.86,1.86,0,0,1-.69,1.54,3.35,3.35,0,0,1-2.1.56H25.58Zm2,3.1c1.18,0,1.76-.4,1.76-1.19a1.08,1.08,0,0,0-.39-.87,1.93,1.93,0,0,0-1.24-.33H26.4v2.39Zm.25,3.65c1.18,0,1.77-.47,1.77-1.42s-.66-1.52-2-1.52H26.4v2.94Z"/><path d="M32.69,172.74a2.53,2.53,0,0,1-.9-1,3.35,3.35,0,0,1-.32-1.48,3.31,3.31,0,0,1,.32-1.47,2.56,2.56,0,0,1,.9-1,2.56,2.56,0,0,1,2.62,0,2.56,2.56,0,0,1,.9,1,3.31,3.31,0,0,1,.32,1.47,3.35,3.35,0,0,1-.32,1.48,2.53,2.53,0,0,1-.9,1,2.56,2.56,0,0,1-2.62,0Zm2.14-.64a1.8,1.8,0,0,0,.58-.76,2.77,2.77,0,0,0,.21-1.1,2.42,2.42,0,0,0-.46-1.53,1.44,1.44,0,0,0-2.32,0,2.42,2.42,0,0,0-.46,1.53,2.77,2.77,0,0,0,.21,1.1,1.8,1.8,0,0,0,.58.76,1.37,1.37,0,0,0,1.66,0Z"/><path d="M38.69,172.74a2.53,2.53,0,0,1-.9-1,3.35,3.35,0,0,1-.32-1.48,3.31,3.31,0,0,1,.32-1.47,2.56,2.56,0,0,1,.9-1,2.56,2.56,0,0,1,2.62,0,2.56,2.56,0,0,1,.9,1,3.31,3.31,0,0,1,.32,1.47,3.35,3.35,0,0,1-.32,1.48,2.53,2.53,0,0,1-.9,1,2.56,2.56,0,0,1-2.62,0Zm2.14-.64a1.8,1.8,0,0,0,.58-.76,2.77,2.77,0,0,0,.21-1.1,2.42,2.42,0,0,0-.46-1.53,1.44,1.44,0,0,0-2.32,0,2.42,2.42,0,0,0-.46,1.53,2.77,2.77,0,0,0,.21,1.1,1.8,1.8,0,0,0,.58.76,1.37,1.37,0,0,0,1.66,0Z"/><path d="M44,173v-.7h1.62v-6.58H44V165h2.42v7.28h1.61v.7Z"/><path d="M91,172.5v-6.73H88.87V165h5.19v.76H91.85v6.73Z"/><path d="M99.61,168.16h0a2.17,2.17,0,0,0-.58-.43,1.2,1.2,0,0,0-.55-.11,1.6,1.6,0,0,0-1.44.87,2.27,2.27,0,0,0-.24,1.1v2.91h-.87V167h.9l0,1a1.83,1.83,0,0,1,.71-.84,1.88,1.88,0,0,1,1-.3,2,2,0,0,1,1.46.6Zm-.13,0s0,0,0,0l.07,0,0,.06-.08,0Zm.17,0-.06,0,0,0C99.67,168.22,99.68,168.24,99.65,168.23Z"/><path d="M101.77,172a3,3,0,0,1-.5-1.91V167h.84v3.06a2.32,2.32,0,0,0,.34,1.42,1.1,1.1,0,0,0,.91.44,1.38,1.38,0,0,0,1-.49,2.08,2.08,0,0,0,.42-1.41v-3h.84v4.63c0,.19,0,.35,0,.47a1.34,1.34,0,0,0,.1.38H105a1.21,1.21,0,0,1-.11-.37c0-.13,0-.29,0-.47a2,2,0,0,1-.72.71,1.88,1.88,0,0,1-1,.26A1.69,1.69,0,0,1,101.77,172Z"/><path d="M107.81,171.88a2.91,2.91,0,0,1-.72-2.1,3.45,3.45,0,0,1,.33-1.56,2.41,2.41,0,0,1,2.19-1.34,2.1,2.1,0,0,1,1.61.66,2.77,2.77,0,0,1,.62,2c0,.09,0,.22,0,.39h-3.9a2.25,2.25,0,0,0,.56,1.53,1.78,1.78,0,0,0,1.31.51,1.8,1.8,0,0,0,1.41-.61l.48.47a2.35,2.35,0,0,1-1.92.84A2.64,2.64,0,0,1,107.81,171.88Zm3.15-2.67a1.81,1.81,0,0,0-.39-1.22,1.29,1.29,0,0,0-1-.45,1.49,1.49,0,0,0-1,.42,2,2,0,0,0-.55,1.25Z"/><path d="M113.29,174.2l-.62-.42a2.76,2.76,0,0,0,.57-1.58v-1h1.06v.85a2.57,2.57,0,0,1-.29,1.18A2.81,2.81,0,0,1,113.29,174.2Z"/><path d="M118.76,172.5V165h4.31v.73H119.6v2.36h2.8v.73h-2.8v3.67Z"/><path d="M128.55,167.51a2.86,2.86,0,0,1,.62,2.07v2.92h-.94v-.84a1.91,1.91,0,0,1-1.87,1,2.25,2.25,0,0,1-1.43-.41,1.36,1.36,0,0,1-.52-1.1,1.51,1.51,0,0,1,.38-1,2.25,2.25,0,0,1,1-.66,3.85,3.85,0,0,1,1.38-.24,11.4,11.4,0,0,1,1.24.07,1.91,1.91,0,0,0-.49-1.3,1.76,1.76,0,0,0-1.23-.38,2.09,2.09,0,0,0-.78.16,2.19,2.19,0,0,0-.69.46l-.42-.56a2.64,2.64,0,0,1,2-.76A2.44,2.44,0,0,1,128.55,167.51Zm-.7,3.94a2.23,2.23,0,0,0,.56-1.51,8.45,8.45,0,0,0-1.16-.08,2.91,2.91,0,0,0-1.44.3,1,1,0,0,0-.53.91c0,.6.39.9,1.16.9A1.9,1.9,0,0,0,127.85,171.45Z"/><path d="M130.77,172.5v-.7h1.62v-6.58h-1.54v-.7h2.42v7.28h1.61v.7Z"/><path d="M140.68,170a1.2,1.2,0,0,1,.43,1,1.52,1.52,0,0,1-.59,1.23,2.51,2.51,0,0,1-1.68.49,3.32,3.32,0,0,1-2.33-.86l.48-.82h0a3,3,0,0,0,.77.72,2.11,2.11,0,0,0,1.08.24,2,2,0,0,0,1-.23.73.73,0,0,0,.37-.65.69.69,0,0,0-.3-.57,4,4,0,0,0-1.08-.48c-1.37-.39-2.06-1-2.06-1.71a1.15,1.15,0,0,1,.52-1,2.56,2.56,0,0,1,1.5-.38,3.3,3.3,0,0,1,1.25.21,2.65,2.65,0,0,1,.93.66l-.49.6h0a1.73,1.73,0,0,0-.72-.61,2.27,2.27,0,0,0-.94-.22,1.78,1.78,0,0,0-.85.18.56.56,0,0,0-.33.51.72.72,0,0,0,.34.55,4,4,0,0,0,1.21.5A4.24,4.24,0,0,1,140.68,170Zm-3.7.92.05,0,0,0S137,170.87,137,170.87Zm.15,0s0,0-.1,0l0-.06.07,0Zm3.34-2.49,0,0-.06-.06S140.41,168.35,140.47,168.4Zm.07,0a0,0,0,0,1,0,0l0,0,0,0A.15.15,0,0,1,140.54,168.42Z"/><path d="M143.14,171.88a2.91,2.91,0,0,1-.73-2.1,3.45,3.45,0,0,1,.34-1.56,2.37,2.37,0,0,1,.91-1,2.4,2.4,0,0,1,1.27-.35,2.11,2.11,0,0,1,1.62.66,2.77,2.77,0,0,1,.62,2,3.61,3.61,0,0,1,0,.39h-3.9a2.2,2.2,0,0,0,.57,1.53,1.77,1.77,0,0,0,1.3.51,1.82,1.82,0,0,0,1.42-.61l.48.47a2.35,2.35,0,0,1-1.92.84A2.61,2.61,0,0,1,143.14,171.88Zm3.15-2.67a1.81,1.81,0,0,0-.39-1.22,1.29,1.29,0,0,0-1-.45,1.47,1.47,0,0,0-1,.42,2,2,0,0,0-.55,1.25Z"/><path d="M13.29,203.91h-4v3.48h4.59V208H8.58v-8.53h5.28v.61H9.3v3.22h4Z"/><path d="M17.23,204.23l1.71-2.57h.84l-2.15,3.11L19.87,208H19l-1.8-2.68L15.43,208h-.82l2.24-3.23-2.15-3.11h.82Z"/><path d="M25.08,208a3.28,3.28,0,0,1-.14-.88,2.46,2.46,0,0,1-.94.74,2.92,2.92,0,0,1-1.21.26,2.13,2.13,0,0,1-1.48-.51,1.78,1.78,0,0,1,.21-2.76,3.69,3.69,0,0,1,2.15-.54h1.27v-.72a1.39,1.39,0,0,0-.42-1.07,1.74,1.74,0,0,0-1.22-.39,1.93,1.93,0,0,0-1.22.38,1.11,1.11,0,0,0-.48.9h-.7a1.62,1.62,0,0,1,.7-1.31,2.72,2.72,0,0,1,1.73-.56,2.46,2.46,0,0,1,1.67.53,1.91,1.91,0,0,1,.63,1.48v3a3.65,3.65,0,0,0,.2,1.38V208Zm-2.2-.5a2.41,2.41,0,0,0,1.25-.34,2,2,0,0,0,.81-.91v-1.4H23.68a3.15,3.15,0,0,0-1.64.39,1.16,1.16,0,0,0-.59,1,1.1,1.1,0,0,0,.4.88A1.45,1.45,0,0,0,22.88,207.5Z"/><path d="M28.14,201.66l0,1a2.31,2.31,0,0,1,.87-.86,2.48,2.48,0,0,1,1.18-.29,1.77,1.77,0,0,1,1.9,1.23,2.48,2.48,0,0,1,.91-.91,2.55,2.55,0,0,1,1.25-.32c1.36,0,2.06.75,2.08,2.23V208h-.7v-4.18a1.89,1.89,0,0,0-.37-1.26,1.5,1.5,0,0,0-1.17-.41,1.89,1.89,0,0,0-1.28.49,1.73,1.73,0,0,0-.58,1.16V208h-.7v-4.23a1.75,1.75,0,0,0-.39-1.22,1.54,1.54,0,0,0-1.16-.4,1.75,1.75,0,0,0-1.13.38,2.2,2.2,0,0,0-.71,1.12V208h-.7v-6.34Z"/><path d="M43.24,204.89a3.82,3.82,0,0,1-.66,2.36,2.09,2.09,0,0,1-1.76.87,2.35,2.35,0,0,1-2-.92v3.24h-.7v-8.78h.65l0,.9a2.25,2.25,0,0,1,2-1,2.12,2.12,0,0,1,1.79.86,3.94,3.94,0,0,1,.65,2.39Zm-.71-.12a3.23,3.23,0,0,0-.49-1.91,1.63,1.63,0,0,0-1.39-.71,2,2,0,0,0-1.11.31,1.93,1.93,0,0,0-.71.91v3a1.89,1.89,0,0,0,.72.83,2.08,2.08,0,0,0,1.11.29,1.6,1.6,0,0,0,1.38-.71A3.55,3.55,0,0,0,42.53,204.77Z"/><path d="M45.57,208h-.7v-9h.7Z"/><path d="M49.93,208.12a2.7,2.7,0,0,1-2.47-1.51,3.4,3.4,0,0,1-.37-1.6v-.25a3.7,3.7,0,0,1,.36-1.65,2.82,2.82,0,0,1,1-1.15,2.45,2.45,0,0,1,1.37-.42,2.34,2.34,0,0,1,1.84.79,3.2,3.2,0,0,1,.67,2.15v.4H47.79V205a2.68,2.68,0,0,0,.62,1.8,2,2,0,0,0,1.55.72,2.26,2.26,0,0,0,1-.21,2.37,2.37,0,0,0,.78-.66l.44.34A2.59,2.59,0,0,1,49.93,208.12Zm-.13-6a1.74,1.74,0,0,0-1.33.58,2.72,2.72,0,0,0-.66,1.56h3.81v-.08a2.34,2.34,0,0,0-.53-1.49A1.6,1.6,0,0,0,49.8,202.14Z"/><path d="M57.69,200v1.62H59v.57H57.69v4.23a1.3,1.3,0,0,0,.19.79.72.72,0,0,0,.63.26,4.21,4.21,0,0,0,.57-.06l0,.57a2.42,2.42,0,0,1-.75.1,1.25,1.25,0,0,1-1-.42,2,2,0,0,1-.33-1.24v-4.23H55.82v-.57H57V200Z"/><path d="M62.46,207l1.85-5.33h.76l-2.71,7.42-.14.33a1.7,1.7,0,0,1-1.61,1.15,2.14,2.14,0,0,1-.54-.08v-.58l.37,0a1.28,1.28,0,0,0,.83-.25,1.8,1.8,0,0,0,.54-.88l.32-.85-2.4-6.29h.77Z"/><path d="M71.25,204.89a3.82,3.82,0,0,1-.66,2.36,2.07,2.07,0,0,1-1.75.87,2.36,2.36,0,0,1-2-.92v3.24h-.69v-8.78h.65l0,.9a2.25,2.25,0,0,1,2-1,2.11,2.11,0,0,1,1.78.86,3.94,3.94,0,0,1,.65,2.39Zm-.7-.12a3.23,3.23,0,0,0-.5-1.91,1.61,1.61,0,0,0-1.39-.71,1.84,1.84,0,0,0-1.82,1.22v3a1.89,1.89,0,0,0,.72.83,2.14,2.14,0,0,0,1.11.29,1.6,1.6,0,0,0,1.38-.71A3.54,3.54,0,0,0,70.55,204.77Z"/><path d="M75.26,208.12a2.78,2.78,0,0,1-1.46-.4,2.73,2.73,0,0,1-1-1.11,3.52,3.52,0,0,1-.36-1.6v-.25a3.7,3.7,0,0,1,.35-1.65,2.93,2.93,0,0,1,1-1.15,2.43,2.43,0,0,1,1.37-.42,2.3,2.3,0,0,1,1.83.79,3.2,3.2,0,0,1,.68,2.15v.4H73.11V205a2.68,2.68,0,0,0,.62,1.8,2,2,0,0,0,1.56.72,2.25,2.25,0,0,0,1-.21,2.19,2.19,0,0,0,.78-.66l.44.34A2.56,2.56,0,0,1,75.26,208.12Zm-.13-6a1.73,1.73,0,0,0-1.33.58,2.6,2.6,0,0,0-.66,1.56h3.8v-.08a2.34,2.34,0,0,0-.52-1.49A1.63,1.63,0,0,0,75.13,202.14Z"/><path d="M85.72,206.39a1,1,0,0,0-.42-.84,3.12,3.12,0,0,0-1.26-.49,5.83,5.83,0,0,1-1.31-.41,1.86,1.86,0,0,1-.7-.57,1.4,1.4,0,0,1-.22-.81,1.51,1.51,0,0,1,.63-1.24,2.54,2.54,0,0,1,1.6-.49,2.58,2.58,0,0,1,1.7.53,1.67,1.67,0,0,1,.64,1.37h-.7a1.13,1.13,0,0,0-.46-.93,1.83,1.83,0,0,0-1.18-.37,1.8,1.8,0,0,0-1.11.31.94.94,0,0,0-.42.8.87.87,0,0,0,.35.73,3.48,3.48,0,0,0,1.27.48,6.24,6.24,0,0,1,1.38.46,1.87,1.87,0,0,1,.69.6,1.49,1.49,0,0,1,.22.83,1.53,1.53,0,0,1-.65,1.29,2.75,2.75,0,0,1-1.69.48,2.81,2.81,0,0,1-1.79-.54,1.65,1.65,0,0,1-.69-1.36h.7a1.23,1.23,0,0,0,.52,1,2.11,2.11,0,0,0,1.26.35,2,2,0,0,0,1.19-.33A1,1,0,0,0,85.72,206.39Z"/><path d="M88,199.83a.52.52,0,0,1,.12-.34.48.48,0,0,1,.36-.13.48.48,0,0,1,.35.13.48.48,0,0,1,.13.34.44.44,0,0,1-.13.33.48.48,0,0,1-.35.13.43.43,0,0,1-.48-.46Zm.82,8.17h-.7v-6.34h.7Z"/><path d="M90.4,204.77a3.82,3.82,0,0,1,.66-2.36,2.13,2.13,0,0,1,1.79-.87,2.22,2.22,0,0,1,2,1l0-.91h.65v6.21a2.67,2.67,0,0,1-.68,1.94,2.46,2.46,0,0,1-1.86.72,2.78,2.78,0,0,1-1.26-.3,2.48,2.48,0,0,1-.95-.79l.39-.42a2.23,2.23,0,0,0,1.77.91,1.8,1.8,0,0,0,1.37-.51A2.07,2.07,0,0,0,94.8,208v-.8a2.26,2.26,0,0,1-2,.94,2.14,2.14,0,0,1-1.77-.88,3.88,3.88,0,0,1-.67-2.37Zm.71.12a3.37,3.37,0,0,0,.49,1.92,1.58,1.58,0,0,0,1.37.7,1.87,1.87,0,0,0,1.83-1.16V203.4a2,2,0,0,0-.7-.93,1.94,1.94,0,0,0-1.12-.32,1.56,1.56,0,0,0-1.37.7A3.49,3.49,0,0,0,91.11,204.89Z"/><path d="M98,201.66l0,1.08a2.61,2.61,0,0,1,.89-.89,2.39,2.39,0,0,1,1.18-.31,1.88,1.88,0,0,1,1.52.58,2.56,2.56,0,0,1,.5,1.72V208h-.69v-4.17a2,2,0,0,0-.36-1.26,1.42,1.42,0,0,0-1.14-.42,1.78,1.78,0,0,0-1.15.41,2.41,2.41,0,0,0-.74,1.1V208h-.7v-6.34Z"/><path d="M107.94,208a3.28,3.28,0,0,1-.14-.88,2.54,2.54,0,0,1-.94.74,2.92,2.92,0,0,1-1.21.26,2.13,2.13,0,0,1-1.48-.51,1.65,1.65,0,0,1-.56-1.29,1.69,1.69,0,0,1,.77-1.47,3.68,3.68,0,0,1,2.14-.54h1.27v-.72a1.39,1.39,0,0,0-.41-1.07,1.75,1.75,0,0,0-1.23-.39,1.92,1.92,0,0,0-1.21.38,1.11,1.11,0,0,0-.48.9h-.7a1.62,1.62,0,0,1,.7-1.31,2.72,2.72,0,0,1,1.73-.56,2.48,2.48,0,0,1,1.67.53,1.91,1.91,0,0,1,.63,1.48v3a3.65,3.65,0,0,0,.2,1.38V208Zm-2.21-.5a2.42,2.42,0,0,0,1.26-.34,2,2,0,0,0,.8-.91v-1.4h-1.25a3.12,3.12,0,0,0-1.64.39,1.16,1.16,0,0,0-.59,1,1.12,1.12,0,0,0,.39.88A1.49,1.49,0,0,0,105.73,207.5Z"/><path d="M111.45,200v1.62h1.31v.57h-1.31v4.23a1.3,1.3,0,0,0,.19.79.75.75,0,0,0,.64.26,4.54,4.54,0,0,0,.57-.06l0,.57a2.52,2.52,0,0,1-.75.1,1.23,1.23,0,0,1-1-.42,2,2,0,0,1-.33-1.24v-4.23h-1.17v-.57h1.17V200Z"/><path d="M118.29,207.2a2.28,2.28,0,0,1-2,.92,2,2,0,0,1-1.54-.59,2.6,2.6,0,0,1-.54-1.74v-4.13h.7v4c0,1.2.49,1.81,1.47,1.81a1.79,1.79,0,0,0,1.92-1.26v-4.59H119V208h-.68Z"/><path d="M123.74,202.26a2.45,2.45,0,0,0-.48,0,1.76,1.76,0,0,0-1.11.36,2,2,0,0,0-.64,1.07V208h-.7v-6.34h.68l0,1a1.86,1.86,0,0,1,1.78-1.13,1.21,1.21,0,0,1,.47.08Z"/><path d="M127.19,208.12a2.78,2.78,0,0,1-1.46-.4,2.73,2.73,0,0,1-1-1.11,3.52,3.52,0,0,1-.36-1.6v-.25a3.84,3.84,0,0,1,.35-1.65,2.93,2.93,0,0,1,1-1.15,2.43,2.43,0,0,1,1.37-.42,2.3,2.3,0,0,1,1.83.79,3.2,3.2,0,0,1,.68,2.15v.4H125V205a2.68,2.68,0,0,0,.62,1.8,2,2,0,0,0,1.56.72,2.25,2.25,0,0,0,1-.21,2.19,2.19,0,0,0,.78-.66l.44.34A2.56,2.56,0,0,1,127.19,208.12Zm-.13-6a1.73,1.73,0,0,0-1.33.58,2.72,2.72,0,0,0-.66,1.56h3.8v-.08a2.34,2.34,0,0,0-.52-1.49A1.63,1.63,0,0,0,127.06,202.14Z"/><path d="M134.73,206.39a1,1,0,0,0-.42-.84,3.12,3.12,0,0,0-1.26-.49,6,6,0,0,1-1.31-.41,1.82,1.82,0,0,1-.69-.57,1.41,1.41,0,0,1-.23-.81,1.51,1.51,0,0,1,.63-1.24,2.56,2.56,0,0,1,1.6-.49,2.63,2.63,0,0,1,1.71.53,1.7,1.7,0,0,1,.64,1.37h-.7a1.14,1.14,0,0,0-.47-.93,2.1,2.1,0,0,0-2.29-.06,1,1,0,0,0-.41.8.86.86,0,0,0,.34.73,3.55,3.55,0,0,0,1.28.48,6.64,6.64,0,0,1,1.38.46,1.92,1.92,0,0,1,.68.6,1.49,1.49,0,0,1,.22.83,1.52,1.52,0,0,1-.64,1.29,2.79,2.79,0,0,1-1.69.48,2.84,2.84,0,0,1-1.8-.54,1.65,1.65,0,0,1-.69-1.36h.7a1.23,1.23,0,0,0,.52,1,2.12,2.12,0,0,0,1.27.35,2,2,0,0,0,1.18-.33A1,1,0,0,0,134.73,206.39Z"/><path d="M136.84,207.58a.49.49,0,0,1,.13-.35.46.46,0,0,1,.37-.14.48.48,0,0,1,.37.14.49.49,0,0,1,.13.35.47.47,0,0,1-.13.34.55.55,0,0,1-.37.13.54.54,0,0,1-.37-.13A.47.47,0,0,1,136.84,207.58Zm0-5.41a.54.54,0,0,1,.13-.35.56.56,0,0,1,.74,0,.49.49,0,0,1,.13.35.45.45,0,0,1-.13.34.59.59,0,0,1-.74,0A.49.49,0,0,1,136.85,202.17Z"/><path d="M42.92,233.06l.17.52.17-.52,2.86-7.7h.35l-3.19,8.53h-.39l-3.18-8.53h.34Z"/><path d="M51.5,233.89a4.27,4.27,0,0,1-.12-1.16,2.59,2.59,0,0,1-1,1,3.24,3.24,0,0,1-1.47.33,2.05,2.05,0,0,1-1.42-.48,1.57,1.57,0,0,1-.53-1.24,1.62,1.62,0,0,1,.78-1.4,3.84,3.84,0,0,1,2.1-.54h1.56v-.92a1.56,1.56,0,0,0-.5-1.24,2.11,2.11,0,0,0-1.43-.44,2.3,2.3,0,0,0-1.45.45,1.36,1.36,0,0,0-.58,1.1h-.31a1.58,1.58,0,0,1,.68-1.31,2.57,2.57,0,0,1,1.66-.54,2.45,2.45,0,0,1,1.63.51,1.83,1.83,0,0,1,.62,1.44v3a4.07,4.07,0,0,0,.16,1.42v0Zm-2.61-.2a2.9,2.9,0,0,0,1.53-.39,2.45,2.45,0,0,0,1-1.12v-1.51H49.92a3.42,3.42,0,0,0-2.08.54,1.33,1.33,0,0,0-.59,1.1,1.29,1.29,0,0,0,.46,1A1.72,1.72,0,0,0,48.89,233.69Z"/><path d="M54.13,233.89h-.32v-9h.32Z"/><path d="M60.46,233.89v-1a2,2,0,0,1-.82.83,2.7,2.7,0,0,1-1.37.31,1.9,1.9,0,0,1-1.55-.61,2.66,2.66,0,0,1-.53-1.76v-4.09h.31v4.1a2.35,2.35,0,0,0,.46,1.53,1.64,1.64,0,0,0,1.3.51,2.43,2.43,0,0,0,1.48-.42,2,2,0,0,0,.72-1.26v-4.46h.32v6.34Z"/><path d="M65.06,234a2.61,2.61,0,0,1-1.41-.41,2.94,2.94,0,0,1-1-1.14,3.52,3.52,0,0,1-.36-1.6v-.26a3.72,3.72,0,0,1,.35-1.61,2.79,2.79,0,0,1,1-1.14,2.32,2.32,0,0,1,1.34-.41,2.23,2.23,0,0,1,1.74.75,2.89,2.89,0,0,1,.67,2v.33H62.6v.35a3.29,3.29,0,0,0,.32,1.43,2.59,2.59,0,0,0,.9,1,2.2,2.2,0,0,0,1.24.37,2.58,2.58,0,0,0,1.09-.21,2.29,2.29,0,0,0,.79-.65l.22.16A2.39,2.39,0,0,1,65.06,234Zm-.12-6.26a2.06,2.06,0,0,0-1.57.69,2.92,2.92,0,0,0-.75,1.76H67v-.08a2.71,2.71,0,0,0-.27-1.2,2.1,2.1,0,0,0-.75-.86A2,2,0,0,0,64.94,227.75Z"/><path d="M114.85,225.29h-3.11v8.21h-.31v-8.21h-3.11V225h6.53Z"/><path d="M117.7,233l0-.12,2.19-5.73h.35l-2.83,7.44-.15.35a1.55,1.55,0,0,1-1.51,1.11,1.29,1.29,0,0,1-.47-.06v-.31a1.41,1.41,0,0,0,.43.05,1.2,1.2,0,0,0,.82-.28,2.34,2.34,0,0,0,.57-1l.39-1-2.53-6.3h.35Z"/><path d="M126.33,230.39a3.92,3.92,0,0,1-.63,2.35,2,2,0,0,1-1.74.88,2.7,2.7,0,0,1-1.29-.3,2.2,2.2,0,0,1-.88-.8v3.42h-.31v-8.78h.31v1.13a2.32,2.32,0,0,1,.89-.92,2.42,2.42,0,0,1,1.26-.33,2.08,2.08,0,0,1,1.76.86,3.93,3.93,0,0,1,.63,2.39Zm-.32-.12a3.68,3.68,0,0,0-.54-2.14,1.76,1.76,0,0,0-1.52-.77,2.23,2.23,0,0,0-1.35.41,2.29,2.29,0,0,0-.81,1.19v3a2.06,2.06,0,0,0,.81,1,2.46,2.46,0,0,0,1.36.36,1.74,1.74,0,0,0,1.51-.77A4,4,0,0,0,126,230.27Z"/><path d="M130.34,233.62a2.49,2.49,0,0,1-1.41-.42,2.77,2.77,0,0,1-1-1.13,3.52,3.52,0,0,1-.36-1.6v-.26a3.69,3.69,0,0,1,.35-1.61,2.81,2.81,0,0,1,1-1.15,2.38,2.38,0,0,1,1.34-.41,2.19,2.19,0,0,1,1.73.76,2.86,2.86,0,0,1,.68,2v.33h-4.75v.34a3.1,3.1,0,0,0,.32,1.43,2.62,2.62,0,0,0,.9,1,2.2,2.2,0,0,0,1.24.37,2.54,2.54,0,0,0,1.08-.21,2.16,2.16,0,0,0,.8-.66l.22.16A2.37,2.37,0,0,1,130.34,233.62Zm-.12-6.26a2.06,2.06,0,0,0-1.57.69,3,3,0,0,0-.76,1.75h4.42v-.07a2.71,2.71,0,0,0-.27-1.2,2,2,0,0,0-.75-.86A1.91,1.91,0,0,0,130.22,227.36Z"/><path d="M85.86,230.1a.66.66,0,0,1-.21-.48.65.65,0,0,1,.21-.49.67.67,0,0,1,.5-.21.69.69,0,0,1,.5.21.66.66,0,0,1,.22.49.72.72,0,0,1-.72.68A.69.69,0,0,1,85.86,230.1Zm0,3.83a.68.68,0,0,1,0-1,.67.67,0,0,1,.5-.21.69.69,0,0,1,.5.21.65.65,0,0,1,0,1,.73.73,0,0,1-.51.2A.69.69,0,0,1,85.85,233.93Z"/><path d="M91.86,230.1a.66.66,0,0,1-.21-.48.65.65,0,0,1,.21-.49.67.67,0,0,1,.5-.21.69.69,0,0,1,.5.21.66.66,0,0,1,.22.49.72.72,0,0,1-.72.68A.69.69,0,0,1,91.86,230.1Zm0,3.83a.68.68,0,0,1,0-1,.67.67,0,0,1,.5-.21.69.69,0,0,1,.5.21.65.65,0,0,1,0,1,.73.73,0,0,1-.51.2A.69.69,0,0,1,91.85,233.93Z"/><path d="M63.82,251.5v-1.84H60.58v-.61L64,244h.7v5h1v.71h-1v1.82ZM61.55,249h2.27v-3.44Z"/><path d="M86.36,247.6a.66.66,0,0,1-.21-.48.65.65,0,0,1,.21-.49.67.67,0,0,1,.5-.21.69.69,0,0,1,.5.21.66.66,0,0,1,.22.49.72.72,0,0,1-.72.68A.69.69,0,0,1,86.36,247.6Zm0,3.83a.68.68,0,0,1,0-1,.67.67,0,0,1,.5-.21.69.69,0,0,1,.5.21.65.65,0,0,1,0,1,.73.73,0,0,1-.51.2A.69.69,0,0,1,86.35,251.43Z"/><path d="M92.36,247.6a.66.66,0,0,1-.21-.48.65.65,0,0,1,.21-.49.67.67,0,0,1,.5-.21.69.69,0,0,1,.5.21.66.66,0,0,1,.22.49.72.72,0,0,1-.72.68A.69.69,0,0,1,92.36,247.6Zm0,3.83a.68.68,0,0,1,0-1,.67.67,0,0,1,.5-.21.69.69,0,0,1,.5.21.65.65,0,0,1,0,1,.73.73,0,0,1-.51.2A.69.69,0,0,1,92.35,251.43Z"/><path d="M109,251.5v-.71h1.48v-6.06h-1.39V244h3.7v.71h-1.47v6.07h1.55v.7Z"/><path d="M114.86,246h.84v1a2.54,2.54,0,0,1,.82-.81,2,2,0,0,1,1-.3,1.41,1.41,0,0,1,1.17.56,2.75,2.75,0,0,1,.44,1.74v3.32h-.84v-3.3a2.07,2.07,0,0,0-.27-1.19.87.87,0,0,0-.74-.37,1.49,1.49,0,0,0-.75.22,1.69,1.69,0,0,0-.62.6,1.67,1.67,0,0,0-.25.88v3.16h-.84Z"/><path d="M125.33,251a2.87,2.87,0,0,1-1.74.58,1.44,1.44,0,0,1-1.29-.55,3.3,3.3,0,0,1-.38-1.8c0-.13,0-.37,0-.71l.11-1.8h-1.21V246h1.26l.08-1.47,1-.15.12,0,0,.08a1.32,1.32,0,0,0-.13.2.57.57,0,0,0-.05.26L123,246h1.83v.7h-1.87l-.11,1.86c0,.32,0,.54,0,.64a2.57,2.57,0,0,0,.23,1.3.76.76,0,0,0,.71.34,1.59,1.59,0,0,0,.66-.13,3.6,3.6,0,0,0,.68-.42Z"/><path d="M37.19,265.81a1,1,0,0,1-.24-.71,3.49,3.49,0,0,1,1.27-2.26l.41.38a2.69,2.69,0,0,0-.55.66,1.14,1.14,0,0,0-.23.6.27.27,0,0,0,.07.18l.2.2a1.58,1.58,0,0,1,.26.26.47.47,0,0,1,.09.28.68.68,0,0,1-.2.49.7.7,0,0,1-.52.21A.73.73,0,0,1,37.19,265.81Zm2.48,0a1,1,0,0,1-.24-.71,3.53,3.53,0,0,1,1.27-2.26l.41.38a2.93,2.93,0,0,0-.55.66,1.23,1.23,0,0,0-.23.6.34.34,0,0,0,.07.18,1.37,1.37,0,0,0,.21.2,2.11,2.11,0,0,1,.26.26.47.47,0,0,1,.09.28.65.65,0,0,1-.21.49.68.68,0,0,1-.51.21A.73.73,0,0,1,39.67,265.81Z"/><path d="M42.79,263h1v.09a.3.3,0,0,0-.09.15,1.11,1.11,0,0,0,0,.29v6.23h3.6v.72H42.79Z"/><path d="M49.69,270.24a2.53,2.53,0,0,1-.9-1,3.35,3.35,0,0,1-.32-1.48,3.31,3.31,0,0,1,.32-1.47,2.56,2.56,0,0,1,.9-1,2.56,2.56,0,0,1,2.62,0,2.56,2.56,0,0,1,.9,1,3.31,3.31,0,0,1,.32,1.47,3.35,3.35,0,0,1-.32,1.48,2.53,2.53,0,0,1-.9,1,2.56,2.56,0,0,1-2.62,0Zm2.14-.64a1.8,1.8,0,0,0,.58-.76,2.77,2.77,0,0,0,.21-1.1,2.42,2.42,0,0,0-.46-1.53,1.44,1.44,0,0,0-2.32,0,2.42,2.42,0,0,0-.46,1.53,2.77,2.77,0,0,0,.21,1.1,1.8,1.8,0,0,0,.58.76,1.37,1.37,0,0,0,1.66,0Z"/><path d="M59.11,266.16h0a2.17,2.17,0,0,0-.58-.43,1.2,1.2,0,0,0-.55-.11,1.6,1.6,0,0,0-1.44.87,2.27,2.27,0,0,0-.24,1.1v2.91h-.87V265h.9l0,1a1.83,1.83,0,0,1,.71-.84,1.88,1.88,0,0,1,1-.3,2,2,0,0,1,1.46.6Zm-.13,0s0,0,0,0l.07,0,0,.06-.08,0Zm.17,0-.06,0,0,0C59.17,266.22,59.18,266.24,59.15,266.23Z"/><path d="M61.31,269.88a2.91,2.91,0,0,1-.72-2.1,3.45,3.45,0,0,1,.33-1.56,2.41,2.41,0,0,1,2.19-1.34,2.1,2.1,0,0,1,1.61.66,2.77,2.77,0,0,1,.62,1.95c0,.09,0,.22,0,.39h-3.9a2.25,2.25,0,0,0,.56,1.53,1.78,1.78,0,0,0,1.31.51,1.8,1.8,0,0,0,1.41-.61l.48.47a2.35,2.35,0,0,1-1.92.84A2.64,2.64,0,0,1,61.31,269.88Zm3.15-2.67a1.81,1.81,0,0,0-.39-1.22,1.29,1.29,0,0,0-1-.45,1.49,1.49,0,0,0-1,.42,2,2,0,0,0-.55,1.25Z"/><path d="M66.46,265h.79v.54a1.53,1.53,0,0,1,.49-.49,1.21,1.21,0,0,1,.62-.19,1,1,0,0,1,.63.23,1,1,0,0,1,.35.58,1.2,1.2,0,0,1,.49-.58,1.3,1.3,0,0,1,.74-.23.92.92,0,0,1,.81.39,1.68,1.68,0,0,1,.25,1v4.21h-.79v-3.89a1.89,1.89,0,0,0-.14-.89.42.42,0,0,0-.38-.2.63.63,0,0,0-.42.2,1.41,1.41,0,0,0-.33.53,1.77,1.77,0,0,0-.13.63v3.62h-.8v-3.82a2,2,0,0,0-.13-.9.48.48,0,0,0-.47-.24.59.59,0,0,0-.37.17,1.18,1.18,0,0,0-.3.45,1.79,1.79,0,0,0-.12.68v3.66h-.79Z"/><path d="M74.42,263.13a1,1,0,0,1,.24.71,3.49,3.49,0,0,1-1.27,2.26l-.41-.38a3,3,0,0,0,.56-.66,1.2,1.2,0,0,0,.22-.6.27.27,0,0,0-.07-.18,1.25,1.25,0,0,0-.2-.2,2.11,2.11,0,0,1-.26-.26.47.47,0,0,1-.09-.28.68.68,0,0,1,.2-.49.7.7,0,0,1,.52-.21A.71.71,0,0,1,74.42,263.13Zm2.49,0a1,1,0,0,1,.24.71,3.53,3.53,0,0,1-1.27,2.26l-.41-.38a2.93,2.93,0,0,0,.55-.66,1.23,1.23,0,0,0,.23-.6.34.34,0,0,0-.07-.18,1.37,1.37,0,0,0-.21-.2,2.11,2.11,0,0,1-.26-.26.47.47,0,0,1-.09-.28.65.65,0,0,1,.21-.49.68.68,0,0,1,.51-.21A.73.73,0,0,1,76.91,263.13Z"/><path d="M86.36,266.6a.66.66,0,0,1-.21-.48.65.65,0,0,1,.21-.49.67.67,0,0,1,.5-.21.69.69,0,0,1,.5.21.66.66,0,0,1,.22.49.72.72,0,0,1-.72.68A.69.69,0,0,1,86.36,266.6Zm0,3.83a.68.68,0,0,1,0-1,.67.67,0,0,1,.5-.21.69.69,0,0,1,.5.21.65.65,0,0,1,0,1,.73.73,0,0,1-.51.2A.69.69,0,0,1,86.35,270.43Z"/><path d="M92.36,266.6a.66.66,0,0,1-.21-.48.65.65,0,0,1,.21-.49.67.67,0,0,1,.5-.21.69.69,0,0,1,.5.21.66.66,0,0,1,.22.49.72.72,0,0,1-.72.68A.69.69,0,0,1,92.36,266.6Zm0,3.83a.68.68,0,0,1,0-1,.67.67,0,0,1,.5-.21.69.69,0,0,1,.5.21.65.65,0,0,1,0,1,.73.73,0,0,1-.51.2A.69.69,0,0,1,92.35,270.43Z"/><path d="M112.64,266.82l.41.46a1.76,1.76,0,0,1,.41,1.18,2.08,2.08,0,0,1-1.1,1.85,2.84,2.84,0,0,1-1.4.31,3.09,3.09,0,0,1-2.34-.95l.44-.75v0a2.46,2.46,0,0,0,.83.69,2.62,2.62,0,0,0,1.18.25,1.67,1.67,0,0,0,1.11-.37,1.16,1.16,0,0,0,.44-.91,1,1,0,0,0-.14-.58,1.37,1.37,0,0,0-.49-.46,6.66,6.66,0,0,0-1.08-.54,3.91,3.91,0,0,1-1.58-1,1.84,1.84,0,0,1-.48-1.23,1.67,1.67,0,0,1,.62-1.35,2.55,2.55,0,0,1,1.66-.5,2.79,2.79,0,0,1,1.15.24,2.9,2.9,0,0,1,.93.69l-.47.63h0a2,2,0,0,0-.75-.68,2.19,2.19,0,0,0-1-.2,1.36,1.36,0,0,0-.93.32,1,1,0,0,0-.35.78,1.16,1.16,0,0,0,.15.6,1.67,1.67,0,0,0,.54.51,8.25,8.25,0,0,0,1.16.54Zm-3.56,2,0,0C109,268.84,109,268.82,109.08,268.86Zm.11,0s0,0,0,0l-.06,0,0-.05.09.05Zm3.42-4.35s0,0,0,0l.06,0,0,0-.07,0Zm.16.05,0,0,0,0C112.79,264.56,112.8,264.59,112.77,264.57Z"/><path d="M119.33,270a2.87,2.87,0,0,1-1.74.58,1.44,1.44,0,0,1-1.29-.55,3.3,3.3,0,0,1-.38-1.8c0-.13,0-.37,0-.71l.11-1.8h-1.21V265h1.26l.08-1.47,1-.15.12,0,0,.08a1.32,1.32,0,0,0-.13.2.57.57,0,0,0-.05.26L117,265h1.83v.7h-1.87l-.11,1.86c0,.32,0,.54,0,.64a2.57,2.57,0,0,0,.23,1.3.76.76,0,0,0,.71.34,1.59,1.59,0,0,0,.66-.13,3.6,3.6,0,0,0,.68-.42Z"/><path d="M125.11,266.16h0a2.17,2.17,0,0,0-.58-.43,1.2,1.2,0,0,0-.55-.11,1.6,1.6,0,0,0-1.44.87,2.27,2.27,0,0,0-.24,1.1v2.91h-.87V265h.9l0,1a1.83,1.83,0,0,1,.71-.84,1.88,1.88,0,0,1,1-.3,2,2,0,0,1,1.46.6Zm-.13,0s0,0,0,0l.07,0,0,.06-.08,0Zm.17,0-.06,0,0,0C125.17,266.22,125.18,266.24,125.15,266.23Z"/><path d="M127.2,270.5v-.7h1.4v-4.09h-1.33V265h2.2v4.78h1.28v.7Zm1.36-6.82a.58.58,0,0,1-.18-.43.6.6,0,0,1,.17-.44.59.59,0,0,1,.44-.18.61.61,0,0,1,.62.62.58.58,0,0,1-.18.43.62.62,0,0,1-.44.18A.58.58,0,0,1,128.56,263.68Z"/><path d="M132.86,265h.84v1a2.54,2.54,0,0,1,.82-.81,2,2,0,0,1,1-.3,1.41,1.41,0,0,1,1.17.56,2.75,2.75,0,0,1,.44,1.74v3.32h-.84v-3.3a2.07,2.07,0,0,0-.27-1.19.87.87,0,0,0-.74-.37,1.49,1.49,0,0,0-.75.22,1.69,1.69,0,0,0-.62.6,1.67,1.67,0,0,0-.25.88v3.16h-.84Z"/><path d="M143.39,265.57a1.67,1.67,0,0,0-1,.25,2,2,0,0,1,.2.9,2.11,2.11,0,0,1-.23,1,1.78,1.78,0,0,1-.67.69,2,2,0,0,1-1,.25,2.19,2.19,0,0,1-.85-.17.87.87,0,0,0-.22.51c0,.19.13.33.37.41a4.69,4.69,0,0,0,1.31.13,2.55,2.55,0,0,1,1.59.35,1.26,1.26,0,0,1,.43,1,1.46,1.46,0,0,1-.58,1.18,2.77,2.77,0,0,1-1.8.47,3.93,3.93,0,0,1-1.84-.36,1.14,1.14,0,0,1-.66-1.05,1.2,1.2,0,0,1,.24-.75,1.74,1.74,0,0,1,.61-.49.82.82,0,0,1-.4-.73,1.56,1.56,0,0,1,.49-1,1.66,1.66,0,0,1-.45-.63,2,2,0,0,1-.16-.82,2,2,0,0,1,.24-1,1.71,1.71,0,0,1,.67-.69,2.07,2.07,0,0,1,1-.25,1.84,1.84,0,0,1,1.41.57,1.89,1.89,0,0,1,.59-.39,1.65,1.65,0,0,1,.68-.13h.2l.11.71Zm-.94,5a.65.65,0,0,0-.41-.24,3.94,3.94,0,0,0-.9-.08,5.17,5.17,0,0,1-1.38-.15,1.24,1.24,0,0,0-.4.39,1.2,1.2,0,0,0-.11.54.71.71,0,0,0,.45.64,3,3,0,0,0,1.28.23,2.31,2.31,0,0,0,1.18-.24.71.71,0,0,0,.39-.64A.94.94,0,0,0,142.45,270.59Zm-.88-3a1.23,1.23,0,0,0,0-1.7,1.16,1.16,0,0,0-.86-.35,1.2,1.2,0,1,0,0,2.4A1.16,1.16,0,0,0,141.57,267.57Z"/><path d="M37.57,292.57v-9.11H41v.72H38.34v7.7H41v.69Z"/><path d="M44.76,291.5v-6.44l-1.51.44-.19-.47L45,284h.59v7.49Z"/><path d="M50,293.16a3.55,3.55,0,0,0,.56-.68,1.17,1.17,0,0,0,.22-.58.24.24,0,0,0-.06-.18l-.22-.22a2.81,2.81,0,0,1-.25-.26.48.48,0,0,1-.08-.27.65.65,0,0,1,.2-.5.66.66,0,0,1,.51-.21.76.76,0,0,1,.57.29,1,1,0,0,1,.24.71,3.67,3.67,0,0,1-1.28,2.26Z"/><path d="M54.88,290.83l1-1c.65-.64,1.13-1.15,1.46-1.52a5.65,5.65,0,0,0,.77-1.1,2.4,2.4,0,0,0,.29-1.13A1.41,1.41,0,0,0,58,285a1.32,1.32,0,0,0-.92-.32,2,2,0,0,0-1,.23,1.34,1.34,0,0,0-.58.5c-.05.09-.1.18-.14.27l-.08.16h.06s0,0,.05,0l0,.07-.11-.06-.61-.48a2.63,2.63,0,0,1,1-1.08,2.66,2.66,0,0,1,1.4-.37,2.17,2.17,0,0,1,1.56.57,2.11,2.11,0,0,1,.59,1.56,2.73,2.73,0,0,1-.31,1.26,5.53,5.53,0,0,1-.8,1.17c-.32.36-.77.83-1.35,1.4l-.81.83h2.78a.94.94,0,0,0,.28,0,.26.26,0,0,0,.16-.09h.09v.85H54.88Z"/><path d="M62,293.16a3.55,3.55,0,0,0,.56-.68,1.17,1.17,0,0,0,.22-.58.24.24,0,0,0-.06-.18l-.22-.22a2.81,2.81,0,0,1-.25-.26.48.48,0,0,1-.08-.27.65.65,0,0,1,.2-.5.66.66,0,0,1,.51-.21.76.76,0,0,1,.57.29,1,1,0,0,1,.24.71,3.67,3.67,0,0,1-1.28,2.26Z"/><path d="M70.74,288.24a1.85,1.85,0,0,1,.38,1.21,2.29,2.29,0,0,1-.26,1.1,2,2,0,0,1-.77.79,2.41,2.41,0,0,1-1.21.29,3,3,0,0,1-1.13-.21,2.5,2.5,0,0,1-.92-.64l.55-.66h0a2.61,2.61,0,0,0,.62.59,1.56,1.56,0,0,0,.82.2,1.31,1.31,0,0,0,1.06-.41,1.58,1.58,0,0,0,.36-1.09,1.35,1.35,0,0,0-.45-1.11,1.92,1.92,0,0,0-1.27-.38l-.38,0v-.67a2.07,2.07,0,0,0,1.46-.4A1.46,1.46,0,0,0,70,285.8a1.07,1.07,0,0,0-.3-.8,1,1,0,0,0-.77-.3,1.93,1.93,0,0,0-1.37.55l-.5-.51a2.47,2.47,0,0,1,1.86-.76,2,2,0,0,1,1.42.51,1.79,1.79,0,0,1,.52,1.35,1.88,1.88,0,0,1-.3,1.06,1.55,1.55,0,0,1-.87.64A2.14,2.14,0,0,1,70.74,288.24Zm-3.37,1.81,0,0,0,0C67.36,290.05,67.35,290,67.37,290.05Zm.12.06a.09.09,0,0,1-.07,0l0-.06.06.06S67.51,290.12,67.49,290.11Z"/><path d="M77,292.57H73.57v-.69h2.68v-7.7H73.58v-.72H77Z"/><path d="M86.36,287.6a.66.66,0,0,1-.21-.48.65.65,0,0,1,.21-.49.67.67,0,0,1,.5-.21.69.69,0,0,1,.5.21.66.66,0,0,1,.22.49.72.72,0,0,1-.72.68A.69.69,0,0,1,86.36,287.6Zm0,3.83a.68.68,0,0,1,0-1,.67.67,0,0,1,.5-.21.69.69,0,0,1,.5.21.65.65,0,0,1,0,1,.73.73,0,0,1-.51.2A.69.69,0,0,1,86.35,291.43Z"/><path d="M92.36,287.6a.66.66,0,0,1-.21-.48.65.65,0,0,1,.21-.49.67.67,0,0,1,.5-.21.69.69,0,0,1,.5.21.66.66,0,0,1,.22.49.72.72,0,0,1-.72.68A.69.69,0,0,1,92.36,287.6Zm0,3.83a.68.68,0,0,1,0-1,.67.67,0,0,1,.5-.21.69.69,0,0,1,.5.21.65.65,0,0,1,0,1,.73.73,0,0,1-.51.2A.69.69,0,0,1,92.35,291.43Z"/><path d="M109.57,292.57v-9.11H113v.72h-2.66v7.7H113v.69Z"/><path d="M115,291.5v-.71h1.48v-6.06h-1.39V284h3.7v.71h-1.47v6.07h1.55v.7Z"/><path d="M120.86,286h.84v1a2.54,2.54,0,0,1,.82-.81,2,2,0,0,1,1-.3,1.41,1.41,0,0,1,1.17.56,2.75,2.75,0,0,1,.44,1.74v3.32h-.84v-3.3a2.07,2.07,0,0,0-.27-1.19.87.87,0,0,0-.74-.37,1.49,1.49,0,0,0-.75.22,1.69,1.69,0,0,0-.62.6,1.67,1.67,0,0,0-.25.88v3.16h-.84Z"/><path d="M131.33,291a2.87,2.87,0,0,1-1.74.58,1.44,1.44,0,0,1-1.29-.55,3.3,3.3,0,0,1-.38-1.8c0-.13,0-.37,0-.71l.11-1.8h-1.21V286h1.26l.08-1.47,1-.15.12,0,0,.08a1.32,1.32,0,0,0-.13.2.57.57,0,0,0-.05.26L129,286h1.83v.7h-1.87l-.11,1.86c0,.32,0,.54,0,.64a2.57,2.57,0,0,0,.23,1.3.76.76,0,0,0,.71.34,1.59,1.59,0,0,0,.66-.13,3.6,3.6,0,0,0,.68-.42Z"/><path d="M137,292.57h-3.45v-.69h2.68v-7.7h-2.67v-.72H137Z"/><path d="M13.79,64.91h-4v3.48h4.59V69H9.08V60.47h5.28v.61H9.8V64.3h4Z"/><path d="M17.73,65.23l1.71-2.57h.84l-2.15,3.11L20.37,69h-.83l-1.8-2.68L15.93,69h-.82l2.24-3.23L15.2,62.66H16Z"/><path d="M25.58,69a3.28,3.28,0,0,1-.14-.88,2.46,2.46,0,0,1-.94.74,2.92,2.92,0,0,1-1.21.26,2.13,2.13,0,0,1-1.48-.51A1.78,1.78,0,0,1,22,65.85a3.69,3.69,0,0,1,2.15-.54h1.27v-.72A1.39,1.39,0,0,0,25,63.52a1.74,1.74,0,0,0-1.22-.39,1.93,1.93,0,0,0-1.22.38,1.11,1.11,0,0,0-.48.9h-.7a1.62,1.62,0,0,1,.7-1.31,2.72,2.72,0,0,1,1.73-.56,2.46,2.46,0,0,1,1.67.53,1.91,1.91,0,0,1,.63,1.48v3a3.65,3.65,0,0,0,.2,1.38V69Zm-2.2-.5a2.41,2.41,0,0,0,1.25-.34,2,2,0,0,0,.81-.91v-1.4H24.18a3.15,3.15,0,0,0-1.64.39,1.16,1.16,0,0,0-.59,1,1.1,1.1,0,0,0,.4.88A1.45,1.45,0,0,0,23.38,68.5Z"/><path d="M28.64,62.66l0,1a2.31,2.31,0,0,1,.87-.86,2.48,2.48,0,0,1,1.18-.29,1.77,1.77,0,0,1,1.9,1.23,2.48,2.48,0,0,1,.91-.91,2.55,2.55,0,0,1,1.25-.32c1.36,0,2.06.75,2.08,2.23V69h-.7V64.82a1.89,1.89,0,0,0-.37-1.26,1.5,1.5,0,0,0-1.17-.41,1.89,1.89,0,0,0-1.28.49,1.73,1.73,0,0,0-.58,1.16V69h-.7V64.77a1.75,1.75,0,0,0-.39-1.22,1.54,1.54,0,0,0-1.16-.4,1.75,1.75,0,0,0-1.13.38,2.2,2.2,0,0,0-.71,1.12V69H28V62.66Z"/><path d="M43.74,65.89a3.82,3.82,0,0,1-.66,2.36,2.09,2.09,0,0,1-1.76.87,2.35,2.35,0,0,1-2-.92v3.24h-.7V62.66h.65l0,.9a2.25,2.25,0,0,1,2-1,2.12,2.12,0,0,1,1.79.86,3.94,3.94,0,0,1,.65,2.39ZM43,65.77a3.23,3.23,0,0,0-.49-1.91,1.63,1.63,0,0,0-1.39-.71,2,2,0,0,0-1.11.31,1.93,1.93,0,0,0-.71.91v3a1.89,1.89,0,0,0,.72.83,2.08,2.08,0,0,0,1.11.29,1.6,1.6,0,0,0,1.38-.71A3.55,3.55,0,0,0,43,65.77Z"/><path d="M46.07,69h-.7V60h.7Z"/><path d="M50.43,69.12A2.7,2.7,0,0,1,48,67.61a3.4,3.4,0,0,1-.37-1.6v-.25A3.7,3.7,0,0,1,48,64.11a2.82,2.82,0,0,1,1-1.15,2.45,2.45,0,0,1,1.37-.42,2.34,2.34,0,0,1,1.84.79,3.2,3.2,0,0,1,.67,2.15v.4H48.29V66a2.68,2.68,0,0,0,.62,1.8,2,2,0,0,0,1.55.72,2.26,2.26,0,0,0,1-.21,2.37,2.37,0,0,0,.78-.66l.44.34A2.59,2.59,0,0,1,50.43,69.12Zm-.13-6a1.74,1.74,0,0,0-1.33.58,2.72,2.72,0,0,0-.66,1.56h3.81V65.2a2.34,2.34,0,0,0-.53-1.49A1.6,1.6,0,0,0,50.3,63.14Z"/><path d="M58.19,61v1.62H59.5v.57H58.19v4.23a1.3,1.3,0,0,0,.19.79.72.72,0,0,0,.63.26,4.21,4.21,0,0,0,.57-.06l0,.57a2.42,2.42,0,0,1-.75.1,1.25,1.25,0,0,1-1-.42,2,2,0,0,1-.33-1.24V63.23H56.32v-.57h1.16V61Z"/><path d="M63,68l1.85-5.33h.76l-2.71,7.42-.14.33a1.7,1.7,0,0,1-1.61,1.15,2.14,2.14,0,0,1-.54-.08V70.9l.37,0a1.28,1.28,0,0,0,.83-.25,1.8,1.8,0,0,0,.54-.88l.32-.85-2.4-6.29H61Z"/><path d="M71.75,65.89a3.82,3.82,0,0,1-.66,2.36,2.07,2.07,0,0,1-1.75.87,2.36,2.36,0,0,1-2-.92v3.24h-.69V62.66h.65l0,.9a2.25,2.25,0,0,1,2-1,2.11,2.11,0,0,1,1.78.86,3.94,3.94,0,0,1,.65,2.39Zm-.7-.12a3.23,3.23,0,0,0-.5-1.91,1.61,1.61,0,0,0-1.39-.71,1.84,1.84,0,0,0-1.82,1.22v3a1.89,1.89,0,0,0,.72.83,2.14,2.14,0,0,0,1.11.29,1.6,1.6,0,0,0,1.38-.71A3.54,3.54,0,0,0,71.05,65.77Z"/><path d="M75.76,69.12a2.78,2.78,0,0,1-1.46-.4,2.73,2.73,0,0,1-1-1.11,3.52,3.52,0,0,1-.36-1.6v-.25a3.7,3.7,0,0,1,.35-1.65,2.93,2.93,0,0,1,1-1.15,2.43,2.43,0,0,1,1.37-.42,2.3,2.3,0,0,1,1.83.79,3.2,3.2,0,0,1,.68,2.15v.4H73.61V66a2.68,2.68,0,0,0,.62,1.8,2,2,0,0,0,1.56.72,2.25,2.25,0,0,0,1-.21,2.19,2.19,0,0,0,.78-.66L78,68A2.56,2.56,0,0,1,75.76,69.12Zm-.13-6a1.73,1.73,0,0,0-1.33.58,2.6,2.6,0,0,0-.66,1.56h3.8V65.2a2.34,2.34,0,0,0-.52-1.49A1.63,1.63,0,0,0,75.63,63.14Z"/><path d="M83.3,67.39a1,1,0,0,0-.42-.84,3.12,3.12,0,0,0-1.26-.49,5.83,5.83,0,0,1-1.31-.41,1.82,1.82,0,0,1-.69-.57,1.41,1.41,0,0,1-.23-.81A1.51,1.51,0,0,1,80,63a2.56,2.56,0,0,1,1.6-.49,2.63,2.63,0,0,1,1.71.53A1.7,1.7,0,0,1,84,64.44h-.71a1.13,1.13,0,0,0-.46-.93,2.1,2.1,0,0,0-2.29-.06.94.94,0,0,0-.42.8.87.87,0,0,0,.35.73,3.48,3.48,0,0,0,1.27.48,6.56,6.56,0,0,1,1.39.46,1.92,1.92,0,0,1,.68.6,1.63,1.63,0,0,1-.43,2.12,2.75,2.75,0,0,1-1.69.48,2.83,2.83,0,0,1-1.79-.54,1.65,1.65,0,0,1-.69-1.36h.7a1.23,1.23,0,0,0,.52,1,2.11,2.11,0,0,0,1.26.35,2,2,0,0,0,1.19-.33A1,1,0,0,0,83.3,67.39Z"/><path d="M85.41,68.58a.49.49,0,0,1,.13-.35.46.46,0,0,1,.37-.14.48.48,0,0,1,.37.14.49.49,0,0,1,.13.35.47.47,0,0,1-.13.34.55.55,0,0,1-.37.13.54.54,0,0,1-.37-.13A.47.47,0,0,1,85.41,68.58Zm0-5.41a.49.49,0,0,1,.13-.35.5.5,0,0,1,.37-.14.51.51,0,0,1,.37.14.49.49,0,0,1,.13.35.45.45,0,0,1-.13.34.55.55,0,0,1-.37.13.54.54,0,0,1-.37-.13A.45.45,0,0,1,85.42,63.17Z"/><path d="M8.63,11.51h-4V15H9.23v.61H3.92V7.07H9.2v.61H4.64V10.9h4Z"/><path d="M12.4,14.63l1.93-5.37h.72L12.68,15.6h-.56L9.74,9.26h.72Z"/><path d="M18.58,15.72a2.78,2.78,0,0,1-1.46-.4,2.73,2.73,0,0,1-1-1.11,3.52,3.52,0,0,1-.36-1.6v-.25a3.7,3.7,0,0,1,.35-1.65,2.93,2.93,0,0,1,1-1.15,2.43,2.43,0,0,1,1.37-.42,2.3,2.3,0,0,1,1.83.79A3.2,3.2,0,0,1,21,12.08v.4H16.43v.13a2.68,2.68,0,0,0,.62,1.8,2,2,0,0,0,1.56.72,2.25,2.25,0,0,0,1-.21,2.09,2.09,0,0,0,.78-.66l.44.34A2.56,2.56,0,0,1,18.58,15.72Zm-.13-6a1.73,1.73,0,0,0-1.33.58,2.66,2.66,0,0,0-.66,1.56h3.8V11.8a2.29,2.29,0,0,0-.52-1.48A1.61,1.61,0,0,0,18.45,9.74Z"/><path d="M25.25,9.86a2.35,2.35,0,0,0-.47,0,1.72,1.72,0,0,0-1.11.36A2,2,0,0,0,23,11.25V15.6h-.7V9.26H23v1a1.87,1.87,0,0,1,1.79-1.13,1.15,1.15,0,0,1,.46.08Z"/><path d="M28.47,14.59l1.86-5.33h.75l-2.7,7.42-.15.33a1.69,1.69,0,0,1-1.61,1.15,2.28,2.28,0,0,1-.54-.08V17.5l.36,0a1.31,1.31,0,0,0,.84-.25,2,2,0,0,0,.54-.88l.31-.85L25.74,9.26h.77Z"/><path d="M37.06,14.63,39,9.26h.72L37.34,15.6h-.57L34.39,9.26h.72Z"/><path d="M44.77,15.6a3.28,3.28,0,0,1-.14-.88,2.46,2.46,0,0,1-.94.74,2.92,2.92,0,0,1-1.21.26A2.15,2.15,0,0,1,41,15.21a1.68,1.68,0,0,1-.56-1.29,1.71,1.71,0,0,1,.77-1.47,3.7,3.7,0,0,1,2.15-.53h1.27v-.73a1.36,1.36,0,0,0-.42-1.06A1.74,1.74,0,0,0,43,9.74a1.9,1.9,0,0,0-1.21.37,1.12,1.12,0,0,0-.49.9h-.7a1.64,1.64,0,0,1,.7-1.31A2.72,2.72,0,0,1,43,9.14a2.51,2.51,0,0,1,1.68.53,2,2,0,0,1,.63,1.48v3a3.69,3.69,0,0,0,.19,1.38v.07Zm-2.2-.5a2.39,2.39,0,0,0,1.25-.34,2,2,0,0,0,.81-.91v-1.4H43.38a3.19,3.19,0,0,0-1.65.39,1.16,1.16,0,0,0-.59,1,1.13,1.13,0,0,0,.4.89A1.49,1.49,0,0,0,42.57,15.1Z"/><path d="M48,15.6h-.7v-9H48Z"/><path d="M54,14.8a2.28,2.28,0,0,1-2,.92,2,2,0,0,1-1.54-.59,2.58,2.58,0,0,1-.54-1.74V9.26h.7v4c0,1.2.49,1.81,1.46,1.81A1.8,1.8,0,0,0,54,13.85V9.26h.7V15.6H54Z"/><path d="M58.93,15.72a2.73,2.73,0,0,1-2.48-1.51,3.52,3.52,0,0,1-.36-1.6v-.25a3.84,3.84,0,0,1,.35-1.65,2.93,2.93,0,0,1,1-1.15,2.43,2.43,0,0,1,1.37-.42,2.3,2.3,0,0,1,1.83.79,3.2,3.2,0,0,1,.68,2.15v.4H56.79v.13a2.63,2.63,0,0,0,.62,1.8,2,2,0,0,0,1.55.72,2.12,2.12,0,0,0,1.78-.87l.44.34A2.59,2.59,0,0,1,58.93,15.72Zm-.13-6a1.74,1.74,0,0,0-1.33.58,2.72,2.72,0,0,0-.66,1.56h3.8V11.8a2.29,2.29,0,0,0-.52-1.48A1.61,1.61,0,0,0,58.8,9.74Z"/><path d="M66.29,10.33a2.5,2.5,0,0,1,.89-.88,2.38,2.38,0,0,1,1.17-.31,1.88,1.88,0,0,1,1.52.58,2.61,2.61,0,0,1,.51,1.72V15.6h-.7V11.43a2,2,0,0,0-.36-1.26,1.42,1.42,0,0,0-1.14-.42,1.8,1.8,0,0,0-1.15.41,2.41,2.41,0,0,0-.74,1.1V15.6h-.7v-9h.7Z"/><path d="M76.18,15.6a3.35,3.35,0,0,1-.13-.88,2.54,2.54,0,0,1-.94.74,3,3,0,0,1-1.21.26,2.11,2.11,0,0,1-1.48-.51,1.66,1.66,0,0,1-.57-1.29,1.71,1.71,0,0,1,.77-1.47,3.72,3.72,0,0,1,2.15-.53H76v-.73a1.36,1.36,0,0,0-.42-1.06,1.72,1.72,0,0,0-1.22-.39,1.9,1.9,0,0,0-1.21.37,1.11,1.11,0,0,0-.48.9H72a1.63,1.63,0,0,1,.71-1.31,2.7,2.7,0,0,1,1.73-.56,2.5,2.5,0,0,1,1.67.53,1.91,1.91,0,0,1,.63,1.48v3a3.69,3.69,0,0,0,.19,1.38v.07ZM74,15.1a2.42,2.42,0,0,0,1.26-.34,2.07,2.07,0,0,0,.8-.91v-1.4H74.79a3.12,3.12,0,0,0-1.64.39,1.18,1.18,0,0,0-.2,1.91A1.51,1.51,0,0,0,74,15.1Z"/><path d="M82.4,14a1,1,0,0,0-.41-.84,3.26,3.26,0,0,0-1.27-.49,6,6,0,0,1-1.31-.41,1.82,1.82,0,0,1-.69-.57,1.4,1.4,0,0,1-.22-.81,1.53,1.53,0,0,1,.62-1.24,2.94,2.94,0,0,1,3.31,0A1.67,1.67,0,0,1,83.07,11h-.7a1.16,1.16,0,0,0-.47-.93,2.09,2.09,0,0,0-2.28-.06.94.94,0,0,0-.42.8.85.85,0,0,0,.35.73,3.41,3.41,0,0,0,1.27.48,6.43,6.43,0,0,1,1.38.46,1.76,1.76,0,0,1,.68.6,1.5,1.5,0,0,1,.23.83,1.53,1.53,0,0,1-.65,1.29,2.77,2.77,0,0,1-1.69.48,2.84,2.84,0,0,1-1.8-.54,1.64,1.64,0,0,1-.68-1.35H79a1.21,1.21,0,0,0,.52.95,2.11,2.11,0,0,0,1.26.35A1.94,1.94,0,0,0,82,14.8,1,1,0,0,0,82.4,14Z"/><path d="M91.6,15.6a3.35,3.35,0,0,1-.13-.88,2.54,2.54,0,0,1-.94.74,3,3,0,0,1-1.21.26,2.13,2.13,0,0,1-1.48-.51,1.66,1.66,0,0,1-.57-1.29A1.71,1.71,0,0,1,88,12.45a3.72,3.72,0,0,1,2.15-.53h1.27v-.73A1.36,1.36,0,0,0,91,10.13a1.72,1.72,0,0,0-1.22-.39,1.9,1.9,0,0,0-1.21.37,1.11,1.11,0,0,0-.48.9h-.7a1.62,1.62,0,0,1,.7-1.31,2.7,2.7,0,0,1,1.73-.56,2.5,2.5,0,0,1,1.67.53,1.91,1.91,0,0,1,.63,1.48v3a3.69,3.69,0,0,0,.19,1.38v.07Zm-2.2-.5a2.42,2.42,0,0,0,1.26-.34,2,2,0,0,0,.8-.91v-1.4H90.21a3.12,3.12,0,0,0-1.64.39,1.19,1.19,0,0,0-.2,1.91A1.53,1.53,0,0,0,89.4,15.1Z"/><path d="M98.76,7.64l-.28,1.62h1.27l-.1.57H98.38l-.71,4.24v.36c0,.42.2.64.59.65a2.63,2.63,0,0,0,.57,0l0,.58a2.82,2.82,0,0,1-.71.09,1,1,0,0,1-.89-.43A1.86,1.86,0,0,1,97,14.06l.7-4.23H96.54l.11-.57h1.12l.29-1.62Z"/><path d="M102.22,14.57l2.71-5.31h.78l-3.86,7.36a3.43,3.43,0,0,1-.91,1.21,1.65,1.65,0,0,1-1.06.35,3.12,3.12,0,0,1-.57-.1l.07-.57.36,0c.65,0,1.17-.36,1.55-1.16l.44-.88-1.22-6.25h.73Z"/><path d="M108.35,15.72a2.42,2.42,0,0,1-1-.23,1.73,1.73,0,0,1-.78-.69L106,18h-.69l1.53-8.78h.64l-.16.9a2.44,2.44,0,0,1,2.06-1,1.72,1.72,0,0,1,1.39.67,2.93,2.93,0,0,1,.52,1.81,5.53,5.53,0,0,1,0,.71l0,.17a5.2,5.2,0,0,1-.55,1.76,3,3,0,0,1-1,1.12A2.19,2.19,0,0,1,108.35,15.72Zm2.16-3.39,0-.55a2.5,2.5,0,0,0-.34-1.47,1.25,1.25,0,0,0-1.06-.56,2.16,2.16,0,0,0-1.12.3,2.65,2.65,0,0,0-.84.91l-.52,3a1.54,1.54,0,0,0,.59.82,1.75,1.75,0,0,0,1,.3,1.79,1.79,0,0,0,1.44-.63,3.75,3.75,0,0,0,.79-1.86Z"/><path d="M114.71,15.72a2.24,2.24,0,0,1-1.32-.43,2.33,2.33,0,0,1-.81-1.12,3.43,3.43,0,0,1-.19-1.54l0-.2a4.18,4.18,0,0,1,.52-1.67A3.3,3.3,0,0,1,114,9.54a2.67,2.67,0,0,1,1.45-.4,2,2,0,0,1,1.19.39,2.13,2.13,0,0,1,.72,1,3.76,3.76,0,0,1,.14,1.48l-.05.43H113.1l0,.14a2.94,2.94,0,0,0,.1,1.22,1.94,1.94,0,0,0,.59.93,1.64,1.64,0,0,0,1,.35,2,2,0,0,0,1-.22,3.05,3.05,0,0,0,.83-.62l.41.33a2.74,2.74,0,0,1-1,.84A2.9,2.9,0,0,1,114.71,15.72Zm.74-6a1.81,1.81,0,0,0-1.36.54,3.41,3.41,0,0,0-.91,1.6h3.68l0-.09a2,2,0,0,0-.3-1.43A1.32,1.32,0,0,0,115.45,9.74Z"/><path d="M118.85,15.18a.49.49,0,0,1,.13-.35.46.46,0,0,1,.37-.14.48.48,0,0,1,.37.14.49.49,0,0,1,.13.35.45.45,0,0,1-.13.34.55.55,0,0,1-.37.13.54.54,0,0,1-.37-.13A.45.45,0,0,1,118.85,15.18Z"/><path d="M126.44,13.3l.26,1.32.32-1.26,1.86-6.29h.65l1.82,6.29.32,1.27L132,13.3l1.54-6.23h.74L132,15.6h-.69l-1.93-6.67-.22-.85-.21.85-2,6.67h-.69l-2.18-8.53h.74Z"/><path d="M137.73,15.72a2.78,2.78,0,0,1-1.46-.4,2.73,2.73,0,0,1-1-1.11,3.52,3.52,0,0,1-.36-1.6v-.25a3.7,3.7,0,0,1,.35-1.65,2.93,2.93,0,0,1,1-1.15,2.43,2.43,0,0,1,1.37-.42,2.3,2.3,0,0,1,1.83.79,3.2,3.2,0,0,1,.68,2.15v.4h-4.53v.13a2.68,2.68,0,0,0,.62,1.8,2,2,0,0,0,1.56.72,2.25,2.25,0,0,0,1-.21,2.09,2.09,0,0,0,.78-.66l.44.34A2.56,2.56,0,0,1,137.73,15.72Zm-.13-6a1.73,1.73,0,0,0-1.33.58,2.72,2.72,0,0,0-.66,1.56h3.8V11.8a2.29,2.29,0,0,0-.52-1.48A1.61,1.61,0,0,0,137.6,9.74Z"/><path d="M146.73,15.13a1.84,1.84,0,0,0,1.23-.42,1.45,1.45,0,0,0,.54-1.07h.67a2,2,0,0,1-.36,1.06,2.25,2.25,0,0,1-.89.75,2.66,2.66,0,0,1-1.19.27,2.42,2.42,0,0,1-2-.87,3.48,3.48,0,0,1-.73-2.33v-.21a3.93,3.93,0,0,1,.33-1.66,2.45,2.45,0,0,1,.94-1.11,2.5,2.5,0,0,1,1.43-.4,2.47,2.47,0,0,1,1.72.62,2.28,2.28,0,0,1,.72,1.64h-.67a1.69,1.69,0,0,0-.54-1.2,1.71,1.71,0,0,0-1.23-.46,1.76,1.76,0,0,0-1.48.69,3.13,3.13,0,0,0-.52,1.92v.2a3.13,3.13,0,0,0,.52,1.9A1.78,1.78,0,0,0,146.73,15.13Z"/><path d="M154.57,15.6a3.35,3.35,0,0,1-.13-.88,2.54,2.54,0,0,1-.94.74,3,3,0,0,1-1.21.26,2.13,2.13,0,0,1-1.48-.51,1.66,1.66,0,0,1-.57-1.29,1.71,1.71,0,0,1,.77-1.47,3.72,3.72,0,0,1,2.15-.53h1.27v-.73a1.36,1.36,0,0,0-.42-1.06,1.7,1.7,0,0,0-1.22-.39,1.9,1.9,0,0,0-1.21.37,1.11,1.11,0,0,0-.48.9h-.7a1.62,1.62,0,0,1,.7-1.31,2.7,2.7,0,0,1,1.73-.56,2.48,2.48,0,0,1,1.67.53,1.91,1.91,0,0,1,.63,1.48v3a3.91,3.91,0,0,0,.19,1.38v.07Zm-2.2-.5a2.42,2.42,0,0,0,1.26-.34,2,2,0,0,0,.8-.91v-1.4h-1.25a3.12,3.12,0,0,0-1.64.39,1.19,1.19,0,0,0-.2,1.91A1.53,1.53,0,0,0,152.37,15.1Z"/><path d="M157.67,9.26l0,1.08a2.61,2.61,0,0,1,.89-.89,2.39,2.39,0,0,1,1.18-.31,1.88,1.88,0,0,1,1.52.58,2.56,2.56,0,0,1,.5,1.72V15.6h-.7V11.43a1.89,1.89,0,0,0-.36-1.26,1.39,1.39,0,0,0-1.13-.42,1.78,1.78,0,0,0-1.15.41,2.34,2.34,0,0,0-.74,1.1V15.6H157V9.26Z"/><path d="M7.55,28.39a1,1,0,0,0-.42-.84,3.27,3.27,0,0,0-1.26-.49,6,6,0,0,1-1.31-.41,1.82,1.82,0,0,1-.69-.57,1.41,1.41,0,0,1-.23-.81A1.51,1.51,0,0,1,4.27,24a2.57,2.57,0,0,1,1.61-.49,2.62,2.62,0,0,1,1.7.53,1.7,1.7,0,0,1,.64,1.37h-.7a1.14,1.14,0,0,0-.47-.93,1.8,1.8,0,0,0-1.17-.37,1.81,1.81,0,0,0-1.12.31.93.93,0,0,0-.41.8.86.86,0,0,0,.34.73A3.56,3.56,0,0,0,6,26.46a6.56,6.56,0,0,1,1.39.46,1.92,1.92,0,0,1,.68.6,1.49,1.49,0,0,1,.22.83,1.52,1.52,0,0,1-.64,1.29,2.79,2.79,0,0,1-1.69.48,2.84,2.84,0,0,1-1.8-.54,1.65,1.65,0,0,1-.69-1.35h.7a1.21,1.21,0,0,0,.52.95,2.12,2.12,0,0,0,1.27.35A2,2,0,0,0,7.1,29.2,1,1,0,0,0,7.55,28.39Z"/><path d="M12.29,30.12a2.84,2.84,0,0,1-1.47-.4,2.78,2.78,0,0,1-1-1.11A3.4,3.4,0,0,1,9.44,27v-.25a3.7,3.7,0,0,1,.36-1.65,2.77,2.77,0,0,1,1-1.15,2.41,2.41,0,0,1,1.37-.42,2.3,2.3,0,0,1,1.83.79,3.2,3.2,0,0,1,.67,2.15v.4H10.14V27a2.68,2.68,0,0,0,.62,1.8,2,2,0,0,0,1.55.72,2.26,2.26,0,0,0,1-.21,2.17,2.17,0,0,0,.78-.66l.44.34A2.57,2.57,0,0,1,12.29,30.12Zm-.13-6a1.75,1.75,0,0,0-1.34.58,2.72,2.72,0,0,0-.66,1.56H14V26.2a2.34,2.34,0,0,0-.52-1.48A1.61,1.61,0,0,0,12.16,24.14Z"/><path d="M18.48,30.12a2.83,2.83,0,0,1-1.46-.4,2.78,2.78,0,0,1-1-1.11,3.4,3.4,0,0,1-.37-1.6v-.25A3.7,3.7,0,0,1,16,25.11,2.82,2.82,0,0,1,17,24a2.46,2.46,0,0,1,1.38-.42,2.32,2.32,0,0,1,1.83.79,3.2,3.2,0,0,1,.67,2.15v.4H16.34V27a2.63,2.63,0,0,0,.62,1.8,2,2,0,0,0,1.55.72,2.08,2.08,0,0,0,1.78-.87l.44.34A2.59,2.59,0,0,1,18.48,30.12Zm-.12-6a1.75,1.75,0,0,0-1.34.58,2.72,2.72,0,0,0-.66,1.56h3.81V26.2a2.29,2.29,0,0,0-.53-1.48A1.57,1.57,0,0,0,18.36,24.14Z"/><path d="M26.24,22v1.62h1.31v.57H26.24v4.23a1.3,1.3,0,0,0,.19.79.73.73,0,0,0,.63.26,4.21,4.21,0,0,0,.57-.06l0,.57a2.42,2.42,0,0,1-.75.1,1.25,1.25,0,0,1-1.05-.42,2,2,0,0,1-.33-1.23V24.23H24.37v-.57h1.16V22Z"/><path d="M29.7,24.73a2.47,2.47,0,0,1,.88-.88,2.42,2.42,0,0,1,1.18-.31,1.88,1.88,0,0,1,1.52.58,2.56,2.56,0,0,1,.5,1.72V30h-.69V25.83a2,2,0,0,0-.37-1.26,1.39,1.39,0,0,0-1.13-.42,1.78,1.78,0,0,0-1.15.41,2.41,2.41,0,0,0-.74,1.1V30H29V21h.7Z"/><path d="M38,30.12a2.73,2.73,0,0,1-2.48-1.51A3.52,3.52,0,0,1,35.2,27v-.25a3.84,3.84,0,0,1,.35-1.65,2.93,2.93,0,0,1,1-1.15,2.43,2.43,0,0,1,1.37-.42,2.3,2.3,0,0,1,1.83.79,3.15,3.15,0,0,1,.68,2.15v.4H35.9V27a2.63,2.63,0,0,0,.62,1.8,2,2,0,0,0,1.55.72,2.12,2.12,0,0,0,1.78-.87l.44.34A2.59,2.59,0,0,1,38,30.12Zm-.13-6a1.74,1.74,0,0,0-1.33.58,2.72,2.72,0,0,0-.66,1.56h3.8V26.2a2.23,2.23,0,0,0-.52-1.48A1.58,1.58,0,0,0,37.91,24.14Z"/><path d="M45.58,28.39a1,1,0,0,0-.42-.84,3.27,3.27,0,0,0-1.26-.49,6,6,0,0,1-1.31-.41,1.82,1.82,0,0,1-.69-.57,1.4,1.4,0,0,1-.22-.81A1.5,1.5,0,0,1,42.3,24a2.94,2.94,0,0,1,3.31,0,1.67,1.67,0,0,1,.64,1.37h-.7a1.14,1.14,0,0,0-.47-.93,2.09,2.09,0,0,0-2.28-.06.94.94,0,0,0-.42.8.84.84,0,0,0,.35.73,3.41,3.41,0,0,0,1.27.48,6.64,6.64,0,0,1,1.38.46,1.76,1.76,0,0,1,.68.6,1.5,1.5,0,0,1,.23.83,1.53,1.53,0,0,1-.65,1.29,2.77,2.77,0,0,1-1.69.48,2.84,2.84,0,0,1-1.8-.54,1.65,1.65,0,0,1-.69-1.35h.71a1.21,1.21,0,0,0,.52.95,2.09,2.09,0,0,0,1.26.35,1.94,1.94,0,0,0,1.18-.33A1,1,0,0,0,45.58,28.39Z"/><path d="M50.32,30.12a2.78,2.78,0,0,1-1.46-.4,2.73,2.73,0,0,1-1-1.11,3.52,3.52,0,0,1-.36-1.6v-.25a3.7,3.7,0,0,1,.35-1.65,2.93,2.93,0,0,1,1-1.15,2.43,2.43,0,0,1,1.37-.42,2.3,2.3,0,0,1,1.83.79,3.2,3.2,0,0,1,.68,2.15v.4H48.17V27a2.68,2.68,0,0,0,.62,1.8,2,2,0,0,0,1.56.72,2.25,2.25,0,0,0,1-.21,2.09,2.09,0,0,0,.78-.66l.44.34A2.56,2.56,0,0,1,50.32,30.12Zm-.13-6a1.73,1.73,0,0,0-1.33.58,2.72,2.72,0,0,0-.66,1.56H52V26.2a2.29,2.29,0,0,0-.52-1.48A1.61,1.61,0,0,0,50.19,24.14Z"/><path d="M58.07,22v1.62h1.31v.57H58.07v4.23a1.3,1.3,0,0,0,.19.79.75.75,0,0,0,.64.26,4.26,4.26,0,0,0,.56-.06l0,.57a2.42,2.42,0,0,1-.75.1,1.22,1.22,0,0,1-1-.42,2,2,0,0,1-.33-1.23V24.23H56.2v-.57h1.17V22Z"/><path d="M62.85,29l1.85-5.33h.75l-2.7,7.42-.14.33A1.71,1.71,0,0,1,61,32.56a2.13,2.13,0,0,1-.53-.08V31.9l.36,0a1.31,1.31,0,0,0,.84-.25,2,2,0,0,0,.54-.88L62.5,30l-2.39-6.29h.77Z"/><path d="M71.63,26.9A3.81,3.81,0,0,1,71,29.25a2.09,2.09,0,0,1-1.76.87,2.34,2.34,0,0,1-2-.92v3.24h-.7V23.66h.65l0,.9a2.24,2.24,0,0,1,2-1A2.12,2.12,0,0,1,71,24.4a4,4,0,0,1,.64,2.4Zm-.7-.13a3.16,3.16,0,0,0-.5-1.91A1.6,1.6,0,0,0,69,24.15a2,2,0,0,0-1.1.31,1.93,1.93,0,0,0-.71.91v3a1.89,1.89,0,0,0,.72.83,2.08,2.08,0,0,0,1.11.29,1.6,1.6,0,0,0,1.38-.71A3.55,3.55,0,0,0,70.93,26.77Z"/><path d="M75.64,30.12a2.81,2.81,0,0,1-1.46-.4,2.88,2.88,0,0,1-1-1.11A3.52,3.52,0,0,1,72.8,27v-.25a3.7,3.7,0,0,1,.36-1.65,2.82,2.82,0,0,1,1-1.15,2.43,2.43,0,0,1,1.37-.42,2.3,2.3,0,0,1,1.83.79A3.15,3.15,0,0,1,78,26.48v.4H73.5V27a2.63,2.63,0,0,0,.62,1.8,2,2,0,0,0,1.55.72,2.08,2.08,0,0,0,1.78-.87l.44.34A2.59,2.59,0,0,1,75.64,30.12Zm-.13-6a1.74,1.74,0,0,0-1.33.58,2.72,2.72,0,0,0-.66,1.56h3.8V26.2a2.29,2.29,0,0,0-.52-1.48A1.61,1.61,0,0,0,75.51,24.14Z"/><path d="M83.18,28.39a1,1,0,0,0-.42-.84,3.2,3.2,0,0,0-1.26-.49,6,6,0,0,1-1.31-.41,1.82,1.82,0,0,1-.69-.57,1.4,1.4,0,0,1-.22-.81A1.5,1.5,0,0,1,79.9,24a2.94,2.94,0,0,1,3.31,0,1.67,1.67,0,0,1,.64,1.37h-.7a1.14,1.14,0,0,0-.47-.93,2.09,2.09,0,0,0-2.28-.06.94.94,0,0,0-.42.8.84.84,0,0,0,.35.73,3.41,3.41,0,0,0,1.27.48,6.64,6.64,0,0,1,1.38.46,1.76,1.76,0,0,1,.68.6,1.5,1.5,0,0,1,.23.83,1.53,1.53,0,0,1-.65,1.29,2.77,2.77,0,0,1-1.69.48,2.84,2.84,0,0,1-1.8-.54,1.65,1.65,0,0,1-.69-1.35h.71a1.18,1.18,0,0,0,.52.95,2.09,2.09,0,0,0,1.26.35,1.94,1.94,0,0,0,1.18-.33A1,1,0,0,0,83.18,28.39Z"/><path d="M93.48,26.9a3.81,3.81,0,0,1-.65,2.35,2.11,2.11,0,0,1-1.77.87,2.27,2.27,0,0,1-2-1L89,30h-.65V21h.69v3.58a2.22,2.22,0,0,1,2-1,2.12,2.12,0,0,1,1.78.86,3.84,3.84,0,0,1,.65,2.39Zm-.7-.13a3.24,3.24,0,0,0-.49-1.93,1.57,1.57,0,0,0-1.37-.69,1.92,1.92,0,0,0-1.14.33,2.05,2.05,0,0,0-.71,1v2.86a1.88,1.88,0,0,0,1.87,1.2,1.56,1.56,0,0,0,1.35-.69A3.48,3.48,0,0,0,92.78,26.77Z"/><path d="M97,29l1.85-5.33h.75l-2.7,7.42-.14.33a1.7,1.7,0,0,1-1.61,1.15,2.14,2.14,0,0,1-.54-.08V31.9l.36,0a1.29,1.29,0,0,0,.84-.25,2,2,0,0,0,.54-.88l.31-.85-2.39-6.29H95Z"/><path d="M104.37,30h-.7V21h.7Z"/><path d="M105.89,26.74a3.84,3.84,0,0,1,.35-1.65,2.67,2.67,0,0,1,1-1.14,2.7,2.7,0,0,1,1.46-.41,2.6,2.6,0,0,1,2.05.89,3.39,3.39,0,0,1,.79,2.35v.15a3.74,3.74,0,0,1-.36,1.66,2.6,2.6,0,0,1-1,1.13,2.8,2.8,0,0,1-1.48.4,2.59,2.59,0,0,1-2-.89,3.39,3.39,0,0,1-.79-2.35Zm.7.19a2.91,2.91,0,0,0,.59,1.87,2,2,0,0,0,3.08,0,3,3,0,0,0,.59-1.93v-.13a3.19,3.19,0,0,0-.27-1.33,2.15,2.15,0,0,0-.75-.94,2,2,0,0,0-1.12-.33,1.89,1.89,0,0,0-1.53.74,3,3,0,0,0-.59,1.92Z"/><path d="M112.61,26.74a3.84,3.84,0,0,1,.35-1.65A2.67,2.67,0,0,1,114,24a2.7,2.7,0,0,1,1.46-.41,2.6,2.6,0,0,1,2,.89,3.39,3.39,0,0,1,.79,2.35v.15a3.88,3.88,0,0,1-.35,1.66,2.69,2.69,0,0,1-1,1.13,2.79,2.79,0,0,1-1.47.4,2.61,2.61,0,0,1-2-.89,3.39,3.39,0,0,1-.79-2.35Zm.7.19a2.91,2.91,0,0,0,.59,1.87,1.91,1.91,0,0,0,1.55.73A1.89,1.89,0,0,0,117,28.8a3,3,0,0,0,.59-1.93v-.13a3.19,3.19,0,0,0-.27-1.33,2.15,2.15,0,0,0-.75-.94,2,2,0,0,0-1.12-.33,1.89,1.89,0,0,0-1.53.74,3,3,0,0,0-.59,1.92Z"/><path d="M121.22,26.81l-.8.77V30h-.7V21h.7v5.76l.66-.71,2.43-2.39h.88l-2.69,2.67L124.63,30h-.84Z"/><path d="M125.55,21.83a.53.53,0,0,1,.13-.34.46.46,0,0,1,.35-.13.45.45,0,0,1,.49.47.44.44,0,0,1-.13.33.49.49,0,0,1-.36.14.47.47,0,0,1-.35-.14A.49.49,0,0,1,125.55,21.83Zm.83,8.17h-.7V23.66h.7Z"/><path d="M129,23.66l0,1.08a2.55,2.55,0,0,1,.9-.89,2.32,2.32,0,0,1,1.17-.31,1.88,1.88,0,0,1,1.52.58,2.56,2.56,0,0,1,.5,1.72V30h-.69V25.83a2,2,0,0,0-.36-1.26,1.42,1.42,0,0,0-1.14-.42,1.8,1.8,0,0,0-1.15.41,2.41,2.41,0,0,0-.74,1.1V30h-.7V23.66Z"/><path d="M134.59,26.77a3.82,3.82,0,0,1,.66-2.36,2.13,2.13,0,0,1,1.79-.87,2.22,2.22,0,0,1,2,1l0-.91h.65v6.21a2.71,2.71,0,0,1-.68,1.94,2.46,2.46,0,0,1-1.86.72,2.78,2.78,0,0,1-1.26-.3,2.48,2.48,0,0,1-1-.79l.39-.42a2.23,2.23,0,0,0,1.77.91,1.8,1.8,0,0,0,1.37-.51A2.07,2.07,0,0,0,139,30v-.8a2.25,2.25,0,0,1-2,.94,2.14,2.14,0,0,1-1.77-.88,3.88,3.88,0,0,1-.67-2.37Zm.71.13a3.28,3.28,0,0,0,.49,1.91,1.58,1.58,0,0,0,1.37.7A1.88,1.88,0,0,0,139,28.35v-3a2,2,0,0,0-.7-.93,1.94,1.94,0,0,0-1.12-.32,1.59,1.59,0,0,0-1.38.7A3.58,3.58,0,0,0,135.3,26.9Z"/><path d="M148.45,30a3.35,3.35,0,0,1-.13-.88,2.54,2.54,0,0,1-.94.74,3,3,0,0,1-1.21.26,2.11,2.11,0,0,1-1.48-.51,1.66,1.66,0,0,1-.57-1.29,1.71,1.71,0,0,1,.77-1.47,3.72,3.72,0,0,1,2.15-.54h1.27v-.72a1.39,1.39,0,0,0-.42-1.07,1.76,1.76,0,0,0-1.22-.38,1.9,1.9,0,0,0-1.21.37,1.11,1.11,0,0,0-.48.9h-.71A1.63,1.63,0,0,1,145,24.1a2.7,2.7,0,0,1,1.73-.56,2.5,2.5,0,0,1,1.67.53,1.91,1.91,0,0,1,.63,1.48v3a3.69,3.69,0,0,0,.19,1.38V30Zm-2.2-.5a2.36,2.36,0,0,0,1.25-.34,2,2,0,0,0,.81-.91v-1.4h-1.25a3.12,3.12,0,0,0-1.64.39,1.18,1.18,0,0,0-.2,1.91A1.51,1.51,0,0,0,146.25,29.5Z"/><path d="M152,22v1.62h1.31v.57H152v4.23a1.3,1.3,0,0,0,.19.79.73.73,0,0,0,.63.26,4.21,4.21,0,0,0,.57-.06l0,.57a2.42,2.42,0,0,1-.75.1,1.25,1.25,0,0,1-1-.42,2,2,0,0,1-.33-1.23V24.23H150.1v-.57h1.16V22Z"/><path d="M158.74,22v1.62h1.31v.57h-1.31v4.23a1.3,1.3,0,0,0,.19.79.75.75,0,0,0,.64.26,4.26,4.26,0,0,0,.56-.06l0,.57a2.42,2.42,0,0,1-.75.1,1.22,1.22,0,0,1-1-.42,2,2,0,0,1-.33-1.23V24.23h-1.17v-.57H158V22Z"/><path d="M162.2,24.73a2.5,2.5,0,0,1,.89-.88,2.39,2.39,0,0,1,1.18-.31,1.86,1.86,0,0,1,1.51.58,2.56,2.56,0,0,1,.51,1.72V30h-.7V25.83a1.89,1.89,0,0,0-.36-1.26,1.4,1.4,0,0,0-1.13-.42,1.81,1.81,0,0,0-1.16.41,2.41,2.41,0,0,0-.74,1.1V30h-.69V21h.69Z"/><path d="M170.55,30.12a2.84,2.84,0,0,1-1.47-.4,2.78,2.78,0,0,1-1-1.11,3.52,3.52,0,0,1-.36-1.6v-.25a3.7,3.7,0,0,1,.35-1.65,2.93,2.93,0,0,1,1-1.15,2.43,2.43,0,0,1,1.37-.42,2.3,2.3,0,0,1,1.83.79,3.2,3.2,0,0,1,.68,2.15v.4H168.4V27a2.68,2.68,0,0,0,.62,1.8,2,2,0,0,0,1.56.72,2.25,2.25,0,0,0,1-.21,2.09,2.09,0,0,0,.78-.66l.44.34A2.56,2.56,0,0,1,170.55,30.12Zm-.13-6a1.77,1.77,0,0,0-1.34.58,2.65,2.65,0,0,0-.65,1.56h3.8V26.2a2.29,2.29,0,0,0-.52-1.48A1.61,1.61,0,0,0,170.42,24.14Z"/><path d="M5.56,36.44l-.28,1.62H6.55l-.09.57H5.18l-.7,4.24v.36c0,.42.19.64.58.65a2.56,2.56,0,0,0,.57,0l0,.58a2.74,2.74,0,0,1-.7.09,1.06,1.06,0,0,1-.9-.43,1.93,1.93,0,0,1-.2-1.22l.7-4.23H3.35l.11-.57H4.58l.29-1.62Z"/><path d="M9,43.37l2.71-5.31h.78L8.65,45.42a3.42,3.42,0,0,1-.9,1.21A1.68,1.68,0,0,1,6.68,47a3.18,3.18,0,0,1-.56-.1l.07-.57.35,0A1.65,1.65,0,0,0,8.1,45.19l.44-.88L7.32,38.06h.73Z"/><path d="M15.16,44.52a2.39,2.39,0,0,1-1-.23,1.63,1.63,0,0,1-.78-.69l-.59,3.24h-.69l1.52-8.78h.65l-.17.9a2.45,2.45,0,0,1,2.07-1,1.74,1.74,0,0,1,1.39.67A2.93,2.93,0,0,1,18,40.42a4.18,4.18,0,0,1,0,.71l0,.16a5.19,5.19,0,0,1-.55,1.77,2.85,2.85,0,0,1-1,1.11A2.17,2.17,0,0,1,15.16,44.52Zm2.15-3.39,0-.55A2.5,2.5,0,0,0,17,39.11,1.25,1.25,0,0,0,16,38.55a2,2,0,0,0-1.12.3,2.67,2.67,0,0,0-.85.91l-.52,3.05a1.61,1.61,0,0,0,.6.82,1.72,1.72,0,0,0,1,.3,1.76,1.76,0,0,0,1.44-.63,3.76,3.76,0,0,0,.8-1.86Z"/><path d="M21.52,44.52a2.2,2.2,0,0,1-1.32-.43A2.42,2.42,0,0,1,19.38,43a3.58,3.58,0,0,1-.18-1.54l0-.2a4.18,4.18,0,0,1,.52-1.67,3.21,3.21,0,0,1,1.11-1.22,2.66,2.66,0,0,1,1.44-.4,2,2,0,0,1,1.2.39,2.11,2.11,0,0,1,.71,1,3.42,3.42,0,0,1,.14,1.48l0,.43H19.91l0,.14A2.78,2.78,0,0,0,20,42.64a2,2,0,0,0,.6.93,1.61,1.61,0,0,0,1,.35,2,2,0,0,0,1-.22,3.21,3.21,0,0,0,.83-.62l.41.33a2.76,2.76,0,0,1-2.31,1.11Zm.74-6a1.83,1.83,0,0,0-1.37.54,3.59,3.59,0,0,0-.91,1.6h3.68l0-.09a2.06,2.06,0,0,0-.29-1.43A1.33,1.33,0,0,0,22.26,38.54Z"/><path d="M32,42.75c.07-.54-.26-.93-1-1.17l-1-.3c-.93-.32-1.36-.84-1.31-1.57a1.63,1.63,0,0,1,.73-1.28A2.72,2.72,0,0,1,31,37.94a2.27,2.27,0,0,1,1.51.53,1.67,1.67,0,0,1,.54,1.37h-.7a1.09,1.09,0,0,0-.35-.93,1.5,1.5,0,0,0-1-.37,2,2,0,0,0-1.13.31,1.12,1.12,0,0,0-.51.83c-.06.51.25.86.92,1.06L31,41l.4.13c.88.33,1.29.87,1.24,1.62A1.65,1.65,0,0,1,32,44a2.67,2.67,0,0,1-1.57.55h-.24A2.9,2.9,0,0,1,29,44.27a1.8,1.8,0,0,1-.79-.67,1.61,1.61,0,0,1-.24-1h.7a1.18,1.18,0,0,0,.4.94,1.72,1.72,0,0,0,1.11.36,2.19,2.19,0,0,0,1.2-.32A1.16,1.16,0,0,0,32,42.75Z"/><path d="M34.7,44.4H34l1.11-6.34h.7Zm.59-8.17q0-.39.51-.48a.5.5,0,0,1,.32.14.57.57,0,0,1,.13.34.69.69,0,0,1-.17.32.68.68,0,0,1-.33.15C35.43,36.65,35.28,36.5,35.29,36.23Z"/><path d="M39.74,37.94a2.26,2.26,0,0,1,1,.27,1.81,1.81,0,0,1,.74.76l.21-.91h.65l-1.06,6.23a3.45,3.45,0,0,1-.51,1.41,2.7,2.7,0,0,1-1,.93,2.59,2.59,0,0,1-1.36.3,2.62,2.62,0,0,1-1.15-.3,2.28,2.28,0,0,1-.88-.81l.43-.41a1.92,1.92,0,0,0,1.58.93,2,2,0,0,0,1.45-.52,2.61,2.61,0,0,0,.74-1.5l.15-.73a2.52,2.52,0,0,1-2,.93,1.7,1.7,0,0,1-1.38-.69A3,3,0,0,1,36.83,42,5.39,5.39,0,0,1,37.18,40a3.41,3.41,0,0,1,1-1.53A2.25,2.25,0,0,1,39.74,37.94Zm-2.18,3.39,0,.55a2.6,2.6,0,0,0,.33,1.48,1.24,1.24,0,0,0,1,.55A2,2,0,0,0,40,43.63a2.55,2.55,0,0,0,.88-.88l.5-3a1.74,1.74,0,0,0-.55-.89,1.5,1.5,0,0,0-1-.35,1.75,1.75,0,0,0-1.48.69A4.24,4.24,0,0,0,37.56,41.33Z"/><path d="M44.87,38.06l-.21,1.08a2.91,2.91,0,0,1,1-.89,2.38,2.38,0,0,1,1.19-.31,1.56,1.56,0,0,1,1.33.64,2.43,2.43,0,0,1,.29,1.7l-.69,4.12h-.69l.69-4.13a2.84,2.84,0,0,0,0-.65,1.05,1.05,0,0,0-1.13-1.07,1.88,1.88,0,0,0-1.15.37,3.13,3.13,0,0,0-.94,1.14l-.75,4.34H43.1l1.1-6.34Z"/><path d="M53.49,44.4a2.17,2.17,0,0,1,0-.44l.05-.44a3.34,3.34,0,0,1-1,.74,2.62,2.62,0,0,1-1.22.26A1.82,1.82,0,0,1,50,44a1.54,1.54,0,0,1-.45-1.24A1.91,1.91,0,0,1,50,41.68,2.48,2.48,0,0,1,51.07,41a4.74,4.74,0,0,1,1.59-.25H54l.1-.72a1.24,1.24,0,0,0-.28-1,1.34,1.34,0,0,0-1-.42,2,2,0,0,0-1.2.34,1.5,1.5,0,0,0-.64.94h-.69a2,2,0,0,1,.86-1.36,2.84,2.84,0,0,1,1.74-.51,2,2,0,0,1,1.51.59A1.75,1.75,0,0,1,54.75,40l-.52,3.18,0,.51a2.24,2.24,0,0,0,0,.63l0,.07Zm-2.07-.49a2.35,2.35,0,0,0,1.23-.31,2.75,2.75,0,0,0,1-.94l.24-1.41H52.75a3.45,3.45,0,0,0-1.74.38,1.32,1.32,0,0,0-.74,1.08,1,1,0,0,0,.27.85A1.18,1.18,0,0,0,51.42,43.91Z"/><path d="M58.3,36.44,58,38.06h1.27l-.1.57H57.92l-.71,4.24v.36c0,.42.2.64.59.65a2.63,2.63,0,0,0,.57,0l0,.58a2.8,2.8,0,0,1-.7.09,1.05,1.05,0,0,1-.9-.43,1.86,1.86,0,0,1-.21-1.22l.7-4.23H56.08l.11-.57h1.12l.29-1.62Z"/><path d="M63.85,43.6a2.44,2.44,0,0,1-2.09.92,1.54,1.54,0,0,1-1.33-.65,2.49,2.49,0,0,1-.32-1.75l.68-4.06h.69l-.67,4.08a2.66,2.66,0,0,0,0,.63,1.36,1.36,0,0,0,.32.83,1.11,1.11,0,0,0,.78.31,2.28,2.28,0,0,0,1.3-.33,1.59,1.59,0,0,0,.77-.93l.79-4.59h.7l-1.1,6.34h-.68Z"/><path d="M70,38.65a2.31,2.31,0,0,0-.46,0,2,2,0,0,0-1.22.41,2,2,0,0,0-.75,1l-.75,4.36h-.69l1.1-6.34h.69l-.21,1a2.54,2.54,0,0,1,.83-.86,2,2,0,0,1,1.08-.28,1.91,1.91,0,0,1,.48.08Z"/><path d="M72.47,44.52a2.2,2.2,0,0,1-1.32-.43A2.35,2.35,0,0,1,70.33,43a3.58,3.58,0,0,1-.18-1.54v-.2a4.19,4.19,0,0,1,.53-1.67,3.21,3.21,0,0,1,1.11-1.22,2.66,2.66,0,0,1,1.44-.4,2,2,0,0,1,1.2.39,2.18,2.18,0,0,1,.71,1,3.42,3.42,0,0,1,.14,1.48l-.05.43H70.86l0,.14a2.78,2.78,0,0,0,.09,1.22,1.89,1.89,0,0,0,.6.93,1.59,1.59,0,0,0,1,.35,2,2,0,0,0,1-.22,3.26,3.26,0,0,0,.84-.62l.41.33a2.76,2.76,0,0,1-2.31,1.11Zm.74-6a1.83,1.83,0,0,0-1.37.54,3.5,3.5,0,0,0-.91,1.6h3.68l0-.09a2.06,2.06,0,0,0-.29-1.43A1.34,1.34,0,0,0,73.21,38.54Z"/><path d="M76.6,44a.5.5,0,0,1,.14-.35.44.44,0,0,1,.36-.14.46.46,0,0,1,.37.14.5.5,0,0,1,.14.35.46.46,0,0,1-.14.34.54.54,0,0,1-.37.13.51.51,0,0,1-.36-.13A.46.46,0,0,1,76.6,44Z"/></svg>