<svg id="Layer_1" data-name="Layer 1" xmlns="http://www.w3.org/2000/svg" viewBox="0 0 1084 412"><defs><style>.cls-1{fill:#666;}.cls-2{fill:#4d4d4d;}</style></defs><title>exp</title><path d="M29.59,41.73h0a3.22,3.22,0,0,0-.67-.65,1.66,1.66,0,0,0-1.8.22,1.77,1.77,0,0,0-.38,1.26v.53h2.1v.8h-2.1v5.6h-1V43.9H24.38v-.8h1.39v-.53a2.48,2.48,0,0,1,.63-1.85,2.38,2.38,0,0,1,1.72-.61,2.86,2.86,0,0,1,1.14.22,2.09,2.09,0,0,1,.86.66Zm-.17,0s0,0,.06,0l.07,0,0,.05-.09-.05Zm.16,0c.05.08.06.1,0,.08l-.06,0Z"/><path d="M32.47,49.19a3,3,0,0,1-1-1.17,4.21,4.21,0,0,1,0-3.45,3,3,0,0,1,1-1.18,2.94,2.94,0,0,1,3.06,0,3,3,0,0,1,1,1.18,4.21,4.21,0,0,1,0,3.45,3,3,0,0,1-1,1.17,3,3,0,0,1-3.06,0Zm2.5-.74a2,2,0,0,0,.67-.89,3.08,3.08,0,0,0,.25-1.28,2.85,2.85,0,0,0-.53-1.78,1.67,1.67,0,0,0-2.72,0,2.85,2.85,0,0,0-.53,1.78,3.08,3.08,0,0,0,.25,1.28,2,2,0,0,0,.67.89,1.63,1.63,0,0,0,1.94,0Z"/><path d="M38.61,49.5v-.81H40.5V41H38.69v-.81h2.83v8.5h1.87v.81Z"/><path d="M46.49,49.25a2.74,2.74,0,0,1-1-1.15,4.19,4.19,0,0,1-.38-1.86,3.93,3.93,0,0,1,.39-1.85,2.71,2.71,0,0,1,1-1.1,2.55,2.55,0,0,1,1.3-.36,2.1,2.1,0,0,1,1.13.3,1.85,1.85,0,0,1,.73.81V40.19h1.07v.1a.34.34,0,0,0-.11.18,2.44,2.44,0,0,0,0,.34l0,7.7a4.45,4.45,0,0,0,0,.55,1.26,1.26,0,0,0,.12.44h-1a1.93,1.93,0,0,1-.12-.44c0-.15,0-.33,0-.55a2.33,2.33,0,0,1-.79.83,2,2,0,0,1-1.08.3A2.32,2.32,0,0,1,46.49,49.25Zm2.71-1.18a3.5,3.5,0,0,0,.41-1.8,3.33,3.33,0,0,0-.44-1.82,1.47,1.47,0,0,0-1.32-.69,1.51,1.51,0,0,0-1.29.62,2.88,2.88,0,0,0-.45,1.7,3.57,3.57,0,0,0,.47,2,1.51,1.51,0,0,0,1.35.72A1.36,1.36,0,0,0,49.2,48.07Z"/><path d="M52.61,49.5v-.81H54.5V41H52.69v-.81h2.83v8.5h1.87v.81Z"/><path d="M67.92,49.5a5.15,5.15,0,0,1-.14-1.35,3,3,0,0,1-1.19,1.1,3.72,3.72,0,0,1-1.72.39,2.41,2.41,0,0,1-1.65-.56,1.85,1.85,0,0,1-.63-1.45A1.87,1.87,0,0,1,63.51,46,4.44,4.44,0,0,1,66,45.37h1.82V44.29a1.81,1.81,0,0,0-.58-1.44,2.47,2.47,0,0,0-1.67-.51,2.66,2.66,0,0,0-1.69.52,1.56,1.56,0,0,0-.68,1.28h-.37a1.9,1.9,0,0,1,.8-1.53A3,3,0,0,1,65.53,42a2.9,2.9,0,0,1,1.9.59,2.15,2.15,0,0,1,.72,1.69v3.53a5,5,0,0,0,.19,1.66v.06Zm-3-.23a3.34,3.34,0,0,0,1.79-.47,2.85,2.85,0,0,0,1.12-1.3V45.74H66.07a4,4,0,0,0-2.42.63A1.54,1.54,0,0,0,63,47.65a1.48,1.48,0,0,0,.54,1.15A2,2,0,0,0,64.87,49.27Z"/><path d="M76.18,45.87a4.55,4.55,0,0,1-.74,2.75,2.38,2.38,0,0,1-2,1,3.19,3.19,0,0,1-1.5-.35,2.44,2.44,0,0,1-1-.94v4h-.37V42.1h.37v1.32a2.68,2.68,0,0,1,1-1.08A2.88,2.88,0,0,1,73.4,42a2.42,2.42,0,0,1,2,1,4.56,4.56,0,0,1,.74,2.79Zm-.37-.14a4.3,4.3,0,0,0-.63-2.5,2.08,2.08,0,0,0-1.78-.89,2.6,2.6,0,0,0-1.58.48,2.66,2.66,0,0,0-.93,1.38v3.46a2.33,2.33,0,0,0,.94,1.19,2.85,2.85,0,0,0,1.59.42,2,2,0,0,0,1.76-.9A4.64,4.64,0,0,0,75.81,45.73Z"/><path d="M83.85,45.87a4.55,4.55,0,0,1-.75,2.75,2.37,2.37,0,0,1-2,1,3.12,3.12,0,0,1-1.49-.35,2.53,2.53,0,0,1-1-.94v4h-.37V42.1h.37v1.32a2.68,2.68,0,0,1,1-1.08A2.93,2.93,0,0,1,81.06,42a2.41,2.41,0,0,1,2,1,4.56,4.56,0,0,1,.75,2.79Zm-.38-.14a4.3,4.3,0,0,0-.63-2.5,2.05,2.05,0,0,0-1.77-.89,2.58,2.58,0,0,0-1.58.48,2.62,2.62,0,0,0-.94,1.38v3.46a2.33,2.33,0,0,0,.94,1.19,2.88,2.88,0,0,0,1.59.42,2,2,0,0,0,1.76-.9A4.64,4.64,0,0,0,83.47,45.73Z"/><path d="M86.32,49.5H86V39h.37Z"/><path d="M88.64,39.79a.4.4,0,0,1,.11-.27.37.37,0,0,1,.27-.11.38.38,0,0,1,.38.38.37.37,0,0,1-.11.27.4.4,0,0,1-.27.11.38.38,0,0,1-.38-.38Zm.56,9.71h-.37V42.1h.37Z"/><path d="M94.29,49.64a2.93,2.93,0,0,1-1.65-.49,3.26,3.26,0,0,1-1.17-1.32A4.1,4.1,0,0,1,91.05,46v-.31a4.18,4.18,0,0,1,.41-1.88,3.2,3.2,0,0,1,1.12-1.33A2.77,2.77,0,0,1,94.15,42a2.57,2.57,0,0,1,2,.88A3.33,3.33,0,0,1,97,45.17v.39H91.42V46a3.75,3.75,0,0,0,.37,1.67,3.07,3.07,0,0,0,1,1.2,2.63,2.63,0,0,0,1.45.44A2.83,2.83,0,0,0,95.55,49a2.67,2.67,0,0,0,.93-.76l.26.18A2.78,2.78,0,0,1,94.29,49.64Zm-.14-7.3a2.39,2.39,0,0,0-1.83.8,3.38,3.38,0,0,0-.88,2h5.15V45.1a3.16,3.16,0,0,0-.32-1.4,2.37,2.37,0,0,0-.87-1A2.25,2.25,0,0,0,94.15,42.34Z"/><path d="M103.24,47.69c0-.9-.76-1.51-2.3-1.83A4.53,4.53,0,0,1,99,45.1a1.58,1.58,0,0,1-.54-1.27,1.62,1.62,0,0,1,.69-1.34A2.86,2.86,0,0,1,101,42a3,3,0,0,1,1.92.57,1.86,1.86,0,0,1,.72,1.54h-.37a1.54,1.54,0,0,0-.63-1.25,2.58,2.58,0,0,0-1.64-.49,2.54,2.54,0,0,0-1.54.42,1.37,1.37,0,0,0-.36,1.84,2.07,2.07,0,0,0,.69.52,8.11,8.11,0,0,0,1.4.44,6.08,6.08,0,0,1,1.45.49,2.08,2.08,0,0,1,.77.68,1.86,1.86,0,0,1,.24,1,1.65,1.65,0,0,1-.72,1.4,3,3,0,0,1-1.88.54,3.23,3.23,0,0,1-2-.57,1.73,1.73,0,0,1-.77-1.45h.37a1.54,1.54,0,0,0,.69,1.21,3,3,0,0,0,1.71.44,2.67,2.67,0,0,0,1.61-.46A1.35,1.35,0,0,0,103.24,47.69Z"/><path d="M109.82,40.11v2h1.69v.37h-1.69v5.26a2.1,2.1,0,0,0,.26,1.16,1,1,0,0,0,.86.38,5.46,5.46,0,0,0,.73-.06l.06.34a2.31,2.31,0,0,1-.77.09,1.39,1.39,0,0,1-1.16-.45,2.32,2.32,0,0,1-.35-1.41V42.47h-1.37V42.1h1.37v-2Z"/><path d="M113.8,43.83a3,3,0,0,1,1.06-1.36,2.59,2.59,0,0,1,1.56-.5,2.21,2.21,0,0,1,1.77.67,3.09,3.09,0,0,1,.58,2V49.5h-.37V44.66a2.67,2.67,0,0,0-.48-1.75,1.88,1.88,0,0,0-1.52-.57,2.28,2.28,0,0,0-1.66.68,3.42,3.42,0,0,0-.94,1.75V49.5h-.37V39h.37Z"/><path d="M123.75,49.64a2.87,2.87,0,0,1-1.64-.49,3.29,3.29,0,0,1-1.18-1.32,4.1,4.1,0,0,1-.42-1.86v-.31a4.32,4.32,0,0,1,.41-1.88,3.15,3.15,0,0,1,1.13-1.33,2.76,2.76,0,0,1,1.56-.48,2.59,2.59,0,0,1,2,.88,3.37,3.37,0,0,1,.78,2.32v.39h-5.54V46a3.63,3.63,0,0,0,.38,1.67,3,3,0,0,0,1,1.2,2.63,2.63,0,0,0,1.45.44A2.88,2.88,0,0,0,125,49a2.64,2.64,0,0,0,.92-.76l.26.18A2.78,2.78,0,0,1,123.75,49.64Zm-.14-7.3a2.39,2.39,0,0,0-1.83.8,3.38,3.38,0,0,0-.88,2h5.15V45.1a3,3,0,0,0-.32-1.4,2.37,2.37,0,0,0-.87-1A2.25,2.25,0,0,0,123.61,42.34Z"/><path d="M132.05,49.5v-7h-1.28V42.1h1.28V41a2.35,2.35,0,0,1,.52-1.59,1.8,1.8,0,0,1,1.42-.57,2.79,2.79,0,0,1,.87.11l-.05.36a2.9,2.9,0,0,0-.81-.1,1.47,1.47,0,0,0-1.16.47,2,2,0,0,0-.42,1.35V42.1h2v.37h-2v7Z"/><path d="M140.86,49.5V48.3a2.44,2.44,0,0,1-1,1,3.17,3.17,0,0,1-1.59.36,2.28,2.28,0,0,1-1.82-.71,3.11,3.11,0,0,1-.61-2.06V42.1h.37v4.78a2.63,2.63,0,0,0,.53,1.78,1.88,1.88,0,0,0,1.52.61,2.81,2.81,0,0,0,1.72-.5,2.27,2.27,0,0,0,.84-1.46V42.1h.38v7.4Z"/><path d="M143.94,43.83A3,3,0,0,1,145,42.47a2.59,2.59,0,0,1,1.56-.5,2.21,2.21,0,0,1,1.77.67,3.09,3.09,0,0,1,.58,2V49.5h-.37V44.66a2.67,2.67,0,0,0-.48-1.75,1.88,1.88,0,0,0-1.52-.57,2.28,2.28,0,0,0-1.66.68,3.42,3.42,0,0,0-.94,1.75V49.5h-.37V42.1h.37Z"/><path d="M153.74,49.27a2.53,2.53,0,0,0,1.66-.54,2,2,0,0,0,.71-1.47h.37a2.3,2.3,0,0,1-.83,1.72,2.83,2.83,0,0,1-1.91.66,2.71,2.71,0,0,1-2.21-1,4.23,4.23,0,0,1-.81-2.73v-.24a4.17,4.17,0,0,1,.81-2.69,2.69,2.69,0,0,1,2.19-1,2.76,2.76,0,0,1,1.95.7,2.56,2.56,0,0,1,.81,1.87h-.37a2.25,2.25,0,0,0-.7-1.6,2.41,2.41,0,0,0-1.69-.6,2.29,2.29,0,0,0-1.93.89,3.89,3.89,0,0,0-.7,2.48V46a3.8,3.8,0,0,0,.7,2.43A2.37,2.37,0,0,0,153.74,49.27Z"/><path d="M159.16,40.11v2h1.68v.37h-1.68v5.26a2,2,0,0,0,.26,1.16,1,1,0,0,0,.85.38,5.34,5.34,0,0,0,.73-.06l.07.34a2.34,2.34,0,0,1-.78.09,1.37,1.37,0,0,1-1.15-.45,2.38,2.38,0,0,1-.36-1.41V42.47h-1.36V42.1h1.36v-2Z"/><path d="M162.66,39.79a.4.4,0,0,1,.11-.27.37.37,0,0,1,.27-.11.36.36,0,0,1,.26.11.37.37,0,0,1,.12.27.34.34,0,0,1-.12.27.36.36,0,0,1-.26.11.38.38,0,0,1-.38-.38Zm.56,9.71h-.37V42.1h.37Z"/><path d="M165.09,45.66a4.38,4.38,0,0,1,.4-1.91,3.13,3.13,0,0,1,1.15-1.31,3,3,0,0,1,1.68-.47,3,3,0,0,1,2.82,1.75,4.35,4.35,0,0,1,.42,1.9V46a4.31,4.31,0,0,1-.4,1.9A3.15,3.15,0,0,1,170,49.17a3.08,3.08,0,0,1-1.68.47,3.13,3.13,0,0,1-1.68-.47,3.17,3.17,0,0,1-1.15-1.3,4.29,4.29,0,0,1-.41-1.88Zm.37.29a3.94,3.94,0,0,0,.36,1.69,2.86,2.86,0,0,0,1,1.2,2.68,2.68,0,0,0,1.49.43,2.56,2.56,0,0,0,2.06-1,3.7,3.7,0,0,0,.8-2.45v-.21a3.76,3.76,0,0,0-.37-1.68,2.9,2.9,0,0,0-1-1.21,2.62,2.62,0,0,0-1.48-.43,2.59,2.59,0,0,0-2.07,1,3.68,3.68,0,0,0-.79,2.43Z"/><path d="M173.72,43.83a3,3,0,0,1,1.07-1.36,2.58,2.58,0,0,1,1.55-.5,2.19,2.19,0,0,1,1.77.67,3.09,3.09,0,0,1,.59,2V49.5h-.37V44.66a2.73,2.73,0,0,0-.49-1.75,1.87,1.87,0,0,0-1.52-.57,2.26,2.26,0,0,0-1.65.68,3.37,3.37,0,0,0-.95,1.75V49.5h-.37V42.1h.37Z"/><path d="M29.45,66.3A5.22,5.22,0,0,1,29.32,65a3,3,0,0,1-1.2,1.1,3.68,3.68,0,0,1-1.71.39,2.42,2.42,0,0,1-1.66-.56,1.95,1.95,0,0,1,.3-3.08,4.4,4.4,0,0,1,2.44-.63h1.83V61.09a1.81,1.81,0,0,0-.59-1.44,2.45,2.45,0,0,0-1.67-.51,2.68,2.68,0,0,0-1.69.52,1.55,1.55,0,0,0-.67,1.28h-.37a1.87,1.87,0,0,1,.79-1.53,3,3,0,0,1,1.94-.63,2.83,2.83,0,0,1,1.9.6,2.15,2.15,0,0,1,.73,1.68v3.53a4.73,4.73,0,0,0,.19,1.66v.06Zm-3-.23a3.3,3.3,0,0,0,1.78-.47,2.87,2.87,0,0,0,1.13-1.3V62.54H27.61a4,4,0,0,0-2.43.63,1.56,1.56,0,0,0-.68,1.28A1.48,1.48,0,0,0,25,65.6,2,2,0,0,0,26.41,66.07Z"/><path d="M31.72,62.53a4.51,4.51,0,0,1,.74-2.77,2.43,2.43,0,0,1,2-1A2.7,2.7,0,0,1,37,60.26V58.9h.37v7.27a3.29,3.29,0,0,1-.75,2.29,2.62,2.62,0,0,1-2,.82A2.86,2.86,0,0,1,32.17,68l.26-.24a3.16,3.16,0,0,0,.94.83,2.42,2.42,0,0,0,1.2.29,2.28,2.28,0,0,0,1.78-.69,2.86,2.86,0,0,0,.66-2V65.13a2.63,2.63,0,0,1-1,1,3.23,3.23,0,0,1-1.48.34,2.38,2.38,0,0,1-2-1,4.63,4.63,0,0,1-.74-2.8Zm.37.14a4.29,4.29,0,0,0,.63,2.49,2,2,0,0,0,1.77.91,2.83,2.83,0,0,0,1.59-.44A2.29,2.29,0,0,0,37,64.41V61.06a2.44,2.44,0,0,0-2.51-1.92,2.06,2.06,0,0,0-1.78.89A4.59,4.59,0,0,0,32.09,62.67Z"/><path d="M44.52,66.3A5.15,5.15,0,0,1,44.38,65a3,3,0,0,1-1.19,1.1,3.72,3.72,0,0,1-1.72.39,2.41,2.41,0,0,1-1.65-.56,1.95,1.95,0,0,1,.3-3.08,4.38,4.38,0,0,1,2.44-.63h1.82V61.09a1.81,1.81,0,0,0-.58-1.44,2.47,2.47,0,0,0-1.67-.51,2.66,2.66,0,0,0-1.69.52,1.56,1.56,0,0,0-.68,1.28h-.37a1.88,1.88,0,0,1,.8-1.53,3,3,0,0,1,1.94-.63,2.83,2.83,0,0,1,1.9.6,2.11,2.11,0,0,1,.72,1.68v3.53a5,5,0,0,0,.19,1.66v.06Zm-3.05-.23a3.34,3.34,0,0,0,1.79-.47,2.85,2.85,0,0,0,1.12-1.3V62.54H42.67a4,4,0,0,0-2.42.63,1.54,1.54,0,0,0-.69,1.28,1.48,1.48,0,0,0,.54,1.15A2,2,0,0,0,41.47,66.07Z"/><path d="M47,56.59a.4.4,0,0,1,.11-.27.37.37,0,0,1,.27-.11.38.38,0,0,1,.38.38.37.37,0,0,1-.11.27.4.4,0,0,1-.27.11.38.38,0,0,1-.38-.38Zm.56,9.71h-.37V58.9h.37Z"/><path d="M50.39,60.63a3,3,0,0,1,1.06-1.36,2.59,2.59,0,0,1,1.56-.5,2.21,2.21,0,0,1,1.77.67,3.09,3.09,0,0,1,.58,2V66.3H55V61.46a2.67,2.67,0,0,0-.48-1.75A1.88,1.88,0,0,0,53,59.14a2.28,2.28,0,0,0-1.66.68,3.42,3.42,0,0,0-.94,1.75V66.3H50V58.9h.37Z"/><path d="M57.39,68l-.26-.22a2.6,2.6,0,0,0,.6-1.47V65.21h.37v1A2.68,2.68,0,0,1,57.39,68Z"/><path d="M68.43,66.3A4.75,4.75,0,0,1,68.29,65a3,3,0,0,1-1.2,1.1,3.65,3.65,0,0,1-1.71.39,2.37,2.37,0,0,1-1.65-.56,1.85,1.85,0,0,1-.63-1.45A1.87,1.87,0,0,1,64,62.8a4.4,4.4,0,0,1,2.44-.63h1.83V61.09a1.84,1.84,0,0,0-.58-1.44A2.5,2.5,0,0,0,66,59.14a2.7,2.7,0,0,0-1.69.52,1.55,1.55,0,0,0-.67,1.28H63.3a1.87,1.87,0,0,1,.79-1.53A3,3,0,0,1,66,58.77a2.83,2.83,0,0,1,1.9.6,2.15,2.15,0,0,1,.73,1.68v3.53a4.73,4.73,0,0,0,.19,1.66v.06Zm-3.05-.23a3.28,3.28,0,0,0,1.78-.47,2.87,2.87,0,0,0,1.13-1.3V62.54H66.58a4,4,0,0,0-2.43.63,1.56,1.56,0,0,0-.68,1.28A1.48,1.48,0,0,0,64,65.6,2,2,0,0,0,65.38,66.07Z"/><path d="M71.41,60.63a3,3,0,0,1,1.06-1.36,2.59,2.59,0,0,1,1.56-.5,2.21,2.21,0,0,1,1.77.67,3.09,3.09,0,0,1,.58,2V66.3H76V61.46a2.67,2.67,0,0,0-.48-1.75A1.88,1.88,0,0,0,74,59.14a2.28,2.28,0,0,0-1.66.68,3.42,3.42,0,0,0-.94,1.75V66.3H71V58.9h.37Z"/><path d="M78.36,62.53a4.58,4.58,0,0,1,.74-2.77,2.43,2.43,0,0,1,2.05-1,2.87,2.87,0,0,1,1.47.37,2.83,2.83,0,0,1,1,1.12V55.8H84V66.3h-.37V65.12a2.56,2.56,0,0,1-1,1,3.12,3.12,0,0,1-1.49.35,2.39,2.39,0,0,1-2-1,4.7,4.7,0,0,1-.74-2.8Zm.38.14a4.35,4.35,0,0,0,.62,2.48,2,2,0,0,0,1.77.92,2.88,2.88,0,0,0,1.56-.41,2.4,2.4,0,0,0,1-1.19V61a2.48,2.48,0,0,0-2.52-1.86,2,2,0,0,0-1.77.89A4.59,4.59,0,0,0,78.74,62.67Z"/><path d="M94.49,66.3A5.15,5.15,0,0,1,94.35,65a3,3,0,0,1-1.19,1.1,3.72,3.72,0,0,1-1.72.39,2.41,2.41,0,0,1-1.65-.56,1.87,1.87,0,0,1-.62-1.45,1.85,1.85,0,0,1,.92-1.63,4.38,4.38,0,0,1,2.44-.63h1.82V61.09a1.81,1.81,0,0,0-.58-1.44,2.47,2.47,0,0,0-1.67-.51,2.66,2.66,0,0,0-1.69.52,1.56,1.56,0,0,0-.68,1.28h-.37a1.88,1.88,0,0,1,.8-1.53,3,3,0,0,1,1.94-.63,2.83,2.83,0,0,1,1.9.6,2.11,2.11,0,0,1,.72,1.68v3.53a4.67,4.67,0,0,0,.2,1.66v.06Zm-3-.23a3.34,3.34,0,0,0,1.79-.47,2.85,2.85,0,0,0,1.12-1.3V62.54h-1.7a4,4,0,0,0-2.43.63,1.53,1.53,0,0,0-.68,1.28,1.45,1.45,0,0,0,.54,1.15A2,2,0,0,0,91.44,66.07Z"/><path d="M96.75,62.53a4.51,4.51,0,0,1,.75-2.77,2.42,2.42,0,0,1,2-1,2.78,2.78,0,0,1,1.47.38,2.64,2.64,0,0,1,1,1.11V58.9h.38v7.27a3.29,3.29,0,0,1-.75,2.29,2.62,2.62,0,0,1-2,.82A2.86,2.86,0,0,1,97.21,68l.25-.24a3.32,3.32,0,0,0,1,.83,2.42,2.42,0,0,0,1.2.29,2.31,2.31,0,0,0,1.78-.69,2.85,2.85,0,0,0,.65-2V65.13a2.6,2.6,0,0,1-1,1,3.26,3.26,0,0,1-1.48.34,2.38,2.38,0,0,1-2-1,4.63,4.63,0,0,1-.75-2.8Zm.38.14a4.29,4.29,0,0,0,.63,2.49,2,2,0,0,0,1.76.91,2.84,2.84,0,0,0,1.6-.44,2.33,2.33,0,0,0,.92-1.22V61.06a2.43,2.43,0,0,0-2.5-1.92,2,2,0,0,0-1.78.89A4.59,4.59,0,0,0,97.13,62.67Z"/><path d="M109.56,66.3a5.15,5.15,0,0,1-.14-1.35,3,3,0,0,1-1.2,1.1,3.65,3.65,0,0,1-1.71.39,2.41,2.41,0,0,1-1.65-.56,1.85,1.85,0,0,1-.63-1.45,1.87,1.87,0,0,1,.92-1.63,4.42,4.42,0,0,1,2.45-.63h1.82V61.09a1.81,1.81,0,0,0-.58-1.44,2.47,2.47,0,0,0-1.67-.51,2.66,2.66,0,0,0-1.69.52,1.56,1.56,0,0,0-.68,1.28h-.37a1.9,1.9,0,0,1,.79-1.53,3,3,0,0,1,2-.63,2.85,2.85,0,0,1,1.9.6,2.11,2.11,0,0,1,.72,1.68v3.53a4.73,4.73,0,0,0,.19,1.66v.06Zm-3-.23a3.34,3.34,0,0,0,1.79-.47,2.91,2.91,0,0,0,1.12-1.3V62.54h-1.71a4,4,0,0,0-2.42.63,1.54,1.54,0,0,0-.69,1.28,1.48,1.48,0,0,0,.54,1.15A2,2,0,0,0,106.51,66.07Z"/><path d="M112.07,56.59a.38.38,0,0,1,.37-.38.37.37,0,0,1,.27.11.37.37,0,0,1,.12.27.34.34,0,0,1-.12.27.37.37,0,0,1-.27.11.36.36,0,0,1-.26-.11A.33.33,0,0,1,112.07,56.59Zm.56,9.71h-.37V58.9h.37Z"/><path d="M115.42,60.63a3,3,0,0,1,1.07-1.36,2.59,2.59,0,0,1,1.56-.5,2.18,2.18,0,0,1,1.76.67,3.09,3.09,0,0,1,.59,2V66.3H120V61.46a2.67,2.67,0,0,0-.49-1.75,1.85,1.85,0,0,0-1.51-.57,2.28,2.28,0,0,0-1.66.68,3.44,3.44,0,0,0-1,1.75V66.3h-.37V58.9h.37Z"/><path d="M122.42,68l-.25-.22a2.6,2.6,0,0,0,.6-1.47V65.21h.37v1A2.65,2.65,0,0,1,122.42,68Z"/><path d="M133.46,66.3a5.22,5.22,0,0,1-.13-1.35,3,3,0,0,1-1.2,1.1,3.72,3.72,0,0,1-1.72.39,2.41,2.41,0,0,1-1.65-.56,1.87,1.87,0,0,1-.62-1.45,1.85,1.85,0,0,1,.92-1.63,4.38,4.38,0,0,1,2.44-.63h1.83V61.09a1.81,1.81,0,0,0-.59-1.44,2.47,2.47,0,0,0-1.67-.51,2.68,2.68,0,0,0-1.69.52,1.55,1.55,0,0,0-.67,1.28h-.37a1.87,1.87,0,0,1,.79-1.53,3,3,0,0,1,1.94-.63,2.83,2.83,0,0,1,1.9.6,2.15,2.15,0,0,1,.73,1.68v3.53a4.73,4.73,0,0,0,.19,1.66v.06Zm-3.05-.23a3.32,3.32,0,0,0,1.79-.47,2.87,2.87,0,0,0,1.13-1.3V62.54h-1.71a4,4,0,0,0-2.43.63,1.53,1.53,0,0,0-.68,1.28,1.48,1.48,0,0,0,.54,1.15A2,2,0,0,0,130.41,66.07Z"/><path d="M136.44,60.63a3.11,3.11,0,0,1,1.07-1.36,2.59,2.59,0,0,1,1.56-.5,2.21,2.21,0,0,1,1.77.67,3.09,3.09,0,0,1,.58,2V66.3h-.37V61.46a2.73,2.73,0,0,0-.48-1.75,1.88,1.88,0,0,0-1.52-.57,2.28,2.28,0,0,0-1.66.68,3.44,3.44,0,0,0-.95,1.75V66.3h-.37V58.9h.37Z"/><path d="M143.4,62.53a4.51,4.51,0,0,1,.74-2.77,2.42,2.42,0,0,1,2-1,2.88,2.88,0,0,1,1.48.37,2.8,2.8,0,0,1,1,1.12V55.8h.37V66.3h-.37V65.12a2.53,2.53,0,0,1-1,1,3.15,3.15,0,0,1-1.49.35,2.38,2.38,0,0,1-2-1,4.63,4.63,0,0,1-.74-2.8Zm.38.14a4.35,4.35,0,0,0,.62,2.48,2,2,0,0,0,1.76.92,2.89,2.89,0,0,0,1.57-.41,2.43,2.43,0,0,0,1-1.19V61a2.46,2.46,0,0,0-2.51-1.86,2,2,0,0,0-1.77.89A4.59,4.59,0,0,0,143.78,62.67Z"/><path d="M159.53,66.3a5.15,5.15,0,0,1-.14-1.35,3,3,0,0,1-1.19,1.1,3.72,3.72,0,0,1-1.72.39,2.41,2.41,0,0,1-1.65-.56,1.85,1.85,0,0,1-.63-1.45,1.87,1.87,0,0,1,.92-1.63,4.44,4.44,0,0,1,2.45-.63h1.82V61.09a1.81,1.81,0,0,0-.58-1.44,2.47,2.47,0,0,0-1.67-.51,2.66,2.66,0,0,0-1.69.52,1.56,1.56,0,0,0-.68,1.28h-.37a1.9,1.9,0,0,1,.79-1.53,3,3,0,0,1,1.95-.63,2.85,2.85,0,0,1,1.9.6,2.11,2.11,0,0,1,.72,1.68v3.53a4.73,4.73,0,0,0,.19,1.66v.06Zm-3.05-.23a3.34,3.34,0,0,0,1.79-.47,2.85,2.85,0,0,0,1.12-1.3V62.54h-1.71a4,4,0,0,0-2.42.63,1.54,1.54,0,0,0-.69,1.28,1.48,1.48,0,0,0,.54,1.15A2,2,0,0,0,156.48,66.07Z"/><path d="M161.79,62.53a4.51,4.51,0,0,1,.75-2.77,2.4,2.4,0,0,1,2-1,2.78,2.78,0,0,1,1.47.38,2.71,2.71,0,0,1,1,1.11V58.9h.38v7.27a3.29,3.29,0,0,1-.75,2.29,2.64,2.64,0,0,1-2.05.82A3,3,0,0,1,163.3,69a3,3,0,0,1-1.06-.93l.26-.24a3.19,3.19,0,0,0,.95.83,2.42,2.42,0,0,0,1.2.29,2.31,2.31,0,0,0,1.78-.69,2.85,2.85,0,0,0,.65-2V65.13a2.6,2.6,0,0,1-1,1,3.26,3.26,0,0,1-1.48.34,2.37,2.37,0,0,1-2-1,4.63,4.63,0,0,1-.75-2.8Zm.38.14a4.29,4.29,0,0,0,.63,2.49,2,2,0,0,0,1.76.91,2.83,2.83,0,0,0,1.59-.44,2.29,2.29,0,0,0,.93-1.22V61.06a2.44,2.44,0,0,0-2.51-1.92,2,2,0,0,0-1.77.89A4.59,4.59,0,0,0,162.17,62.67Z"/><path d="M174.59,66.3a5.22,5.22,0,0,1-.13-1.35,3,3,0,0,1-1.2,1.1,3.68,3.68,0,0,1-1.71.39,2.42,2.42,0,0,1-1.66-.56,1.95,1.95,0,0,1,.3-3.08,4.4,4.4,0,0,1,2.44-.63h1.83V61.09a1.81,1.81,0,0,0-.59-1.44,2.45,2.45,0,0,0-1.67-.51,2.68,2.68,0,0,0-1.69.52,1.55,1.55,0,0,0-.67,1.28h-.37a1.87,1.87,0,0,1,.79-1.53,3,3,0,0,1,1.94-.63,2.83,2.83,0,0,1,1.9.6,2.15,2.15,0,0,1,.73,1.68v3.53a4.73,4.73,0,0,0,.19,1.66v.06Zm-3-.23a3.3,3.3,0,0,0,1.78-.47,2.87,2.87,0,0,0,1.13-1.3V62.54h-1.71a4,4,0,0,0-2.43.63,1.56,1.56,0,0,0-.68,1.28,1.48,1.48,0,0,0,.54,1.15A2,2,0,0,0,171.55,66.07Z"/><path d="M177.1,56.59a.38.38,0,1,1,.76,0,.37.37,0,0,1-.11.27.39.39,0,0,1-.54,0A.37.37,0,0,1,177.1,56.59Zm.56,9.71h-.37V58.9h.37Z"/><path d="M180.46,60.63a3,3,0,0,1,1.07-1.36,2.58,2.58,0,0,1,1.55-.5,2.19,2.19,0,0,1,1.77.67,3.09,3.09,0,0,1,.59,2V66.3h-.37V61.46a2.73,2.73,0,0,0-.49-1.75,1.87,1.87,0,0,0-1.52-.57,2.26,2.26,0,0,0-1.65.68,3.37,3.37,0,0,0-.95,1.75V66.3h-.37V58.9h.37Z"/><path d="M187.46,68l-.25-.22a2.6,2.6,0,0,0,.6-1.47V65.21h.36v1A2.64,2.64,0,0,1,187.46,68Z"/><path d="M29.63,83.1V81.9a2.44,2.44,0,0,1-1,1,3.14,3.14,0,0,1-1.59.36,2.26,2.26,0,0,1-1.81-.71,3.11,3.11,0,0,1-.62-2.06V75.7H25v4.78a2.74,2.74,0,0,0,.53,1.78,1.88,1.88,0,0,0,1.52.61,2.79,2.79,0,0,0,1.72-.5,2.27,2.27,0,0,0,.84-1.46V75.7H30v7.4Z"/><path d="M32.71,77.43a3,3,0,0,1,1.06-1.36,2.59,2.59,0,0,1,1.56-.5,2.2,2.2,0,0,1,1.77.67,3,3,0,0,1,.58,2V83.1h-.36V78.26a2.73,2.73,0,0,0-.49-1.75,1.87,1.87,0,0,0-1.52-.57,2.28,2.28,0,0,0-1.66.68,3.42,3.42,0,0,0-.94,1.75V83.1h-.37V75.7h.37Z"/><path d="M40.83,73.71v2h1.68v.37H40.83v5.26a2,2,0,0,0,.26,1.16,1,1,0,0,0,.85.38,5.34,5.34,0,0,0,.73-.06l.07.34a2.34,2.34,0,0,1-.78.09,1.37,1.37,0,0,1-1.15-.45,2.38,2.38,0,0,1-.36-1.41V76.07H39.09V75.7h1.36v-2Z"/><path d="M44.33,73.39a.4.4,0,0,1,.11-.27.37.37,0,0,1,.27-.11.36.36,0,0,1,.26.11.37.37,0,0,1,.12.27.34.34,0,0,1-.12.27.36.36,0,0,1-.26.11.38.38,0,0,1-.38-.38Zm.56,9.71h-.37V75.7h.37Z"/><path d="M47.77,83.1h-.36V72.6h.36Z"/><path d="M54.38,73.71v2h1.68v.37H54.38v5.26a2.1,2.1,0,0,0,.25,1.16,1,1,0,0,0,.86.38,5.34,5.34,0,0,0,.73-.06l.07.34a2.38,2.38,0,0,1-.78.09,1.36,1.36,0,0,1-1.15-.45A2.38,2.38,0,0,1,54,81.38V76.07H52.63V75.7H54v-2Z"/><path d="M58.35,77.43a3,3,0,0,1,1.07-1.36,2.54,2.54,0,0,1,1.55-.5,2.19,2.19,0,0,1,1.77.67,3.09,3.09,0,0,1,.59,2V83.1H63V78.26a2.73,2.73,0,0,0-.49-1.75A1.87,1.87,0,0,0,61,75.94a2.26,2.26,0,0,0-1.65.68,3.37,3.37,0,0,0-.95,1.75V83.1H58V72.6h.37Z"/><path d="M68.3,83.24a2.92,2.92,0,0,1-1.64-.49,3.26,3.26,0,0,1-1.17-1.32,4,4,0,0,1-.43-1.86v-.31a4.32,4.32,0,0,1,.41-1.88A3.32,3.32,0,0,1,66.6,76a2.83,2.83,0,0,1,1.57-.47,2.57,2.57,0,0,1,2,.88A3.38,3.38,0,0,1,71,78.77v.39H65.43v.4a3.79,3.79,0,0,0,.38,1.67,2.92,2.92,0,0,0,1,1.2,2.57,2.57,0,0,0,1.44.44,2.88,2.88,0,0,0,1.27-.25,2.56,2.56,0,0,0,.93-.76l.26.18A2.79,2.79,0,0,1,68.3,83.24Zm-.13-7.3a2.43,2.43,0,0,0-1.84.8,3.47,3.47,0,0,0-.88,2.05h5.16V78.7a3.16,3.16,0,0,0-.32-1.4,2.41,2.41,0,0,0-.88-1A2.3,2.3,0,0,0,68.17,75.94Z"/><path d="M76.51,83.1h-.37V72.6h.37Z"/><path d="M78.83,73.39a.4.4,0,0,1,.11-.27.37.37,0,0,1,.27-.11.38.38,0,0,1,.38.38.37.37,0,0,1-.11.27.4.4,0,0,1-.27.11.38.38,0,0,1-.38-.38Zm.56,9.71H79V75.7h.37Z"/><path d="M86.38,81.29c0-.9-.77-1.51-2.3-1.83a4.53,4.53,0,0,1-1.92-.76,1.58,1.58,0,0,1-.54-1.27,1.62,1.62,0,0,1,.69-1.34,2.83,2.83,0,0,1,1.78-.52,3,3,0,0,1,1.92.57,1.84,1.84,0,0,1,.73,1.54h-.38a1.51,1.51,0,0,0-.63-1.24,3,3,0,0,0-3.17-.08,1.37,1.37,0,0,0-.36,1.84,1.77,1.77,0,0,0,.69.51,7,7,0,0,0,1.4.45,5.83,5.83,0,0,1,1.44.49,2,2,0,0,1,.78.68,1.85,1.85,0,0,1,.24,1A1.66,1.66,0,0,1,86,82.7a3.06,3.06,0,0,1-1.88.54,3.28,3.28,0,0,1-2-.57,1.72,1.72,0,0,1-.76-1.45h.37a1.51,1.51,0,0,0,.69,1.21,3,3,0,0,0,1.71.44,2.67,2.67,0,0,0,1.61-.46A1.37,1.37,0,0,0,86.38,81.29Z"/><path d="M89.61,73.71v2h1.68v.37H89.61v5.26a2.1,2.1,0,0,0,.26,1.16,1,1,0,0,0,.85.38,5.47,5.47,0,0,0,.74-.06l.06.34a2.31,2.31,0,0,1-.77.09,1.38,1.38,0,0,1-1.16-.45,2.38,2.38,0,0,1-.36-1.41V76.07H87.87V75.7h1.36v-2Z"/><path d="M96.46,73.39a.4.4,0,0,1,.11-.27.37.37,0,0,1,.27-.11.38.38,0,0,1,.38.38.37.37,0,0,1-.11.27.4.4,0,0,1-.27.11.38.38,0,0,1-.38-.38ZM97,83.1h-.37V75.7H97Z"/><path d="M104,81.29c0-.9-.77-1.51-2.3-1.83a4.53,4.53,0,0,1-1.92-.76,1.58,1.58,0,0,1-.54-1.27,1.62,1.62,0,0,1,.69-1.34,2.83,2.83,0,0,1,1.78-.52,3,3,0,0,1,1.92.57,1.84,1.84,0,0,1,.73,1.54H104a1.51,1.51,0,0,0-.63-1.24,3,3,0,0,0-3.17-.08,1.37,1.37,0,0,0-.36,1.84,1.77,1.77,0,0,0,.69.51,7,7,0,0,0,1.4.45,5.83,5.83,0,0,1,1.44.49,2,2,0,0,1,.78.68,1.85,1.85,0,0,1,.24,1,1.66,1.66,0,0,1-.72,1.41,3.06,3.06,0,0,1-1.88.54,3.28,3.28,0,0,1-2-.57A1.72,1.72,0,0,1,99,81.22h.37a1.51,1.51,0,0,0,.69,1.21,3,3,0,0,0,1.71.44,2.67,2.67,0,0,0,1.61-.46A1.37,1.37,0,0,0,104,81.29Z"/><path d="M112.42,83.24a2.9,2.9,0,0,1-1.64-.49,3.26,3.26,0,0,1-1.17-1.32,4,4,0,0,1-.43-1.86v-.31a4.32,4.32,0,0,1,.41-1.88A3.32,3.32,0,0,1,110.72,76a2.83,2.83,0,0,1,1.57-.47,2.57,2.57,0,0,1,2,.88,3.37,3.37,0,0,1,.78,2.32v.39h-5.54v.4a3.79,3.79,0,0,0,.38,1.67,2.92,2.92,0,0,0,1,1.2,2.57,2.57,0,0,0,1.44.44,2.88,2.88,0,0,0,1.27-.25,2.56,2.56,0,0,0,.93-.76l.26.18A2.8,2.8,0,0,1,112.42,83.24Zm-.13-7.3a2.41,2.41,0,0,0-1.84.8,3.47,3.47,0,0,0-.88,2.05h5.16V78.7a3.16,3.16,0,0,0-.32-1.4,2.48,2.48,0,0,0-.88-1A2.3,2.3,0,0,0,112.29,75.94Z"/><path d="M122.11,83.1h-.37v-5a2.48,2.48,0,0,0-.49-1.65,2,2,0,0,0-1.53-.54,2.32,2.32,0,0,0-2,1.07,3.53,3.53,0,0,0-.61,1.42V83.1h-.38V75.7h.38v1.75a3.16,3.16,0,0,1,1.07-1.39,2.62,2.62,0,0,1,1.55-.49,2.57,2.57,0,0,1,1.52.41,2,2,0,0,1,.77,1.34A2.73,2.73,0,0,1,123.1,76a2.94,2.94,0,0,1,1.65-.47,2.26,2.26,0,0,1,1.79.67,3.17,3.17,0,0,1,.59,2V83.1h-.37V78.31a2.8,2.8,0,0,0-.49-1.8,1.86,1.86,0,0,0-1.54-.57A2.58,2.58,0,0,0,122.6,77a2.26,2.26,0,0,0-.49,1.17Z"/><path d="M135,79.47a4.62,4.62,0,0,1-.74,2.75,2.39,2.39,0,0,1-2,1,3.19,3.19,0,0,1-1.5-.35,2.53,2.53,0,0,1-1-.94v4h-.37V75.7h.37V77a2.71,2.71,0,0,1,1-1.08,2.87,2.87,0,0,1,1.47-.37,2.43,2.43,0,0,1,2.05,1,4.63,4.63,0,0,1,.74,2.79Zm-.37-.14a4.3,4.3,0,0,0-.64-2.5,2.05,2.05,0,0,0-1.77-.89,2.58,2.58,0,0,0-1.58.48,2.73,2.73,0,0,0-.94,1.38v3.46a2.43,2.43,0,0,0,.94,1.19,2.9,2.9,0,0,0,1.59.42A2,2,0,0,0,134,82,4.58,4.58,0,0,0,134.65,79.33Z"/><path d="M137.86,73.71v2h1.68v.37h-1.68v5.26a2,2,0,0,0,.26,1.16,1,1,0,0,0,.85.38,5.34,5.34,0,0,0,.73-.06l.07.34a2.34,2.34,0,0,1-.78.09,1.37,1.37,0,0,1-1.15-.45,2.38,2.38,0,0,1-.36-1.41V76.07h-1.36V75.7h1.36v-2Z"/><path d="M143.72,82.53l.05-.14,2.56-6.69h.41l-3.31,8.68-.16.41a1.83,1.83,0,0,1-1.77,1.3A1.29,1.29,0,0,1,141,86v-.35a1.85,1.85,0,0,0,.5.06,1.38,1.38,0,0,0,1-.34,2.52,2.52,0,0,0,.66-1.1l.46-1.22-2.95-7.36h.4Z"/><path d="M147.24,82.77a.37.37,0,0,1,.11-.27.36.36,0,0,1,.54,0,.37.37,0,0,1,.11.27.36.36,0,0,1-.11.26.39.39,0,0,1-.54,0A.36.36,0,0,1,147.24,82.77Z"/><path d="M254.16,37.34v0a3.81,3.81,0,0,0-.86-.84,1.8,1.8,0,0,0-1-.22,1.78,1.78,0,0,0-1.33.5,2.26,2.26,0,0,0-.49,1.62v.69h2.7v1h-2.7v7.2h-1.24v-7.2h-1.78v-1h1.78v-.69a3.14,3.14,0,0,1,.82-2.37,3,3,0,0,1,2.2-.79,3.74,3.74,0,0,1,1.47.28,2.85,2.85,0,0,1,1.11.85Zm-.21.06s0,0,.07,0l.09,0-.05.07-.11-.07Zm.2,0c.07.1.08.13,0,.1l-.08,0Z"/><path d="M257.87,46.94a3.74,3.74,0,0,1-1.35-1.51,5.35,5.35,0,0,1,0-4.43,3.7,3.7,0,0,1,1.35-1.52,3.56,3.56,0,0,1,2-.55,3.51,3.51,0,0,1,2,.55A3.72,3.72,0,0,1,263.15,41a5.35,5.35,0,0,1,0,4.43,3.76,3.76,0,0,1-1.36,1.51,3.58,3.58,0,0,1-2,.54A3.63,3.63,0,0,1,257.87,46.94Zm3.21-1a2.67,2.67,0,0,0,.87-1.14,4.11,4.11,0,0,0,.31-1.65,3.63,3.63,0,0,0-.68-2.29,2.16,2.16,0,0,0-3.49,0,3.63,3.63,0,0,0-.69,2.29,4.12,4.12,0,0,0,.32,1.65,2.74,2.74,0,0,0,.86,1.14,2,2,0,0,0,1.25.42A2,2,0,0,0,261.08,46Z"/><path d="M265.76,47.33v-1h2.43V36.41h-2.33v-1h3.64V46.29h2.41v1Z"/><path d="M275.89,47a3.53,3.53,0,0,1-1.26-1.49,5.41,5.41,0,0,1-.49-2.39,5,5,0,0,1,.51-2.38,3.48,3.48,0,0,1,1.29-1.41,3.27,3.27,0,0,1,1.68-.46,2.77,2.77,0,0,1,1.45.38,2.49,2.49,0,0,1,.94,1v-5h1.37v.13a.51.51,0,0,0-.14.23,4,4,0,0,0,0,.44l0,9.9c0,.28,0,.52,0,.71a1.76,1.76,0,0,0,.16.56h-1.28a1.76,1.76,0,0,1-.16-.56c0-.19,0-.43,0-.71a3.18,3.18,0,0,1-1,1.07,2.65,2.65,0,0,1-1.4.38A3,3,0,0,1,275.89,47Zm3.49-1.52a4.5,4.5,0,0,0,.52-2.32,4.31,4.31,0,0,0-.56-2.34,2.09,2.09,0,0,0-3.36-.09,3.74,3.74,0,0,0-.58,2.19,4.48,4.48,0,0,0,.61,2.51,1.94,1.94,0,0,0,1.73.93A1.76,1.76,0,0,0,279.38,45.5Z"/><path d="M283.76,47.33v-1h2.43V36.41h-2.33v-1h3.64V46.29h2.41v1Z"/><path d="M304.85,48.59a8.53,8.53,0,0,1-1.72-2.68,8.17,8.17,0,0,1,0-6.12,8.27,8.27,0,0,1,1.69-2.6,8.54,8.54,0,0,1,2.53-1.83l.34,1.12a7.33,7.33,0,0,0-2.82,2.68,7.06,7.06,0,0,0-1.05,3.73,7.13,7.13,0,0,0,1.08,3.78,7.27,7.27,0,0,0,2.9,2.71l-.35,1.08A8.37,8.37,0,0,1,304.85,48.59Z"/><path d="M316.14,48.09l-5.65-12.17,1.06-.56,5.65,12.21Z"/><path d="M325.42,39.85a4.31,4.31,0,0,1,.92,3.11v4.37h-1.4V46.07a2.87,2.87,0,0,1-2.81,1.46,3.36,3.36,0,0,1-2.14-.62,2,2,0,0,1-.78-1.65,2.26,2.26,0,0,1,.56-1.51,3.74,3.74,0,0,1,1.51-1,6,6,0,0,1,2.08-.35,14.73,14.73,0,0,1,1.85.11,2.87,2.87,0,0,0-.73-1.95,2.64,2.64,0,0,0-1.85-.57,3.13,3.13,0,0,0-1.17.23,3.37,3.37,0,0,0-1,.69l-.63-.83a4,4,0,0,1,2.94-1.15A3.64,3.64,0,0,1,325.42,39.85Zm-1.06,5.91a3.32,3.32,0,0,0,.85-2.26,11.87,11.87,0,0,0-1.75-.13,4.39,4.39,0,0,0-2.16.45,1.49,1.49,0,0,0-.79,1.37c0,.9.58,1.35,1.75,1.35A2.81,2.81,0,0,0,324.36,45.76Z"/><path d="M334.68,45.35l.75.89a3.89,3.89,0,0,1-3,1.29,4,4,0,0,1-2.12-.56,3.89,3.89,0,0,1-1.47-1.54,4.83,4.83,0,0,1,0-4.4,4,4,0,0,1,1.47-1.53,4.05,4.05,0,0,1,2.11-.55,4,4,0,0,1,1.8.4,3.5,3.5,0,0,1,1.31,1.13l-.81.79,0,0a3.27,3.27,0,0,0-1.07-1A3.08,3.08,0,0,0,332.3,40a2.33,2.33,0,0,0-1.3.39,2.71,2.71,0,0,0-1,1.09,3.51,3.51,0,0,0-.36,1.62,3.71,3.71,0,0,0,.37,1.65,2.84,2.84,0,0,0,1,1.16,2.8,2.8,0,0,0,3.61-.6Zm0-4-.08.07-.09-.09C334.53,41.23,334.59,41.24,334.7,41.32Zm.08.06-.08-.06,0,0C334.79,41.37,334.81,41.4,334.78,41.38Z"/><path d="M343.68,45.35l.75.89a3.89,3.89,0,0,1-3,1.29,4,4,0,0,1-2.12-.56,3.89,3.89,0,0,1-1.47-1.54,4.83,4.83,0,0,1,0-4.4,4,4,0,0,1,1.47-1.53,4.05,4.05,0,0,1,2.11-.55,4,4,0,0,1,1.8.4,3.5,3.5,0,0,1,1.31,1.13l-.81.79,0,0a3.27,3.27,0,0,0-1.07-1A3.08,3.08,0,0,0,341.3,40a2.33,2.33,0,0,0-1.3.39,2.71,2.71,0,0,0-1,1.09,3.51,3.51,0,0,0-.36,1.62,3.71,3.71,0,0,0,.37,1.65,2.84,2.84,0,0,0,1,1.16,2.8,2.8,0,0,0,3.61-.6Zm0-4-.08.07-.09-.09C343.53,41.23,343.59,41.24,343.7,41.32Zm.08.06-.08-.06,0,0C343.79,41.37,343.81,41.4,343.78,41.38Z"/><path d="M355.18,47.33l2.9-4.17-2.85-4h1.43l2.14,3,2.05-3h1.33l-2.66,4,3,4.23h-1.47l-2.27-3.2-2.14,3.2Z"/><path d="M373.61,42.28V41.07h6.48v1.21Z"/><path d="M382.05,46.49V45.12l6.29-3.53-6.25-3.18V37.13l7.63,4V42Z"/><path d="M406.42,39.85a4.31,4.31,0,0,1,.92,3.11v4.37h-1.4V46.07a2.87,2.87,0,0,1-2.81,1.46,3.36,3.36,0,0,1-2.14-.62,2,2,0,0,1-.78-1.65,2.26,2.26,0,0,1,.56-1.51,3.74,3.74,0,0,1,1.51-1,6,6,0,0,1,2.08-.35,14.73,14.73,0,0,1,1.85.11,2.87,2.87,0,0,0-.73-1.95,2.64,2.64,0,0,0-1.85-.57,3.13,3.13,0,0,0-1.17.23,3.37,3.37,0,0,0-1,.69l-.63-.83a4,4,0,0,1,2.94-1.15A3.64,3.64,0,0,1,406.42,39.85Zm-1.06,5.91a3.32,3.32,0,0,0,.85-2.26,11.87,11.87,0,0,0-1.75-.13,4.39,4.39,0,0,0-2.16.45,1.49,1.49,0,0,0-.79,1.37c0,.9.58,1.35,1.75,1.35A2.81,2.81,0,0,0,405.36,45.76Z"/><path d="M415.68,45.35l.75.89a3.89,3.89,0,0,1-3,1.29,4,4,0,0,1-2.12-.56,3.89,3.89,0,0,1-1.47-1.54,4.83,4.83,0,0,1,0-4.4,4,4,0,0,1,1.47-1.53,4.05,4.05,0,0,1,2.11-.55,4,4,0,0,1,1.8.4,3.5,3.5,0,0,1,1.31,1.13l-.81.79,0,0a3.27,3.27,0,0,0-1.07-1A3.08,3.08,0,0,0,413.3,40a2.33,2.33,0,0,0-1.3.39,2.71,2.71,0,0,0-1,1.09,3.51,3.51,0,0,0-.36,1.62,3.71,3.71,0,0,0,.37,1.65,2.84,2.84,0,0,0,1,1.16,2.8,2.8,0,0,0,3.61-.6Zm0-4-.08.07-.09-.09C415.53,41.23,415.59,41.24,415.7,41.32Zm.08.06-.08-.06,0,0C415.79,41.37,415.81,41.4,415.78,41.38Z"/><path d="M424.68,45.35l.75.89a3.89,3.89,0,0,1-3,1.29,4,4,0,0,1-2.12-.56,3.89,3.89,0,0,1-1.47-1.54,4.83,4.83,0,0,1,0-4.4,4,4,0,0,1,1.47-1.53,4.05,4.05,0,0,1,2.11-.55,4,4,0,0,1,1.8.4,3.5,3.5,0,0,1,1.31,1.13l-.81.79,0,0a3.27,3.27,0,0,0-1.07-1A3.08,3.08,0,0,0,422.3,40a2.33,2.33,0,0,0-1.3.39,2.71,2.71,0,0,0-1,1.09,3.51,3.51,0,0,0-.36,1.62,3.71,3.71,0,0,0,.37,1.65,2.84,2.84,0,0,0,1,1.16,2.8,2.8,0,0,0,3.61-.6Zm0-4-.08.07-.09-.09C424.53,41.23,424.59,41.24,424.7,41.32Zm.08.06-.08-.06,0,0C424.79,41.37,424.81,41.4,424.78,41.38Z"/><path d="M439.33,45.46V42.1h-3.19V41h3.19V37.92h1.13V41h3.08v1.1h-3.08v3.36Z"/><path d="M448.33,45.46V42.1h-3.19V41h3.19V37.92h1.13V41h3.08v1.1h-3.08v3.36Z"/><path d="M466.85,48.59a8.53,8.53,0,0,1-1.72-2.68,8.17,8.17,0,0,1,0-6.12,8.27,8.27,0,0,1,1.69-2.6,8.54,8.54,0,0,1,2.53-1.83l.34,1.12a7.33,7.33,0,0,0-2.82,2.68,7.06,7.06,0,0,0-1.05,3.73,7.13,7.13,0,0,0,1.08,3.78,7.27,7.27,0,0,0,2.9,2.71l-.35,1.08A8.37,8.37,0,0,1,466.85,48.59Z"/><path d="M478.61,43.51a1.79,1.79,0,0,1,.64,1.43,2.33,2.33,0,0,1-.87,1.85,3.87,3.87,0,0,1-2.53.72,5,5,0,0,1-3.49-1.29l.72-1.23h0a4.26,4.26,0,0,0,1.15,1.08,3.09,3.09,0,0,0,1.62.36,2.82,2.82,0,0,0,1.53-.35,1.08,1.08,0,0,0,.56-1,1,1,0,0,0-.45-.86,5.75,5.75,0,0,0-1.62-.72c-2.07-.59-3.1-1.44-3.1-2.56a1.75,1.75,0,0,1,.78-1.51,3.84,3.84,0,0,1,2.24-.56,4.93,4.93,0,0,1,1.88.31,4,4,0,0,1,1.4,1l-.74.9h0a2.67,2.67,0,0,0-1.07-.91,3.24,3.24,0,0,0-1.41-.33,2.63,2.63,0,0,0-1.27.27.83.83,0,0,0-.49.76,1.05,1.05,0,0,0,.5.83,6.09,6.09,0,0,0,1.82.75A6.07,6.07,0,0,1,478.61,43.51Zm-5.55,1.37.07,0,0,.06C473.06,44.92,473.05,44.88,473.06,44.88Zm.23,0s-.05,0-.16,0l.06-.09.1.07Zm5-3.74-.05.07-.09-.09C478.16,41.1,478.2,41.11,478.3,41.18Zm.1,0s0,0,0,0l-.05,0,.05-.06A.2.2,0,0,1,478.4,41.21Z"/><path d="M481.65,35.36h1.42v.13a.51.51,0,0,0-.14.23,4,4,0,0,0,0,.44v4.41a3.78,3.78,0,0,1,1.21-1.21,2.81,2.81,0,0,1,1.49-.45,2.22,2.22,0,0,1,1.83.83,4.1,4.1,0,0,1,.67,2.61v5h-1.26V42.38a3.07,3.07,0,0,0-.41-1.78,1.32,1.32,0,0,0-1.1-.56,2.32,2.32,0,0,0-1.14.32,2.55,2.55,0,0,0-.92.9,2.43,2.43,0,0,0-.37,1.34v4.73h-1.26Z"/><path d="M491.87,46.94a3.74,3.74,0,0,1-1.35-1.51,5.35,5.35,0,0,1,0-4.43,3.7,3.7,0,0,1,1.35-1.52,3.56,3.56,0,0,1,2-.55,3.51,3.51,0,0,1,2,.55A3.72,3.72,0,0,1,497.15,41a5.35,5.35,0,0,1,0,4.43,3.76,3.76,0,0,1-1.36,1.51,3.58,3.58,0,0,1-2,.54A3.63,3.63,0,0,1,491.87,46.94Zm3.21-1a2.67,2.67,0,0,0,.87-1.14,4.11,4.11,0,0,0,.31-1.65,3.63,3.63,0,0,0-.68-2.29,2.16,2.16,0,0,0-3.49,0,3.63,3.63,0,0,0-.69,2.29,4.12,4.12,0,0,0,.32,1.65,2.74,2.74,0,0,0,.86,1.14,2,2,0,0,0,1.25.42A2,2,0,0,0,495.08,46Z"/><path d="M498.62,39.11h1.14l1.33,6.6,1.4-5.83h.79L505,45.7c.34-2.25.55-3.72.63-4.42a17.32,17.32,0,0,0,.13-1.9v-.27H507c-.36,2.78-.81,5.53-1.37,8.24H504.4L502.89,42l-1.44,5.33h-1.17Z"/><path d="M517.18,47.33l2.9-4.17-2.85-4h1.43l2.14,3,2.05-3h1.33l-2.66,4,3,4.23h-1.47l-2.27-3.2-2.14,3.2Z"/><path d="M527.38,49.38a7.27,7.27,0,0,0,2.9-2.71,7.13,7.13,0,0,0,1.08-3.78,7.06,7.06,0,0,0-1.05-3.73,7.33,7.33,0,0,0-2.82-2.68l.35-1.12a8.63,8.63,0,0,1,2.52,1.83,8.27,8.27,0,0,1,1.69,2.6,8.17,8.17,0,0,1,0,6.12,8.53,8.53,0,0,1-1.72,2.68,8.25,8.25,0,0,1-2.59,1.87Z"/><path d="M536.38,49.38a7.27,7.27,0,0,0,2.9-2.71,7.13,7.13,0,0,0,1.08-3.78,7.06,7.06,0,0,0-1.05-3.73,7.33,7.33,0,0,0-2.82-2.68l.35-1.12a8.63,8.63,0,0,1,2.52,1.83,8.27,8.27,0,0,1,1.69,2.6,8.17,8.17,0,0,1,0,6.12,8.53,8.53,0,0,1-1.72,2.68,8.25,8.25,0,0,1-2.59,1.87Z"/><path d="M556.2,35.36c0,1,0,1.75,0,2.23s-.08,1-.14,1.55l-.1.87h-.87l-.11-.87c-.06-.54-.1-1-.13-1.53s0-1.23,0-2.25Zm2.7,0c0,1,0,1.75,0,2.23s-.08,1-.14,1.55l-.1.87h-.87l-.11-.87c-.06-.54-.1-1-.13-1.53s0-1.23,0-2.25Z"/><path d="M565.2,35.36c0,1,0,1.75,0,2.23s-.08,1-.14,1.55l-.1.87h-.87l-.11-.87c-.06-.54-.1-1-.13-1.53s0-1.23,0-2.25Zm2.7,0c0,1,0,1.75,0,2.23s-.08,1-.14,1.55l-.1.87h-.87l-.11-.87c-.06-.54-.1-1-.13-1.53s0-1.23,0-2.25Z"/><path d="M581.69,48.94V35.27h5.15v1.08h-4V47.91h4v1Z"/><path d="M592.47,47.33V37.67l-2.26.66-.29-.7,2.93-1.53h.88V47.33Z"/><path d="M600.3,49.82a4.65,4.65,0,0,0,.84-1,1.82,1.82,0,0,0,.33-.88.4.4,0,0,0-.09-.27l-.32-.33a4.35,4.35,0,0,1-.38-.39.65.65,0,0,1-.12-.4,1,1,0,0,1,1.06-1.06,1.1,1.1,0,0,1,.85.42,1.55,1.55,0,0,1,.37,1.07q0,1.41-1.92,3.39Z"/><path d="M607.65,46.33l1.46-1.48c1-1,1.7-1.73,2.18-2.29a8.13,8.13,0,0,0,1.16-1.64,3.62,3.62,0,0,0,.43-1.71,2.07,2.07,0,0,0-.52-1.58,2,2,0,0,0-1.38-.48,3,3,0,0,0-1.43.34,2,2,0,0,0-.88.75l-.21.41a.86.86,0,0,0-.11.24l0,0,.07,0s.06,0,.07,0l0,.11-.17-.09-.91-.72a4,4,0,0,1,1.47-1.62,4.08,4.08,0,0,1,2.11-.56,3.22,3.22,0,0,1,2.33.86,3.14,3.14,0,0,1,.89,2.34,4,4,0,0,1-.47,1.89,8.59,8.59,0,0,1-1.19,1.75c-.49.55-1.16,1.25-2,2.1l-1.22,1.25h4.17a2.08,2.08,0,0,0,.43,0,.49.49,0,0,0,.24-.14h.13v1.27h-6.59Z"/><path d="M618.3,49.82a4.65,4.65,0,0,0,.84-1,1.82,1.82,0,0,0,.33-.88.4.4,0,0,0-.09-.27l-.32-.33a4.35,4.35,0,0,1-.38-.39.65.65,0,0,1-.12-.4,1,1,0,0,1,1.06-1.06,1.1,1.1,0,0,1,.85.42,1.55,1.55,0,0,1,.37,1.07q0,1.41-1.92,3.39Z"/><path d="M631.44,42.44a2.78,2.78,0,0,1,.58,1.82,3.37,3.37,0,0,1-.4,1.64,2.86,2.86,0,0,1-1.15,1.19,3.58,3.58,0,0,1-1.82.44,4.63,4.63,0,0,1-1.7-.32,3.78,3.78,0,0,1-1.37-1l.82-1h0a3.85,3.85,0,0,0,.93.89,2.26,2.26,0,0,0,1.23.3,2,2,0,0,0,1.58-.61,2.4,2.4,0,0,0,.54-1.64,2,2,0,0,0-.67-1.67,2.93,2.93,0,0,0-1.9-.56,5.53,5.53,0,0,0-.58,0V41a3.05,3.05,0,0,0,2.19-.6,2.19,2.19,0,0,0,.59-1.62,1.62,1.62,0,0,0-.45-1.2,1.54,1.54,0,0,0-1.16-.45,2.87,2.87,0,0,0-2,.83l-.75-.76a3.67,3.67,0,0,1,2.79-1.15,2.91,2.91,0,0,1,2.13.76,2.72,2.72,0,0,1,.78,2,2.86,2.86,0,0,1-.45,1.6,2.34,2.34,0,0,1-1.31,1A3.23,3.23,0,0,1,631.44,42.44Zm-5.05,2.72.07.05,0,0Q626.35,45.11,626.39,45.16Zm.18.09a.21.21,0,0,1-.11,0l.07-.09.09.09S626.6,45.26,626.57,45.25Z"/><path d="M640.86,48.94h-5.17v-1h4V36.35h-4V35.27h5.15Z"/><path d="M547.14,100.76l-5.65-12.17,1.06-.56,5.65,12.2Z"/><path d="M556.42,92.51a4.32,4.32,0,0,1,.92,3.12V100h-1.4V98.74a2.87,2.87,0,0,1-2.81,1.46,3.36,3.36,0,0,1-2.14-.62,2,2,0,0,1-.78-1.65,2.24,2.24,0,0,1,.56-1.51,3.64,3.64,0,0,1,1.51-1,6,6,0,0,1,2.08-.35,13.06,13.06,0,0,1,1.85.11,2.9,2.9,0,0,0-.73-2,2.69,2.69,0,0,0-1.85-.56,2.94,2.94,0,0,0-1.17.23,3.34,3.34,0,0,0-1,.68l-.63-.82a4,4,0,0,1,2.94-1.16A3.69,3.69,0,0,1,556.42,92.51Zm-1.06,5.91a3.29,3.29,0,0,0,.85-2.25,10.65,10.65,0,0,0-1.75-.13,4.39,4.39,0,0,0-2.16.45,1.49,1.49,0,0,0-.79,1.37c0,.9.58,1.35,1.75,1.35A2.77,2.77,0,0,0,555.36,98.42Z"/><path d="M565.68,98l.75.88a3.87,3.87,0,0,1-3,1.3,4.07,4.07,0,0,1-2.12-.56,3.89,3.89,0,0,1-1.47-1.54,4.83,4.83,0,0,1,0-4.4,3.93,3.93,0,0,1,1.47-1.53,4.06,4.06,0,0,1,2.11-.56,4,4,0,0,1,1.8.41,3.47,3.47,0,0,1,1.31,1.12l-.81.79,0,0a3.35,3.35,0,0,0-1.07-1,2.94,2.94,0,0,0-1.36-.28,2.33,2.33,0,0,0-1.3.39,2.71,2.71,0,0,0-1,1.09,3.46,3.46,0,0,0-.36,1.62,3.71,3.71,0,0,0,.37,1.65,2.81,2.81,0,0,0,1,1.15,2.68,2.68,0,0,0,1.47.42A2.8,2.8,0,0,0,565.68,98Zm0-4-.08.07-.09-.09C565.53,93.9,565.59,93.9,565.7,94Zm.08.05L565.7,94l0,0C565.79,94,565.81,94.07,565.78,94Z"/><path d="M574.68,98l.75.88a3.87,3.87,0,0,1-3,1.3,4.07,4.07,0,0,1-2.12-.56,3.89,3.89,0,0,1-1.47-1.54,4.83,4.83,0,0,1,0-4.4,3.93,3.93,0,0,1,1.47-1.53,4.06,4.06,0,0,1,2.11-.56,4,4,0,0,1,1.8.41,3.47,3.47,0,0,1,1.31,1.12l-.81.79,0,0a3.35,3.35,0,0,0-1.07-1,2.94,2.94,0,0,0-1.36-.28,2.33,2.33,0,0,0-1.3.39,2.71,2.71,0,0,0-1,1.09,3.46,3.46,0,0,0-.36,1.62,3.71,3.71,0,0,0,.37,1.65,2.81,2.81,0,0,0,1,1.15,2.68,2.68,0,0,0,1.47.42A2.8,2.8,0,0,0,574.68,98Zm0-4-.08.07-.09-.09C574.53,93.9,574.59,93.9,574.7,94Zm.08.05L574.7,94l0,0C574.79,94,574.81,94.07,574.78,94Z"/><path d="M586.18,100l2.9-4.18-2.85-4h1.43l2.14,3,2.05-3h1.33l-2.66,4,3,4.23h-1.47l-2.27-3.2-2.14,3.2Z"/><path d="M604.61,94.94v-1.2h6.48v1.2Z"/><path d="M613.05,99.15V97.79l6.29-3.53-6.25-3.19V89.79l7.63,4v.86Z"/><path d="M637.42,92.51a4.32,4.32,0,0,1,.92,3.12V100h-1.4V98.74a2.87,2.87,0,0,1-2.81,1.46,3.36,3.36,0,0,1-2.14-.62,2,2,0,0,1-.78-1.65,2.24,2.24,0,0,1,.56-1.51,3.64,3.64,0,0,1,1.51-1,6,6,0,0,1,2.08-.35,13.06,13.06,0,0,1,1.85.11,2.9,2.9,0,0,0-.73-2,2.69,2.69,0,0,0-1.85-.56,2.94,2.94,0,0,0-1.17.23,3.34,3.34,0,0,0-1,.68l-.63-.82a4,4,0,0,1,2.94-1.16A3.69,3.69,0,0,1,637.42,92.51Zm-1.06,5.91a3.29,3.29,0,0,0,.85-2.25,10.65,10.65,0,0,0-1.75-.13,4.39,4.39,0,0,0-2.16.45,1.49,1.49,0,0,0-.79,1.37c0,.9.58,1.35,1.75,1.35A2.77,2.77,0,0,0,636.36,98.42Z"/><path d="M646.68,98l.75.88a3.87,3.87,0,0,1-3,1.3,4.07,4.07,0,0,1-2.12-.56,3.89,3.89,0,0,1-1.47-1.54,4.83,4.83,0,0,1,0-4.4,3.93,3.93,0,0,1,1.47-1.53,4.06,4.06,0,0,1,2.11-.56,4,4,0,0,1,1.8.41,3.47,3.47,0,0,1,1.31,1.12l-.81.79,0,0a3.35,3.35,0,0,0-1.07-1,2.94,2.94,0,0,0-1.36-.28,2.33,2.33,0,0,0-1.3.39,2.71,2.71,0,0,0-1,1.09,3.46,3.46,0,0,0-.36,1.62,3.71,3.71,0,0,0,.37,1.65,2.81,2.81,0,0,0,1,1.15,2.68,2.68,0,0,0,1.47.42A2.8,2.8,0,0,0,646.68,98Zm0-4-.08.07-.09-.09C646.53,93.9,646.59,93.9,646.7,94Zm.08.05L646.7,94l0,0C646.79,94,646.81,94.07,646.78,94Z"/><path d="M655.68,98l.75.88a3.87,3.87,0,0,1-3,1.3,4.07,4.07,0,0,1-2.12-.56,3.89,3.89,0,0,1-1.47-1.54,4.83,4.83,0,0,1,0-4.4,3.93,3.93,0,0,1,1.47-1.53,4.06,4.06,0,0,1,2.11-.56,4,4,0,0,1,1.8.41,3.47,3.47,0,0,1,1.31,1.12l-.81.79,0,0a3.35,3.35,0,0,0-1.07-1,2.94,2.94,0,0,0-1.36-.28,2.33,2.33,0,0,0-1.3.39,2.71,2.71,0,0,0-1,1.09,3.46,3.46,0,0,0-.36,1.62,3.71,3.71,0,0,0,.37,1.65,2.81,2.81,0,0,0,1,1.15,2.68,2.68,0,0,0,1.47.42A2.8,2.8,0,0,0,655.68,98Zm0-4-.08.07-.09-.09C655.53,93.9,655.59,93.9,655.7,94Zm.08.05L655.7,94l0,0C655.79,94,655.81,94.07,655.78,94Z"/><path d="M670.33,98.13V94.76h-3.19v-1.1h3.19V90.59h1.13v3.07h3.08v1.1h-3.08v3.37Z"/><path d="M679.33,98.13V94.76h-3.19v-1.1h3.19V90.59h1.13v3.07h3.08v1.1h-3.08v3.37Z"/><path d="M697.85,101.26a8.65,8.65,0,0,1-1.72-2.68,8.2,8.2,0,0,1-.6-3.08,8.07,8.07,0,0,1,.59-3,8.27,8.27,0,0,1,1.69-2.6A8.54,8.54,0,0,1,700.34,88l.34,1.12a7.26,7.26,0,0,0-2.82,2.68,7.13,7.13,0,0,0,0,7.5,7.23,7.23,0,0,0,2.9,2.72l-.35,1.08A8.37,8.37,0,0,1,697.85,101.26Z"/><path d="M709.61,96.17a1.81,1.81,0,0,1,.64,1.44,2.31,2.31,0,0,1-.87,1.84,3.82,3.82,0,0,1-2.53.73,4.92,4.92,0,0,1-3.49-1.3l.72-1.22,0,0,0,0a4.26,4.26,0,0,0,1.15,1.08,3.09,3.09,0,0,0,1.62.36,2.91,2.91,0,0,0,1.53-.35,1.09,1.09,0,0,0,.56-1,1.05,1.05,0,0,0-.45-.87,5.75,5.75,0,0,0-1.62-.72c-2.07-.59-3.1-1.44-3.1-2.55a1.78,1.78,0,0,1,.78-1.52,3.84,3.84,0,0,1,2.24-.55,4.93,4.93,0,0,1,1.88.31,4.1,4.1,0,0,1,1.4,1l-.74.9,0,0a2.6,2.6,0,0,0-1.07-.91,3.24,3.24,0,0,0-1.41-.33,2.63,2.63,0,0,0-1.27.27.82.82,0,0,0-.49.75,1,1,0,0,0,.5.83,6,6,0,0,0,1.82.76A6.26,6.26,0,0,1,709.61,96.17Zm-5.55,1.38a.13.13,0,0,1,.07,0l0,0C704.06,97.58,704.05,97.55,704.06,97.55Zm.23,0s0,0-.16,0l.06-.09.1.07Zm5-3.75,0,.08-.09-.09C709.16,93.77,709.2,93.77,709.3,93.84Zm.1,0s0,0,0,0a.1.1,0,0,1-.05,0l.05,0A.2.2,0,0,1,709.4,93.88Z"/><path d="M712.65,88h1.42v.13a.51.51,0,0,0-.14.23,3.8,3.8,0,0,0,0,.43v4.41a3.85,3.85,0,0,1,1.21-1.2,2.81,2.81,0,0,1,1.49-.45,2.21,2.21,0,0,1,1.83.82,4.14,4.14,0,0,1,.67,2.61v5h-1.26v-5a3.05,3.05,0,0,0-.41-1.78,1.32,1.32,0,0,0-1.1-.56,2.32,2.32,0,0,0-1.14.32,2.53,2.53,0,0,0-.92.89,2.44,2.44,0,0,0-.37,1.35V100h-1.26Z"/><path d="M722.87,99.6a3.67,3.67,0,0,1-1.35-1.51,5.35,5.35,0,0,1,0-4.43,3.83,3.83,0,0,1,1.35-1.52,3.64,3.64,0,0,1,2-.55,3.59,3.59,0,0,1,2,.55,3.85,3.85,0,0,1,1.36,1.52,5.35,5.35,0,0,1,0,4.43,3.69,3.69,0,0,1-1.36,1.51,3.58,3.58,0,0,1-2,.54A3.63,3.63,0,0,1,722.87,99.6Zm3.21-.95a2.8,2.8,0,0,0,.87-1.14,4.15,4.15,0,0,0,.31-1.65,3.66,3.66,0,0,0-.68-2.3,2.16,2.16,0,0,0-3.49,0,3.66,3.66,0,0,0-.69,2.3,4.15,4.15,0,0,0,.32,1.65,2.87,2.87,0,0,0,.86,1.14,2,2,0,0,0,1.25.41A2,2,0,0,0,726.08,98.65Z"/><path d="M729.62,91.77h1.14l1.33,6.61,1.4-5.83h.79L736,98.36c.34-2.24.55-3.72.63-4.42a17,17,0,0,0,.13-1.9v-.27H738c-.36,2.79-.81,5.54-1.37,8.25H735.4l-1.51-5.33L732.45,100h-1.17Z"/><path d="M748.18,100l2.9-4.18-2.85-4h1.43l2.14,3,2.05-3h1.33l-2.66,4,3,4.23h-1.47l-2.27-3.2-2.14,3.2Z"/><path d="M758.38,102.05a7.23,7.23,0,0,0,2.9-2.72,7.13,7.13,0,0,0,0-7.5,7.26,7.26,0,0,0-2.82-2.68l.35-1.12a8.63,8.63,0,0,1,2.52,1.83,8.27,8.27,0,0,1,1.69,2.6,8.07,8.07,0,0,1,.59,3,8.2,8.2,0,0,1-.6,3.08,8.65,8.65,0,0,1-1.72,2.68,8.25,8.25,0,0,1-2.59,1.87Z"/><path d="M576.41,138.13a1.85,1.85,0,0,1-.42-1.25c0-1.14.74-2.46,2.23-3.94l.71.65a4.82,4.82,0,0,0-1,1.15,2.2,2.2,0,0,0-.4,1,.56.56,0,0,0,.12.33,3,3,0,0,0,.36.34,2.72,2.72,0,0,1,.45.47.75.75,0,0,1,.16.48,1.18,1.18,0,0,1-.36.86,1.22,1.22,0,0,1-.9.36A1.27,1.27,0,0,1,576.41,138.13Zm4.35,0a1.85,1.85,0,0,1-.42-1.25c0-1.14.74-2.46,2.23-3.94l.71.65a5.11,5.11,0,0,0-1,1.15,2.32,2.32,0,0,0-.4,1,.58.58,0,0,0,.13.33,2.42,2.42,0,0,0,.36.34,3.79,3.79,0,0,1,.45.47.81.81,0,0,1,.16.48,1.18,1.18,0,0,1-.36.86,1.22,1.22,0,0,1-.9.36A1.27,1.27,0,0,1,580.76,138.13Z"/><path d="M589.66,146.33V135.06l-2.64.77-.34-.82,3.42-1.78h1v13.1Z"/><path d="M599.58,133.43a1.85,1.85,0,0,1,.42,1.25c0,1.15-.75,2.46-2.23,3.95l-.71-.65a5.34,5.34,0,0,0,1-1.16,2.13,2.13,0,0,0,.4-1,.47.47,0,0,0-.13-.32,1.92,1.92,0,0,0-.35-.35,2.71,2.71,0,0,1-.45-.46.76.76,0,0,1-.16-.49,1.21,1.21,0,0,1,1.26-1.21A1.27,1.27,0,0,1,599.58,133.43Zm4.34,0a1.85,1.85,0,0,1,.42,1.25c0,1.15-.74,2.46-2.22,3.95l-.72-.65a5.39,5.39,0,0,0,1-1.16,2.24,2.24,0,0,0,.4-1,.47.47,0,0,0-.13-.32,1.92,1.92,0,0,0-.35-.35,3.3,3.3,0,0,1-.46-.46.81.81,0,0,1-.15-.49,1.17,1.17,0,0,1,.35-.86,1.22,1.22,0,0,1,.91-.35A1.25,1.25,0,0,1,603.92,133.43Z"/><path d="M619.08,148.2V132.26h6v1.26h-4.66V147h4.68v1.19Z"/><path d="M628.37,145.16l1.7-1.72q1.7-1.71,2.55-2.67a9.65,9.65,0,0,0,1.35-1.92,4.18,4.18,0,0,0,.51-2,2.46,2.46,0,0,0-.61-1.85,2.33,2.33,0,0,0-1.62-.56,3.52,3.52,0,0,0-1.67.4,2.28,2.28,0,0,0-1,.88l-.25.47a1.43,1.43,0,0,0-.12.28s0,0,0,0l.08,0s.07,0,.09.06l-.07.12-.19-.1-1.07-.84a4.61,4.61,0,0,1,1.72-1.88,4.67,4.67,0,0,1,2.46-.66,3.74,3.74,0,0,1,2.72,1,3.66,3.66,0,0,1,1,2.73,4.73,4.73,0,0,1-.55,2.21,10.24,10.24,0,0,1-1.39,2c-.57.64-1.36,1.46-2.37,2.45l-1.42,1.45h4.87a2,2,0,0,0,.49,0,.62.62,0,0,0,.29-.17h.14v1.49h-7.68Z"/><path d="M640.8,149.23a5.64,5.64,0,0,0,1-1.17,2.26,2.26,0,0,0,.38-1,.47.47,0,0,0-.1-.32c-.07-.08-.2-.21-.38-.38a3.53,3.53,0,0,1-.44-.46.71.71,0,0,1-.15-.46,1.22,1.22,0,0,1,.35-.88,1.18,1.18,0,0,1,.89-.36,1.32,1.32,0,0,1,1,.49,1.83,1.83,0,0,1,.43,1.25c0,1.1-.75,2.41-2.25,4Z"/><path d="M656.13,140.62a3.28,3.28,0,0,1,.67,2.12,4,4,0,0,1-.46,1.92,3.41,3.41,0,0,1-1.35,1.39,4.13,4.13,0,0,1-2.12.51,5.24,5.24,0,0,1-2-.37,4.54,4.54,0,0,1-1.61-1.12l1-1.15,0,0,0,0a4.49,4.49,0,0,0,1.08,1,2.6,2.6,0,0,0,1.44.35,2.33,2.33,0,0,0,1.85-.71,2.77,2.77,0,0,0,.63-1.91,2.36,2.36,0,0,0-.79-2,3.33,3.33,0,0,0-2.21-.65c-.14,0-.37,0-.68,0v-1.18a3.62,3.62,0,0,0,2.56-.69,2.59,2.59,0,0,0,.68-1.89,1.9,1.9,0,0,0-.52-1.41,1.79,1.79,0,0,0-1.35-.52,3.42,3.42,0,0,0-2.4,1l-.88-.88a4.33,4.33,0,0,1,3.26-1.34,3.39,3.39,0,0,1,2.49.89,3.17,3.17,0,0,1,.91,2.36,3.33,3.33,0,0,1-.53,1.87,2.75,2.75,0,0,1-1.53,1.11A3.85,3.85,0,0,1,656.13,140.62Zm-5.89,3.17a.45.45,0,0,1,.07.07l0,0C650.21,143.8,650.2,143.76,650.24,143.79Zm.2.12-.13,0,.09-.11.1.11S650.48,143.92,650.44,143.91Z"/><path d="M667.11,148.2h-6V147h4.69V133.52h-4.66v-1.26h6Z"/><path d="M581.14,202.76l-5.65-12.17,1.06-.56,5.65,12.2Z"/><path d="M590.42,194.51a4.32,4.32,0,0,1,.92,3.12V202h-1.4v-1.26a2.87,2.87,0,0,1-2.81,1.46,3.36,3.36,0,0,1-2.14-.62,2,2,0,0,1-.78-1.65,2.24,2.24,0,0,1,.56-1.51,3.64,3.64,0,0,1,1.51-1,6,6,0,0,1,2.08-.35,13.06,13.06,0,0,1,1.85.11,2.9,2.9,0,0,0-.73-2,2.69,2.69,0,0,0-1.85-.56,2.94,2.94,0,0,0-1.17.23,3.34,3.34,0,0,0-1,.68l-.63-.82a4,4,0,0,1,2.94-1.16A3.69,3.69,0,0,1,590.42,194.51Zm-1.06,5.91a3.29,3.29,0,0,0,.85-2.25,10.65,10.65,0,0,0-1.75-.13,4.39,4.39,0,0,0-2.16.45,1.49,1.49,0,0,0-.79,1.37c0,.9.58,1.35,1.75,1.35A2.77,2.77,0,0,0,589.36,200.42Z"/><path d="M599.68,200l.75.88a3.87,3.87,0,0,1-3,1.3,4.07,4.07,0,0,1-2.12-.56,3.89,3.89,0,0,1-1.47-1.54,4.83,4.83,0,0,1,0-4.4,3.93,3.93,0,0,1,1.47-1.53,4.06,4.06,0,0,1,2.11-.56,4,4,0,0,1,1.8.41,3.47,3.47,0,0,1,1.31,1.12l-.81.79,0,0a3.35,3.35,0,0,0-1.07-1,2.94,2.94,0,0,0-1.36-.28,2.33,2.33,0,0,0-1.3.39,2.71,2.71,0,0,0-1,1.09,3.46,3.46,0,0,0-.36,1.62,3.71,3.71,0,0,0,.37,1.65,2.81,2.81,0,0,0,1,1.15,2.68,2.68,0,0,0,1.47.42A2.8,2.8,0,0,0,599.68,200Zm0-4-.08.07-.09-.09C599.53,195.9,599.59,195.9,599.7,196Zm.08,0-.08,0,0,0C599.79,196,599.81,196.07,599.78,196Z"/><path d="M608.68,200l.75.88a3.87,3.87,0,0,1-3,1.3,4.07,4.07,0,0,1-2.12-.56,3.89,3.89,0,0,1-1.47-1.54,4.83,4.83,0,0,1,0-4.4,3.93,3.93,0,0,1,1.47-1.53,4.06,4.06,0,0,1,2.11-.56,4,4,0,0,1,1.8.41,3.47,3.47,0,0,1,1.31,1.12l-.81.79,0,0a3.35,3.35,0,0,0-1.07-1,2.94,2.94,0,0,0-1.36-.28,2.33,2.33,0,0,0-1.3.39,2.71,2.71,0,0,0-1,1.09,3.46,3.46,0,0,0-.36,1.62,3.71,3.71,0,0,0,.37,1.65,2.81,2.81,0,0,0,1,1.15,2.68,2.68,0,0,0,1.47.42A2.8,2.8,0,0,0,608.68,200Zm0-4-.08.07-.09-.09C608.53,195.9,608.59,195.9,608.7,196Zm.08,0-.08,0,0,0C608.79,196,608.81,196.07,608.78,196Z"/><path d="M620.18,202l2.9-4.18-2.85-4h1.43l2.14,3,2.05-3h1.33l-2.66,4,3,4.23h-1.47l-2.27-3.2-2.14,3.2Z"/><path d="M638.61,196.94v-1.2h6.48v1.2Z"/><path d="M647.05,201.15v-1.36l6.29-3.53-6.25-3.19v-1.28l7.63,4v.86Z"/><path d="M671.42,194.51a4.32,4.32,0,0,1,.92,3.12V202h-1.4v-1.26a2.87,2.87,0,0,1-2.81,1.46,3.36,3.36,0,0,1-2.14-.62,2,2,0,0,1-.78-1.65,2.24,2.24,0,0,1,.56-1.51,3.64,3.64,0,0,1,1.51-1,6,6,0,0,1,2.08-.35,13.06,13.06,0,0,1,1.85.11,2.9,2.9,0,0,0-.73-2,2.69,2.69,0,0,0-1.85-.56,2.94,2.94,0,0,0-1.17.23,3.34,3.34,0,0,0-1,.68l-.63-.82a4,4,0,0,1,2.94-1.16A3.69,3.69,0,0,1,671.42,194.51Zm-1.06,5.91a3.29,3.29,0,0,0,.85-2.25,10.65,10.65,0,0,0-1.75-.13,4.39,4.39,0,0,0-2.16.45,1.49,1.49,0,0,0-.79,1.37c0,.9.58,1.35,1.75,1.35A2.77,2.77,0,0,0,670.36,200.42Z"/><path d="M680.68,200l.75.88a3.87,3.87,0,0,1-3,1.3,4.07,4.07,0,0,1-2.12-.56,3.89,3.89,0,0,1-1.47-1.54,4.83,4.83,0,0,1,0-4.4,3.93,3.93,0,0,1,1.47-1.53,4.06,4.06,0,0,1,2.11-.56,4,4,0,0,1,1.8.41,3.47,3.47,0,0,1,1.31,1.12l-.81.79,0,0a3.35,3.35,0,0,0-1.07-1,2.94,2.94,0,0,0-1.36-.28,2.33,2.33,0,0,0-1.3.39,2.71,2.71,0,0,0-1,1.09,3.46,3.46,0,0,0-.36,1.62,3.71,3.71,0,0,0,.37,1.65,2.81,2.81,0,0,0,1,1.15,2.68,2.68,0,0,0,1.47.42A2.8,2.8,0,0,0,680.68,200Zm0-4-.08.07-.09-.09C680.53,195.9,680.59,195.9,680.7,196Zm.08,0-.08,0,0,0C680.79,196,680.81,196.07,680.78,196Z"/><path d="M689.68,200l.75.88a3.87,3.87,0,0,1-3,1.3,4.07,4.07,0,0,1-2.12-.56,3.89,3.89,0,0,1-1.47-1.54,4.83,4.83,0,0,1,0-4.4,3.93,3.93,0,0,1,1.47-1.53,4.06,4.06,0,0,1,2.11-.56,4,4,0,0,1,1.8.41,3.47,3.47,0,0,1,1.31,1.12l-.81.79,0,0a3.35,3.35,0,0,0-1.07-1,2.94,2.94,0,0,0-1.36-.28,2.33,2.33,0,0,0-1.3.39,2.71,2.71,0,0,0-1,1.09,3.46,3.46,0,0,0-.36,1.62,3.71,3.71,0,0,0,.37,1.65,2.81,2.81,0,0,0,1,1.15,2.68,2.68,0,0,0,1.47.42A2.8,2.8,0,0,0,689.68,200Zm0-4-.08.07-.09-.09C689.53,195.9,689.59,195.9,689.7,196Zm.08,0-.08,0,0,0C689.79,196,689.81,196.07,689.78,196Z"/><path d="M704.33,200.13v-3.37h-3.19v-1.1h3.19v-3.07h1.13v3.07h3.08v1.1h-3.08v3.37Z"/><path d="M713.33,200.13v-3.37h-3.19v-1.1h3.19v-3.07h1.13v3.07h3.08v1.1h-3.08v3.37Z"/><path d="M731.85,203.26a8.65,8.65,0,0,1-1.72-2.68,8.2,8.2,0,0,1-.6-3.08,8.07,8.07,0,0,1,.59-3,8.27,8.27,0,0,1,1.69-2.6,8.54,8.54,0,0,1,2.53-1.83l.34,1.12a7.26,7.26,0,0,0-2.82,2.68,7.13,7.13,0,0,0,0,7.5,7.23,7.23,0,0,0,2.9,2.72l-.35,1.08A8.37,8.37,0,0,1,731.85,203.26Z"/><path d="M743.61,198.17a1.81,1.81,0,0,1,.64,1.44,2.31,2.31,0,0,1-.87,1.84,3.82,3.82,0,0,1-2.53.73,4.92,4.92,0,0,1-3.49-1.3l.72-1.22,0,0,0,0a4.26,4.26,0,0,0,1.15,1.08,3.09,3.09,0,0,0,1.62.36,2.91,2.91,0,0,0,1.53-.35,1.09,1.09,0,0,0,.56-1,1.05,1.05,0,0,0-.45-.87,5.75,5.75,0,0,0-1.62-.72c-2.07-.59-3.1-1.44-3.1-2.55a1.78,1.78,0,0,1,.78-1.52,3.84,3.84,0,0,1,2.24-.55,4.93,4.93,0,0,1,1.88.31,4.1,4.1,0,0,1,1.4,1l-.74.9,0,0a2.6,2.6,0,0,0-1.07-.91,3.24,3.24,0,0,0-1.41-.33,2.63,2.63,0,0,0-1.27.27.82.82,0,0,0-.49.75,1,1,0,0,0,.5.83,6,6,0,0,0,1.82.76A6.26,6.26,0,0,1,743.61,198.17Zm-5.55,1.38a.13.13,0,0,1,.07,0l0,0C738.06,199.58,738.05,199.55,738.06,199.55Zm.23,0s0,0-.16,0l.06-.09.1.07Zm5-3.75,0,.08-.09-.09C743.16,195.77,743.2,195.77,743.3,195.84Zm.1,0h0a.1.1,0,0,1-.05,0l.05-.05A.2.2,0,0,1,743.4,195.88Z"/><path d="M746.65,190h1.42v.13a.51.51,0,0,0-.14.23,3.8,3.8,0,0,0,0,.43v4.41a3.85,3.85,0,0,1,1.21-1.2,2.81,2.81,0,0,1,1.49-.45,2.21,2.21,0,0,1,1.83.82,4.14,4.14,0,0,1,.67,2.61v5h-1.26v-4.95a3.05,3.05,0,0,0-.41-1.78,1.32,1.32,0,0,0-1.1-.56,2.32,2.32,0,0,0-1.14.32,2.53,2.53,0,0,0-.92.89,2.44,2.44,0,0,0-.37,1.35V202h-1.26Z"/><path d="M756.87,201.6a3.67,3.67,0,0,1-1.35-1.51,5.35,5.35,0,0,1,0-4.43,3.83,3.83,0,0,1,1.35-1.52,3.64,3.64,0,0,1,2-.55,3.59,3.59,0,0,1,2,.55,3.85,3.85,0,0,1,1.36,1.52,5.35,5.35,0,0,1,0,4.43,3.69,3.69,0,0,1-1.36,1.51,3.58,3.58,0,0,1-2,.54A3.63,3.63,0,0,1,756.87,201.6Zm3.21-.95a2.8,2.8,0,0,0,.87-1.14,4.15,4.15,0,0,0,.31-1.65,3.66,3.66,0,0,0-.68-2.3,2.16,2.16,0,0,0-3.49,0,3.66,3.66,0,0,0-.69,2.3,4.15,4.15,0,0,0,.32,1.65,2.87,2.87,0,0,0,.86,1.14,2,2,0,0,0,1.25.41A2,2,0,0,0,760.08,200.65Z"/><path d="M763.62,193.77h1.14l1.33,6.61,1.4-5.83h.79l1.75,5.81c.34-2.24.55-3.72.63-4.42a17,17,0,0,0,.13-1.9v-.27H772c-.36,2.79-.81,5.54-1.37,8.25H769.4l-1.51-5.33L766.45,202h-1.17Z"/><path d="M782.18,202l2.9-4.18-2.85-4h1.43l2.14,3,2.05-3h1.33l-2.66,4,3,4.23h-1.47l-2.27-3.2-2.14,3.2Z"/><path d="M792.38,204.05a7.23,7.23,0,0,0,2.9-2.72,7.13,7.13,0,0,0,0-7.5,7.26,7.26,0,0,0-2.82-2.68l.35-1.12a8.63,8.63,0,0,1,2.52,1.83,8.27,8.27,0,0,1,1.69,2.6,8.07,8.07,0,0,1,.59,3,8.2,8.2,0,0,1-.6,3.08,8.65,8.65,0,0,1-1.72,2.68,8.25,8.25,0,0,1-2.59,1.87Z"/><path d="M634.41,243.13a1.85,1.85,0,0,1-.42-1.25c0-1.14.74-2.46,2.23-3.94l.71.65a4.82,4.82,0,0,0-1,1.15,2.2,2.2,0,0,0-.4,1,.56.56,0,0,0,.12.33,3,3,0,0,0,.36.34,2.72,2.72,0,0,1,.45.47.75.75,0,0,1,.16.48,1.18,1.18,0,0,1-.36.86,1.22,1.22,0,0,1-.9.36A1.27,1.27,0,0,1,634.41,243.13Zm4.35,0a1.85,1.85,0,0,1-.42-1.25c0-1.14.74-2.46,2.23-3.94l.71.65a5.11,5.11,0,0,0-1,1.15,2.32,2.32,0,0,0-.4,1,.58.58,0,0,0,.13.33,2.42,2.42,0,0,0,.36.34,3.79,3.79,0,0,1,.45.47.81.81,0,0,1,.16.48,1.18,1.18,0,0,1-.36.86,1.22,1.22,0,0,1-.9.36A1.27,1.27,0,0,1,638.76,243.13Z"/><path d="M647.66,251.33V240.06l-2.64.77-.34-.82,3.42-1.78h1v13.1Z"/><path d="M654.87,250.16l1.7-1.72q1.7-1.71,2.55-2.67a9.65,9.65,0,0,0,1.35-1.92,4.18,4.18,0,0,0,.51-2,2.46,2.46,0,0,0-.61-1.85,2.33,2.33,0,0,0-1.62-.56,3.52,3.52,0,0,0-1.67.4,2.28,2.28,0,0,0-1,.88l-.25.47a1.43,1.43,0,0,0-.12.28s0,0,0,0l.08,0s.07,0,.09.06l-.07.12-.19-.1-1.07-.84a4.61,4.61,0,0,1,1.72-1.88,4.67,4.67,0,0,1,2.46-.66,3.74,3.74,0,0,1,2.72,1,3.66,3.66,0,0,1,1,2.73,4.73,4.73,0,0,1-.55,2.21,10.24,10.24,0,0,1-1.39,2c-.57.64-1.36,1.46-2.37,2.45l-1.42,1.45h4.87a2,2,0,0,0,.49,0,.62.62,0,0,0,.29-.17h.14v1.49h-7.68Z"/><path d="M668.08,238.43a1.85,1.85,0,0,1,.42,1.25c0,1.15-.75,2.46-2.23,3.95l-.71-.65a5.34,5.34,0,0,0,1-1.16,2.13,2.13,0,0,0,.4-1,.47.47,0,0,0-.13-.32,1.92,1.92,0,0,0-.35-.35,2.71,2.71,0,0,1-.45-.46.76.76,0,0,1-.16-.49,1.21,1.21,0,0,1,1.26-1.21A1.27,1.27,0,0,1,668.08,238.43Zm4.34,0a1.85,1.85,0,0,1,.42,1.25c0,1.15-.74,2.46-2.22,3.95l-.72-.65a5.39,5.39,0,0,0,1-1.16,2.24,2.24,0,0,0,.4-1,.47.47,0,0,0-.13-.32,1.92,1.92,0,0,0-.35-.35,3.3,3.3,0,0,1-.46-.46.81.81,0,0,1-.15-.49,1.17,1.17,0,0,1,.35-.86,1.22,1.22,0,0,1,.91-.35A1.25,1.25,0,0,1,672.42,238.43Z"/><path d="M687.58,253.2V237.26h6v1.26h-4.66V252h4.68v1.19Z"/><path d="M703.63,245.62a3.28,3.28,0,0,1,.67,2.12,4,4,0,0,1-.46,1.92,3.41,3.41,0,0,1-1.35,1.39,4.13,4.13,0,0,1-2.12.51,5.24,5.24,0,0,1-2-.37,4.54,4.54,0,0,1-1.61-1.12l1-1.15,0,0,0,0a4.49,4.49,0,0,0,1.08,1,2.6,2.6,0,0,0,1.44.35,2.33,2.33,0,0,0,1.85-.71,2.77,2.77,0,0,0,.63-1.91,2.36,2.36,0,0,0-.79-2,3.33,3.33,0,0,0-2.21-.65c-.14,0-.37,0-.68,0v-1.18a3.62,3.62,0,0,0,2.56-.69,2.59,2.59,0,0,0,.68-1.89,1.9,1.9,0,0,0-.52-1.41,1.79,1.79,0,0,0-1.35-.52,3.42,3.42,0,0,0-2.4,1l-.88-.88a4.33,4.33,0,0,1,3.26-1.34,3.39,3.39,0,0,1,2.49.89,3.17,3.17,0,0,1,.91,2.36,3.33,3.33,0,0,1-.53,1.87,2.75,2.75,0,0,1-1.53,1.11A3.85,3.85,0,0,1,703.63,245.62Zm-5.89,3.17a.45.45,0,0,1,.07.07l0,0C697.71,248.8,697.7,248.76,697.74,248.79Zm.2.12-.13,0,.09-.11.1.11S698,248.92,697.94,248.91Z"/><path d="M714.61,253.2h-6V252h4.69V238.52h-4.66v-1.26h6Z"/><path d="M645,208.43a76.44,76.44,0,0,0-.42,16.56c.16,1.91,3.17,1.93,3,0a76.44,76.44,0,0,1,.42-16.56c.25-1.91-2.75-1.89-3,0Z"/><path d="M647.51,225l-4-4c-1.36-1.38-3.48.75-2.13,2.13l4,4c1.35,1.38,3.47-.74,2.12-2.12Z"/><path d="M647.51,227l4.08-3.4a1.52,1.52,0,0,0,0-2.13,1.54,1.54,0,0,0-2.12,0l-4.08,3.41a1.5,1.5,0,0,0,2.12,2.12Z"/><path d="M636.14,306.76l-5.65-12.17,1.06-.56,5.65,12.2Z"/><path d="M645.42,298.51a4.32,4.32,0,0,1,.92,3.12V306h-1.4v-1.26a2.87,2.87,0,0,1-2.81,1.46,3.36,3.36,0,0,1-2.14-.62,2,2,0,0,1-.78-1.65,2.24,2.24,0,0,1,.56-1.51,3.64,3.64,0,0,1,1.51-1,6,6,0,0,1,2.08-.35,13.06,13.06,0,0,1,1.85.11,2.9,2.9,0,0,0-.73-2,2.69,2.69,0,0,0-1.85-.56,2.94,2.94,0,0,0-1.17.23,3.34,3.34,0,0,0-1,.68l-.63-.82a4,4,0,0,1,2.94-1.16A3.69,3.69,0,0,1,645.42,298.51Zm-1.06,5.91a3.29,3.29,0,0,0,.85-2.25,10.65,10.65,0,0,0-1.75-.13,4.39,4.39,0,0,0-2.16.45,1.49,1.49,0,0,0-.79,1.37c0,.9.58,1.35,1.75,1.35A2.77,2.77,0,0,0,644.36,304.42Z"/><path d="M654.68,304l.75.88a3.87,3.87,0,0,1-3,1.3,4.07,4.07,0,0,1-2.12-.56,3.89,3.89,0,0,1-1.47-1.54,4.83,4.83,0,0,1,0-4.4,3.93,3.93,0,0,1,1.47-1.53,4.06,4.06,0,0,1,2.11-.56,4,4,0,0,1,1.8.41,3.47,3.47,0,0,1,1.31,1.12l-.81.79,0,0a3.35,3.35,0,0,0-1.07-1,2.94,2.94,0,0,0-1.36-.28,2.33,2.33,0,0,0-1.3.39,2.71,2.71,0,0,0-1,1.09,3.46,3.46,0,0,0-.36,1.62,3.71,3.71,0,0,0,.37,1.65,2.81,2.81,0,0,0,1,1.15,2.68,2.68,0,0,0,1.47.42A2.8,2.8,0,0,0,654.68,304Zm0-4-.08.07-.09-.09C654.53,299.9,654.59,299.9,654.7,300Zm.08.05-.08-.05,0,0C654.79,300,654.81,300.07,654.78,300Z"/><path d="M663.68,304l.75.88a3.87,3.87,0,0,1-3,1.3,4.07,4.07,0,0,1-2.12-.56,3.89,3.89,0,0,1-1.47-1.54,4.83,4.83,0,0,1,0-4.4,3.93,3.93,0,0,1,1.47-1.53,4.06,4.06,0,0,1,2.11-.56,4,4,0,0,1,1.8.41,3.47,3.47,0,0,1,1.31,1.12l-.81.79,0,0a3.35,3.35,0,0,0-1.07-1,2.94,2.94,0,0,0-1.36-.28,2.33,2.33,0,0,0-1.3.39,2.71,2.71,0,0,0-1,1.09,3.46,3.46,0,0,0-.36,1.62,3.71,3.71,0,0,0,.37,1.65,2.81,2.81,0,0,0,1,1.15,2.68,2.68,0,0,0,1.47.42A2.8,2.8,0,0,0,663.68,304Zm0-4-.08.07-.09-.09C663.53,299.9,663.59,299.9,663.7,300Zm.08.05-.08-.05,0,0C663.79,300,663.81,300.07,663.78,300Z"/><path d="M675.18,306l2.9-4.18-2.85-4.05h1.43l2.14,3.05,2.05-3.05h1.33l-2.66,4,3,4.23h-1.47l-2.27-3.2-2.14,3.2Z"/><path d="M693.61,300.94v-1.2h6.48v1.2Z"/><path d="M702.05,305.15v-1.36l6.29-3.53-6.25-3.19v-1.28l7.63,4v.86Z"/><path d="M726.42,298.51a4.32,4.32,0,0,1,.92,3.12V306h-1.4v-1.26a2.87,2.87,0,0,1-2.81,1.46,3.36,3.36,0,0,1-2.14-.62,2,2,0,0,1-.78-1.65,2.24,2.24,0,0,1,.56-1.51,3.64,3.64,0,0,1,1.51-1,6,6,0,0,1,2.08-.35,13.06,13.06,0,0,1,1.85.11,2.9,2.9,0,0,0-.73-2,2.69,2.69,0,0,0-1.85-.56,2.94,2.94,0,0,0-1.17.23,3.34,3.34,0,0,0-1,.68l-.63-.82a4,4,0,0,1,2.94-1.16A3.69,3.69,0,0,1,726.42,298.51Zm-1.06,5.91a3.29,3.29,0,0,0,.85-2.25,10.65,10.65,0,0,0-1.75-.13,4.39,4.39,0,0,0-2.16.45,1.49,1.49,0,0,0-.79,1.37c0,.9.58,1.35,1.75,1.35A2.77,2.77,0,0,0,725.36,304.42Z"/><path d="M735.68,304l.75.88a3.87,3.87,0,0,1-3,1.3,4.07,4.07,0,0,1-2.12-.56,3.89,3.89,0,0,1-1.47-1.54,4.83,4.83,0,0,1,0-4.4,3.93,3.93,0,0,1,1.47-1.53,4.06,4.06,0,0,1,2.11-.56,4,4,0,0,1,1.8.41,3.47,3.47,0,0,1,1.31,1.12l-.81.79,0,0a3.35,3.35,0,0,0-1.07-1,2.94,2.94,0,0,0-1.36-.28,2.33,2.33,0,0,0-1.3.39,2.71,2.71,0,0,0-1,1.09,3.46,3.46,0,0,0-.36,1.62,3.71,3.71,0,0,0,.37,1.65,2.81,2.81,0,0,0,1,1.15,2.68,2.68,0,0,0,1.47.42A2.8,2.8,0,0,0,735.68,304Zm0-4-.08.07-.09-.09C735.53,299.9,735.59,299.9,735.7,300Zm.08.05-.08-.05,0,0C735.79,300,735.81,300.07,735.78,300Z"/><path d="M744.68,304l.75.88a3.87,3.87,0,0,1-3,1.3,4.07,4.07,0,0,1-2.12-.56,3.89,3.89,0,0,1-1.47-1.54,4.83,4.83,0,0,1,0-4.4,3.93,3.93,0,0,1,1.47-1.53,4.06,4.06,0,0,1,2.11-.56,4,4,0,0,1,1.8.41,3.47,3.47,0,0,1,1.31,1.12l-.81.79,0,0a3.35,3.35,0,0,0-1.07-1,2.94,2.94,0,0,0-1.36-.28,2.33,2.33,0,0,0-1.3.39,2.71,2.71,0,0,0-1,1.09,3.46,3.46,0,0,0-.36,1.62,3.71,3.71,0,0,0,.37,1.65,2.81,2.81,0,0,0,1,1.15,2.68,2.68,0,0,0,1.47.42A2.8,2.8,0,0,0,744.68,304Zm0-4-.08.07-.09-.09C744.53,299.9,744.59,299.9,744.7,300Zm.08.05-.08-.05,0,0C744.79,300,744.81,300.07,744.78,300Z"/><path d="M759.33,304.13v-3.37h-3.19v-1.1h3.19v-3.07h1.13v3.07h3.08v1.1h-3.08v3.37Z"/><path d="M768.33,304.13v-3.37h-3.19v-1.1h3.19v-3.07h1.13v3.07h3.08v1.1h-3.08v3.37Z"/><path d="M786.85,307.26a8.65,8.65,0,0,1-1.72-2.68,8.2,8.2,0,0,1-.6-3.08,8.07,8.07,0,0,1,.59-3,8.27,8.27,0,0,1,1.69-2.6,8.54,8.54,0,0,1,2.53-1.83l.34,1.12a7.26,7.26,0,0,0-2.82,2.68,7.13,7.13,0,0,0,0,7.5,7.23,7.23,0,0,0,2.9,2.72l-.35,1.08A8.37,8.37,0,0,1,786.85,307.26Z"/><path d="M798.61,302.17a1.81,1.81,0,0,1,.64,1.44,2.31,2.31,0,0,1-.87,1.84,3.82,3.82,0,0,1-2.53.73,4.92,4.92,0,0,1-3.49-1.3l.72-1.22,0,0,0,0a4.26,4.26,0,0,0,1.15,1.08,3.09,3.09,0,0,0,1.62.36,2.91,2.91,0,0,0,1.53-.35,1.09,1.09,0,0,0,.56-1,1.05,1.05,0,0,0-.45-.87,5.75,5.75,0,0,0-1.62-.72c-2.07-.59-3.1-1.44-3.1-2.55a1.78,1.78,0,0,1,.78-1.52,3.84,3.84,0,0,1,2.24-.55,4.93,4.93,0,0,1,1.88.31,4.1,4.1,0,0,1,1.4,1l-.74.9,0,0a2.6,2.6,0,0,0-1.07-.91,3.24,3.24,0,0,0-1.41-.33,2.63,2.63,0,0,0-1.27.27.82.82,0,0,0-.49.75,1,1,0,0,0,.5.83,6,6,0,0,0,1.82.76A6.26,6.26,0,0,1,798.61,302.17Zm-5.55,1.38a.13.13,0,0,1,.07,0l0,.05C793.06,303.58,793.05,303.55,793.06,303.55Zm.23,0c0,.05,0,.05-.16,0l.06-.09.1.07Zm5-3.75,0,.08-.09-.09C798.16,299.77,798.2,299.77,798.3,299.84Zm.1,0h0a.1.1,0,0,1-.05,0l.05,0A.2.2,0,0,1,798.4,299.88Z"/><path d="M801.65,294h1.42v.13a.51.51,0,0,0-.14.23,3.8,3.8,0,0,0,0,.43v4.41a3.85,3.85,0,0,1,1.21-1.2,2.81,2.81,0,0,1,1.49-.45,2.21,2.21,0,0,1,1.83.82,4.14,4.14,0,0,1,.67,2.61v5h-1.26v-4.95a3.05,3.05,0,0,0-.41-1.78,1.32,1.32,0,0,0-1.1-.56,2.32,2.32,0,0,0-1.14.32,2.53,2.53,0,0,0-.92.89,2.44,2.44,0,0,0-.37,1.35V306h-1.26Z"/><path d="M811.87,305.6a3.67,3.67,0,0,1-1.35-1.51,5.35,5.35,0,0,1,0-4.43,3.83,3.83,0,0,1,1.35-1.52,3.64,3.64,0,0,1,2-.55,3.59,3.59,0,0,1,2,.55,3.85,3.85,0,0,1,1.36,1.52,5.35,5.35,0,0,1,0,4.43,3.69,3.69,0,0,1-1.36,1.51,3.58,3.58,0,0,1-2,.54A3.63,3.63,0,0,1,811.87,305.6Zm3.21-1a2.8,2.8,0,0,0,.87-1.14,4.15,4.15,0,0,0,.31-1.65,3.66,3.66,0,0,0-.68-2.3,2.16,2.16,0,0,0-3.49,0,3.66,3.66,0,0,0-.69,2.3,4.15,4.15,0,0,0,.32,1.65,2.87,2.87,0,0,0,.86,1.14,2,2,0,0,0,1.25.41A2,2,0,0,0,815.08,304.65Z"/><path d="M818.62,297.77h1.14l1.33,6.61,1.4-5.83h.79l1.75,5.81c.34-2.24.55-3.72.63-4.42a17,17,0,0,0,.13-1.9v-.27H827c-.36,2.79-.81,5.54-1.37,8.25H824.4l-1.51-5.33L821.45,306h-1.17Z"/><path d="M837.18,306l2.9-4.18-2.85-4.05h1.43l2.14,3.05,2.05-3.05h1.33l-2.66,4,3,4.23h-1.47l-2.27-3.2-2.14,3.2Z"/><path d="M847.38,308.05a7.23,7.23,0,0,0,2.9-2.72,7.13,7.13,0,0,0,0-7.5,7.26,7.26,0,0,0-2.82-2.68l.35-1.12a8.63,8.63,0,0,1,2.52,1.83,8.27,8.27,0,0,1,1.69,2.6,8.07,8.07,0,0,1,.59,3,8.2,8.2,0,0,1-.6,3.08,8.65,8.65,0,0,1-1.72,2.68,8.25,8.25,0,0,1-2.59,1.87Z"/><path d="M699,313.43a76.44,76.44,0,0,0-.42,16.56c.16,1.91,3.17,1.93,3,0a76.44,76.44,0,0,1,.42-16.56c.25-1.91-2.75-1.89-3,0Z"/><path d="M701.51,330l-4-4c-1.36-1.38-3.48.75-2.13,2.13l4,4c1.35,1.38,3.47-.74,2.12-2.12Z"/><path d="M701.51,332l4.08-3.4a1.52,1.52,0,0,0,0-2.13,1.54,1.54,0,0,0-2.12,0l-4.08,3.41a1.5,1.5,0,0,0,2.12,2.12Z"/><path d="M684.41,351.13a1.85,1.85,0,0,1-.42-1.25c0-1.14.74-2.46,2.23-3.94l.71.65a4.82,4.82,0,0,0-1,1.15,2.2,2.2,0,0,0-.4,1.05.56.56,0,0,0,.12.33,3,3,0,0,0,.36.34,2.72,2.72,0,0,1,.45.47.75.75,0,0,1,.16.48,1.18,1.18,0,0,1-.36.86,1.22,1.22,0,0,1-.9.36A1.27,1.27,0,0,1,684.41,351.13Zm4.35,0a1.85,1.85,0,0,1-.42-1.25c0-1.14.74-2.46,2.23-3.94l.71.65a5.11,5.11,0,0,0-1,1.15,2.32,2.32,0,0,0-.4,1.05.58.58,0,0,0,.13.33,2.42,2.42,0,0,0,.36.34,3.79,3.79,0,0,1,.45.47.81.81,0,0,1,.16.48,1.18,1.18,0,0,1-.36.86,1.22,1.22,0,0,1-.9.36A1.27,1.27,0,0,1,688.76,351.13Z"/><path d="M697.66,359.33V348.06l-2.64.77-.34-.82,3.42-1.78h1v13.1Z"/><path d="M704.87,358.16l1.7-1.72q1.7-1.71,2.55-2.67a9.65,9.65,0,0,0,1.35-1.92,4.18,4.18,0,0,0,.51-2,2.46,2.46,0,0,0-.61-1.85,2.33,2.33,0,0,0-1.62-.56,3.52,3.52,0,0,0-1.67.4,2.28,2.28,0,0,0-1,.88l-.25.47a1.43,1.43,0,0,0-.12.28s0,0,0,0l.08,0s.07,0,.09.06l-.07.12-.19-.1-1.07-.84a4.61,4.61,0,0,1,1.72-1.88,4.67,4.67,0,0,1,2.46-.66,3.74,3.74,0,0,1,2.72,1,3.66,3.66,0,0,1,1,2.73,4.73,4.73,0,0,1-.55,2.21,10.24,10.24,0,0,1-1.39,2c-.57.64-1.36,1.46-2.37,2.45l-1.42,1.45h4.87a2,2,0,0,0,.49,0,.62.62,0,0,0,.29-.17h.14v1.49h-7.68Z"/><path d="M722.13,353.62a3.28,3.28,0,0,1,.67,2.12,4,4,0,0,1-.46,1.92,3.41,3.41,0,0,1-1.35,1.39,4.13,4.13,0,0,1-2.12.51,5.24,5.24,0,0,1-2-.37,4.54,4.54,0,0,1-1.61-1.12l1-1.15,0,0,0,0a4.49,4.49,0,0,0,1.08,1,2.6,2.6,0,0,0,1.44.35,2.33,2.33,0,0,0,1.85-.71,2.77,2.77,0,0,0,.63-1.91,2.36,2.36,0,0,0-.79-1.95,3.33,3.33,0,0,0-2.21-.65c-.14,0-.37,0-.68,0v-1.18a3.62,3.62,0,0,0,2.56-.69,2.59,2.59,0,0,0,.68-1.89,1.9,1.9,0,0,0-.52-1.41,1.79,1.79,0,0,0-1.35-.52,3.42,3.42,0,0,0-2.4,1l-.88-.88a4.33,4.33,0,0,1,3.26-1.34,3.39,3.39,0,0,1,2.49.89,3.17,3.17,0,0,1,.91,2.36,3.33,3.33,0,0,1-.53,1.87,2.75,2.75,0,0,1-1.53,1.11A3.85,3.85,0,0,1,722.13,353.62Zm-5.89,3.17a.45.45,0,0,1,.07.07l0,0C716.21,356.8,716.2,356.76,716.24,356.79Zm.2.12-.13-.05.09-.11.1.11S716.48,356.92,716.44,356.91Z"/><path d="M728.58,346.43a1.85,1.85,0,0,1,.42,1.25c0,1.15-.75,2.46-2.23,3.95l-.71-.65a5.34,5.34,0,0,0,1-1.16,2.13,2.13,0,0,0,.4-1.05.47.47,0,0,0-.13-.32,1.92,1.92,0,0,0-.35-.35,2.71,2.71,0,0,1-.45-.46.76.76,0,0,1-.16-.49,1.21,1.21,0,0,1,1.26-1.21A1.27,1.27,0,0,1,728.58,346.43Zm4.34,0a1.85,1.85,0,0,1,.42,1.25c0,1.15-.74,2.46-2.22,3.95l-.72-.65a5.39,5.39,0,0,0,1-1.16,2.24,2.24,0,0,0,.4-1.05.47.47,0,0,0-.13-.32,1.92,1.92,0,0,0-.35-.35,3.3,3.3,0,0,1-.46-.46.81.81,0,0,1-.15-.49,1.17,1.17,0,0,1,.35-.86,1.22,1.22,0,0,1,.91-.35A1.25,1.25,0,0,1,732.92,346.43Z"/><path d="M748.08,361.2V345.26h6v1.26h-4.66V360h4.68v1.19Z"/><path d="M764.61,361.2h-6V360h4.69V346.52h-4.66v-1.26h6Z"/><path d="M38.46,389.78H34.13V396H32.86V381.07h4.85a5.55,5.55,0,0,1,3.73,1.16,4.42,4.42,0,0,1,.5,5.76,4.31,4.31,0,0,1-2.25,1.52l3.73,6.36V396H42.07Zm-4.33-1.07H38a3.62,3.62,0,0,0,2.56-.9,3.43,3.43,0,0,0,0-4.8,4.19,4.19,0,0,0-2.82-.87H34.13Z"/><path d="M50.23,396.21a4.85,4.85,0,0,1-2.56-.7,4.74,4.74,0,0,1-1.78-1.95,6,6,0,0,1-.64-2.79v-.44a6.55,6.55,0,0,1,.62-2.88,5,5,0,0,1,1.73-2,4.26,4.26,0,0,1,2.4-.73,4,4,0,0,1,3.21,1.38,5.64,5.64,0,0,1,1.18,3.77v.69H46.47v.23a4.63,4.63,0,0,0,1.08,3.14,3.46,3.46,0,0,0,2.73,1.26,4,4,0,0,0,1.74-.36,3.83,3.83,0,0,0,1.36-1.15l.77.59A4.48,4.48,0,0,1,50.23,396.21ZM50,385.75a3,3,0,0,0-2.33,1,4.75,4.75,0,0,0-1.16,2.73h6.66v-.13a4.14,4.14,0,0,0-.91-2.61A2.84,2.84,0,0,0,50,385.75Z"/><path d="M63.42,393.18a1.75,1.75,0,0,0-.73-1.47,5.71,5.71,0,0,0-2.21-.86,10,10,0,0,1-2.29-.72,3,3,0,0,1-1.21-1,2.42,2.42,0,0,1-.4-1.42,2.64,2.64,0,0,1,1.1-2.16,4.44,4.44,0,0,1,2.81-.86,4.57,4.57,0,0,1,3,.92A2.93,2.93,0,0,1,64.59,388H63.36a2,2,0,0,0-.81-1.62,3.72,3.72,0,0,0-4-.11,1.67,1.67,0,0,0-.74,1.4,1.52,1.52,0,0,0,.61,1.29,6.5,6.5,0,0,0,2.23.84,10.19,10.19,0,0,1,2.42.81,3.05,3.05,0,0,1,1.19,1,2.66,2.66,0,0,1,.39,1.47,2.63,2.63,0,0,1-1.13,2.24,4.86,4.86,0,0,1-3,.85,5,5,0,0,1-3.14-.94,2.92,2.92,0,0,1-1.21-2.38h1.23a2.14,2.14,0,0,0,.91,1.68,3.73,3.73,0,0,0,2.21.6,3.5,3.5,0,0,0,2.07-.56A1.7,1.7,0,0,0,63.42,393.18Z"/><path d="M74.55,394.6A4,4,0,0,1,71,396.21a3.45,3.45,0,0,1-2.7-1,4.5,4.5,0,0,1-.94-3.05v-7.21h1.22V392c0,2.11.86,3.17,2.56,3.17a3.15,3.15,0,0,0,3.38-2.21v-8h1.23V396H74.57Z"/><path d="M80.32,396H79.09V380.25h1.23Z"/><path d="M85.56,382.06v2.85h2.3v1h-2.3v7.4a2.34,2.34,0,0,0,.33,1.38,1.32,1.32,0,0,0,1.12.45,9.45,9.45,0,0,0,1-.1l0,1a3.85,3.85,0,0,1-1.31.18,2.17,2.17,0,0,1-1.83-.74,3.41,3.41,0,0,1-.58-2.16v-7.4h-2v-1h2v-2.85Z"/><path d="M90.1,395.26a.89.89,0,0,1,.23-.61,1,1,0,0,1,1.29,0,.85.85,0,0,1,.24.61.78.78,0,0,1-.24.59,1,1,0,0,1-1.29,0A.81.81,0,0,1,90.1,395.26Zm0-9.46a.87.87,0,0,1,.23-.61.89.89,0,0,1,1.53.61.79.79,0,0,1-.24.59,1,1,0,0,1-1.29,0A.82.82,0,0,1,90.12,385.8Z"/><path d="M100.4,387.8a1.87,1.87,0,0,1-.42-1.25c0-1.15.74-2.46,2.22-3.95l.72.65a4.91,4.91,0,0,0-1,1.16,2.13,2.13,0,0,0-.4,1,.47.47,0,0,0,.13.32,2.3,2.3,0,0,0,.35.35,3.3,3.3,0,0,1,.46.46.81.81,0,0,1,.15.49,1.21,1.21,0,0,1-.35.86,1.26,1.26,0,0,1-.91.35A1.24,1.24,0,0,1,100.4,387.8Zm4.34,0a1.87,1.87,0,0,1-.42-1.25c0-1.15.74-2.46,2.23-3.95l.71.65a4.87,4.87,0,0,0-1,1.16,2.13,2.13,0,0,0-.4,1,.51.51,0,0,0,.12.32,3,3,0,0,0,.36.35,2.71,2.71,0,0,1,.45.46.76.76,0,0,1,.16.49,1.18,1.18,0,0,1-.36.86,1.28,1.28,0,0,1-1.89-.14Z"/><path d="M113.65,396V384.72l-2.65.78-.34-.82,3.43-1.78h1V396Z"/><path d="M120.85,394.82l1.7-1.72c1.13-1.13,2-2,2.55-2.67a9.85,9.85,0,0,0,1.36-1.92,4.25,4.25,0,0,0,.5-2,2.41,2.41,0,0,0-.61-1.85,2.26,2.26,0,0,0-1.62-.57,3.67,3.67,0,0,0-1.67.4,2.25,2.25,0,0,0-1,.88l-.26.48a1.2,1.2,0,0,0-.12.28s0,0,0,0l.08,0s.07,0,.09.05l-.07.13-.18-.11-1.08-.84a4.7,4.7,0,0,1,1.73-1.88,4.61,4.61,0,0,1,2.45-.66,3.75,3.75,0,0,1,2.72,1,3.59,3.59,0,0,1,1,2.73,4.87,4.87,0,0,1-.54,2.21,10,10,0,0,1-1.4,2c-.57.65-1.35,1.47-2.36,2.46l-1.43,1.45h4.87a2,2,0,0,0,.49,0,.72.72,0,0,0,.29-.17h.15V396h-7.69Z"/><path d="M138.11,390.29a3.28,3.28,0,0,1,.67,2.12,4,4,0,0,1-.46,1.92,3.51,3.51,0,0,1-1.34,1.39,4.19,4.19,0,0,1-2.12.51,5.15,5.15,0,0,1-2-.38,4.27,4.27,0,0,1-1.6-1.11l1-1.16,0,0,0,0a4.3,4.3,0,0,0,1.08,1,2.65,2.65,0,0,0,1.44.36,2.35,2.35,0,0,0,1.85-.71,2.8,2.8,0,0,0,.63-1.91,2.39,2.39,0,0,0-.79-2,3.39,3.39,0,0,0-2.21-.65l-.67,0v-1.17a3.6,3.6,0,0,0,2.55-.69,2.62,2.62,0,0,0,.68-1.89,1.94,1.94,0,0,0-.51-1.41,1.84,1.84,0,0,0-1.36-.53,3.39,3.39,0,0,0-2.39,1l-.88-.88a4.27,4.27,0,0,1,3.25-1.35,3.4,3.4,0,0,1,2.49.9,3.13,3.13,0,0,1,.91,2.36,3.35,3.35,0,0,1-.52,1.87,2.74,2.74,0,0,1-1.54,1.11A3.78,3.78,0,0,1,138.11,390.29Zm-5.89,3.17.07.06,0,0C132.2,393.47,132.19,393.43,132.22,393.46Zm.2.11a.27.27,0,0,1-.13-.05l.09-.1.1.1S132.46,393.58,132.42,393.57Z"/><path d="M144.56,383.1a1.83,1.83,0,0,1,.42,1.24q0,1.73-2.23,4l-.71-.65a4.82,4.82,0,0,0,1-1.15,2.2,2.2,0,0,0,.4-1.05.56.56,0,0,0-.12-.33,4.1,4.1,0,0,0-.36-.35,2.39,2.39,0,0,1-.45-.46.75.75,0,0,1-.16-.48,1.16,1.16,0,0,1,.36-.86,1.22,1.22,0,0,1,.9-.36A1.27,1.27,0,0,1,144.56,383.1Zm4.35,0a1.83,1.83,0,0,1,.42,1.24c0,1.15-.75,2.47-2.23,4l-.71-.65a5.34,5.34,0,0,0,1-1.15,2.2,2.2,0,0,0,.4-1.05.51.51,0,0,0-.13-.33,2.86,2.86,0,0,0-.35-.35,2.39,2.39,0,0,1-.45-.46.75.75,0,0,1-.16-.48A1.16,1.16,0,0,1,147,383a1.19,1.19,0,0,1,.9-.36A1.27,1.27,0,0,1,148.91,383.1Z"/><path d="M16.11,24.29H21V25H15.26V15.05h.85Z"/><path d="M22.39,15.47a.57.57,0,0,1,.15-.39.54.54,0,0,1,.42-.16.53.53,0,0,1,.56.55.52.52,0,0,1-.15.38A.53.53,0,0,1,23,16a.54.54,0,0,1-.42-.16A.56.56,0,0,1,22.39,15.47Zm1,9.53h-.82V17.6h.82Z"/><path d="M27.34,21.27l-.94.91V25h-.82V14.5h.82v6.72l.77-.83L30,17.6h1L27.9,20.72,31.31,25h-1Z"/><path d="M35.16,25.14a3.22,3.22,0,0,1-1.7-.47,3.16,3.16,0,0,1-1.19-1.29,4.11,4.11,0,0,1-.42-1.87v-.29a4.43,4.43,0,0,1,.41-1.92A3.28,3.28,0,0,1,33.41,18a2.84,2.84,0,0,1,1.6-.49,2.66,2.66,0,0,1,2.14.92,3.7,3.7,0,0,1,.79,2.51v.46H32.66v.15a3.11,3.11,0,0,0,.72,2.1,2.3,2.3,0,0,0,1.82.84,2.67,2.67,0,0,0,1.16-.24,2.61,2.61,0,0,0,.91-.77l.51.39A3,3,0,0,1,35.16,25.14Zm-.15-7a2,2,0,0,0-1.55.68,3.13,3.13,0,0,0-.77,1.82h4.44v-.09a2.79,2.79,0,0,0-.61-1.74A1.93,1.93,0,0,0,35,18.16Z"/><path d="M48,17.23h0a3.22,3.22,0,0,0-.67-.65,1.66,1.66,0,0,0-1.8.22,1.77,1.77,0,0,0-.38,1.26v.53h2.1v.8H45.1V25h-1V19.4H42.75v-.8h1.39v-.53a2.45,2.45,0,0,1,.64-1.85,2.34,2.34,0,0,1,1.71-.61,2.86,2.86,0,0,1,1.14.22,2.09,2.09,0,0,1,.86.66Zm-.17,0s0,0,.06,0l.07,0,0,.05-.09-.05Zm.16,0c0,.08.06.1,0,.08l-.06,0Z"/><path d="M50.84,24.69a3,3,0,0,1-1.05-1.17,4.21,4.21,0,0,1,0-3.45,3,3,0,0,1,1.05-1.18,2.94,2.94,0,0,1,3.06,0A3,3,0,0,1,55,20.07a4.21,4.21,0,0,1,0,3.45,3,3,0,0,1-1.05,1.17,3,3,0,0,1-3.06,0Zm2.5-.74a2.14,2.14,0,0,0,.68-.89,3.25,3.25,0,0,0,.24-1.28A2.85,2.85,0,0,0,53.73,20,1.67,1.67,0,0,0,51,20a2.85,2.85,0,0,0-.53,1.78,3.25,3.25,0,0,0,.24,1.28,2.14,2.14,0,0,0,.68.89,1.63,1.63,0,0,0,1.94,0Z"/><path d="M57,25v-.81h1.89V16.5H57.06v-.81h2.83v8.5h1.87V25Z"/><path d="M64.86,24.75a2.74,2.74,0,0,1-1-1.15,4.19,4.19,0,0,1-.38-1.86,3.93,3.93,0,0,1,.39-1.85,2.71,2.71,0,0,1,1-1.1,2.52,2.52,0,0,1,1.3-.36,2.1,2.1,0,0,1,1.13.3,1.85,1.85,0,0,1,.73.81V15.69h1.07v.1A.34.34,0,0,0,69,16a2.44,2.44,0,0,0,0,.34L69,24a4.45,4.45,0,0,0,0,.55,1.26,1.26,0,0,0,.12.44h-1a1.93,1.93,0,0,1-.12-.44c0-.15,0-.33,0-.55a2.33,2.33,0,0,1-.79.83,2,2,0,0,1-1.08.3A2.32,2.32,0,0,1,64.86,24.75Zm2.71-1.18a3.5,3.5,0,0,0,.41-1.8A3.33,3.33,0,0,0,67.54,20a1.47,1.47,0,0,0-1.32-.69,1.51,1.51,0,0,0-1.29.62,2.88,2.88,0,0,0-.45,1.7,3.57,3.57,0,0,0,.47,2,1.51,1.51,0,0,0,1.35.72A1.36,1.36,0,0,0,67.57,23.57Z"/><path d="M71,25v-.81h1.89V16.5H71.06v-.81h2.83v8.5h1.87V25Z"/><path d="M80.09,25V17.48L78.33,18l-.23-.55,2.28-1.19h.69V25Z"/><path d="M84.77,26.86l-.49-.36a2.89,2.89,0,0,0,.64-1.73V23.71h.8v.86A3,3,0,0,1,84.77,26.86Z"/><path d="M97,21.38a4.43,4.43,0,0,1-.76,2.74,2.45,2.45,0,0,1-2.06,1A2.68,2.68,0,0,1,91.81,24l0,1H91V14.5h.82v4.18a2.56,2.56,0,0,1,2.31-1.21,2.46,2.46,0,0,1,2.07,1A4.48,4.48,0,0,1,97,21.25Zm-.82-.15A3.93,3.93,0,0,0,95.59,19a1.85,1.85,0,0,0-1.6-.79,2.12,2.12,0,0,0-2.16,1.52V23A2.19,2.19,0,0,0,94,24.43a1.83,1.83,0,0,0,1.58-.8A4.17,4.17,0,0,0,96.15,21.23Z"/><path d="M103.54,24.06a2.66,2.66,0,0,1-2.36,1.08,2.29,2.29,0,0,1-1.8-.69,3,3,0,0,1-.63-2V17.6h.82v4.71c0,1.41.56,2.12,1.7,2.12A2.09,2.09,0,0,0,103.52,23V17.6h.82V25h-.79Z"/><path d="M107.74,15.71V17.6h1.53v.67h-1.53v4.94a1.64,1.64,0,0,0,.22.92.88.88,0,0,0,.75.3c.13,0,.35,0,.66-.07l0,.66a2.52,2.52,0,0,1-.87.12,1.5,1.5,0,0,1-1.23-.49,2.35,2.35,0,0,1-.38-1.44V18.27h-1.36V17.6h1.36V15.71Z"/><path d="M114,21.23a4.46,4.46,0,0,1,.77-2.74,2.49,2.49,0,0,1,2.09-1,2.55,2.55,0,0,1,2.28,1.18V14.5H120V25h-.77l0-1a2.67,2.67,0,0,1-2.31,1.12,2.48,2.48,0,0,1-2.06-1,4.44,4.44,0,0,1-.79-2.78Zm.83.15a3.86,3.86,0,0,0,.57,2.23,1.85,1.85,0,0,0,1.6.82,2.2,2.2,0,0,0,2.14-1.34V19.62a2.18,2.18,0,0,0-2.13-1.44,1.84,1.84,0,0,0-1.6.81A4.05,4.05,0,0,0,114.87,21.38Z"/><path d="M122.1,15.47a.53.53,0,0,1,.56-.55.55.55,0,0,1,.42.16.53.53,0,0,1,.15.39.52.52,0,0,1-.15.38.55.55,0,0,1-.42.16.53.53,0,0,1-.41-.16A.52.52,0,0,1,122.1,15.47Zm1,9.53h-.82V17.6h.82Z"/><path d="M125.88,25V18.27h-1.23V17.6h1.23v-.89a2.43,2.43,0,0,1,.58-1.75,2.11,2.11,0,0,1,1.6-.6,3,3,0,0,1,.87.11l-.06.68a3,3,0,0,0-.74-.08,1.34,1.34,0,0,0-1.06.42,1.74,1.74,0,0,0-.37,1.2v.91h1.76v.67H126.7V25Z"/><path d="M130.51,25V18.27h-1.22V17.6h1.22v-.89a2.43,2.43,0,0,1,.58-1.75,2.12,2.12,0,0,1,1.61-.6,3.05,3.05,0,0,1,.87.11l-.06.68a3,3,0,0,0-.75-.08,1.33,1.33,0,0,0-1,.42,1.74,1.74,0,0,0-.38,1.2v.91h1.77v.67h-1.77V25Z"/><path d="M137.26,25.14a3.23,3.23,0,0,1-1.71-.47,3.13,3.13,0,0,1-1.18-1.29,4,4,0,0,1-.43-1.87v-.29a4.3,4.3,0,0,1,.42-1.92A3.21,3.21,0,0,1,135.51,18a2.79,2.79,0,0,1,1.6-.49,2.63,2.63,0,0,1,2.13.92A3.7,3.7,0,0,1,140,20.9v.46h-5.27v.15a3.11,3.11,0,0,0,.72,2.1,2.28,2.28,0,0,0,1.81.84,2.64,2.64,0,0,0,1.16-.24,2.52,2.52,0,0,0,.91-.77l.52.39A3,3,0,0,1,137.26,25.14Zm-.15-7a2.05,2.05,0,0,0-1.56.68,3.2,3.2,0,0,0-.77,1.82h4.44v-.09a2.68,2.68,0,0,0-.61-1.74A1.89,1.89,0,0,0,137.11,18.16Z"/><path d="M145,18.3a3.12,3.12,0,0,0-.55-.05,2,2,0,0,0-1.29.43,2.29,2.29,0,0,0-.76,1.24V25h-.81V17.6h.8v1.18a2.17,2.17,0,0,1,2.09-1.31,1.38,1.38,0,0,1,.54.09Z"/><path d="M149.07,25.14a3.21,3.21,0,0,1-2.89-1.76,4.11,4.11,0,0,1-.42-1.87v-.29a4.29,4.29,0,0,1,.41-1.92A3.28,3.28,0,0,1,147.32,18a2.82,2.82,0,0,1,1.6-.49,2.66,2.66,0,0,1,2.14.92,3.75,3.75,0,0,1,.79,2.51v.46h-5.28v.15a3.11,3.11,0,0,0,.72,2.1,2.3,2.3,0,0,0,1.82.84,2.44,2.44,0,0,0,2.07-1l.51.39A3,3,0,0,1,149.07,25.14Zm-.15-7a2,2,0,0,0-1.55.68,3.07,3.07,0,0,0-.77,1.82H151v-.09a2.68,2.68,0,0,0-.61-1.74A1.89,1.89,0,0,0,148.92,18.16Z"/><path d="M154.22,17.6l0,1.27a2.73,2.73,0,0,1,1-1,2.67,2.67,0,0,1,1.37-.36,2.21,2.21,0,0,1,1.77.67,3,3,0,0,1,.59,2V25h-.82V20.14a2.23,2.23,0,0,0-.42-1.48,1.64,1.64,0,0,0-1.32-.48,2.11,2.11,0,0,0-1.34.47,2.87,2.87,0,0,0-.87,1.28V25h-.81V17.6Z"/><path d="M162.4,15.71V17.6h1.53v.67H162.4v4.94a1.64,1.64,0,0,0,.22.92.88.88,0,0,0,.75.3c.13,0,.35,0,.66-.07l0,.66a2.52,2.52,0,0,1-.87.12,1.5,1.5,0,0,1-1.23-.49,2.35,2.35,0,0,1-.38-1.44V18.27h-1.36V17.6h1.36V15.71Z"/><path d="M589,107.43a76.44,76.44,0,0,0-.42,16.56c.16,1.91,3.17,1.93,3,0a76.44,76.44,0,0,1,.42-16.56c.25-1.91-2.75-1.89-3,0Z"/><path d="M591.51,124l-4-4c-1.36-1.38-3.48.75-2.13,2.13l4,4c1.35,1.38,3.47-.74,2.12-2.12Z"/><path d="M591.51,126l4.08-3.4a1.52,1.52,0,0,0,0-2.13,1.54,1.54,0,0,0-2.12,0l-4.08,3.41a1.5,1.5,0,0,0,2.12,2.12Z"/><path class="cls-1" d="M559.66,50.68q1,14.31.87,28.65a1.5,1.5,0,0,0,3,0q.09-14.34-.87-28.65c-.12-1.92-3.13-1.93-3,0Z"/><path class="cls-1" d="M562.09,79.37a21.73,21.73,0,0,1-4.91-4.71,1.55,1.55,0,0,0-2-.54,1.52,1.52,0,0,0-.54,2,25.92,25.92,0,0,0,6,5.79c1.58,1.11,3.08-1.49,1.51-2.59Z"/><path class="cls-1" d="M591.83,54.26a88.71,88.71,0,0,0-1.92,25.07c.13,1.91,3.13,1.93,3,0a85.75,85.75,0,0,1,1.82-24.28c.41-1.88-2.48-2.68-2.9-.79Z"/><path class="cls-1" d="M562.17,82a39.85,39.85,0,0,0,6.56-2.78c1.7-.91.19-3.5-1.51-2.59a36.57,36.57,0,0,1-5.84,2.48c-1.83.59-1,3.48.79,2.89Z"/><path class="cls-1" d="M592.29,80.86a29.66,29.66,0,0,0,5.46-3.08c1.55-1.11.06-3.72-1.52-2.59a29.34,29.34,0,0,1-5.46,3.08,1.53,1.53,0,0,0-.54,2.06,1.55,1.55,0,0,0,2.06.53Z"/><path class="cls-1" d="M592.17,78.34,587.23,75c-1.6-1.08-3.1,1.51-1.51,2.59l4.93,3.35c1.61,1.08,3.11-1.52,1.52-2.59Z"/><path class="cls-2" d="M592.66,153.68q1,14.31.87,28.65a1.5,1.5,0,0,0,3,0q.09-14.34-.87-28.65c-.12-1.92-3.13-1.93-3,0Z"/><path class="cls-2" d="M595.09,182.37a21.73,21.73,0,0,1-4.91-4.71,1.55,1.55,0,0,0-2-.54,1.52,1.52,0,0,0-.54,2,25.92,25.92,0,0,0,6,5.79c1.58,1.11,3.08-1.49,1.51-2.59Z"/><path class="cls-2" d="M595.17,185a39.85,39.85,0,0,0,6.56-2.78c1.7-.91.19-3.5-1.51-2.59a36.57,36.57,0,0,1-5.84,2.48c-1.83.59-1,3.48.79,2.89Z"/><path class="cls-2" d="M625.29,183.86a29.66,29.66,0,0,0,5.46-3.08c1.55-1.11.06-3.72-1.52-2.59a29.34,29.34,0,0,1-5.46,3.08,1.53,1.53,0,0,0-.54,2.06,1.55,1.55,0,0,0,2.06.53Z"/><path class="cls-2" d="M625.17,181.34,620.23,178c-1.6-1.08-3.1,1.51-1.51,2.59l4.93,3.35c1.61,1.08,3.11-1.52,1.52-2.59Z"/><path class="cls-2" d="M658.66,254.68q1,14.31.87,28.65a1.5,1.5,0,0,0,3,0q.09-14.34-.87-28.65c-.12-1.92-3.13-1.93-3,0Z"/><path class="cls-2" d="M661.09,283.37a21.73,21.73,0,0,1-4.91-4.71,1.55,1.55,0,0,0-2-.54,1.52,1.52,0,0,0-.54,2.05,25.92,25.92,0,0,0,6,5.79c1.58,1.11,3.08-1.49,1.51-2.59Z"/><path class="cls-2" d="M661.17,286a39.85,39.85,0,0,0,6.56-2.78c1.7-.91.19-3.5-1.51-2.59a36.57,36.57,0,0,1-5.84,2.48c-1.83.59-1,3.48.79,2.89Z"/><path class="cls-2" d="M625.94,181.55c-.91-5.61,3.95-10.13,5.89-15A64.25,64.25,0,0,0,635,153c.31-1.89-2.58-2.7-2.89-.79-1,6.22-2.16,12.25-5.41,17.75-2.42,4.1-4.48,7.44-3.68,12.34.31,1.9,3.2,1.1,2.89-.79Z"/><path class="cls-2" d="M681.29,285.86a29.66,29.66,0,0,0,5.46-3.08c1.55-1.11.06-3.72-1.52-2.59a29.34,29.34,0,0,1-5.46,3.08,1.53,1.53,0,0,0-.54,2.06,1.55,1.55,0,0,0,2.06.53Z"/><path class="cls-2" d="M681.17,283.34,676.23,280c-1.6-1.08-3.1,1.51-1.51,2.59l4.93,3.35c1.61,1.08,3.11-1.52,1.52-2.59Z"/><path class="cls-2" d="M681.65,284.06c-.86-7.42,9.33-10,14.07-13.52,4-3,5.68-6.83,7-11.48a1.51,1.51,0,0,0-2.9-.8c-1.18,4.12-2.61,7.51-6.21,10.12-2.57,1.86-5.54,3.12-8.24,4.79-4,2.49-7.32,5.84-6.74,10.89.22,1.89,3.22,1.92,3,0Z"/></svg>