<svg id="Layer_1" data-name="Layer 1" xmlns="http://www.w3.org/2000/svg" viewBox="0 0 588 412"><defs><style>.cls-1{fill:#4d4d4d;}</style></defs><title>exp</title><path d="M29.59,41.73h0a3.22,3.22,0,0,0-.67-.65,1.66,1.66,0,0,0-1.8.22,1.77,1.77,0,0,0-.38,1.26v.53h2.1v.8h-2.1v5.6h-1V43.9H24.38v-.8h1.39v-.53a2.48,2.48,0,0,1,.63-1.85,2.38,2.38,0,0,1,1.72-.61,2.86,2.86,0,0,1,1.14.22,2.09,2.09,0,0,1,.86.66Zm-.17,0s0,0,.06,0l.07,0,0,.05-.09-.05Zm.16,0c.05.08.06.1,0,.08l-.06,0Z"/><path d="M32.47,49.19a3,3,0,0,1-1-1.17,4.21,4.21,0,0,1,0-3.45,3,3,0,0,1,1-1.18,2.94,2.94,0,0,1,3.06,0,3,3,0,0,1,1,1.18,4.21,4.21,0,0,1,0,3.45,3,3,0,0,1-1,1.17,3,3,0,0,1-3.06,0Zm2.5-.74a2,2,0,0,0,.67-.89,3.08,3.08,0,0,0,.25-1.28,2.85,2.85,0,0,0-.53-1.78,1.67,1.67,0,0,0-2.72,0,2.85,2.85,0,0,0-.53,1.78,3.08,3.08,0,0,0,.25,1.28,2,2,0,0,0,.67.89,1.63,1.63,0,0,0,1.94,0Z"/><path d="M38.61,49.5v-.81H40.5V41H38.69v-.81h2.83v8.5h1.87v.81Z"/><path d="M46.49,49.25a2.74,2.74,0,0,1-1-1.15,4.19,4.19,0,0,1-.38-1.86,3.93,3.93,0,0,1,.39-1.85,2.71,2.71,0,0,1,1-1.1,2.55,2.55,0,0,1,1.3-.36,2.1,2.1,0,0,1,1.13.3,1.85,1.85,0,0,1,.73.81V40.19h1.07v.1a.34.34,0,0,0-.11.18,2.44,2.44,0,0,0,0,.34l0,7.7a4.45,4.45,0,0,0,0,.55,1.26,1.26,0,0,0,.12.44h-1a1.93,1.93,0,0,1-.12-.44c0-.15,0-.33,0-.55a2.33,2.33,0,0,1-.79.83,2,2,0,0,1-1.08.3A2.32,2.32,0,0,1,46.49,49.25Zm2.71-1.18a3.5,3.5,0,0,0,.41-1.8,3.33,3.33,0,0,0-.44-1.82,1.47,1.47,0,0,0-1.32-.69,1.51,1.51,0,0,0-1.29.62,2.88,2.88,0,0,0-.45,1.7,3.57,3.57,0,0,0,.47,2,1.51,1.51,0,0,0,1.35.72A1.36,1.36,0,0,0,49.2,48.07Z"/><path d="M52.61,49.5v-.81H54.5V41H52.69v-.81h2.83v8.5h1.87v.81Z"/><path d="M61.72,49.5V42L60,42.5,59.73,42,62,40.76h.69V49.5Z"/><path d="M74.92,49.5a5.15,5.15,0,0,1-.14-1.35,3,3,0,0,1-1.19,1.1,3.72,3.72,0,0,1-1.72.39,2.41,2.41,0,0,1-1.65-.56,1.85,1.85,0,0,1-.63-1.45A1.87,1.87,0,0,1,70.51,46,4.44,4.44,0,0,1,73,45.37h1.82V44.29a1.81,1.81,0,0,0-.58-1.44,2.47,2.47,0,0,0-1.67-.51,2.66,2.66,0,0,0-1.69.52,1.56,1.56,0,0,0-.68,1.28h-.37a1.9,1.9,0,0,1,.8-1.53A3,3,0,0,1,72.53,42a2.9,2.9,0,0,1,1.9.59,2.15,2.15,0,0,1,.72,1.69v3.53a5,5,0,0,0,.19,1.66v.06Zm-3-.23a3.34,3.34,0,0,0,1.79-.47,2.85,2.85,0,0,0,1.12-1.3V45.74H73.07a4,4,0,0,0-2.42.63A1.54,1.54,0,0,0,70,47.65a1.48,1.48,0,0,0,.54,1.15A2,2,0,0,0,71.87,49.27Z"/><path d="M83.18,45.87a4.55,4.55,0,0,1-.74,2.75,2.38,2.38,0,0,1-2,1,3.19,3.19,0,0,1-1.5-.35,2.44,2.44,0,0,1-1-.94v4h-.37V42.1h.37v1.32a2.68,2.68,0,0,1,1-1.08A2.88,2.88,0,0,1,80.4,42a2.42,2.42,0,0,1,2,1,4.56,4.56,0,0,1,.74,2.79Zm-.37-.14a4.3,4.3,0,0,0-.63-2.5,2.08,2.08,0,0,0-1.78-.89,2.6,2.6,0,0,0-1.58.48,2.66,2.66,0,0,0-.93,1.38v3.46a2.33,2.33,0,0,0,.94,1.19,2.85,2.85,0,0,0,1.59.42,2,2,0,0,0,1.76-.9A4.64,4.64,0,0,0,82.81,45.73Z"/><path d="M90.85,45.87a4.55,4.55,0,0,1-.75,2.75,2.37,2.37,0,0,1-2,1,3.12,3.12,0,0,1-1.49-.35,2.53,2.53,0,0,1-1-.94v4h-.37V42.1h.37v1.32a2.68,2.68,0,0,1,1-1.08A2.93,2.93,0,0,1,88.06,42a2.41,2.41,0,0,1,2,1,4.56,4.56,0,0,1,.75,2.79Zm-.38-.14a4.3,4.3,0,0,0-.63-2.5,2.05,2.05,0,0,0-1.77-.89,2.58,2.58,0,0,0-1.58.48,2.62,2.62,0,0,0-.94,1.38v3.46a2.33,2.33,0,0,0,.94,1.19,2.88,2.88,0,0,0,1.59.42,2,2,0,0,0,1.76-.9A4.64,4.64,0,0,0,90.47,45.73Z"/><path d="M93.32,49.5H93V39h.37Z"/><path d="M95.64,39.79a.4.4,0,0,1,.11-.27.37.37,0,0,1,.27-.11.38.38,0,0,1,.38.38.37.37,0,0,1-.11.27.4.4,0,0,1-.27.11.38.38,0,0,1-.38-.38Zm.56,9.71h-.37V42.1h.37Z"/><path d="M101.29,49.64a2.93,2.93,0,0,1-1.65-.49,3.26,3.26,0,0,1-1.17-1.32A4.1,4.1,0,0,1,98.05,46v-.31a4.18,4.18,0,0,1,.41-1.88,3.2,3.2,0,0,1,1.12-1.33,2.77,2.77,0,0,1,1.57-.48,2.57,2.57,0,0,1,2,.88,3.33,3.33,0,0,1,.79,2.32v.39H98.42V46a3.75,3.75,0,0,0,.37,1.67,3.07,3.07,0,0,0,1,1.2,2.63,2.63,0,0,0,1.45.44,2.83,2.83,0,0,0,1.26-.25,2.67,2.67,0,0,0,.93-.76l.26.18A2.78,2.78,0,0,1,101.29,49.64Zm-.14-7.3a2.39,2.39,0,0,0-1.83.8,3.38,3.38,0,0,0-.88,2h5.15V45.1a3.16,3.16,0,0,0-.32-1.4,2.37,2.37,0,0,0-.87-1A2.25,2.25,0,0,0,101.15,42.34Z"/><path d="M110.24,47.69c0-.9-.76-1.51-2.3-1.83A4.53,4.53,0,0,1,106,45.1a1.58,1.58,0,0,1-.54-1.27,1.62,1.62,0,0,1,.69-1.34A2.86,2.86,0,0,1,108,42a3,3,0,0,1,1.92.57,1.86,1.86,0,0,1,.72,1.54h-.37a1.54,1.54,0,0,0-.63-1.25,2.58,2.58,0,0,0-1.64-.49,2.54,2.54,0,0,0-1.54.42,1.37,1.37,0,0,0-.36,1.84,2.07,2.07,0,0,0,.69.52,8.11,8.11,0,0,0,1.4.44,6.08,6.08,0,0,1,1.45.49,2.08,2.08,0,0,1,.77.68,1.86,1.86,0,0,1,.24,1,1.65,1.65,0,0,1-.72,1.4,3,3,0,0,1-1.88.54,3.23,3.23,0,0,1-2-.57,1.73,1.73,0,0,1-.77-1.45h.37a1.54,1.54,0,0,0,.69,1.21,3,3,0,0,0,1.71.44,2.67,2.67,0,0,0,1.61-.46A1.35,1.35,0,0,0,110.24,47.69Z"/><path d="M116.82,40.11v2h1.69v.37h-1.69v5.26a2.1,2.1,0,0,0,.26,1.16,1,1,0,0,0,.86.38,5.46,5.46,0,0,0,.73-.06l.06.34a2.31,2.31,0,0,1-.77.09,1.39,1.39,0,0,1-1.16-.45,2.32,2.32,0,0,1-.35-1.41V42.47h-1.37V42.1h1.37v-2Z"/><path d="M120.8,43.83a3,3,0,0,1,1.06-1.36,2.59,2.59,0,0,1,1.56-.5,2.21,2.21,0,0,1,1.77.67,3.09,3.09,0,0,1,.58,2V49.5h-.37V44.66a2.67,2.67,0,0,0-.48-1.75,1.88,1.88,0,0,0-1.52-.57,2.28,2.28,0,0,0-1.66.68,3.42,3.42,0,0,0-.94,1.75V49.5h-.37V39h.37Z"/><path d="M130.75,49.64a2.87,2.87,0,0,1-1.64-.49,3.29,3.29,0,0,1-1.18-1.32,4.1,4.1,0,0,1-.42-1.86v-.31a4.32,4.32,0,0,1,.41-1.88,3.15,3.15,0,0,1,1.13-1.33,2.76,2.76,0,0,1,1.56-.48,2.59,2.59,0,0,1,2,.88,3.37,3.37,0,0,1,.78,2.32v.39h-5.54V46a3.63,3.63,0,0,0,.38,1.67,3,3,0,0,0,1,1.2,2.63,2.63,0,0,0,1.45.44A2.88,2.88,0,0,0,132,49a2.64,2.64,0,0,0,.92-.76l.26.18A2.78,2.78,0,0,1,130.75,49.64Zm-.14-7.3a2.39,2.39,0,0,0-1.83.8,3.38,3.38,0,0,0-.88,2h5.15V45.1a3,3,0,0,0-.32-1.4,2.37,2.37,0,0,0-.87-1A2.25,2.25,0,0,0,130.61,42.34Z"/><path d="M139.05,49.5v-7h-1.28V42.1h1.28V41a2.35,2.35,0,0,1,.52-1.59,1.8,1.8,0,0,1,1.42-.57,2.79,2.79,0,0,1,.87.11l-.05.36a2.9,2.9,0,0,0-.81-.1,1.47,1.47,0,0,0-1.16.47,2,2,0,0,0-.42,1.35V42.1h2v.37h-2v7Z"/><path d="M147.86,49.5V48.3a2.44,2.44,0,0,1-1,1,3.17,3.17,0,0,1-1.59.36,2.28,2.28,0,0,1-1.82-.71,3.11,3.11,0,0,1-.61-2.06V42.1h.37v4.78a2.63,2.63,0,0,0,.53,1.78,1.88,1.88,0,0,0,1.52.61,2.81,2.81,0,0,0,1.72-.5,2.27,2.27,0,0,0,.84-1.46V42.1h.38v7.4Z"/><path d="M150.94,43.83A3,3,0,0,1,152,42.47a2.59,2.59,0,0,1,1.56-.5,2.21,2.21,0,0,1,1.77.67,3.09,3.09,0,0,1,.58,2V49.5h-.37V44.66a2.67,2.67,0,0,0-.48-1.75,1.88,1.88,0,0,0-1.52-.57,2.28,2.28,0,0,0-1.66.68,3.42,3.42,0,0,0-.94,1.75V49.5h-.37V42.1h.37Z"/><path d="M160.74,49.27a2.53,2.53,0,0,0,1.66-.54,2,2,0,0,0,.71-1.47h.37a2.3,2.3,0,0,1-.83,1.72,2.83,2.83,0,0,1-1.91.66,2.71,2.71,0,0,1-2.21-1,4.23,4.23,0,0,1-.81-2.73v-.24a4.17,4.17,0,0,1,.81-2.69,2.69,2.69,0,0,1,2.19-1,2.76,2.76,0,0,1,1.95.7,2.56,2.56,0,0,1,.81,1.87h-.37a2.25,2.25,0,0,0-.7-1.6,2.41,2.41,0,0,0-1.69-.6,2.29,2.29,0,0,0-1.93.89,3.89,3.89,0,0,0-.7,2.48V46a3.8,3.8,0,0,0,.7,2.43A2.37,2.37,0,0,0,160.74,49.27Z"/><path d="M166.16,40.11v2h1.68v.37h-1.68v5.26a2,2,0,0,0,.26,1.16,1,1,0,0,0,.85.38,5.34,5.34,0,0,0,.73-.06l.07.34a2.34,2.34,0,0,1-.78.09,1.37,1.37,0,0,1-1.15-.45,2.38,2.38,0,0,1-.36-1.41V42.47h-1.36V42.1h1.36v-2Z"/><path d="M169.66,39.79a.4.4,0,0,1,.11-.27.37.37,0,0,1,.27-.11.36.36,0,0,1,.26.11.37.37,0,0,1,.12.27.34.34,0,0,1-.12.27.36.36,0,0,1-.26.11.38.38,0,0,1-.38-.38Zm.56,9.71h-.37V42.1h.37Z"/><path d="M172.09,45.66a4.38,4.38,0,0,1,.4-1.91,3.13,3.13,0,0,1,1.15-1.31,3,3,0,0,1,1.68-.47,3,3,0,0,1,2.82,1.75,4.35,4.35,0,0,1,.42,1.9V46a4.31,4.31,0,0,1-.4,1.9A3.15,3.15,0,0,1,177,49.17a3.08,3.08,0,0,1-1.68.47,3.13,3.13,0,0,1-1.68-.47,3.17,3.17,0,0,1-1.15-1.3,4.29,4.29,0,0,1-.41-1.88Zm.37.29a3.94,3.94,0,0,0,.36,1.69,2.86,2.86,0,0,0,1,1.2,2.68,2.68,0,0,0,1.49.43,2.56,2.56,0,0,0,2.06-1,3.7,3.7,0,0,0,.8-2.45v-.21a3.76,3.76,0,0,0-.37-1.68,2.9,2.9,0,0,0-1-1.21,2.62,2.62,0,0,0-1.48-.43,2.59,2.59,0,0,0-2.07,1,3.68,3.68,0,0,0-.79,2.43Z"/><path d="M180.72,43.83a3,3,0,0,1,1.07-1.36,2.58,2.58,0,0,1,1.55-.5,2.19,2.19,0,0,1,1.77.67,3.09,3.09,0,0,1,.59,2V49.5h-.37V44.66a2.73,2.73,0,0,0-.49-1.75,1.87,1.87,0,0,0-1.52-.57,2.26,2.26,0,0,0-1.65.68,3.37,3.37,0,0,0-.95,1.75V49.5h-.37V42.1h.37Z"/><path d="M29.45,66.3A5.22,5.22,0,0,1,29.32,65a3,3,0,0,1-1.2,1.1,3.68,3.68,0,0,1-1.71.39,2.42,2.42,0,0,1-1.66-.56,1.95,1.95,0,0,1,.3-3.08,4.4,4.4,0,0,1,2.44-.63h1.83V61.09a1.81,1.81,0,0,0-.59-1.44,2.45,2.45,0,0,0-1.67-.51,2.68,2.68,0,0,0-1.69.52,1.55,1.55,0,0,0-.67,1.28h-.37a1.87,1.87,0,0,1,.79-1.53,3,3,0,0,1,1.94-.63,2.83,2.83,0,0,1,1.9.6,2.15,2.15,0,0,1,.73,1.68v3.53a4.73,4.73,0,0,0,.19,1.66v.06Zm-3-.23a3.3,3.3,0,0,0,1.78-.47,2.87,2.87,0,0,0,1.13-1.3V62.54H27.61a4,4,0,0,0-2.43.63,1.56,1.56,0,0,0-.68,1.28A1.48,1.48,0,0,0,25,65.6,2,2,0,0,0,26.41,66.07Z"/><path d="M31.72,62.53a4.51,4.51,0,0,1,.74-2.77,2.43,2.43,0,0,1,2-1A2.7,2.7,0,0,1,37,60.26V58.9h.37v7.27a3.29,3.29,0,0,1-.75,2.29,2.62,2.62,0,0,1-2,.82A2.86,2.86,0,0,1,32.17,68l.26-.24a3.16,3.16,0,0,0,.94.83,2.42,2.42,0,0,0,1.2.29,2.28,2.28,0,0,0,1.78-.69,2.86,2.86,0,0,0,.66-2V65.13a2.63,2.63,0,0,1-1,1,3.23,3.23,0,0,1-1.48.34,2.38,2.38,0,0,1-2-1,4.63,4.63,0,0,1-.74-2.8Zm.37.14a4.29,4.29,0,0,0,.63,2.49,2,2,0,0,0,1.77.91,2.83,2.83,0,0,0,1.59-.44A2.29,2.29,0,0,0,37,64.41V61.06a2.44,2.44,0,0,0-2.51-1.92,2.06,2.06,0,0,0-1.78.89A4.59,4.59,0,0,0,32.09,62.67Z"/><path d="M44.52,66.3A5.15,5.15,0,0,1,44.38,65a3,3,0,0,1-1.19,1.1,3.72,3.72,0,0,1-1.72.39,2.41,2.41,0,0,1-1.65-.56,1.95,1.95,0,0,1,.3-3.08,4.38,4.38,0,0,1,2.44-.63h1.82V61.09a1.81,1.81,0,0,0-.58-1.44,2.47,2.47,0,0,0-1.67-.51,2.66,2.66,0,0,0-1.69.52,1.56,1.56,0,0,0-.68,1.28h-.37a1.88,1.88,0,0,1,.8-1.53,3,3,0,0,1,1.94-.63,2.83,2.83,0,0,1,1.9.6,2.11,2.11,0,0,1,.72,1.68v3.53a5,5,0,0,0,.19,1.66v.06Zm-3.05-.23a3.34,3.34,0,0,0,1.79-.47,2.85,2.85,0,0,0,1.12-1.3V62.54H42.67a4,4,0,0,0-2.42.63,1.54,1.54,0,0,0-.69,1.28,1.48,1.48,0,0,0,.54,1.15A2,2,0,0,0,41.47,66.07Z"/><path d="M47,56.59a.4.4,0,0,1,.11-.27.37.37,0,0,1,.27-.11.38.38,0,0,1,.38.38.37.37,0,0,1-.11.27.4.4,0,0,1-.27.11.38.38,0,0,1-.38-.38Zm.56,9.71h-.37V58.9h.37Z"/><path d="M50.39,60.63a3,3,0,0,1,1.06-1.36,2.59,2.59,0,0,1,1.56-.5,2.21,2.21,0,0,1,1.77.67,3.09,3.09,0,0,1,.58,2V66.3H55V61.46a2.67,2.67,0,0,0-.48-1.75A1.88,1.88,0,0,0,53,59.14a2.28,2.28,0,0,0-1.66.68,3.42,3.42,0,0,0-.94,1.75V66.3H50V58.9h.37Z"/><path d="M57.39,68l-.26-.22a2.6,2.6,0,0,0,.6-1.47V65.21h.37v1A2.68,2.68,0,0,1,57.39,68Z"/><path d="M68.43,66.3A4.75,4.75,0,0,1,68.29,65a3,3,0,0,1-1.2,1.1,3.65,3.65,0,0,1-1.71.39,2.37,2.37,0,0,1-1.65-.56,1.85,1.85,0,0,1-.63-1.45A1.87,1.87,0,0,1,64,62.8a4.4,4.4,0,0,1,2.44-.63h1.83V61.09a1.84,1.84,0,0,0-.58-1.44A2.5,2.5,0,0,0,66,59.14a2.7,2.7,0,0,0-1.69.52,1.55,1.55,0,0,0-.67,1.28H63.3a1.87,1.87,0,0,1,.79-1.53A3,3,0,0,1,66,58.77a2.83,2.83,0,0,1,1.9.6,2.15,2.15,0,0,1,.73,1.68v3.53a4.73,4.73,0,0,0,.19,1.66v.06Zm-3.05-.23a3.28,3.28,0,0,0,1.78-.47,2.87,2.87,0,0,0,1.13-1.3V62.54H66.58a4,4,0,0,0-2.43.63,1.56,1.56,0,0,0-.68,1.28A1.48,1.48,0,0,0,64,65.6,2,2,0,0,0,65.38,66.07Z"/><path d="M71.41,60.63a3,3,0,0,1,1.06-1.36,2.59,2.59,0,0,1,1.56-.5,2.21,2.21,0,0,1,1.77.67,3.09,3.09,0,0,1,.58,2V66.3H76V61.46a2.67,2.67,0,0,0-.48-1.75A1.88,1.88,0,0,0,74,59.14a2.28,2.28,0,0,0-1.66.68,3.42,3.42,0,0,0-.94,1.75V66.3H71V58.9h.37Z"/><path d="M78.36,62.53a4.58,4.58,0,0,1,.74-2.77,2.43,2.43,0,0,1,2.05-1,2.87,2.87,0,0,1,1.47.37,2.83,2.83,0,0,1,1,1.12V55.8H84V66.3h-.37V65.12a2.56,2.56,0,0,1-1,1,3.12,3.12,0,0,1-1.49.35,2.39,2.39,0,0,1-2-1,4.7,4.7,0,0,1-.74-2.8Zm.38.14a4.35,4.35,0,0,0,.62,2.48,2,2,0,0,0,1.77.92,2.88,2.88,0,0,0,1.56-.41,2.4,2.4,0,0,0,1-1.19V61a2.48,2.48,0,0,0-2.52-1.86,2,2,0,0,0-1.77.89A4.59,4.59,0,0,0,78.74,62.67Z"/><path d="M94.49,66.3A5.15,5.15,0,0,1,94.35,65a3,3,0,0,1-1.19,1.1,3.72,3.72,0,0,1-1.72.39,2.41,2.41,0,0,1-1.65-.56,1.87,1.87,0,0,1-.62-1.45,1.85,1.85,0,0,1,.92-1.63,4.38,4.38,0,0,1,2.44-.63h1.82V61.09a1.81,1.81,0,0,0-.58-1.44,2.47,2.47,0,0,0-1.67-.51,2.66,2.66,0,0,0-1.69.52,1.56,1.56,0,0,0-.68,1.28h-.37a1.88,1.88,0,0,1,.8-1.53,3,3,0,0,1,1.94-.63,2.83,2.83,0,0,1,1.9.6,2.11,2.11,0,0,1,.72,1.68v3.53a4.67,4.67,0,0,0,.2,1.66v.06Zm-3-.23a3.34,3.34,0,0,0,1.79-.47,2.85,2.85,0,0,0,1.12-1.3V62.54h-1.7a4,4,0,0,0-2.43.63,1.53,1.53,0,0,0-.68,1.28,1.45,1.45,0,0,0,.54,1.15A2,2,0,0,0,91.44,66.07Z"/><path d="M96.75,62.53a4.51,4.51,0,0,1,.75-2.77,2.42,2.42,0,0,1,2-1,2.78,2.78,0,0,1,1.47.38,2.64,2.64,0,0,1,1,1.11V58.9h.38v7.27a3.29,3.29,0,0,1-.75,2.29,2.62,2.62,0,0,1-2,.82A2.86,2.86,0,0,1,97.21,68l.25-.24a3.32,3.32,0,0,0,1,.83,2.42,2.42,0,0,0,1.2.29,2.31,2.31,0,0,0,1.78-.69,2.85,2.85,0,0,0,.65-2V65.13a2.6,2.6,0,0,1-1,1,3.26,3.26,0,0,1-1.48.34,2.38,2.38,0,0,1-2-1,4.63,4.63,0,0,1-.75-2.8Zm.38.14a4.29,4.29,0,0,0,.63,2.49,2,2,0,0,0,1.76.91,2.84,2.84,0,0,0,1.6-.44,2.33,2.33,0,0,0,.92-1.22V61.06a2.43,2.43,0,0,0-2.5-1.92,2,2,0,0,0-1.78.89A4.59,4.59,0,0,0,97.13,62.67Z"/><path d="M109.56,66.3a5.15,5.15,0,0,1-.14-1.35,3,3,0,0,1-1.2,1.1,3.65,3.65,0,0,1-1.71.39,2.41,2.41,0,0,1-1.65-.56,1.85,1.85,0,0,1-.63-1.45,1.87,1.87,0,0,1,.92-1.63,4.42,4.42,0,0,1,2.45-.63h1.82V61.09a1.81,1.81,0,0,0-.58-1.44,2.47,2.47,0,0,0-1.67-.51,2.66,2.66,0,0,0-1.69.52,1.56,1.56,0,0,0-.68,1.28h-.37a1.9,1.9,0,0,1,.79-1.53,3,3,0,0,1,2-.63,2.85,2.85,0,0,1,1.9.6,2.11,2.11,0,0,1,.72,1.68v3.53a4.73,4.73,0,0,0,.19,1.66v.06Zm-3-.23a3.34,3.34,0,0,0,1.79-.47,2.91,2.91,0,0,0,1.12-1.3V62.54h-1.71a4,4,0,0,0-2.42.63,1.54,1.54,0,0,0-.69,1.28,1.48,1.48,0,0,0,.54,1.15A2,2,0,0,0,106.51,66.07Z"/><path d="M112.07,56.59a.38.38,0,0,1,.37-.38.37.37,0,0,1,.27.11.37.37,0,0,1,.12.27.34.34,0,0,1-.12.27.37.37,0,0,1-.27.11.36.36,0,0,1-.26-.11A.33.33,0,0,1,112.07,56.59Zm.56,9.71h-.37V58.9h.37Z"/><path d="M115.42,60.63a3,3,0,0,1,1.07-1.36,2.59,2.59,0,0,1,1.56-.5,2.18,2.18,0,0,1,1.76.67,3.09,3.09,0,0,1,.59,2V66.3H120V61.46a2.67,2.67,0,0,0-.49-1.75,1.85,1.85,0,0,0-1.51-.57,2.28,2.28,0,0,0-1.66.68,3.44,3.44,0,0,0-1,1.75V66.3h-.37V58.9h.37Z"/><path d="M122.42,68l-.25-.22a2.6,2.6,0,0,0,.6-1.47V65.21h.37v1A2.65,2.65,0,0,1,122.42,68Z"/><path d="M133.46,66.3a5.22,5.22,0,0,1-.13-1.35,3,3,0,0,1-1.2,1.1,3.72,3.72,0,0,1-1.72.39,2.41,2.41,0,0,1-1.65-.56,1.87,1.87,0,0,1-.62-1.45,1.85,1.85,0,0,1,.92-1.63,4.38,4.38,0,0,1,2.44-.63h1.83V61.09a1.81,1.81,0,0,0-.59-1.44,2.47,2.47,0,0,0-1.67-.51,2.68,2.68,0,0,0-1.69.52,1.55,1.55,0,0,0-.67,1.28h-.37a1.87,1.87,0,0,1,.79-1.53,3,3,0,0,1,1.94-.63,2.83,2.83,0,0,1,1.9.6,2.15,2.15,0,0,1,.73,1.68v3.53a4.73,4.73,0,0,0,.19,1.66v.06Zm-3.05-.23a3.32,3.32,0,0,0,1.79-.47,2.87,2.87,0,0,0,1.13-1.3V62.54h-1.71a4,4,0,0,0-2.43.63,1.53,1.53,0,0,0-.68,1.28,1.48,1.48,0,0,0,.54,1.15A2,2,0,0,0,130.41,66.07Z"/><path d="M136.44,60.63a3.11,3.11,0,0,1,1.07-1.36,2.59,2.59,0,0,1,1.56-.5,2.21,2.21,0,0,1,1.77.67,3.09,3.09,0,0,1,.58,2V66.3h-.37V61.46a2.73,2.73,0,0,0-.48-1.75,1.88,1.88,0,0,0-1.52-.57,2.28,2.28,0,0,0-1.66.68,3.44,3.44,0,0,0-.95,1.75V66.3h-.37V58.9h.37Z"/><path d="M143.4,62.53a4.51,4.51,0,0,1,.74-2.77,2.42,2.42,0,0,1,2-1,2.88,2.88,0,0,1,1.48.37,2.8,2.8,0,0,1,1,1.12V55.8h.37V66.3h-.37V65.12a2.53,2.53,0,0,1-1,1,3.15,3.15,0,0,1-1.49.35,2.38,2.38,0,0,1-2-1,4.63,4.63,0,0,1-.74-2.8Zm.38.14a4.35,4.35,0,0,0,.62,2.48,2,2,0,0,0,1.76.92,2.89,2.89,0,0,0,1.57-.41,2.43,2.43,0,0,0,1-1.19V61a2.46,2.46,0,0,0-2.51-1.86,2,2,0,0,0-1.77.89A4.59,4.59,0,0,0,143.78,62.67Z"/><path d="M159.53,66.3a5.15,5.15,0,0,1-.14-1.35,3,3,0,0,1-1.19,1.1,3.72,3.72,0,0,1-1.72.39,2.41,2.41,0,0,1-1.65-.56,1.85,1.85,0,0,1-.63-1.45,1.87,1.87,0,0,1,.92-1.63,4.44,4.44,0,0,1,2.45-.63h1.82V61.09a1.81,1.81,0,0,0-.58-1.44,2.47,2.47,0,0,0-1.67-.51,2.66,2.66,0,0,0-1.69.52,1.56,1.56,0,0,0-.68,1.28h-.37a1.9,1.9,0,0,1,.79-1.53,3,3,0,0,1,1.95-.63,2.85,2.85,0,0,1,1.9.6,2.11,2.11,0,0,1,.72,1.68v3.53a4.73,4.73,0,0,0,.19,1.66v.06Zm-3.05-.23a3.34,3.34,0,0,0,1.79-.47,2.85,2.85,0,0,0,1.12-1.3V62.54h-1.71a4,4,0,0,0-2.42.63,1.54,1.54,0,0,0-.69,1.28,1.48,1.48,0,0,0,.54,1.15A2,2,0,0,0,156.48,66.07Z"/><path d="M161.79,62.53a4.51,4.51,0,0,1,.75-2.77,2.4,2.4,0,0,1,2-1,2.78,2.78,0,0,1,1.47.38,2.71,2.71,0,0,1,1,1.11V58.9h.38v7.27a3.29,3.29,0,0,1-.75,2.29,2.64,2.64,0,0,1-2.05.82A3,3,0,0,1,163.3,69a3,3,0,0,1-1.06-.93l.26-.24a3.19,3.19,0,0,0,.95.83,2.42,2.42,0,0,0,1.2.29,2.31,2.31,0,0,0,1.78-.69,2.85,2.85,0,0,0,.65-2V65.13a2.6,2.6,0,0,1-1,1,3.26,3.26,0,0,1-1.48.34,2.37,2.37,0,0,1-2-1,4.63,4.63,0,0,1-.75-2.8Zm.38.14a4.29,4.29,0,0,0,.63,2.49,2,2,0,0,0,1.76.91,2.83,2.83,0,0,0,1.59-.44,2.29,2.29,0,0,0,.93-1.22V61.06a2.44,2.44,0,0,0-2.51-1.92,2,2,0,0,0-1.77.89A4.59,4.59,0,0,0,162.17,62.67Z"/><path d="M174.59,66.3a5.22,5.22,0,0,1-.13-1.35,3,3,0,0,1-1.2,1.1,3.68,3.68,0,0,1-1.71.39,2.42,2.42,0,0,1-1.66-.56,1.95,1.95,0,0,1,.3-3.08,4.4,4.4,0,0,1,2.44-.63h1.83V61.09a1.81,1.81,0,0,0-.59-1.44,2.45,2.45,0,0,0-1.67-.51,2.68,2.68,0,0,0-1.69.52,1.55,1.55,0,0,0-.67,1.28h-.37a1.87,1.87,0,0,1,.79-1.53,3,3,0,0,1,1.94-.63,2.83,2.83,0,0,1,1.9.6,2.15,2.15,0,0,1,.73,1.68v3.53a4.73,4.73,0,0,0,.19,1.66v.06Zm-3-.23a3.3,3.3,0,0,0,1.78-.47,2.87,2.87,0,0,0,1.13-1.3V62.54h-1.71a4,4,0,0,0-2.43.63,1.56,1.56,0,0,0-.68,1.28,1.48,1.48,0,0,0,.54,1.15A2,2,0,0,0,171.55,66.07Z"/><path d="M177.1,56.59a.38.38,0,1,1,.76,0,.37.37,0,0,1-.11.27.39.39,0,0,1-.54,0A.37.37,0,0,1,177.1,56.59Zm.56,9.71h-.37V58.9h.37Z"/><path d="M180.46,60.63a3,3,0,0,1,1.07-1.36,2.58,2.58,0,0,1,1.55-.5,2.19,2.19,0,0,1,1.77.67,3.09,3.09,0,0,1,.59,2V66.3h-.37V61.46a2.73,2.73,0,0,0-.49-1.75,1.87,1.87,0,0,0-1.52-.57,2.26,2.26,0,0,0-1.65.68,3.37,3.37,0,0,0-.95,1.75V66.3h-.37V58.9h.37Z"/><path d="M187.46,68l-.25-.22a2.6,2.6,0,0,0,.6-1.47V65.21h.36v1A2.64,2.64,0,0,1,187.46,68Z"/><path d="M29.63,83.1V81.9a2.44,2.44,0,0,1-1,1,3.14,3.14,0,0,1-1.59.36,2.26,2.26,0,0,1-1.81-.71,3.11,3.11,0,0,1-.62-2.06V75.7H25v4.78a2.74,2.74,0,0,0,.53,1.78,1.88,1.88,0,0,0,1.52.61,2.79,2.79,0,0,0,1.72-.5,2.27,2.27,0,0,0,.84-1.46V75.7H30v7.4Z"/><path d="M32.71,77.43a3,3,0,0,1,1.06-1.36,2.59,2.59,0,0,1,1.56-.5,2.2,2.2,0,0,1,1.77.67,3,3,0,0,1,.58,2V83.1h-.36V78.26a2.73,2.73,0,0,0-.49-1.75,1.87,1.87,0,0,0-1.52-.57,2.28,2.28,0,0,0-1.66.68,3.42,3.42,0,0,0-.94,1.75V83.1h-.37V75.7h.37Z"/><path d="M40.83,73.71v2h1.68v.37H40.83v5.26a2,2,0,0,0,.26,1.16,1,1,0,0,0,.85.38,5.34,5.34,0,0,0,.73-.06l.07.34a2.34,2.34,0,0,1-.78.09,1.37,1.37,0,0,1-1.15-.45,2.38,2.38,0,0,1-.36-1.41V76.07H39.09V75.7h1.36v-2Z"/><path d="M44.33,73.39a.4.4,0,0,1,.11-.27.37.37,0,0,1,.27-.11.36.36,0,0,1,.26.11.37.37,0,0,1,.12.27.34.34,0,0,1-.12.27.36.36,0,0,1-.26.11.38.38,0,0,1-.38-.38Zm.56,9.71h-.37V75.7h.37Z"/><path d="M47.77,83.1h-.36V72.6h.36Z"/><path d="M54.38,73.71v2h1.68v.37H54.38v5.26a2.1,2.1,0,0,0,.25,1.16,1,1,0,0,0,.86.38,5.34,5.34,0,0,0,.73-.06l.07.34a2.38,2.38,0,0,1-.78.09,1.36,1.36,0,0,1-1.15-.45A2.38,2.38,0,0,1,54,81.38V76.07H52.63V75.7H54v-2Z"/><path d="M58.35,77.43a3,3,0,0,1,1.07-1.36,2.54,2.54,0,0,1,1.55-.5,2.19,2.19,0,0,1,1.77.67,3.09,3.09,0,0,1,.59,2V83.1H63V78.26a2.73,2.73,0,0,0-.49-1.75A1.87,1.87,0,0,0,61,75.94a2.26,2.26,0,0,0-1.65.68,3.37,3.37,0,0,0-.95,1.75V83.1H58V72.6h.37Z"/><path d="M68.3,83.24a2.92,2.92,0,0,1-1.64-.49,3.26,3.26,0,0,1-1.17-1.32,4,4,0,0,1-.43-1.86v-.31a4.32,4.32,0,0,1,.41-1.88A3.32,3.32,0,0,1,66.6,76a2.83,2.83,0,0,1,1.57-.47,2.57,2.57,0,0,1,2,.88A3.38,3.38,0,0,1,71,78.77v.39H65.43v.4a3.79,3.79,0,0,0,.38,1.67,2.92,2.92,0,0,0,1,1.2,2.57,2.57,0,0,0,1.44.44,2.88,2.88,0,0,0,1.27-.25,2.56,2.56,0,0,0,.93-.76l.26.18A2.79,2.79,0,0,1,68.3,83.24Zm-.13-7.3a2.43,2.43,0,0,0-1.84.8,3.47,3.47,0,0,0-.88,2.05h5.16V78.7a3.16,3.16,0,0,0-.32-1.4,2.41,2.41,0,0,0-.88-1A2.3,2.3,0,0,0,68.17,75.94Z"/><path d="M76.51,83.1h-.37V72.6h.37Z"/><path d="M78.83,73.39a.4.4,0,0,1,.11-.27.37.37,0,0,1,.27-.11.38.38,0,0,1,.38.38.37.37,0,0,1-.11.27.4.4,0,0,1-.27.11.38.38,0,0,1-.38-.38Zm.56,9.71H79V75.7h.37Z"/><path d="M86.38,81.29c0-.9-.77-1.51-2.3-1.83a4.53,4.53,0,0,1-1.92-.76,1.58,1.58,0,0,1-.54-1.27,1.62,1.62,0,0,1,.69-1.34,2.83,2.83,0,0,1,1.78-.52,3,3,0,0,1,1.92.57,1.84,1.84,0,0,1,.73,1.54h-.38a1.51,1.51,0,0,0-.63-1.24,3,3,0,0,0-3.17-.08,1.37,1.37,0,0,0-.36,1.84,1.77,1.77,0,0,0,.69.51,7,7,0,0,0,1.4.45,5.83,5.83,0,0,1,1.44.49,2,2,0,0,1,.78.68,1.85,1.85,0,0,1,.24,1A1.66,1.66,0,0,1,86,82.7a3.06,3.06,0,0,1-1.88.54,3.28,3.28,0,0,1-2-.57,1.72,1.72,0,0,1-.76-1.45h.37a1.51,1.51,0,0,0,.69,1.21,3,3,0,0,0,1.71.44,2.67,2.67,0,0,0,1.61-.46A1.37,1.37,0,0,0,86.38,81.29Z"/><path d="M89.61,73.71v2h1.68v.37H89.61v5.26a2.1,2.1,0,0,0,.26,1.16,1,1,0,0,0,.85.38,5.47,5.47,0,0,0,.74-.06l.06.34a2.31,2.31,0,0,1-.77.09,1.38,1.38,0,0,1-1.16-.45,2.38,2.38,0,0,1-.36-1.41V76.07H87.87V75.7h1.36v-2Z"/><path d="M96.93,77.43A3,3,0,0,1,98,76.07a2.59,2.59,0,0,1,1.56-.5,2.18,2.18,0,0,1,1.76.67,3.09,3.09,0,0,1,.59,2V83.1h-.37V78.26a2.67,2.67,0,0,0-.49-1.75,1.86,1.86,0,0,0-1.51-.57,2.28,2.28,0,0,0-1.66.68,3.44,3.44,0,0,0-.95,1.75V83.1h-.37V72.6h.37Z"/><path d="M109,83.1a5.22,5.22,0,0,1-.13-1.35,3,3,0,0,1-1.2,1.1,3.68,3.68,0,0,1-1.71.39,2.42,2.42,0,0,1-1.66-.56,1.95,1.95,0,0,1,.3-3.08A4.4,4.4,0,0,1,107,79h1.83V77.89a1.81,1.81,0,0,0-.59-1.44,2.45,2.45,0,0,0-1.67-.51,2.68,2.68,0,0,0-1.69.52,1.55,1.55,0,0,0-.67,1.28h-.37a1.89,1.89,0,0,1,.79-1.53,3,3,0,0,1,1.94-.63,2.83,2.83,0,0,1,1.9.6,2.15,2.15,0,0,1,.73,1.68v3.53a4.69,4.69,0,0,0,.19,1.66v.06Zm-3-.23a3.3,3.3,0,0,0,1.78-.47,2.87,2.87,0,0,0,1.13-1.3V79.34h-1.71a4,4,0,0,0-2.43.63,1.56,1.56,0,0,0-.68,1.28,1.48,1.48,0,0,0,.54,1.15A2,2,0,0,0,106,82.87Z"/><path d="M116.17,81.29c0-.9-.76-1.51-2.29-1.83A4.53,4.53,0,0,1,112,78.7a1.58,1.58,0,0,1-.54-1.27,1.64,1.64,0,0,1,.68-1.34,2.88,2.88,0,0,1,1.79-.52,3,3,0,0,1,1.92.57,1.86,1.86,0,0,1,.73,1.54h-.38a1.51,1.51,0,0,0-.63-1.24,2.51,2.51,0,0,0-1.64-.5,2.54,2.54,0,0,0-1.54.42,1.27,1.27,0,0,0-.56,1.06,1.29,1.29,0,0,0,.21.78,1.77,1.77,0,0,0,.69.51,7.08,7.08,0,0,0,1.39.45,5.93,5.93,0,0,1,1.45.49,2,2,0,0,1,.77.68,1.85,1.85,0,0,1,.24,1,1.67,1.67,0,0,1-.71,1.41,3.06,3.06,0,0,1-1.88.54,3.28,3.28,0,0,1-2-.57,1.72,1.72,0,0,1-.76-1.45h.37a1.5,1.5,0,0,0,.68,1.21,3,3,0,0,0,1.72.44,2.69,2.69,0,0,0,1.61-.46A1.36,1.36,0,0,0,116.17,81.29Z"/><path d="M121.37,79.26a4.39,4.39,0,0,1,.41-1.91A3.06,3.06,0,0,1,122.93,76a3,3,0,0,1,1.67-.47,3.06,3.06,0,0,1,1.67.46,3,3,0,0,1,1.15,1.29,4.21,4.21,0,0,1,.42,1.9v.32a4.32,4.32,0,0,1-.4,1.91,3.15,3.15,0,0,1-1.15,1.32,3.22,3.22,0,0,1-3.35,0,3,3,0,0,1-1.15-1.3,4.29,4.29,0,0,1-.42-1.88Zm.37.28a3.85,3.85,0,0,0,.37,1.7,2.91,2.91,0,0,0,1,1.2,2.74,2.74,0,0,0,1.5.43,2.58,2.58,0,0,0,2.06-1,3.7,3.7,0,0,0,.79-2.45v-.21a3.9,3.9,0,0,0-.36-1.68,2.92,2.92,0,0,0-1-1.21,2.6,2.6,0,0,0-1.48-.43,2.55,2.55,0,0,0-2.06,1,3.69,3.69,0,0,0-.8,2.43Z"/><path d="M130,77.43a3.11,3.11,0,0,1,1.07-1.36,2.59,2.59,0,0,1,1.56-.5,2.21,2.21,0,0,1,1.77.67,3.09,3.09,0,0,1,.58,2V83.1h-.37V78.26a2.67,2.67,0,0,0-.48-1.75,1.88,1.88,0,0,0-1.52-.57,2.28,2.28,0,0,0-1.66.68,3.44,3.44,0,0,0-.95,1.75V83.1h-.37V75.7H130Z"/><path d="M137.76,83.1h-.37V72.6h.37Z"/><path d="M142.45,82.53l0-.14,2.56-6.69h.41l-3.31,8.68-.16.41a1.83,1.83,0,0,1-1.77,1.3,1.32,1.32,0,0,1-.54-.08v-.35a1.9,1.9,0,0,0,.5.06,1.36,1.36,0,0,0,1-.34,2.63,2.63,0,0,0,.67-1.1l.45-1.22L139.3,75.7h.4Z"/><path d="M149.66,79.26a4.38,4.38,0,0,1,.4-1.91A3.13,3.13,0,0,1,151.21,76a3.25,3.25,0,0,1,3.35,0,3.08,3.08,0,0,1,1.15,1.29,4.21,4.21,0,0,1,.42,1.9v.32a4.32,4.32,0,0,1-.4,1.91,3.15,3.15,0,0,1-1.15,1.32,3.22,3.22,0,0,1-3.35,0,3.12,3.12,0,0,1-1.16-1.3,4.29,4.29,0,0,1-.41-1.88Zm.37.28a4,4,0,0,0,.36,1.7,3,3,0,0,0,1,1.2,2.71,2.71,0,0,0,1.49.43,2.56,2.56,0,0,0,2.06-1,3.65,3.65,0,0,0,.8-2.45v-.21a3.76,3.76,0,0,0-.37-1.68,2.83,2.83,0,0,0-1-1.21,2.6,2.6,0,0,0-1.48-.43,2.55,2.55,0,0,0-2.06,1,3.63,3.63,0,0,0-.8,2.43Z"/><path d="M158.29,77.43a3,3,0,0,1,1.07-1.36,2.59,2.59,0,0,1,1.56-.5,2.18,2.18,0,0,1,1.76.67,3.09,3.09,0,0,1,.59,2V83.1h-.37V78.26a2.73,2.73,0,0,0-.49-1.75,1.86,1.86,0,0,0-1.51-.57,2.28,2.28,0,0,0-1.66.68,3.44,3.44,0,0,0-1,1.75V83.1h-.37V75.7h.37Z"/><path d="M168.24,83.24a2.92,2.92,0,0,1-1.64-.49,3.26,3.26,0,0,1-1.17-1.32,4,4,0,0,1-.43-1.86v-.31a4.32,4.32,0,0,1,.41-1.88A3.32,3.32,0,0,1,166.54,76a2.83,2.83,0,0,1,1.57-.47,2.57,2.57,0,0,1,2,.88,3.38,3.38,0,0,1,.79,2.32v.39h-5.55v.4a3.79,3.79,0,0,0,.38,1.67,3,3,0,0,0,1.05,1.2,2.57,2.57,0,0,0,1.44.44,2.88,2.88,0,0,0,1.27-.25,2.56,2.56,0,0,0,.93-.76l.26.18A2.79,2.79,0,0,1,168.24,83.24Zm-.13-7.3a2.39,2.39,0,0,0-1.83.8,3.42,3.42,0,0,0-.89,2.05h5.16V78.7a3.16,3.16,0,0,0-.32-1.4,2.46,2.46,0,0,0-.87-1A2.36,2.36,0,0,0,168.11,75.94Z"/><path d="M24.57,90.19a.4.4,0,0,1,.11-.27.39.39,0,0,1,.27-.11.38.38,0,0,1,.38.38.37.37,0,0,1-.11.27.4.4,0,0,1-.27.11.39.39,0,0,1-.27-.11A.37.37,0,0,1,24.57,90.19Zm.56,9.71h-.37V92.5h.37Z"/><path d="M28.39,90.51v2h1.68v.37H28.39v5.26a2.1,2.1,0,0,0,.25,1.16,1,1,0,0,0,.86.38,5.34,5.34,0,0,0,.73-.06l.06.35a2.65,2.65,0,0,1-.77.08,1.36,1.36,0,0,1-1.15-.45A2.31,2.31,0,0,1,28,98.18V92.87H26.64V92.5H28v-2Z"/><path d="M34.65,100A2.87,2.87,0,0,1,33,99.55a3.36,3.36,0,0,1-1.18-1.32,4.1,4.1,0,0,1-.42-1.86v-.31a4.35,4.35,0,0,1,.41-1.88A3.15,3.15,0,0,1,33,92.85a2.76,2.76,0,0,1,1.56-.48,2.59,2.59,0,0,1,2,.88,3.37,3.37,0,0,1,.78,2.32V96H31.78v.4A3.65,3.65,0,0,0,32.16,98a3,3,0,0,0,1,1.2,2.63,2.63,0,0,0,1.45.44,3,3,0,0,0,1.27-.25,2.64,2.64,0,0,0,.92-.76l.26.18A2.78,2.78,0,0,1,34.65,100Zm-.14-7.3a2.39,2.39,0,0,0-1.83.8,3.38,3.38,0,0,0-.88,2H37V95.5a3,3,0,0,0-.32-1.4,2.46,2.46,0,0,0-.87-1A2.33,2.33,0,0,0,34.51,92.74Z"/><path d="M44.34,99.9H44v-5a2.49,2.49,0,0,0-.49-1.66,2,2,0,0,0-1.54-.54,2.35,2.35,0,0,0-2,1.07,3.65,3.65,0,0,0-.6,1.42V99.9H39V92.5h.38v1.75a3.09,3.09,0,0,1,1.07-1.39A2.59,2.59,0,0,1,42,92.37a2.55,2.55,0,0,1,1.52.41,2,2,0,0,1,.78,1.34,2.67,2.67,0,0,1,1.07-1.28A3,3,0,0,1,47,92.37a2.22,2.22,0,0,1,1.78.67,3,3,0,0,1,.59,2V99.9H49V95.11a2.79,2.79,0,0,0-.48-1.8A1.86,1.86,0,0,0,47,92.74a2.55,2.55,0,0,0-2.13,1.07A2.21,2.21,0,0,0,44.34,95Z"/><path d="M51.42,99.56a.38.38,0,0,1,.38-.38.37.37,0,0,1,.27.11.36.36,0,0,1,.11.27.33.33,0,0,1-.11.27.37.37,0,0,1-.27.11.4.4,0,0,1-.27-.11A.37.37,0,0,1,51.42,99.56Z"/><path d="M24.67,29h-.84l-5.72-8.52V29h-.85V19.05h.85l5.72,8.52V19.05h.84Z"/><path d="M26.55,25.19A4.3,4.3,0,0,1,27,23.27a3.09,3.09,0,0,1,1.17-1.33,3.18,3.18,0,0,1,1.71-.47,3,3,0,0,1,2.39,1,4,4,0,0,1,.92,2.75v.17a4.34,4.34,0,0,1-.42,1.93,3.05,3.05,0,0,1-1.16,1.32,3.19,3.19,0,0,1-1.72.47,3.06,3.06,0,0,1-2.39-1,4,4,0,0,1-.92-2.74Zm.83.23a3.36,3.36,0,0,0,.68,2.18,2.33,2.33,0,0,0,3.6,0,3.47,3.47,0,0,0,.68-2.25v-.16A3.77,3.77,0,0,0,32,23.64a2.52,2.52,0,0,0-.88-1.09,2.24,2.24,0,0,0-1.3-.39,2.18,2.18,0,0,0-1.78.86,3.47,3.47,0,0,0-.69,2.25Z"/><path d="M36.62,27.3l.12.63.16-.67,1.78-5.66h.7l1.76,5.62.19.78.15-.72L43,21.6h.85L41.7,29H41l-1.9-5.87-.09-.4-.09.41L37.05,29h-.69l-2.15-7.4h.84Z"/><path d="M44.38,30.86l-.48-.36a3,3,0,0,0,.64-1.73V27.71h.8v.86A2.94,2.94,0,0,1,44.38,30.86Z"/><path d="M54.06,22.3a3.33,3.33,0,0,0-.56-.05,2,2,0,0,0-1.29.43,2.29,2.29,0,0,0-.76,1.24V29h-.81V21.6h.8v1.18a2.17,2.17,0,0,1,2.09-1.31,1.38,1.38,0,0,1,.54.09Z"/><path d="M58.08,29.14a3.21,3.21,0,0,1-2.89-1.76,4.11,4.11,0,0,1-.42-1.87v-.29a4.29,4.29,0,0,1,.41-1.92A3.28,3.28,0,0,1,56.33,22a2.82,2.82,0,0,1,1.6-.49,2.66,2.66,0,0,1,2.14.92,3.75,3.75,0,0,1,.79,2.51v.46H55.58v.15a3.11,3.11,0,0,0,.72,2.1,2.3,2.3,0,0,0,1.82.84,2.41,2.41,0,0,0,2.07-1l.51.39A3,3,0,0,1,58.08,29.14Zm-.15-7a2,2,0,0,0-1.55.68,3.13,3.13,0,0,0-.77,1.82H60v-.09a2.73,2.73,0,0,0-.6-1.74A1.93,1.93,0,0,0,57.93,22.16Z"/><path d="M68.4,25.38a4.44,4.44,0,0,1-.77,2.74,2.43,2.43,0,0,1-2,1,2.73,2.73,0,0,1-2.32-1.07v3.77h-.82V21.6h.76l0,1a2.63,2.63,0,0,1,2.32-1.18,2.44,2.44,0,0,1,2.08,1,4.51,4.51,0,0,1,.76,2.79Zm-.82-.15A3.83,3.83,0,0,0,67,23a1.87,1.87,0,0,0-1.62-.82,2.3,2.3,0,0,0-1.3.36,2.24,2.24,0,0,0-.82,1.05v3.55a2.1,2.1,0,0,0,.84,1,2.43,2.43,0,0,0,1.29.34A1.86,1.86,0,0,0,67,27.62,4.17,4.17,0,0,0,67.58,25.23Z"/><path d="M73.07,29.14a3.2,3.2,0,0,1-1.7-.47,3.16,3.16,0,0,1-1.19-1.29,4.11,4.11,0,0,1-.42-1.87v-.29a4.43,4.43,0,0,1,.41-1.92A3.28,3.28,0,0,1,71.32,22a2.84,2.84,0,0,1,1.6-.49,2.66,2.66,0,0,1,2.14.92,3.7,3.7,0,0,1,.79,2.51v.46H70.57v.15a3.11,3.11,0,0,0,.72,2.1,2.3,2.3,0,0,0,1.82.84,2.7,2.7,0,0,0,1.16-.24,2.61,2.61,0,0,0,.91-.77l.51.39A3,3,0,0,1,73.07,29.14Zm-.15-7a2,2,0,0,0-1.55.68,3.13,3.13,0,0,0-.77,1.82H75v-.09a2.79,2.79,0,0,0-.61-1.74A1.93,1.93,0,0,0,72.92,22.16Z"/><path d="M82.11,29A4.27,4.27,0,0,1,82,28a2.81,2.81,0,0,1-1.09.86,3.3,3.3,0,0,1-1.42.31,2.45,2.45,0,0,1-1.72-.6,1.93,1.93,0,0,1-.66-1.5,2,2,0,0,1,.9-1.71,4.3,4.3,0,0,1,2.5-.63H82v-.84a1.66,1.66,0,0,0-.49-1.25A2,2,0,0,0,80,22.16a2.21,2.21,0,0,0-1.41.43,1.31,1.31,0,0,0-.56,1.06h-.82a1.89,1.89,0,0,1,.82-1.53,3.14,3.14,0,0,1,2-.64,2.86,2.86,0,0,1,2,.62,2.21,2.21,0,0,1,.73,1.72v3.5A4.15,4.15,0,0,0,83,28.92V29Zm-2.57-.59A2.78,2.78,0,0,0,81,28,2.4,2.4,0,0,0,82,27V25.33H80.48a3.67,3.67,0,0,0-1.91.45A1.34,1.34,0,0,0,77.88,27a1.31,1.31,0,0,0,.46,1A1.72,1.72,0,0,0,79.54,28.41Z"/><path d="M86.21,19.71V21.6h1.53v.67H86.21v4.94a1.64,1.64,0,0,0,.22.92.88.88,0,0,0,.75.3c.13,0,.35,0,.66-.07l0,.66a2.52,2.52,0,0,1-.87.12,1.5,1.5,0,0,1-1.23-.49,2.35,2.35,0,0,1-.38-1.44V22.27H84V21.6h1.36V19.71Z"/><path d="M97.27,27.12a1.16,1.16,0,0,0-.49-1,3.8,3.8,0,0,0-1.47-.58,6.21,6.21,0,0,1-1.53-.47,2,2,0,0,1-.8-.66,1.64,1.64,0,0,1-.27-.95A1.77,1.77,0,0,1,93.44,22a3,3,0,0,1,1.88-.57,3,3,0,0,1,2,.61,2,2,0,0,1,.75,1.59h-.82a1.34,1.34,0,0,0-.54-1.08,2.18,2.18,0,0,0-1.37-.43,2.15,2.15,0,0,0-1.3.36,1.13,1.13,0,0,0-.49.94,1,1,0,0,0,.41.85,4.21,4.21,0,0,0,1.48.56,7.19,7.19,0,0,1,1.62.54,2.08,2.08,0,0,1,.79.69,1.73,1.73,0,0,1,.26,1,1.79,1.79,0,0,1-.75,1.5,3.26,3.26,0,0,1-2,.56,3.3,3.3,0,0,1-2.1-.63,1.91,1.91,0,0,1-.8-1.58h.82a1.42,1.42,0,0,0,.6,1.12,2.52,2.52,0,0,0,1.48.4,2.35,2.35,0,0,0,1.38-.38A1.13,1.13,0,0,0,97.27,27.12Z"/><path d="M101.2,19.71V21.6h1.53v.67H101.2v4.94a1.56,1.56,0,0,0,.23.92.84.84,0,0,0,.74.3,6.47,6.47,0,0,0,.66-.07l0,.66a2.52,2.52,0,0,1-.87.12,1.46,1.46,0,0,1-1.22-.49,2.29,2.29,0,0,1-.39-1.44V22.27H99V21.6h1.36V19.71Z"/><path d="M107.29,29.14a3.21,3.21,0,0,1-2.89-1.76,4.11,4.11,0,0,1-.42-1.87v-.29a4.43,4.43,0,0,1,.41-1.92A3.28,3.28,0,0,1,105.54,22a2.84,2.84,0,0,1,1.6-.49,2.66,2.66,0,0,1,2.14.92,3.7,3.7,0,0,1,.79,2.51v.46h-5.28v.15a3.11,3.11,0,0,0,.72,2.1,2.3,2.3,0,0,0,1.82.84,2.67,2.67,0,0,0,1.16-.24,2.61,2.61,0,0,0,.91-.77l.51.39A3,3,0,0,1,107.29,29.14Zm-.15-7a2,2,0,0,0-1.55.68,3.13,3.13,0,0,0-.77,1.82h4.44v-.09a2.79,2.79,0,0,0-.61-1.74A1.93,1.93,0,0,0,107.14,22.16Z"/><path d="M117.61,25.38a4.44,4.44,0,0,1-.77,2.74,2.43,2.43,0,0,1-2,1,2.74,2.74,0,0,1-2.32-1.07v3.77h-.81V21.6h.75l0,1a2.6,2.6,0,0,1,2.31-1.18,2.44,2.44,0,0,1,2.08,1,4.51,4.51,0,0,1,.76,2.79Zm-.82-.15a3.76,3.76,0,0,0-.58-2.23,1.87,1.87,0,0,0-1.62-.82,2.16,2.16,0,0,0-2.12,1.41v3.55a2.16,2.16,0,0,0,.84,1,2.46,2.46,0,0,0,1.29.34,1.85,1.85,0,0,0,1.61-.83A4.09,4.09,0,0,0,116.79,25.23Z"/><path d="M126.5,29h-.82V20L123,21v-.77L126.37,19h.13Z"/><path d="M317.47,34.68l0,0a4.74,4.74,0,0,0-1-1,2.17,2.17,0,0,0-1.14-.25,2.08,2.08,0,0,0-1.56.59,2.64,2.64,0,0,0-.57,1.89v.8h3.15v1.19h-3.15v8.4h-1.44v-8.4h-2.08V36.74h2.08v-.8a3.66,3.66,0,0,1,.95-2.77,3.54,3.54,0,0,1,2.57-.93,4.18,4.18,0,0,1,1.71.34,3.12,3.12,0,0,1,1.3,1Zm-.25.06s0-.05.08,0l.11,0-.07.09-.12-.09Zm.23,0c.08.11.1.15.05.11l-.09-.05Z"/><path d="M321.79,45.87a4.33,4.33,0,0,1-1.57-1.76,6.15,6.15,0,0,1,0-5.17,4.36,4.36,0,0,1,1.57-1.77,4.18,4.18,0,0,1,2.29-.64,4.14,4.14,0,0,1,2.29.64A4.38,4.38,0,0,1,328,38.94a6.25,6.25,0,0,1,0,5.17,4.36,4.36,0,0,1-1.58,1.76,4.21,4.21,0,0,1-2.29.63A4.26,4.26,0,0,1,321.79,45.87Zm3.75-1.11a3.16,3.16,0,0,0,1-1.34,4.67,4.67,0,0,0,.37-1.92,4.26,4.26,0,0,0-.8-2.67,2.51,2.51,0,0,0-4.07,0,4.2,4.2,0,0,0-.8,2.67,4.67,4.67,0,0,0,.37,1.92,3.22,3.22,0,0,0,1,1.34,2.39,2.39,0,0,0,1.46.48A2.35,2.35,0,0,0,325.54,44.76Z"/><path d="M331,46.33V45.12h2.84V33.59h-2.71V32.37h4.24V45.12h2.81v1.21Z"/><path d="M342.82,46a4.11,4.11,0,0,1-1.47-1.74,6.25,6.25,0,0,1-.57-2.79,5.77,5.77,0,0,1,.59-2.77A4,4,0,0,1,342.88,37a3.8,3.8,0,0,1,1.95-.54,3.14,3.14,0,0,1,1.69.45,3,3,0,0,1,1.11,1.21V32.37h1.59v.15a.54.54,0,0,0-.16.27,2.83,2.83,0,0,0,0,.5l0,11.55c0,.34,0,.62,0,.83a2.32,2.32,0,0,0,.18.66h-1.49a2,2,0,0,1-.18-.66c0-.21,0-.49,0-.83a3.47,3.47,0,0,1-1.18,1.25,3.05,3.05,0,0,1-1.63.45A3.53,3.53,0,0,1,342.82,46Zm4.07-1.78a5.33,5.33,0,0,0,.61-2.71,5,5,0,0,0-.66-2.73,2.44,2.44,0,0,0-3.92-.09,4.26,4.26,0,0,0-.67,2.55,5.32,5.32,0,0,0,.7,2.93,2.28,2.28,0,0,0,2,1.08A2.05,2.05,0,0,0,346.89,44.19Z"/><path d="M352,46.33V45.12h2.84V33.59h-2.71V32.37h4.24V45.12h2.81v1.21Z"/><path d="M365.66,46.33V35.06l-2.64.77-.34-.82,3.42-1.78h1v13.1Z"/><path d="M390.1,37.6a5,5,0,0,1,1.08,3.63v5.1h-1.64V44.86a3.34,3.34,0,0,1-3.28,1.7,3.88,3.88,0,0,1-2.49-.72,2.32,2.32,0,0,1-.91-1.92,2.67,2.67,0,0,1,.65-1.77A4.21,4.21,0,0,1,385.27,41a6.94,6.94,0,0,1,2.42-.41,15.92,15.92,0,0,1,2.17.13,3.35,3.35,0,0,0-.86-2.28,3.09,3.09,0,0,0-2.15-.66,3.6,3.6,0,0,0-1.37.27,3.81,3.81,0,0,0-1.21.8l-.73-1A4.6,4.6,0,0,1,387,36.53,4.25,4.25,0,0,1,390.1,37.6Zm-1.23,6.9a3.92,3.92,0,0,0,1-2.64,13,13,0,0,0-2-.15,5.08,5.08,0,0,0-2.52.53,1.7,1.7,0,0,0-.92,1.59c0,1.05.67,1.58,2,1.58A3.29,3.29,0,0,0,388.87,44.5Z"/><path d="M395.32,46a4.11,4.11,0,0,1-1.47-1.74,6.25,6.25,0,0,1-.57-2.79,5.77,5.77,0,0,1,.59-2.77A4,4,0,0,1,395.38,37a3.8,3.8,0,0,1,1.95-.54,3.14,3.14,0,0,1,1.69.45,3,3,0,0,1,1.11,1.21V32.37h1.59v.15a.54.54,0,0,0-.16.27,2.83,2.83,0,0,0,0,.5l0,11.55c0,.34,0,.62,0,.83a2.32,2.32,0,0,0,.18.66h-1.49a2,2,0,0,1-.18-.66c0-.21,0-.49,0-.83a3.47,3.47,0,0,1-1.18,1.25,3.05,3.05,0,0,1-1.63.45A3.53,3.53,0,0,1,395.32,46Zm4.07-1.78a5.33,5.33,0,0,0,.61-2.71,5,5,0,0,0-.66-2.73,2.44,2.44,0,0,0-3.92-.09,4.26,4.26,0,0,0-.67,2.55,5.32,5.32,0,0,0,.7,2.93,2.28,2.28,0,0,0,2,1.08A2.05,2.05,0,0,0,399.39,44.19Z"/><path d="M405.82,46a4.11,4.11,0,0,1-1.47-1.74,6.25,6.25,0,0,1-.57-2.79,5.77,5.77,0,0,1,.59-2.77A4,4,0,0,1,405.88,37a3.8,3.8,0,0,1,1.95-.54,3.14,3.14,0,0,1,1.69.45,3,3,0,0,1,1.11,1.21V32.37h1.59v.15a.54.54,0,0,0-.16.27,2.83,2.83,0,0,0,0,.5l0,11.55c0,.34,0,.62,0,.83a2.32,2.32,0,0,0,.18.66h-1.49a2,2,0,0,1-.18-.66c0-.21,0-.49,0-.83a3.47,3.47,0,0,1-1.18,1.25,3.05,3.05,0,0,1-1.63.45A3.53,3.53,0,0,1,405.82,46Zm4.07-1.78a5.33,5.33,0,0,0,.61-2.71,5,5,0,0,0-.66-2.73,2.44,2.44,0,0,0-3.92-.09,4.26,4.26,0,0,0-.67,2.55,5.32,5.32,0,0,0,.7,2.93,2.28,2.28,0,0,0,2,1.08A2.05,2.05,0,0,0,409.89,44.19Z"/><path d="M426.58,48.2V32.26h6v1.26h-4.66V47h4.68V48.2Z"/><path d="M439.16,46.33V35.06l-2.64.77-.34-.82,3.42-1.78h1v13.1Z"/><path d="M448.3,49.23a5.64,5.64,0,0,0,1-1.17,2.26,2.26,0,0,0,.38-1,.47.47,0,0,0-.1-.32c-.07-.08-.2-.21-.38-.38a3.53,3.53,0,0,1-.44-.46.71.71,0,0,1-.15-.46,1.22,1.22,0,0,1,.35-.88,1.18,1.18,0,0,1,.89-.36,1.32,1.32,0,0,1,1,.49,1.83,1.83,0,0,1,.43,1.25c0,1.1-.75,2.41-2.25,4Z"/><path d="M474.13,40.62a3.28,3.28,0,0,1,.67,2.12,4,4,0,0,1-.46,1.92A3.41,3.41,0,0,1,473,46.05a4.13,4.13,0,0,1-2.12.51,5.24,5.24,0,0,1-2-.37,4.54,4.54,0,0,1-1.61-1.12l1-1.15,0,0,0,0a4.49,4.49,0,0,0,1.08,1,2.6,2.6,0,0,0,1.44.35,2.33,2.33,0,0,0,1.85-.71,2.77,2.77,0,0,0,.63-1.91,2.36,2.36,0,0,0-.79-2,3.33,3.33,0,0,0-2.21-.65c-.14,0-.37,0-.68,0V38.94a3.62,3.62,0,0,0,2.56-.69,2.59,2.59,0,0,0,.68-1.89,1.9,1.9,0,0,0-.52-1.41,1.79,1.79,0,0,0-1.35-.52,3.42,3.42,0,0,0-2.4,1l-.88-.88A4.33,4.33,0,0,1,471,33.17a3.39,3.39,0,0,1,2.49.89,3.17,3.17,0,0,1,.91,2.36,3.33,3.33,0,0,1-.53,1.87,2.75,2.75,0,0,1-1.53,1.11A3.85,3.85,0,0,1,474.13,40.62Zm-5.89,3.17a.45.45,0,0,1,.07.07l0,0C468.21,43.8,468.2,43.76,468.24,43.79Zm.2.12-.13,0,.09-.11.1.11S468.48,43.92,468.44,43.91Z"/><path d="M479.8,49.23a5.64,5.64,0,0,0,1-1.17,2.26,2.26,0,0,0,.38-1,.47.47,0,0,0-.1-.32c-.07-.08-.2-.21-.38-.38a3.53,3.53,0,0,1-.44-.46.71.71,0,0,1-.15-.46,1.22,1.22,0,0,1,.35-.88,1.18,1.18,0,0,1,.89-.36,1.32,1.32,0,0,1,1,.49,1.83,1.83,0,0,1,.43,1.25c0,1.1-.75,2.41-2.25,4Z"/><path d="M503.86,37.83l.9.53a3.74,3.74,0,0,1,1.4,1.54,4.9,4.9,0,0,1,.52,2.32,4.75,4.75,0,0,1-.54,2.31A3.63,3.63,0,0,1,504.67,46a4.21,4.21,0,0,1-2.11.52,4.74,4.74,0,0,1-2.21-.52,4.43,4.43,0,0,1-1.67-1.49l1.17-.88,0,0s0,0,0,0a3.78,3.78,0,0,0,1.15,1.22,2.94,2.94,0,0,0,1.6.39,2.28,2.28,0,0,0,1.26-.39,2.63,2.63,0,0,0,.93-1.09,3.68,3.68,0,0,0,.35-1.65,3.22,3.22,0,0,0-.77-2.26,2.49,2.49,0,0,0-1.92-.84,3,3,0,0,0-1.32.32,3.36,3.36,0,0,0-1.14.92l-.92-.38.44-6.66h6.64v1.32h-5.4l-.21,3.76a4.87,4.87,0,0,1,2.14-.5Zm-3.94,5.8,0,0C499.8,43.53,499.82,43.53,499.92,43.63Zm0,0,.1-.09.09.11C500.11,43.73,500,43.72,499.92,43.63Z"/><path d="M511.3,49.23a5.64,5.64,0,0,0,1-1.17,2.26,2.26,0,0,0,.38-1,.47.47,0,0,0-.1-.32c-.07-.08-.2-.21-.38-.38a3.53,3.53,0,0,1-.44-.46.71.71,0,0,1-.15-.46,1.22,1.22,0,0,1,.35-.88,1.18,1.18,0,0,1,.89-.36,1.32,1.32,0,0,1,1,.49,1.83,1.83,0,0,1,.43,1.25c0,1.1-.75,2.41-2.25,4Z"/><path d="M536.15,33.87a4.46,4.46,0,0,1,1.41,2,7.83,7.83,0,0,1,.49,2.88,11.73,11.73,0,0,1-1.15,5.83,3.69,3.69,0,0,1-3.28,2,4.36,4.36,0,0,1-3.13-1.19l.91-1,0,0,0,0a2.61,2.61,0,0,0,.9.74,2.64,2.64,0,0,0,1.16.22,2.42,2.42,0,0,0,2.2-1.38,8.26,8.26,0,0,0,.93-3.47,4.21,4.21,0,0,1-1.15.71,3.91,3.91,0,0,1-1.42.24,3.77,3.77,0,0,1-1.94-.51,3.59,3.59,0,0,1-1.37-1.39,4.28,4.28,0,0,1-.49-2,4.6,4.6,0,0,1,.51-2.17,3.92,3.92,0,0,1,1.36-1.54,3.56,3.56,0,0,1,4,.15Zm-4.69,10.38,0,0C531.33,44.2,531.35,44.18,531.46,44.25Zm0,0,.08-.1.11.1C531.65,44.35,531.58,44.35,531.46,44.25Zm4.1-4.41a2.75,2.75,0,0,0,1.09-.84,7.9,7.9,0,0,0-.71-3.43,2,2,0,0,0-1.86-1.12,2.11,2.11,0,0,0-1.74.8,3.33,3.33,0,0,0-.65,2.16,2.73,2.73,0,0,0,.69,2,2.25,2.25,0,0,0,1.7.74A3.74,3.74,0,0,0,535.56,39.84Z"/><path d="M548.11,48.2h-6V47h4.69V33.52h-4.66V32.26h6Z"/><path d="M449.6,92.26a5,5,0,0,1,1.08,3.64V101H449V99.53a3.36,3.36,0,0,1-3.28,1.7,3.88,3.88,0,0,1-2.49-.72,2.35,2.35,0,0,1-.91-1.93,2.64,2.64,0,0,1,.65-1.76,4.21,4.21,0,0,1,1.76-1.16,6.72,6.72,0,0,1,2.42-.41,17.83,17.83,0,0,1,2.17.12,3.37,3.37,0,0,0-.86-2.28,3.09,3.09,0,0,0-2.15-.66,3.43,3.43,0,0,0-1.37.28,3.77,3.77,0,0,0-1.21.79l-.73-1a4.6,4.6,0,0,1,3.42-1.35A4.3,4.3,0,0,1,449.6,92.26Zm-1.23,6.9a3.89,3.89,0,0,0,1-2.63,13,13,0,0,0-2-.15,5.09,5.09,0,0,0-2.52.52,1.72,1.72,0,0,0-.92,1.6c0,1,.67,1.58,2,1.58A3.3,3.3,0,0,0,448.37,99.16Z"/><path d="M454.82,100.63a4,4,0,0,1-1.47-1.73,6.25,6.25,0,0,1-.57-2.79,5.84,5.84,0,0,1,.59-2.78,3.9,3.9,0,0,1,1.51-1.64,3.8,3.8,0,0,1,1.95-.54,3.22,3.22,0,0,1,1.69.44,3,3,0,0,1,1.11,1.22V87h1.59v.14a.62.62,0,0,0-.16.28,2.75,2.75,0,0,0,0,.5l0,11.55c0,.34,0,.61,0,.83a2.32,2.32,0,0,0,.18.66h-1.49a2,2,0,0,1-.18-.66c0-.22,0-.49,0-.83a3.55,3.55,0,0,1-1.18,1.25,3.05,3.05,0,0,1-1.63.45A3.46,3.46,0,0,1,454.82,100.63Zm4.07-1.77a5.36,5.36,0,0,0,.61-2.71,5,5,0,0,0-.66-2.73,2.21,2.21,0,0,0-2-1,2.24,2.24,0,0,0-1.93.93,4.32,4.32,0,0,0-.67,2.56,5.34,5.34,0,0,0,.7,2.93,2.28,2.28,0,0,0,2,1.08A2.07,2.07,0,0,0,458.89,98.86Z"/><path d="M465.32,100.63a4,4,0,0,1-1.47-1.73,6.25,6.25,0,0,1-.57-2.79,5.84,5.84,0,0,1,.59-2.78,3.9,3.9,0,0,1,1.51-1.64,3.8,3.8,0,0,1,1.95-.54,3.22,3.22,0,0,1,1.69.44,3,3,0,0,1,1.11,1.22V87h1.59v.14a.62.62,0,0,0-.16.28,2.75,2.75,0,0,0,0,.5l0,11.55c0,.34,0,.61,0,.83a2.32,2.32,0,0,0,.18.66h-1.49a2,2,0,0,1-.18-.66c0-.22,0-.49,0-.83a3.55,3.55,0,0,1-1.18,1.25,3.05,3.05,0,0,1-1.63.45A3.46,3.46,0,0,1,465.32,100.63Zm4.07-1.77a5.36,5.36,0,0,0,.61-2.71,5,5,0,0,0-.66-2.73,2.21,2.21,0,0,0-2-1,2.24,2.24,0,0,0-1.93.93,4.32,4.32,0,0,0-.67,2.56,5.34,5.34,0,0,0,.7,2.93,2.28,2.28,0,0,0,2,1.08A2.07,2.07,0,0,0,469.39,98.86Z"/><path class="cls-1" d="M436.85,56.51c1.08,9.89,6.51,17.84,12.34,25.62a1.51,1.51,0,0,0,2.79-.75l0-3.88a1.5,1.5,0,0,0-3,0l0,3.88,2.8-.76c-5.44-7.26-10.91-14.83-11.93-24.11-.2-1.9-3.21-1.92-3,0Z"/><path class="cls-1" d="M450.38,80.14l-5-1c-1.88-.39-2.69,2.5-.8,2.9l5,1c1.89.4,2.69-2.49.8-2.89Z"/><path class="cls-1" d="M472.17,52.87a36.16,36.16,0,0,1-5.88,28.44c-1.11,1.58,1.49,3.08,2.59,1.51a39.06,39.06,0,0,0,6.18-30.75c-.39-1.88-3.28-1.09-2.89.8Z"/><path class="cls-1" d="M467.75,82.27A10.69,10.69,0,0,1,466.54,78c-.14-1.92-3.14-1.93-3,0a14.47,14.47,0,0,0,1.62,5.78c.9,1.71,3.49.2,2.59-1.51Z"/><path class="cls-1" d="M467,84.5h3.5a1.5,1.5,0,0,0,0-3H467a1.5,1.5,0,0,0,0,3Z"/><path d="M441.08,149.2V133.26h6v1.26h-4.66V148h4.68v1.19Z"/><path d="M455.51,147.33v-3.21h-5.67v-1.07l6-8.82h1.24v8.67h1.68v1.24h-1.68v3.19Zm-4-4.45h4v-6Z"/><path d="M462.8,150.23a5.64,5.64,0,0,0,1-1.17,2.26,2.26,0,0,0,.38-1,.47.47,0,0,0-.1-.32c-.07-.08-.2-.21-.38-.38a3.53,3.53,0,0,1-.44-.46.71.71,0,0,1-.15-.46,1.22,1.22,0,0,1,.35-.88,1.18,1.18,0,0,1,.89-.36,1.32,1.32,0,0,1,1,.49,1.83,1.83,0,0,1,.43,1.25c0,1.1-.75,2.41-2.25,4Z"/><path d="M486.86,138.83l.9.53a3.74,3.74,0,0,1,1.4,1.54,4.9,4.9,0,0,1,.52,2.32,4.75,4.75,0,0,1-.54,2.31,3.63,3.63,0,0,1-1.47,1.51,4.21,4.21,0,0,1-2.11.52,4.74,4.74,0,0,1-2.21-.52,4.43,4.43,0,0,1-1.67-1.49l1.17-.88,0,0s0,0,0,0a3.78,3.78,0,0,0,1.15,1.22,2.94,2.94,0,0,0,1.6.39,2.28,2.28,0,0,0,1.26-.39,2.63,2.63,0,0,0,.93-1.09,3.68,3.68,0,0,0,.35-1.65,3.22,3.22,0,0,0-.77-2.26,2.49,2.49,0,0,0-1.92-.84,3,3,0,0,0-1.32.32,3.36,3.36,0,0,0-1.14.92l-.92-.38.44-6.66h6.64v1.32h-5.4l-.21,3.76a4.87,4.87,0,0,1,2.14-.5Zm-3.94,5.8,0,0C482.8,144.53,482.82,144.53,482.92,144.63Zm0,0,.1-.09.09.11C483.11,144.73,483,144.72,482.92,144.63Z"/><path d="M494.3,150.23a5.64,5.64,0,0,0,1-1.17,2.26,2.26,0,0,0,.38-1,.47.47,0,0,0-.1-.32c-.07-.08-.2-.21-.38-.38a3.53,3.53,0,0,1-.44-.46.71.71,0,0,1-.15-.46,1.22,1.22,0,0,1,.35-.88,1.18,1.18,0,0,1,.89-.36,1.32,1.32,0,0,1,1,.49,1.83,1.83,0,0,1,.43,1.25c0,1.1-.75,2.41-2.25,4Z"/><path d="M519.15,134.87a4.46,4.46,0,0,1,1.41,2,7.83,7.83,0,0,1,.49,2.88,11.73,11.73,0,0,1-1.15,5.83,3.69,3.69,0,0,1-3.28,2,4.36,4.36,0,0,1-3.13-1.19l.91-1,0,0,0,0a2.61,2.61,0,0,0,.9.74,2.64,2.64,0,0,0,1.16.22,2.42,2.42,0,0,0,2.2-1.38,8.26,8.26,0,0,0,.93-3.47,4.21,4.21,0,0,1-1.15.71,3.91,3.91,0,0,1-1.42.24,3.77,3.77,0,0,1-1.94-.51,3.59,3.59,0,0,1-1.37-1.39,4.28,4.28,0,0,1-.49-2,4.6,4.6,0,0,1,.51-2.17,3.92,3.92,0,0,1,1.36-1.54,3.56,3.56,0,0,1,4,.15Zm-4.69,10.38,0,.05C514.33,145.2,514.35,145.18,514.46,145.25Zm0,0,.08-.1.11.1C514.65,145.35,514.58,145.35,514.46,145.25Zm4.1-4.41a2.75,2.75,0,0,0,1.09-.84,7.9,7.9,0,0,0-.71-3.43,2,2,0,0,0-1.86-1.12,2.11,2.11,0,0,0-1.74.8,3.33,3.33,0,0,0-.65,2.16,2.73,2.73,0,0,0,.69,2,2.25,2.25,0,0,0,1.7.74A3.74,3.74,0,0,0,518.56,140.84Z"/><path d="M531.11,149.2h-6V148h4.69V134.52h-4.66v-1.26h6Z"/><path d="M451,109.43a76.44,76.44,0,0,0-.42,16.56c.16,1.91,3.17,1.93,3,0a76.44,76.44,0,0,1,.42-16.56c.25-1.91-2.75-1.89-3,0Z"/><path d="M453.51,126l-4-4c-1.36-1.38-3.48.75-2.13,2.13l4,4c1.35,1.38,3.47-.74,2.12-2.12Z"/><path d="M453.51,128l4.08-3.4a1.52,1.52,0,0,0,0-2.13,1.54,1.54,0,0,0-2.12,0l-4.08,3.41a1.5,1.5,0,0,0,2.12,2.12Z"/><path d="M463.6,195.26a5,5,0,0,1,1.08,3.64V204H463v-1.47a3.36,3.36,0,0,1-3.28,1.7,3.88,3.88,0,0,1-2.49-.72,2.35,2.35,0,0,1-.91-1.93,2.64,2.64,0,0,1,.65-1.76,4.21,4.21,0,0,1,1.76-1.16,6.72,6.72,0,0,1,2.42-.41,17.83,17.83,0,0,1,2.17.12,3.37,3.37,0,0,0-.86-2.28,3.09,3.09,0,0,0-2.15-.66,3.43,3.43,0,0,0-1.37.28,3.77,3.77,0,0,0-1.21.79l-.73-1a4.6,4.6,0,0,1,3.42-1.35A4.3,4.3,0,0,1,463.6,195.26Zm-1.23,6.9a3.89,3.89,0,0,0,1-2.63,13,13,0,0,0-2-.15,5.09,5.09,0,0,0-2.52.52,1.72,1.72,0,0,0-.92,1.6c0,1.05.67,1.58,2,1.58A3.3,3.3,0,0,0,462.37,202.16Z"/><path d="M468.82,203.63a4,4,0,0,1-1.47-1.73,6.25,6.25,0,0,1-.57-2.79,5.84,5.84,0,0,1,.59-2.78,3.9,3.9,0,0,1,1.51-1.64,3.8,3.8,0,0,1,1.95-.54,3.22,3.22,0,0,1,1.69.44,3,3,0,0,1,1.11,1.22V190h1.59v.14a.62.62,0,0,0-.16.28,2.75,2.75,0,0,0,0,.5l0,11.55c0,.34,0,.61,0,.83a2.32,2.32,0,0,0,.18.66h-1.49a2,2,0,0,1-.18-.66c0-.22,0-.49,0-.83a3.55,3.55,0,0,1-1.18,1.25,3.05,3.05,0,0,1-1.63.45A3.46,3.46,0,0,1,468.82,203.63Zm4.07-1.77a5.36,5.36,0,0,0,.61-2.71,5,5,0,0,0-.66-2.73,2.21,2.21,0,0,0-2-1,2.24,2.24,0,0,0-1.93.93,4.32,4.32,0,0,0-.67,2.56,5.34,5.34,0,0,0,.7,2.93,2.28,2.28,0,0,0,2,1.08A2.07,2.07,0,0,0,472.89,201.86Z"/><path d="M479.32,203.63a4,4,0,0,1-1.47-1.73,6.25,6.25,0,0,1-.57-2.79,5.84,5.84,0,0,1,.59-2.78,3.9,3.9,0,0,1,1.51-1.64,3.8,3.8,0,0,1,1.95-.54,3.22,3.22,0,0,1,1.69.44,3,3,0,0,1,1.11,1.22V190h1.59v.14a.62.62,0,0,0-.16.28,2.75,2.75,0,0,0,0,.5l0,11.55c0,.34,0,.61,0,.83a2.32,2.32,0,0,0,.18.66h-1.49a2,2,0,0,1-.18-.66c0-.22,0-.49,0-.83a3.55,3.55,0,0,1-1.18,1.25,3.05,3.05,0,0,1-1.63.45A3.46,3.46,0,0,1,479.32,203.63Zm4.07-1.77a5.36,5.36,0,0,0,.61-2.71,5,5,0,0,0-.66-2.73,2.21,2.21,0,0,0-2-1,2.24,2.24,0,0,0-1.93.93,4.32,4.32,0,0,0-.67,2.56,5.34,5.34,0,0,0,.7,2.93,2.28,2.28,0,0,0,2,1.08A2.07,2.07,0,0,0,483.39,201.86Z"/><path class="cls-1" d="M450.85,159.51c1.08,9.89,6.51,17.84,12.34,25.62a1.51,1.51,0,0,0,2.79-.75l0-3.88a1.5,1.5,0,0,0-3,0l0,3.88,2.8-.76c-5.44-7.26-10.91-14.83-11.93-24.11-.2-1.9-3.21-1.92-3,0Z"/><path class="cls-1" d="M464.38,183.14l-5-1c-1.88-.39-2.69,2.5-.8,2.9l5,1c1.89.4,2.69-2.49.8-2.89Z"/><path class="cls-1" d="M486.17,155.87a36.16,36.16,0,0,1-5.88,28.44c-1.11,1.58,1.49,3.08,2.59,1.51a39.06,39.06,0,0,0,6.18-30.75c-.39-1.88-3.28-1.09-2.89.8Z"/><path class="cls-1" d="M481.75,185.27a10.69,10.69,0,0,1-1.21-4.27c-.14-1.92-3.14-1.93-3,0a14.47,14.47,0,0,0,1.62,5.78c.9,1.71,3.49.2,2.59-1.51Z"/><path class="cls-1" d="M481,187.5h3.5a1.5,1.5,0,0,0,0-3H481a1.5,1.5,0,0,0,0,3Z"/><path d="M455.08,252.2V236.26h6v1.26h-4.66V251h4.68v1.19Z"/><path d="M470.15,237.87a4.46,4.46,0,0,1,1.41,2,7.83,7.83,0,0,1,.49,2.88,11.73,11.73,0,0,1-1.15,5.83,3.69,3.69,0,0,1-3.28,2,4.36,4.36,0,0,1-3.13-1.19l.91-1,0,0,0,0a2.61,2.61,0,0,0,.9.74,2.64,2.64,0,0,0,1.16.22,2.42,2.42,0,0,0,2.2-1.38,8.26,8.26,0,0,0,.93-3.47,4.21,4.21,0,0,1-1.15.71,3.91,3.91,0,0,1-1.42.24,3.77,3.77,0,0,1-1.94-.51,3.59,3.59,0,0,1-1.37-1.39,4.28,4.28,0,0,1-.49-2,4.6,4.6,0,0,1,.51-2.17,3.92,3.92,0,0,1,1.36-1.54,3.56,3.56,0,0,1,4,.15Zm-4.69,10.38,0,.05C465.33,248.2,465.35,248.18,465.46,248.25Zm0,0,.08-.1.11.1C465.65,248.35,465.58,248.35,465.46,248.25Zm4.1-4.41a2.75,2.75,0,0,0,1.09-.84,7.9,7.9,0,0,0-.71-3.43,2,2,0,0,0-1.86-1.12,2.11,2.11,0,0,0-1.74.8,3.33,3.33,0,0,0-.65,2.16,2.73,2.73,0,0,0,.69,2,2.25,2.25,0,0,0,1.7.74A3.74,3.74,0,0,0,469.56,243.84Z"/><path d="M476.8,253.23a5.64,5.64,0,0,0,1-1.17,2.26,2.26,0,0,0,.38-1,.47.47,0,0,0-.1-.32c-.07-.08-.2-.21-.38-.38a3.53,3.53,0,0,1-.44-.46.71.71,0,0,1-.15-.46,1.22,1.22,0,0,1,.35-.88,1.18,1.18,0,0,1,.89-.36,1.32,1.32,0,0,1,1,.49,1.83,1.83,0,0,1,.43,1.25c0,1.1-.75,2.41-2.25,4Z"/><path d="M501.65,237.87a4.46,4.46,0,0,1,1.41,2,7.83,7.83,0,0,1,.49,2.88,11.73,11.73,0,0,1-1.15,5.83,3.69,3.69,0,0,1-3.28,2,4.36,4.36,0,0,1-3.13-1.19l.91-1,0,0,0,0a2.61,2.61,0,0,0,.9.74,2.64,2.64,0,0,0,1.16.22,2.42,2.42,0,0,0,2.2-1.38,8.26,8.26,0,0,0,.93-3.47,4.21,4.21,0,0,1-1.15.71,3.91,3.91,0,0,1-1.42.24,3.77,3.77,0,0,1-1.94-.51,3.59,3.59,0,0,1-1.37-1.39,4.28,4.28,0,0,1-.49-2,4.6,4.6,0,0,1,.51-2.17,3.92,3.92,0,0,1,1.36-1.54,3.56,3.56,0,0,1,4,.15ZM497,248.25l0,.05C496.83,248.2,496.85,248.18,497,248.25Zm0,0,.08-.1.11.1C497.15,248.35,497.08,248.35,497,248.25Zm4.1-4.41a2.75,2.75,0,0,0,1.09-.84,7.9,7.9,0,0,0-.71-3.43,2,2,0,0,0-1.86-1.12,2.11,2.11,0,0,0-1.74.8,3.33,3.33,0,0,0-.65,2.16,2.73,2.73,0,0,0,.69,2,2.25,2.25,0,0,0,1.7.74A3.74,3.74,0,0,0,501.06,243.84Z"/><path d="M513.61,252.2h-6V251h4.69V237.52h-4.66v-1.26h6Z"/><path d="M465,212.43a76.44,76.44,0,0,0-.42,16.56c.16,1.91,3.17,1.93,3,0a76.44,76.44,0,0,1,.42-16.56c.25-1.91-2.75-1.89-3,0Z"/><path d="M467.51,229l-4-4c-1.36-1.38-3.48.75-2.13,2.13l4,4c1.35,1.38,3.47-.74,2.12-2.12Z"/><path d="M467.51,231l4.08-3.4a1.52,1.52,0,0,0,0-2.13,1.54,1.54,0,0,0-2.12,0l-4.08,3.41a1.5,1.5,0,0,0,2.12,2.12Z"/><path d="M477.6,297.26a5,5,0,0,1,1.08,3.64V306H477v-1.47a3.36,3.36,0,0,1-3.28,1.7,3.88,3.88,0,0,1-2.49-.72,2.35,2.35,0,0,1-.91-1.93,2.64,2.64,0,0,1,.65-1.76,4.21,4.21,0,0,1,1.76-1.16,6.72,6.72,0,0,1,2.42-.41,17.83,17.83,0,0,1,2.17.12,3.37,3.37,0,0,0-.86-2.28,3.09,3.09,0,0,0-2.15-.66,3.43,3.43,0,0,0-1.37.28,3.77,3.77,0,0,0-1.21.79l-.73-1a4.6,4.6,0,0,1,3.42-1.35A4.3,4.3,0,0,1,477.6,297.26Zm-1.23,6.9a3.89,3.89,0,0,0,1-2.63,13,13,0,0,0-2-.15,5.09,5.09,0,0,0-2.52.52,1.72,1.72,0,0,0-.92,1.6c0,1.05.67,1.58,2,1.58A3.3,3.3,0,0,0,476.37,304.16Z"/><path d="M482.82,305.63a4,4,0,0,1-1.47-1.73,6.25,6.25,0,0,1-.57-2.79,5.84,5.84,0,0,1,.59-2.78,3.9,3.9,0,0,1,1.51-1.64,3.8,3.8,0,0,1,1.95-.54,3.22,3.22,0,0,1,1.69.44,3,3,0,0,1,1.11,1.22V292h1.59v.14a.62.62,0,0,0-.16.28,2.75,2.75,0,0,0,0,.5l0,11.55c0,.34,0,.61,0,.83a2.32,2.32,0,0,0,.18.66h-1.49a2,2,0,0,1-.18-.66c0-.22,0-.49,0-.83a3.55,3.55,0,0,1-1.18,1.25,3.05,3.05,0,0,1-1.63.45A3.46,3.46,0,0,1,482.82,305.63Zm4.07-1.77a5.36,5.36,0,0,0,.61-2.71,5,5,0,0,0-.66-2.73,2.21,2.21,0,0,0-2-1,2.24,2.24,0,0,0-1.93.93,4.32,4.32,0,0,0-.67,2.56,5.34,5.34,0,0,0,.7,2.93,2.28,2.28,0,0,0,2,1.08A2.07,2.07,0,0,0,486.89,303.86Z"/><path d="M493.32,305.63a4,4,0,0,1-1.47-1.73,6.25,6.25,0,0,1-.57-2.79,5.84,5.84,0,0,1,.59-2.78,3.9,3.9,0,0,1,1.51-1.64,3.8,3.8,0,0,1,1.95-.54,3.22,3.22,0,0,1,1.69.44,3,3,0,0,1,1.11,1.22V292h1.59v.14a.62.62,0,0,0-.16.28,2.75,2.75,0,0,0,0,.5l0,11.55c0,.34,0,.61,0,.83a2.32,2.32,0,0,0,.18.66h-1.49a2,2,0,0,1-.18-.66c0-.22,0-.49,0-.83a3.55,3.55,0,0,1-1.18,1.25,3.05,3.05,0,0,1-1.63.45A3.46,3.46,0,0,1,493.32,305.63Zm4.07-1.77a5.36,5.36,0,0,0,.61-2.71,5,5,0,0,0-.66-2.73,2.21,2.21,0,0,0-2-1,2.24,2.24,0,0,0-1.93.93,4.32,4.32,0,0,0-.67,2.56,5.34,5.34,0,0,0,.7,2.93,2.28,2.28,0,0,0,2,1.08A2.07,2.07,0,0,0,497.39,303.86Z"/><path class="cls-1" d="M464.85,261.51c1.08,9.89,6.51,17.84,12.34,25.62a1.51,1.51,0,0,0,2.79-.75l0-3.88a1.5,1.5,0,0,0-3,0l0,3.88,2.8-.76c-5.44-7.26-10.91-14.83-11.93-24.11-.2-1.9-3.21-1.92-3,0Z"/><path class="cls-1" d="M478.38,285.14l-5-1.05c-1.88-.39-2.69,2.5-.8,2.9l5,1c1.89.4,2.69-2.49.8-2.89Z"/><path class="cls-1" d="M500.17,257.87a36.16,36.16,0,0,1-5.88,28.44c-1.11,1.58,1.49,3.08,2.59,1.51a39.06,39.06,0,0,0,6.18-30.75c-.39-1.88-3.28-1.09-2.89.8Z"/><path class="cls-1" d="M495.75,287.27a10.69,10.69,0,0,1-1.21-4.27c-.14-1.92-3.14-1.93-3,0a14.47,14.47,0,0,0,1.62,5.78c.9,1.71,3.49.2,2.59-1.51Z"/><path class="cls-1" d="M495,289.5h3.5a1.5,1.5,0,0,0,0-3H495a1.5,1.5,0,0,0,0,3Z"/><path d="M479,314.43a76.44,76.44,0,0,0-.42,16.56c.16,1.91,3.17,1.93,3,0a76.44,76.44,0,0,1,.42-16.56c.25-1.91-2.75-1.89-3,0Z"/><path d="M481.51,331l-4-4c-1.36-1.38-3.48.75-2.13,2.13l4,4c1.35,1.38,3.47-.74,2.12-2.12Z"/><path d="M481.51,333l4.08-3.4a1.52,1.52,0,0,0,0-2.13,1.54,1.54,0,0,0-2.12,0l-4.08,3.41a1.5,1.5,0,0,0,2.12,2.12Z"/><path d="M465.08,362.2V346.26h6v1.26h-4.66V361h4.68v1.19Z"/><path d="M477.66,360.33V349.06l-2.64.77-.34-.82,3.42-1.78h1v13.1Z"/><path d="M486.47,360.08a3.34,3.34,0,0,1-1.39-1.26,3.29,3.29,0,0,1-.49-1.78,3.5,3.5,0,0,1,.72-2.12,4.71,4.71,0,0,1,1.91-1.54,3.77,3.77,0,0,1-1.45-1.29,3.18,3.18,0,0,1-.55-1.77,3.13,3.13,0,0,1,.91-2.32,3.43,3.43,0,0,1,2.56-.92,3.51,3.51,0,0,1,2.59.87,3.05,3.05,0,0,1,.87,2.24,3.26,3.26,0,0,1-.56,1.8,4.15,4.15,0,0,1-1.52,1.35,4.5,4.5,0,0,1,1.83,1.5,3.59,3.59,0,0,1,.69,2.11,3.46,3.46,0,0,1-.49,1.83,3.39,3.39,0,0,1-1.41,1.29,4.46,4.46,0,0,1-2.11.47A4.61,4.61,0,0,1,486.47,360.08Zm4-1.5a2.17,2.17,0,0,0,.65-1.63,2.56,2.56,0,0,0-.75-1.77,4.69,4.69,0,0,0-2-1.21,4,4,0,0,0-1.59,1.2,2.74,2.74,0,0,0-.61,1.72,2.22,2.22,0,0,0,.68,1.66,2.49,2.49,0,0,0,1.84.67A2.46,2.46,0,0,0,490.45,358.58Zm-.23-6.91a2.43,2.43,0,0,0,.51-1.44,1.87,1.87,0,0,0-.55-1.35,2.05,2.05,0,0,0-1.53-.56,2,2,0,0,0-1.51.54,1.81,1.81,0,0,0-.51,1.31,2,2,0,0,0,.57,1.45,7.59,7.59,0,0,0,1.74,1.2A4,4,0,0,0,490.22,351.67Z"/><path d="M502.61,362.2h-6V361h4.69V347.52h-4.66v-1.26h6Z"/><path d="M38.46,389.78H34.13V396H32.86V381.07h4.85a5.55,5.55,0,0,1,3.73,1.16,4.42,4.42,0,0,1,.5,5.76,4.31,4.31,0,0,1-2.25,1.52l3.73,6.36V396H42.07Zm-4.33-1.07H38a3.62,3.62,0,0,0,2.56-.9,3.43,3.43,0,0,0,0-4.8,4.19,4.19,0,0,0-2.82-.87H34.13Z"/><path d="M50.23,396.21a4.85,4.85,0,0,1-2.56-.7,4.74,4.74,0,0,1-1.78-1.95,6,6,0,0,1-.64-2.79v-.44a6.55,6.55,0,0,1,.62-2.88,5,5,0,0,1,1.73-2,4.26,4.26,0,0,1,2.4-.73,4,4,0,0,1,3.21,1.38,5.64,5.64,0,0,1,1.18,3.77v.69H46.47v.23a4.63,4.63,0,0,0,1.08,3.14,3.46,3.46,0,0,0,2.73,1.26,4,4,0,0,0,1.74-.36,3.83,3.83,0,0,0,1.36-1.15l.77.59A4.48,4.48,0,0,1,50.23,396.21ZM50,385.75a3,3,0,0,0-2.33,1,4.75,4.75,0,0,0-1.16,2.73h6.66v-.13a4.14,4.14,0,0,0-.91-2.61A2.84,2.84,0,0,0,50,385.75Z"/><path d="M63.42,393.18a1.75,1.75,0,0,0-.73-1.47,5.71,5.71,0,0,0-2.21-.86,10,10,0,0,1-2.29-.72,3,3,0,0,1-1.21-1,2.42,2.42,0,0,1-.4-1.42,2.64,2.64,0,0,1,1.1-2.16,4.44,4.44,0,0,1,2.81-.86,4.57,4.57,0,0,1,3,.92A2.93,2.93,0,0,1,64.59,388H63.36a2,2,0,0,0-.81-1.62,3.72,3.72,0,0,0-4-.11,1.67,1.67,0,0,0-.74,1.4,1.52,1.52,0,0,0,.61,1.29,6.5,6.5,0,0,0,2.23.84,10.19,10.19,0,0,1,2.42.81,3.05,3.05,0,0,1,1.19,1,2.66,2.66,0,0,1,.39,1.47,2.63,2.63,0,0,1-1.13,2.24,4.86,4.86,0,0,1-3,.85,5,5,0,0,1-3.14-.94,2.92,2.92,0,0,1-1.21-2.38h1.23a2.14,2.14,0,0,0,.91,1.68,3.73,3.73,0,0,0,2.21.6,3.5,3.5,0,0,0,2.07-.56A1.7,1.7,0,0,0,63.42,393.18Z"/><path d="M74.55,394.6A4,4,0,0,1,71,396.21a3.45,3.45,0,0,1-2.7-1,4.5,4.5,0,0,1-.94-3.05v-7.21h1.22V392c0,2.11.86,3.17,2.56,3.17a3.15,3.15,0,0,0,3.38-2.21v-8h1.23V396H74.57Z"/><path d="M80.32,396H79.09V380.25h1.23Z"/><path d="M85.56,382.06v2.85h2.3v1h-2.3v7.4a2.34,2.34,0,0,0,.33,1.38,1.32,1.32,0,0,0,1.12.45,9.45,9.45,0,0,0,1-.1l0,1a3.85,3.85,0,0,1-1.31.18,2.17,2.17,0,0,1-1.83-.74,3.41,3.41,0,0,1-.58-2.16v-7.4h-2v-1h2v-2.85Z"/><path d="M90.1,395.26a.89.89,0,0,1,.23-.61,1,1,0,0,1,1.29,0,.85.85,0,0,1,.24.61.78.78,0,0,1-.24.59,1,1,0,0,1-1.29,0A.81.81,0,0,1,90.1,395.26Zm0-9.46a.87.87,0,0,1,.23-.61.89.89,0,0,1,1.53.61.79.79,0,0,1-.24.59,1,1,0,0,1-1.29,0A.82.82,0,0,1,90.12,385.8Z"/><path d="M103.15,396V384.72l-2.65.78-.34-.82,3.43-1.78h1V396Z"/><path d="M112,395.75a3.29,3.29,0,0,1-1.88-3.05,3.53,3.53,0,0,1,.71-2.12,4.68,4.68,0,0,1,1.91-1.53,3.84,3.84,0,0,1-1.45-1.29,3.21,3.21,0,0,1-.54-1.78,3.17,3.17,0,0,1,.9-2.32,3.44,3.44,0,0,1,2.56-.91,3.51,3.51,0,0,1,2.59.87,3,3,0,0,1,.88,2.24,3.14,3.14,0,0,1-.57,1.79,4.13,4.13,0,0,1-1.51,1.36,4.54,4.54,0,0,1,1.82,1.5,3.49,3.49,0,0,1-1.2,5.23,4.62,4.62,0,0,1-2.11.47A4.56,4.56,0,0,1,112,395.75Zm4-1.5a2.21,2.21,0,0,0,.65-1.63,2.59,2.59,0,0,0-.76-1.78,4.56,4.56,0,0,0-2-1.2,3.75,3.75,0,0,0-1.58,1.19,2.74,2.74,0,0,0-.62,1.73,2.23,2.23,0,0,0,.68,1.65,2.52,2.52,0,0,0,1.84.68A2.55,2.55,0,0,0,115.94,394.25Zm-.24-6.91a2.43,2.43,0,0,0,.51-1.44,1.87,1.87,0,0,0-.55-1.36,2,2,0,0,0-1.53-.55,2,2,0,0,0-1.5.53,1.86,1.86,0,0,0-.52,1.32,2,2,0,0,0,.57,1.45,7.93,7.93,0,0,0,1.74,1.19A3.8,3.8,0,0,0,115.7,387.34Z"/></svg>