<svg id="Layer_1" data-name="Layer 1" xmlns="http://www.w3.org/2000/svg" viewBox="0 0 229 134"><title>exp</title><path d="M153.93,23.73h0a1.7,1.7,0,0,0-.47-.35,1.06,1.06,0,0,0-.45-.09,1.31,1.31,0,0,0-.66.18,1.25,1.25,0,0,0-.51.53,1.87,1.87,0,0,0-.2.9v2.37h-.71V22.8h.73l0,.82a1.49,1.49,0,0,1,.58-.68,1.56,1.56,0,0,1,.84-.25,1.61,1.61,0,0,1,1.19.49Zm-.1,0s0,0,0,0l.06,0,0,.05-.07,0Zm.14,0-.05,0v0S154,23.8,154,23.79Z"/><path d="M155.73,26.76a2.35,2.35,0,0,1-.59-1.71,2.8,2.8,0,0,1,.27-1.27,2,2,0,0,1,.74-.81,2,2,0,0,1,1-.28,1.73,1.73,0,0,1,1.32.54,2.23,2.23,0,0,1,.5,1.59,2.14,2.14,0,0,1,0,.32h-3.18a1.82,1.82,0,0,0,.46,1.24,1.45,1.45,0,0,0,1.07.42,1.44,1.44,0,0,0,1.15-.5l.4.39a1.94,1.94,0,0,1-1.57.68A2.12,2.12,0,0,1,155.73,26.76Zm2.57-2.17a1.45,1.45,0,0,0-.32-1,1,1,0,0,0-.84-.37,1.24,1.24,0,0,0-.85.34,1.67,1.67,0,0,0-.45,1Z"/><path d="M163.4,23.2a2.33,2.33,0,0,1,.51,1.7v2.37h-.77v-.68a1.55,1.55,0,0,1-1.52.79,1.79,1.79,0,0,1-1.17-.34,1.08,1.08,0,0,1-.42-.89,1.2,1.2,0,0,1,.3-.82,2,2,0,0,1,.82-.55,3.39,3.39,0,0,1,1.13-.19,7.73,7.73,0,0,1,1,.06,1.53,1.53,0,0,0-.4-1.06,1.41,1.41,0,0,0-1-.31,1.59,1.59,0,0,0-.64.13,1.71,1.71,0,0,0-.56.37l-.35-.45a2.16,2.16,0,0,1,1.6-.63A2,2,0,0,1,163.4,23.2Zm-.57,3.22a1.86,1.86,0,0,0,.46-1.23,5.65,5.65,0,0,0-.95-.07,2.26,2.26,0,0,0-1.17.25.79.79,0,0,0-.43.74c0,.49.31.73.95.73A1.54,1.54,0,0,0,162.83,26.42Z"/><path d="M165.83,27.1a2,2,0,0,1-.68-.81,2.84,2.84,0,0,1-.27-1.3,2.8,2.8,0,0,1,.28-1.29,2,2,0,0,1,.7-.77,1.86,1.86,0,0,1,.91-.25,1.46,1.46,0,0,1,.79.21,1.36,1.36,0,0,1,.52.57V20.77h.74v.06a.28.28,0,0,0-.07.13,1.25,1.25,0,0,0,0,.24v5.38c0,.16,0,.28,0,.39a.84.84,0,0,0,.08.3h-.7a1.11,1.11,0,0,1-.08-.3c0-.11,0-.23,0-.39a1.64,1.64,0,0,1-.56.58,1.38,1.38,0,0,1-.76.21A1.68,1.68,0,0,1,165.83,27.1Zm1.9-.82A2.49,2.49,0,0,0,168,25a2.36,2.36,0,0,0-.31-1.27,1,1,0,0,0-.93-.48,1,1,0,0,0-.9.44,2,2,0,0,0-.31,1.19,2.44,2.44,0,0,0,.33,1.36,1,1,0,0,0,.94.5A1,1,0,0,0,167.73,26.28Z"/><path d="M170.1,27.27v-6.1h3.51v.59h-2.82v1.92h2.28v.6h-2.28v3Z"/><path d="M178.4,23.73h0a2.06,2.06,0,0,0-.47-.35,1.06,1.06,0,0,0-.45-.09,1.35,1.35,0,0,0-.67.18,1.29,1.29,0,0,0-.5.53,1.76,1.76,0,0,0-.2.9v2.37h-.71V22.8h.73l0,.82a1.41,1.41,0,0,1,.57-.68,1.63,1.63,0,0,1,2,.24Zm-.11,0s0,0,0,0l.06,0,0,.05-.07,0Zm.14,0-.05,0,0,0S178.46,23.8,178.43,23.79Z"/><path d="M180.5,27.06a2.08,2.08,0,0,1-.73-.82,2.65,2.65,0,0,1-.26-1.21,2.58,2.58,0,0,1,.26-1.2,2.11,2.11,0,0,1,.73-.83,2.06,2.06,0,0,1,2.14,0,2,2,0,0,1,.73.83,2.58,2.58,0,0,1,.26,1.2,2.65,2.65,0,0,1-.26,1.21,2,2,0,0,1-.73.82,2.12,2.12,0,0,1-2.14,0Zm1.75-.52a1.48,1.48,0,0,0,.47-.62,2.33,2.33,0,0,0,.17-.9,2,2,0,0,0-.37-1.25,1.15,1.15,0,0,0-1-.48,1.16,1.16,0,0,0-.95.48,2,2,0,0,0-.37,1.25,2.33,2.33,0,0,0,.17.9,1.57,1.57,0,0,0,.47.62,1.11,1.11,0,0,0,.68.22A1.09,1.09,0,0,0,182.25,26.54Z"/><path d="M184.39,22.8H185v.44a1.15,1.15,0,0,1,.4-.39.88.88,0,0,1,.51-.16.8.8,0,0,1,.51.19.79.79,0,0,1,.28.47,1.09,1.09,0,0,1,.4-.48,1.07,1.07,0,0,1,.61-.18.76.76,0,0,1,.66.32,1.4,1.4,0,0,1,.2.83v3.43H188V24.1a1.55,1.55,0,0,0-.11-.72.34.34,0,0,0-.31-.17.48.48,0,0,0-.34.17,1.27,1.27,0,0,0-.27.42,1.41,1.41,0,0,0-.1.52v2.95h-.66V24.16a1.79,1.79,0,0,0-.1-.74.42.42,0,0,0-.39-.19.5.5,0,0,0-.3.13,1.09,1.09,0,0,0-.25.38,1.55,1.55,0,0,0-.09.55v3h-.65Z"/><path d="M189.67,27.27v-6.1h3.52v.59h-2.83v1.92h2.28v.6h-2.28v3Z"/><path d="M195.18,27.06a2.08,2.08,0,0,1-.73-.82,2.65,2.65,0,0,1-.26-1.21,2.58,2.58,0,0,1,.26-1.2,2.11,2.11,0,0,1,.73-.83,2.06,2.06,0,0,1,2.14,0,2.11,2.11,0,0,1,.73.83,2.58,2.58,0,0,1,.26,1.2,2.65,2.65,0,0,1-.26,1.21,2.08,2.08,0,0,1-.73.82,2.12,2.12,0,0,1-2.14,0Zm1.75-.52a1.48,1.48,0,0,0,.47-.62,2.33,2.33,0,0,0,.17-.9,2,2,0,0,0-.37-1.25,1.18,1.18,0,0,0-1.9,0,2,2,0,0,0-.37,1.25,2.33,2.33,0,0,0,.17.9,1.48,1.48,0,0,0,.47.62,1.16,1.16,0,0,0,1.36,0Z"/><path d="M200.08,27.06a2,2,0,0,1-.74-.82,2.79,2.79,0,0,1-.26-1.21,2.71,2.71,0,0,1,.26-1.2,2.06,2.06,0,0,1,.74-.83,1.9,1.9,0,0,1,1.06-.3,1.94,1.94,0,0,1,1.07.3,2,2,0,0,1,.73.83,2.59,2.59,0,0,1,.27,1.2,2.66,2.66,0,0,1-.27,1.21,1.93,1.93,0,0,1-1.8,1.11A2,2,0,0,1,200.08,27.06Zm1.74-.52a1.48,1.48,0,0,0,.47-.62,2.16,2.16,0,0,0,.17-.9,2,2,0,0,0-.37-1.25,1.15,1.15,0,0,0-1-.48,1.16,1.16,0,0,0-.95.48,2.06,2.06,0,0,0-.37,1.25,2.33,2.33,0,0,0,.17.9,1.57,1.57,0,0,0,.47.62,1.11,1.11,0,0,0,.68.22A1.09,1.09,0,0,0,201.82,26.54Z"/><path d="M155,33.78c.16,2.53-.15,9,2.66,10.4,1.57.77,3.89.08,5.53-.06l8-.7c1.91-.16,1.92-3.16,0-3l-9.59.84c-1.84.16-2.4.41-2.92-1.44a29,29,0,0,1-.68-6c-.12-1.92-3.13-1.93-3,0Z"/><path d="M164.71,37.24a17,17,0,0,0,8.21,4.85l-.66-2.51a31.84,31.84,0,0,0-5.14,5.49c-1.15,1.54,1.45,3,2.59,1.51a29.15,29.15,0,0,1,4.67-4.88,1.51,1.51,0,0,0-.66-2.5,14.11,14.11,0,0,1-6.89-4.08c-1.32-1.41-3.44.71-2.12,2.12Z"/><path d="M181.31,38.93a.9.9,0,0,1-.2-.59,2.87,2.87,0,0,1,1-1.84l.34.31a2.57,2.57,0,0,0-.45.53,1.09,1.09,0,0,0-.18.49.2.2,0,0,0,0,.15l.17.18a2.06,2.06,0,0,1,.21.21.38.38,0,0,1,.07.22.59.59,0,0,1-.16.4.57.57,0,0,1-.42.17A.63.63,0,0,1,181.31,38.93Z"/><path d="M188.26,42.75,187.64,41h-2l-.61,1.78h-.68l2.25-6.21h.08L189,42.75Zm-2.4-2.31h1.6l-.8-2.33Z"/><path d="M190.73,38.86a2.36,2.36,0,0,0,.46-.55,1,1,0,0,0,.18-.48.27.27,0,0,0-.05-.15,1.51,1.51,0,0,0-.18-.18l-.2-.21a.38.38,0,0,1-.07-.21.56.56,0,0,1,.16-.41.57.57,0,0,1,.42-.17.59.59,0,0,1,.46.23.85.85,0,0,1,.2.59,3,3,0,0,1-1,1.84Z"/><path d="M109.32,27.44h-.58V21.17l-1.89.7v-.53l2.37-.88h.1Z"/><path d="M115.27,26.13a.83.83,0,0,0-.35-.69,2.66,2.66,0,0,0-1-.4,4.56,4.56,0,0,1-1.06-.34,1.28,1.28,0,0,1-.57-.46,1.16,1.16,0,0,1-.18-.66,1.25,1.25,0,0,1,.51-1,2.11,2.11,0,0,1,1.31-.4,2.18,2.18,0,0,1,1.39.43,1.41,1.41,0,0,1,.52,1.12h-.57a1,1,0,0,0-.38-.76,1.53,1.53,0,0,0-1-.3,1.56,1.56,0,0,0-.91.25.8.8,0,0,0-.34.65.74.74,0,0,0,.29.61,2.88,2.88,0,0,0,1,.38,5.22,5.22,0,0,1,1.13.38,1.59,1.59,0,0,1,.56.48,1.27,1.27,0,0,1,.18.69,1.24,1.24,0,0,1-.53,1,2.2,2.2,0,0,1-1.38.4,2.31,2.31,0,0,1-1.46-.44,1.33,1.33,0,0,1-.56-1.11h.57a1,1,0,0,0,.42.78,1.7,1.7,0,0,0,1,.28,1.61,1.61,0,0,0,1-.26A.8.8,0,0,0,115.27,26.13Z"/><path d="M118,21v1.32h1.07v.47H118v3.45a1,1,0,0,0,.16.64.59.59,0,0,0,.52.21l.46-.05,0,.47a2,2,0,0,1-.61.08,1,1,0,0,1-.85-.35,1.57,1.57,0,0,1-.27-1V22.74h-1v-.47h1V21Z"/><path d="M124.56,27.05a1.53,1.53,0,0,0,1-.33,1.23,1.23,0,0,0,.44-.88h.55a1.68,1.68,0,0,1-.3.87,1.87,1.87,0,0,1-.72.61,2.3,2.3,0,0,1-1,.22,2,2,0,0,1-1.61-.71,2.85,2.85,0,0,1-.6-1.9v-.18a3.22,3.22,0,0,1,.27-1.35,2.09,2.09,0,0,1,.77-.91,2.12,2.12,0,0,1,1.16-.32,2,2,0,0,1,1.41.51,1.9,1.9,0,0,1,.59,1.33H126a1.42,1.42,0,0,0-.44-1,1.46,1.46,0,0,0-1-.37,1.44,1.44,0,0,0-1.2.56,2.57,2.57,0,0,0-.43,1.57V25a2.49,2.49,0,0,0,.43,1.54A1.44,1.44,0,0,0,124.56,27.05Z"/><path d="M131,27.44a3.21,3.21,0,0,1-.11-.72,2,2,0,0,1-.76.6,2.39,2.39,0,0,1-1,.22,1.73,1.73,0,0,1-1.21-.42,1.39,1.39,0,0,1-.46-1.05,1.4,1.4,0,0,1,.63-1.2,3,3,0,0,1,1.75-.43h1v-.59a1.15,1.15,0,0,0-.34-.87,1.38,1.38,0,0,0-1-.32,1.58,1.58,0,0,0-1,.3.92.92,0,0,0-.39.74h-.57a1.32,1.32,0,0,1,.57-1.06,2.21,2.21,0,0,1,1.41-.46,2,2,0,0,1,1.36.44,1.53,1.53,0,0,1,.52,1.2v2.45a3.17,3.17,0,0,0,.15,1.12v.06ZM129.16,27a1.86,1.86,0,0,0,1-.28,1.63,1.63,0,0,0,.66-.74V24.87h-1a2.62,2.62,0,0,0-1.34.32A.94.94,0,0,0,128,26a.9.9,0,0,0,.32.72A1.21,1.21,0,0,0,129.16,27Z"/><path d="M133.57,27.44H133V20.1h.57Z"/><path d="M135.76,27.44h-.57V20.1h.57Z"/><path d="M137.18,27.1a.39.39,0,0,1,.41-.41.41.41,0,0,1,.3.12.42.42,0,0,1,.11.29.37.37,0,0,1-.11.27.44.44,0,0,1-.3.11.41.41,0,0,1-.3-.11A.33.33,0,0,1,137.18,27.1Zm0-4.41a.38.38,0,0,1,.11-.29.37.37,0,0,1,.29-.12.39.39,0,0,1,.42.41.37.37,0,0,1-.11.27.45.45,0,0,1-.31.11.4.4,0,0,1-.29-.11A.33.33,0,0,1,137.19,22.69Z"/><path d="M153.93,59.61h0a1.94,1.94,0,0,0-.47-.35,1.06,1.06,0,0,0-.45-.09,1.33,1.33,0,0,0-1.17.71,1.87,1.87,0,0,0-.2.9v2.38h-.71V58.68h.73l0,.83a1.46,1.46,0,0,1,.58-.69,1.55,1.55,0,0,1,.84-.24,1.58,1.58,0,0,1,1.19.49Zm-.1,0s0,0,0,0l.06,0,0,.05-.07,0Zm.14,0-.05,0v0S154,59.68,154,59.67Z"/><path d="M155.73,62.65a2.39,2.39,0,0,1-.59-1.72,2.75,2.75,0,0,1,.27-1.26,1.88,1.88,0,0,1,.74-.81,2,2,0,0,1,1-.28,1.76,1.76,0,0,1,1.32.53,2.23,2.23,0,0,1,.5,1.59,2.14,2.14,0,0,1,0,.32h-3.18a1.85,1.85,0,0,0,.46,1.25,1.45,1.45,0,0,0,1.07.42,1.47,1.47,0,0,0,1.15-.5l.4.38a1.91,1.91,0,0,1-1.57.68A2.15,2.15,0,0,1,155.73,62.65Zm2.57-2.18a1.49,1.49,0,0,0-.32-1,1.07,1.07,0,0,0-.84-.37,1.2,1.2,0,0,0-.85.35,1.64,1.64,0,0,0-.45,1Z"/><path d="M163.4,59.09a2.29,2.29,0,0,1,.51,1.69v2.38h-.77v-.69a1.55,1.55,0,0,1-1.52.79,1.85,1.85,0,0,1-1.17-.33A1.11,1.11,0,0,1,160,62a1.22,1.22,0,0,1,.3-.82,1.9,1.9,0,0,1,.82-.54,3.15,3.15,0,0,1,1.13-.2,7.73,7.73,0,0,1,1,.06,1.55,1.55,0,0,0-.4-1.06,1.46,1.46,0,0,0-1-.31,1.78,1.78,0,0,0-.64.13,1.88,1.88,0,0,0-.56.37l-.35-.45a2.16,2.16,0,0,1,1.6-.62A2,2,0,0,1,163.4,59.09Zm-.57,3.21a1.82,1.82,0,0,0,.46-1.23,6.94,6.94,0,0,0-.95-.07,2.26,2.26,0,0,0-1.17.25.79.79,0,0,0-.43.74c0,.49.31.74.95.74A1.55,1.55,0,0,0,162.83,62.3Z"/><path d="M165.83,63a1.88,1.88,0,0,1-.68-.8,2.9,2.9,0,0,1-.27-1.3,2.81,2.81,0,0,1,.28-1.3,1.85,1.85,0,0,1,.7-.76,1.76,1.76,0,0,1,.91-.25,1.54,1.54,0,0,1,.79.2,1.36,1.36,0,0,1,.52.57V56.65h.74v.07a.25.25,0,0,0-.07.12,1.25,1.25,0,0,0,0,.24v5.38a3.84,3.84,0,0,0,0,.39,1,1,0,0,0,.08.31h-.7a1.29,1.29,0,0,1-.08-.31c0-.1,0-.23,0-.39a1.64,1.64,0,0,1-.56.58,1.38,1.38,0,0,1-.76.21A1.68,1.68,0,0,1,165.83,63Zm1.9-.82A2.45,2.45,0,0,0,168,60.9a2.4,2.4,0,0,0-.31-1.28,1,1,0,0,0-.93-.48,1,1,0,0,0-.9.44,2,2,0,0,0-.31,1.19,2.44,2.44,0,0,0,.33,1.36,1.05,1.05,0,0,0,.94.51A1,1,0,0,0,167.73,62.16Z"/><path d="M170.1,63.16V57.05h3.51v.6h-2.82v1.91h2.28v.6h-2.28v3Z"/><path d="M178.4,59.61h0a2.42,2.42,0,0,0-.47-.35,1.06,1.06,0,0,0-.45-.09,1.3,1.3,0,0,0-1.17.71,1.76,1.76,0,0,0-.2.9v2.38h-.71V58.68h.73l0,.83a1.39,1.39,0,0,1,.57-.69,1.58,1.58,0,0,1,.85-.24,1.55,1.55,0,0,1,1.18.49Zm-.11,0s0,0,0,0l.06,0,0,.05-.07,0Zm.14,0-.05,0,0,0S178.46,59.68,178.43,59.67Z"/><path d="M180.5,62.94a2,2,0,0,1-.73-.82,2.92,2.92,0,0,1,0-2.41,2.11,2.11,0,0,1,.73-.83,2,2,0,0,1,2.87.83,2.92,2.92,0,0,1,0,2.41,2,2,0,0,1-2.87.82Zm1.75-.52a1.48,1.48,0,0,0,.47-.62,2.28,2.28,0,0,0,.17-.89,2,2,0,0,0-.37-1.25,1.13,1.13,0,0,0-1-.49,1.14,1.14,0,0,0-.95.49,2,2,0,0,0-.37,1.25,2.28,2.28,0,0,0,.17.89,1.57,1.57,0,0,0,.47.62,1.12,1.12,0,0,0,.68.23A1.09,1.09,0,0,0,182.25,62.42Z"/><path d="M184.39,58.68H185v.44a1.15,1.15,0,0,1,.4-.39,1,1,0,0,1,.51-.15.79.79,0,0,1,.51.18.82.82,0,0,1,.28.47,1.1,1.1,0,0,1,1-.65.76.76,0,0,1,.66.31,1.42,1.42,0,0,1,.2.83v3.44H188V60a1.57,1.57,0,0,0-.11-.73.34.34,0,0,0-.31-.16.47.47,0,0,0-.34.16,1.22,1.22,0,0,0-.27.43,1.32,1.32,0,0,0-.1.51v3h-.66V60a1.7,1.7,0,0,0-.1-.73.41.41,0,0,0-.39-.2.46.46,0,0,0-.3.14,1,1,0,0,0-.25.37,1.55,1.55,0,0,0-.09.55v3h-.65Z"/><path d="M189.67,63.16V57.05h3.52v.6h-2.83v1.91h2.28v.6h-2.28v3Z"/><path d="M195.18,62.94a2,2,0,0,1-.73-.82,2.92,2.92,0,0,1,0-2.41,2.11,2.11,0,0,1,.73-.83,2.12,2.12,0,0,1,2.14,0,2.11,2.11,0,0,1,.73.83,2.92,2.92,0,0,1,0,2.41,2,2,0,0,1-.73.82,2.12,2.12,0,0,1-2.14,0Zm1.75-.52a1.48,1.48,0,0,0,.47-.62,2.28,2.28,0,0,0,.17-.89,2,2,0,0,0-.37-1.25,1.17,1.17,0,0,0-1.9,0,2,2,0,0,0-.37,1.25,2.28,2.28,0,0,0,.17.89,1.48,1.48,0,0,0,.47.62,1.12,1.12,0,0,0,1.36,0Z"/><path d="M200.08,62.94a2,2,0,0,1-.74-.82,2.92,2.92,0,0,1,0-2.41,2.06,2.06,0,0,1,.74-.83,2,2,0,0,1,1.06-.29,1.92,1.92,0,0,1,1.8,1.12,2.82,2.82,0,0,1,0,2.41,1.93,1.93,0,0,1-1.8,1.11A1.9,1.9,0,0,1,200.08,62.94Zm1.74-.52a1.48,1.48,0,0,0,.47-.62,2.11,2.11,0,0,0,.17-.89,2,2,0,0,0-.37-1.25,1.13,1.13,0,0,0-1-.49,1.14,1.14,0,0,0-.95.49,2,2,0,0,0-.37,1.25,2.28,2.28,0,0,0,.17.89,1.57,1.57,0,0,0,.47.62,1.12,1.12,0,0,0,.68.23A1.09,1.09,0,0,0,201.82,62.42Z"/><path d="M155,69.66c.16,2.54-.15,9,2.66,10.4,1.57.77,3.89.09,5.53-.06l8-.69c1.91-.17,1.92-3.17,0-3l-9.59.83c-1.84.16-2.4.41-2.92-1.44a29,29,0,0,1-.68-6c-.12-1.92-3.13-1.93-3,0Z"/><path d="M164.71,73.12A16.88,16.88,0,0,0,172.92,78l-.66-2.5A31.78,31.78,0,0,0,167.12,81c-1.15,1.55,1.45,3,2.59,1.51a28.71,28.71,0,0,1,4.67-4.87,1.51,1.51,0,0,0-.66-2.51A14.11,14.11,0,0,1,166.83,71c-1.32-1.41-3.44.72-2.12,2.12Z"/><path d="M181.31,74.81a.89.89,0,0,1-.2-.58,2.85,2.85,0,0,1,1-1.84l.34.3a2.64,2.64,0,0,0-.45.54,1,1,0,0,0-.18.49.19.19,0,0,0,0,.14l.17.18.21.21a.41.41,0,0,1,.07.22.56.56,0,0,1-.58.57A.63.63,0,0,1,181.31,74.81Z"/><path d="M184.7,72.53h1.73a2.4,2.4,0,0,1,1.52.4,1.28,1.28,0,0,1,.5,1.08,1.52,1.52,0,0,1-.24.83,1.26,1.26,0,0,1-.66.52,1.69,1.69,0,0,1,.83.61,1.6,1.6,0,0,1,.32,1,1.51,1.51,0,0,1-.57,1.25,2.66,2.66,0,0,1-1.71.46H184.7Zm1.63,2.53c1,0,1.44-.33,1.44-1a.88.88,0,0,0-.32-.71,1.58,1.58,0,0,0-1-.27h-1.07v2Zm.21,3c1,0,1.43-.38,1.43-1.15s-.53-1.25-1.6-1.25h-1V78Z"/><path d="M190.73,74.74a2.54,2.54,0,0,0,.46-.54,1,1,0,0,0,.18-.48.3.3,0,0,0-.05-.16s-.1-.1-.18-.18a1.29,1.29,0,0,1-.2-.21.38.38,0,0,1-.07-.21.56.56,0,0,1,.16-.41.6.6,0,0,1,.88.07.8.8,0,0,1,.2.58,3,3,0,0,1-1,1.84Z"/><path d="M111,63.32h-4.36v-.44l2.39-2.7a6.36,6.36,0,0,0,.82-1.13,1.91,1.91,0,0,0,.23-.86,1.42,1.42,0,0,0-.39-1,1.45,1.45,0,0,0-1.06-.38,1.51,1.51,0,0,0-1.14.45,1.59,1.59,0,0,0-.43,1.16h-.57a2.15,2.15,0,0,1,.27-1.07,2,2,0,0,1,.75-.76,2.29,2.29,0,0,1,1.12-.27,2.11,2.11,0,0,1,1.49.5,1.79,1.79,0,0,1,.54,1.37,2.32,2.32,0,0,1-.3,1.06,8.28,8.28,0,0,1-1.07,1.45l-1.94,2.19H111Z"/><path d="M112.71,58.15l0,.89a2.12,2.12,0,0,1,.73-.73,1.86,1.86,0,0,1,1-.25,1.54,1.54,0,0,1,1.24.47,2.14,2.14,0,0,1,.41,1.4v3.39h-.57V59.93a1.59,1.59,0,0,0-.29-1,1.19,1.19,0,0,0-.93-.34,1.41,1.41,0,0,0-.94.34,2,2,0,0,0-.6.89v3.54h-.57V58.15Z"/><path d="M117.32,60.69a3.12,3.12,0,0,1,.53-1.92,1.73,1.73,0,0,1,1.46-.71,1.8,1.8,0,0,1,1.6.82V56h.57v7.34h-.54l0-.69a1.85,1.85,0,0,1-1.62.79,1.74,1.74,0,0,1-1.44-.72,3.17,3.17,0,0,1-.54-1.94Zm.57.1a2.73,2.73,0,0,0,.4,1.56,1.28,1.28,0,0,0,1.12.57,1.55,1.55,0,0,0,1.5-.93V59.56a1.53,1.53,0,0,0-1.49-1,1.31,1.31,0,0,0-1.13.57A2.94,2.94,0,0,0,117.89,60.79Z"/><path d="M127.27,62.94a1.51,1.51,0,0,0,1-.34,1.19,1.19,0,0,0,.44-.87h.55a1.52,1.52,0,0,1-.3.86,1.87,1.87,0,0,1-.72.61,2.13,2.13,0,0,1-1,.22,2,2,0,0,1-1.61-.71,2.83,2.83,0,0,1-.59-1.9v-.17a3.19,3.19,0,0,1,.26-1.35,2,2,0,0,1,1.94-1.23,2,2,0,0,1,1.4.5,1.84,1.84,0,0,1,.59,1.34h-.55a1.36,1.36,0,0,0-.44-1,1.4,1.4,0,0,0-1-.38,1.42,1.42,0,0,0-1.2.56,2.53,2.53,0,0,0-.43,1.57v.17a2.43,2.43,0,0,0,.43,1.54A1.42,1.42,0,0,0,127.27,62.94Z"/><path d="M133.67,63.32a2.36,2.36,0,0,1-.11-.72,2.11,2.11,0,0,1-.77.61,2.38,2.38,0,0,1-1,.21,1.7,1.7,0,0,1-1.2-.42,1.32,1.32,0,0,1-.46-1,1.39,1.39,0,0,1,.62-1.19,3,3,0,0,1,1.76-.44h1v-.59a1.12,1.12,0,0,0-.34-.87,1.43,1.43,0,0,0-1-.32,1.56,1.56,0,0,0-1,.31.89.89,0,0,0-.39.73h-.57a1.34,1.34,0,0,1,.57-1.07,2.22,2.22,0,0,1,1.41-.45,2,2,0,0,1,1.37.43,1.56,1.56,0,0,1,.51,1.21v2.44a3,3,0,0,0,.16,1.13v0Zm-1.8-.41a1.86,1.86,0,0,0,1-.28,1.52,1.52,0,0,0,.66-.74V60.76h-1a2.53,2.53,0,0,0-1.34.31.94.94,0,0,0-.48.83,1,1,0,0,0,.32.73A1.24,1.24,0,0,0,131.87,62.91Z"/><path d="M136.29,63.32h-.58V56h.58Z"/><path d="M138.48,63.32h-.57V56h.57Z"/><path d="M139.89,63a.44.44,0,0,1,.11-.29.46.46,0,0,1,.6,0,.44.44,0,0,1,.11.29.41.41,0,0,1-.82,0Zm0-4.41a.44.44,0,0,1,.11-.29.46.46,0,0,1,.6,0,.44.44,0,0,1,.11.29.37.37,0,0,1-.11.27.46.46,0,0,1-.6,0A.37.37,0,0,1,139.9,58.57Z"/><path d="M153.93,96.68h0a1.7,1.7,0,0,0-.47-.35,1.06,1.06,0,0,0-.45-.09,1.31,1.31,0,0,0-.66.18,1.25,1.25,0,0,0-.51.53,1.87,1.87,0,0,0-.2.9v2.37h-.71V95.75h.73l0,.82a1.49,1.49,0,0,1,.58-.68,1.56,1.56,0,0,1,.84-.25,1.61,1.61,0,0,1,1.19.49Zm-.1,0s0,0,0,0l.06,0,0,0-.07,0Zm.14,0-.05,0v0S154,96.75,154,96.74Z"/><path d="M155.73,99.71a2.35,2.35,0,0,1-.59-1.71,2.8,2.8,0,0,1,.27-1.27,2,2,0,0,1,.74-.81,2,2,0,0,1,1-.28,1.73,1.73,0,0,1,1.32.54,2.23,2.23,0,0,1,.5,1.59,2.14,2.14,0,0,1,0,.32h-3.18a1.82,1.82,0,0,0,.46,1.24,1.45,1.45,0,0,0,1.07.42,1.44,1.44,0,0,0,1.15-.5l.4.39a1.94,1.94,0,0,1-1.57.68A2.12,2.12,0,0,1,155.73,99.71Zm2.57-2.17a1.47,1.47,0,0,0-.32-1,1,1,0,0,0-.84-.37,1.24,1.24,0,0,0-.85.34,1.67,1.67,0,0,0-.45,1Z"/><path d="M163.4,96.15a2.33,2.33,0,0,1,.51,1.7v2.37h-.77v-.68a1.55,1.55,0,0,1-1.52.79,1.79,1.79,0,0,1-1.17-.34,1.08,1.08,0,0,1-.42-.89,1.22,1.22,0,0,1,.3-.82,2,2,0,0,1,.82-.55,3.39,3.39,0,0,1,1.13-.19,7.73,7.73,0,0,1,1,.06,1.53,1.53,0,0,0-.4-1.06,1.41,1.41,0,0,0-1-.31,1.59,1.59,0,0,0-.64.13,1.71,1.71,0,0,0-.56.37l-.35-.45a2.16,2.16,0,0,1,1.6-.63A2,2,0,0,1,163.4,96.15Zm-.57,3.22a1.86,1.86,0,0,0,.46-1.23,5.65,5.65,0,0,0-.95-.07,2.26,2.26,0,0,0-1.17.25.79.79,0,0,0-.43.74c0,.49.31.73.95.73A1.54,1.54,0,0,0,162.83,99.37Z"/><path d="M165.83,100.05a2,2,0,0,1-.68-.8,2.91,2.91,0,0,1-.27-1.31,2.8,2.8,0,0,1,.28-1.29,2,2,0,0,1,.7-.77,1.86,1.86,0,0,1,.91-.25,1.46,1.46,0,0,1,.79.21,1.36,1.36,0,0,1,.52.57V93.72h.74v.06a.28.28,0,0,0-.07.13,1.25,1.25,0,0,0,0,.24v5.38c0,.16,0,.28,0,.39a.84.84,0,0,0,.08.3h-.7a1.11,1.11,0,0,1-.08-.3c0-.11,0-.23,0-.39a1.64,1.64,0,0,1-.56.58,1.38,1.38,0,0,1-.76.21A1.68,1.68,0,0,1,165.83,100.05Zm1.9-.82A2.49,2.49,0,0,0,168,98a2.36,2.36,0,0,0-.31-1.27,1,1,0,0,0-.93-.48,1,1,0,0,0-.9.44,2,2,0,0,0-.31,1.19,2.44,2.44,0,0,0,.33,1.36,1.05,1.05,0,0,0,.94.51A1,1,0,0,0,167.73,99.23Z"/><path d="M170.1,100.22v-6.1h3.51v.59h-2.82v1.92h2.28v.6h-2.28v3Z"/><path d="M178.4,96.68h0a2.06,2.06,0,0,0-.47-.35,1.06,1.06,0,0,0-.45-.09,1.35,1.35,0,0,0-.67.18,1.29,1.29,0,0,0-.5.53,1.76,1.76,0,0,0-.2.9v2.37h-.71V95.75h.73l0,.82a1.41,1.41,0,0,1,.57-.68,1.63,1.63,0,0,1,2,.24Zm-.11,0s0,0,0,0l.06,0,0,0-.07,0Zm.14,0-.05,0,0,0S178.46,96.75,178.43,96.74Z"/><path d="M180.5,100a2.08,2.08,0,0,1-.73-.82,2.65,2.65,0,0,1-.26-1.21,2.58,2.58,0,0,1,.26-1.2,2.11,2.11,0,0,1,.73-.83,2.06,2.06,0,0,1,2.14,0,2,2,0,0,1,.73.83,2.58,2.58,0,0,1,.26,1.2,2.65,2.65,0,0,1-.26,1.21,2,2,0,0,1-.73.82,2.12,2.12,0,0,1-2.14,0Zm1.75-.52a1.48,1.48,0,0,0,.47-.62,2.33,2.33,0,0,0,.17-.9,2,2,0,0,0-.37-1.24,1.13,1.13,0,0,0-1-.49,1.14,1.14,0,0,0-.95.49,2,2,0,0,0-.37,1.24,2.33,2.33,0,0,0,.17.9,1.57,1.57,0,0,0,.47.62,1.11,1.11,0,0,0,.68.22A1.09,1.09,0,0,0,182.25,99.49Z"/><path d="M184.39,95.75H185v.44a1.15,1.15,0,0,1,.4-.39.88.88,0,0,1,.51-.16.8.8,0,0,1,.51.19.79.79,0,0,1,.28.47,1.09,1.09,0,0,1,.4-.48,1.07,1.07,0,0,1,.61-.18.76.76,0,0,1,.66.32,1.4,1.4,0,0,1,.2.83v3.43H188V97.05a1.55,1.55,0,0,0-.11-.72.34.34,0,0,0-.31-.17.48.48,0,0,0-.34.17,1.27,1.27,0,0,0-.27.42,1.41,1.41,0,0,0-.1.52v3h-.66V97.11a1.79,1.79,0,0,0-.1-.74.42.42,0,0,0-.39-.19.5.5,0,0,0-.3.13,1.09,1.09,0,0,0-.25.38,1.55,1.55,0,0,0-.09.55v3h-.65Z"/><path d="M189.67,100.22v-6.1h3.52v.59h-2.83v1.92h2.28v.6h-2.28v3Z"/><path d="M195.18,100a2.08,2.08,0,0,1-.73-.82,2.65,2.65,0,0,1-.26-1.21,2.58,2.58,0,0,1,.26-1.2,2.11,2.11,0,0,1,.73-.83,2.06,2.06,0,0,1,2.14,0,2.11,2.11,0,0,1,.73.83,2.58,2.58,0,0,1,.26,1.2,2.65,2.65,0,0,1-.26,1.21,2.08,2.08,0,0,1-.73.82,2.12,2.12,0,0,1-2.14,0Zm1.75-.52a1.48,1.48,0,0,0,.47-.62,2.33,2.33,0,0,0,.17-.9,2,2,0,0,0-.37-1.24,1.17,1.17,0,0,0-1.9,0,2,2,0,0,0-.37,1.24,2.33,2.33,0,0,0,.17.9,1.48,1.48,0,0,0,.47.62,1.16,1.16,0,0,0,1.36,0Z"/><path d="M200.08,100a2,2,0,0,1-.74-.82,2.79,2.79,0,0,1-.26-1.21,2.71,2.71,0,0,1,.26-1.2,2.06,2.06,0,0,1,.74-.83,1.9,1.9,0,0,1,1.06-.3,1.94,1.94,0,0,1,1.07.3,2,2,0,0,1,.73.83,2.59,2.59,0,0,1,.27,1.2,2.66,2.66,0,0,1-.27,1.21,1.93,1.93,0,0,1-1.8,1.11A2,2,0,0,1,200.08,100Zm1.74-.52a1.48,1.48,0,0,0,.47-.62,2.16,2.16,0,0,0,.17-.9,2,2,0,0,0-.37-1.24,1.13,1.13,0,0,0-1-.49,1.14,1.14,0,0,0-.95.49,2,2,0,0,0-.37,1.24,2.33,2.33,0,0,0,.17.9,1.57,1.57,0,0,0,.47.62,1.11,1.11,0,0,0,.68.22A1.09,1.09,0,0,0,201.82,99.49Z"/><path d="M155,106.73c.16,2.53-.15,9,2.66,10.4,1.57.77,3.89.08,5.53-.06l8-.7c1.91-.16,1.92-3.16,0-3l-9.59.84c-1.84.16-2.4.41-2.92-1.44a29,29,0,0,1-.68-6c-.12-1.92-3.13-1.93-3,0Z"/><path d="M164.71,110.19a17,17,0,0,0,8.21,4.85l-.66-2.51a32.15,32.15,0,0,0-5.14,5.48c-1.15,1.55,1.45,3,2.59,1.52a29.15,29.15,0,0,1,4.67-4.88,1.51,1.51,0,0,0-.66-2.5,14.11,14.11,0,0,1-6.89-4.08c-1.32-1.41-3.44.71-2.12,2.12Z"/><path d="M181.31,111.87a.85.85,0,0,1-.2-.58,2.87,2.87,0,0,1,1-1.84l.34.31a2.57,2.57,0,0,0-.45.53,1.09,1.09,0,0,0-.18.49.2.2,0,0,0,0,.15l.17.18a2.06,2.06,0,0,1,.21.21.38.38,0,0,1,.07.22.59.59,0,0,1-.16.4.57.57,0,0,1-.42.16A.59.59,0,0,1,181.31,111.87Z"/><path d="M187.35,115.21l.33-.2a1.67,1.67,0,0,0,.54-.55l.51.34a2,2,0,0,1-.72.74,1.82,1.82,0,0,1-1,.25,2.25,2.25,0,0,1-1.22-.33,2.29,2.29,0,0,1-.85-1,4,4,0,0,1-.32-1.74,4.1,4.1,0,0,1,.34-1.82,2.31,2.31,0,0,1,.87-1,2.26,2.26,0,0,1,1.14-.3,2,2,0,0,1,1.12.32,2.16,2.16,0,0,1,.72.88l-.59.28a0,0,0,0,1,0,0,1.82,1.82,0,0,0-.57-.72,1.29,1.29,0,0,0-.69-.2,1.38,1.38,0,0,0-1.22.67,3.32,3.32,0,0,0-.45,1.86,3.69,3.69,0,0,0,.23,1.34,2.12,2.12,0,0,0,.61.91,1.29,1.29,0,0,0,.86.33Zm.78-4.23.08.06-.07,0,0-.07Zm.08.06h0C188.25,111.09,188.25,111.09,188.21,111Z"/><path d="M190.73,111.81a2.36,2.36,0,0,0,.46-.55,1,1,0,0,0,.18-.48.25.25,0,0,0-.05-.15,1.51,1.51,0,0,0-.18-.18l-.2-.21a.38.38,0,0,1-.07-.21.56.56,0,0,1,.16-.41.57.57,0,0,1,.42-.17.59.59,0,0,1,.46.23.84.84,0,0,1,.2.58,3,3,0,0,1-1,1.84Z"/><path d="M107.93,96.6h.59a2.09,2.09,0,0,0,.86-.17,1.39,1.39,0,0,0,.56-.48,1.27,1.27,0,0,0,.19-.7,1.42,1.42,0,0,0-.37-1,1.5,1.5,0,0,0-1.09-.38,1.58,1.58,0,0,0-1.1.4,1.36,1.36,0,0,0-.42,1h-.58a1.81,1.81,0,0,1,.28-1,1.79,1.79,0,0,1,.75-.69,2.37,2.37,0,0,1,1.07-.24,2.09,2.09,0,0,1,1.49.51,1.85,1.85,0,0,1,.55,1.42,1.51,1.51,0,0,1-.32.92,1.91,1.91,0,0,1-.87.64,1.74,1.74,0,0,1,1,.62,1.69,1.69,0,0,1,.34,1,1.87,1.87,0,0,1-.59,1.44,2.21,2.21,0,0,1-1.55.55,2.73,2.73,0,0,1-1.15-.25,2,2,0,0,1-.8-.7,1.88,1.88,0,0,1-.28-1H107a1.38,1.38,0,0,0,.47,1.08,1.68,1.68,0,0,0,1.19.42,1.61,1.61,0,0,0,1.15-.38,1.4,1.4,0,0,0,.41-1.1,1.31,1.31,0,0,0-.44-1.06,2,2,0,0,0-1.32-.37h-.57Z"/><path d="M114.56,95.71a1.61,1.61,0,0,0-.39,0,1.36,1.36,0,0,0-.9.3,1.6,1.6,0,0,0-.53.87v3.55h-.57V95.22h.56V96a1.53,1.53,0,0,1,1.46-.92.79.79,0,0,1,.37.07Z"/><path d="M115.14,97.76a3.08,3.08,0,0,1,.54-1.92,1.72,1.72,0,0,1,1.46-.72,1.78,1.78,0,0,1,1.59.83v-2.9h.57v7.34h-.53l0-.69a1.84,1.84,0,0,1-1.61.79,1.71,1.71,0,0,1-1.44-.72,3.12,3.12,0,0,1-.55-2Zm.58.1a2.65,2.65,0,0,0,.4,1.56,1.27,1.27,0,0,0,1.11.57,1.53,1.53,0,0,0,1.5-.93V96.63a1.52,1.52,0,0,0-1.49-1,1.29,1.29,0,0,0-1.12.57A2.84,2.84,0,0,0,115.72,97.86Z"/><path d="M125.1,100a1.53,1.53,0,0,0,1-.33,1.2,1.2,0,0,0,.44-.88h.55a1.68,1.68,0,0,1-.3.87,1.87,1.87,0,0,1-.72.61,2.3,2.3,0,0,1-1,.22,2,2,0,0,1-1.61-.71,2.85,2.85,0,0,1-.6-1.9V97.7a3.19,3.19,0,0,1,.27-1.35,2.09,2.09,0,0,1,.77-.91,2.12,2.12,0,0,1,1.16-.32,2,2,0,0,1,1.41.51,1.86,1.86,0,0,1,.59,1.33h-.55a1.42,1.42,0,0,0-.44-1,1.46,1.46,0,0,0-1-.37,1.44,1.44,0,0,0-1.2.56,2.57,2.57,0,0,0-.43,1.57v.16a2.53,2.53,0,0,0,.43,1.55A1.44,1.44,0,0,0,125.1,100Z"/><path d="M131.49,100.39a3.21,3.21,0,0,1-.11-.72,2,2,0,0,1-.76.6,2.42,2.42,0,0,1-1,.22,1.73,1.73,0,0,1-1.21-.42,1.39,1.39,0,0,1-.46-1,1.4,1.4,0,0,1,.63-1.2,3,3,0,0,1,1.75-.44h1V96.8a1.19,1.19,0,0,0-.34-.88,1.43,1.43,0,0,0-1-.31,1.58,1.58,0,0,0-1,.3.92.92,0,0,0-.39.74h-.57a1.32,1.32,0,0,1,.57-1.06,2.15,2.15,0,0,1,1.41-.46,2,2,0,0,1,1.36.44,1.52,1.52,0,0,1,.52,1.2v2.45a3.17,3.17,0,0,0,.15,1.12v.06ZM129.7,100a1.86,1.86,0,0,0,1-.28,1.63,1.63,0,0,0,.66-.74V97.82h-1a2.52,2.52,0,0,0-1.34.32.94.94,0,0,0-.48.83.9.9,0,0,0,.32.72A1.21,1.21,0,0,0,129.7,100Z"/><path d="M134.11,100.39h-.57V93.05h.57Z"/><path d="M136.3,100.39h-.57V93.05h.57Z"/><path d="M137.72,100.05a.39.39,0,0,1,.41-.41.41.41,0,0,1,.3.12.42.42,0,0,1,.11.29.37.37,0,0,1-.11.27.44.44,0,0,1-.3.11.41.41,0,0,1-.3-.11A.33.33,0,0,1,137.72,100.05Zm0-4.41a.38.38,0,0,1,.11-.29.37.37,0,0,1,.29-.12.39.39,0,0,1,.42.41.37.37,0,0,1-.11.27.45.45,0,0,1-.31.11.4.4,0,0,1-.29-.11A.33.33,0,0,1,137.73,95.64Z"/><path d="M4.73,25.77H4V17.24h.72Z"/><path d="M7.52,19.43l0,1a2.34,2.34,0,0,1,.88-.86,2.42,2.42,0,0,1,1.17-.29,1.77,1.77,0,0,1,1.9,1.23,2.41,2.41,0,0,1,.91-.91,2.56,2.56,0,0,1,1.26-.32c1.36,0,2.05.74,2.08,2.23v4.23H15V21.59a1.86,1.86,0,0,0-.36-1.26,1.52,1.52,0,0,0-1.18-.41,1.89,1.89,0,0,0-1.28.49,1.78,1.78,0,0,0-.58,1.16v4.2h-.7V21.54a1.75,1.75,0,0,0-.38-1.22,1.56,1.56,0,0,0-1.17-.4,1.75,1.75,0,0,0-1.13.38,2.26,2.26,0,0,0-.71,1.12v4.35h-.7V19.43Z"/><path d="M22.61,22.66A3.82,3.82,0,0,1,22,25a2.08,2.08,0,0,1-1.76.87,2.35,2.35,0,0,1-2-.92v3.24h-.69V19.43h.65l0,.9a2.25,2.25,0,0,1,2-1,2.11,2.11,0,0,1,1.78.86,3.92,3.92,0,0,1,.65,2.39Zm-.7-.12a3.29,3.29,0,0,0-.5-1.92,1.63,1.63,0,0,0-1.39-.7,1.93,1.93,0,0,0-1.11.31,2,2,0,0,0-.71.9v3.05a1.89,1.89,0,0,0,.72.83,2.11,2.11,0,0,0,1.11.28,1.59,1.59,0,0,0,1.38-.7A3.54,3.54,0,0,0,21.91,22.54Z"/><path d="M28.24,25a2.29,2.29,0,0,1-2,.92,2,2,0,0,1-1.54-.59,2.63,2.63,0,0,1-.54-1.75V19.43h.7v4c0,1.2.48,1.81,1.46,1.81A1.8,1.8,0,0,0,28.23,24V19.43h.7v6.34h-.68Z"/><path d="M33.68,20a2.35,2.35,0,0,0-.47,0,1.72,1.72,0,0,0-1.11.36,2.06,2.06,0,0,0-.65,1.07v4.35h-.7V19.43h.69v1a1.87,1.87,0,0,1,1.79-1.13,1.15,1.15,0,0,1,.46.08Z"/><path d="M34.75,17.6a.47.47,0,0,1,.13-.34.54.54,0,0,1,.7,0,.48.48,0,0,1,.14.34.45.45,0,0,1-.14.33.48.48,0,0,1-.83-.33Zm.83,8.17h-.71V19.43h.71Z"/><path d="M38.57,17.81v1.62h1.31V20H38.57v4.23a1.32,1.32,0,0,0,.19.79.75.75,0,0,0,.64.26,4.26,4.26,0,0,0,.56-.06l0,.57a2.42,2.42,0,0,1-.75.1,1.25,1.25,0,0,1-1.05-.42,2,2,0,0,1-.32-1.24V20H36.7v-.57h1.17V17.81Z"/><path d="M43.35,24.76l1.85-5.33H46l-2.7,7.42-.15.33a1.7,1.7,0,0,1-1.61,1.15,2.28,2.28,0,0,1-.54-.08v-.58l.36,0a1.31,1.31,0,0,0,.84-.25,2,2,0,0,0,.54-.88l.31-.85-2.39-6.29h.77Z"/><path d="M46.87,25.35A.48.48,0,0,1,47,25a.46.46,0,0,1,.36-.15.47.47,0,0,1,.37.15.48.48,0,0,1,.14.35.44.44,0,0,1-.14.33.5.5,0,0,1-.37.14.49.49,0,0,1-.36-.14A.43.43,0,0,1,46.87,25.35Zm0-5.41a.49.49,0,0,1,.13-.35.46.46,0,0,1,.37-.14.48.48,0,0,1,.37.14.49.49,0,0,1,.13.35.45.45,0,0,1-.13.34.55.55,0,0,1-.37.13.54.54,0,0,1-.37-.13A.45.45,0,0,1,46.88,19.94Z"/><path d="M8,36.33H6v5.29H5.53V36.33H3.59v-.4H8Z"/><path d="M9.24,38.1a1.64,1.64,0,0,1,.59-.58,1.52,1.52,0,0,1,.78-.21,1.28,1.28,0,0,1,1,.38A1.73,1.73,0,0,1,12,38.84v2.78h-.47V38.84a1.29,1.29,0,0,0-.24-.85.94.94,0,0,0-.75-.27,1.19,1.19,0,0,0-.77.27,1.53,1.53,0,0,0-.49.73v2.9H8.77v-6h.47Z"/><path d="M14.8,41.69a1.91,1.91,0,0,1-1-.26,1.84,1.84,0,0,1-.67-.74,2.22,2.22,0,0,1-.25-1.07v-.16a2.44,2.44,0,0,1,.24-1.1,1.91,1.91,0,0,1,.66-.77,1.58,1.58,0,0,1,.91-.28,1.52,1.52,0,0,1,1.22.53,2.11,2.11,0,0,1,.45,1.43v.26h-3v.09a1.8,1.8,0,0,0,.41,1.2,1.32,1.32,0,0,0,1,.48,1.53,1.53,0,0,0,.66-.14,1.34,1.34,0,0,0,.52-.44l.29.23A1.71,1.71,0,0,1,14.8,41.69Zm-.09-4a1.17,1.17,0,0,0-.89.39,1.81,1.81,0,0,0-.44,1h2.54v-.05a1.55,1.55,0,0,0-.35-1A1.09,1.09,0,0,0,14.71,37.71Z"/><path d="M19.58,41.62V37.77h-.7v-.38h.7v-.51a1.39,1.39,0,0,1,.33-1,1.21,1.21,0,0,1,.92-.35,1.93,1.93,0,0,1,.49.07l0,.39a1.88,1.88,0,0,0-.43-.05.75.75,0,0,0-.6.24,1,1,0,0,0-.22.68v.53h1v.38H20v3.85Z"/><path d="M24.61,41.08a1.51,1.51,0,0,1-1.35.61,1.33,1.33,0,0,1-1-.39,1.76,1.76,0,0,1-.36-1.16V37.39h.47v2.69c0,.8.32,1.21,1,1.21a1.2,1.2,0,0,0,1.29-.84V37.39h.47v4.23h-.45Z"/><path d="M26.73,37.39v.72a1.61,1.61,0,0,1,.6-.59,1.5,1.5,0,0,1,.78-.21,1.27,1.27,0,0,1,1,.38,1.68,1.68,0,0,1,.34,1.15v2.78H29V38.84a1.41,1.41,0,0,0-.24-.85,1,1,0,0,0-.76-.27,1.19,1.19,0,0,0-.77.27,1.53,1.53,0,0,0-.49.73v2.9h-.47V37.39Z"/><path d="M32.24,41.3a1.2,1.2,0,0,0,.82-.28,1,1,0,0,0,.36-.71h.45a1.42,1.42,0,0,1-.25.71,1.5,1.5,0,0,1-.59.49,1.76,1.76,0,0,1-.79.18,1.66,1.66,0,0,1-1.32-.57,2.38,2.38,0,0,1-.48-1.56v-.14a2.75,2.75,0,0,1,.21-1.11,1.66,1.66,0,0,1,1.59-1,1.64,1.64,0,0,1,1.14.41,1.56,1.56,0,0,1,.49,1.09h-.45a1.15,1.15,0,0,0-.36-.8,1.28,1.28,0,0,0-1.81.16,2.07,2.07,0,0,0-.35,1.28v.13a2.08,2.08,0,0,0,.35,1.27A1.2,1.2,0,0,0,32.24,41.3Z"/><path d="M35.53,36.31v1.08h.87v.38h-.87v2.82a.94.94,0,0,0,.12.53.52.52,0,0,0,.43.17l.38,0v.38a1.61,1.61,0,0,1-.5.06.8.8,0,0,1-.69-.28,1.27,1.27,0,0,1-.22-.82V37.77h-.78v-.38h.78V36.31Z"/><path d="M37.34,36.17a.33.33,0,0,1,.09-.23.29.29,0,0,1,.23-.09.32.32,0,0,1,.24.09.33.33,0,0,1,.09.23.29.29,0,0,1-.09.22.32.32,0,0,1-.24.09.29.29,0,0,1-.23-.09A.29.29,0,0,1,37.34,36.17Zm.55,5.45h-.47V37.39h.47Z"/><path d="M38.9,39.44a2.47,2.47,0,0,1,.24-1.1,1.84,1.84,0,0,1,.67-.76,1.8,1.8,0,0,1,1-.27,1.73,1.73,0,0,1,1.36.59,2.29,2.29,0,0,1,.53,1.57v.1a2.44,2.44,0,0,1-.24,1.1,1.82,1.82,0,0,1-.66.76,1.92,1.92,0,0,1-1,.26,1.71,1.71,0,0,1-1.36-.59,2.28,2.28,0,0,1-.53-1.57Zm.47.13a1.87,1.87,0,0,0,.4,1.24,1.32,1.32,0,0,0,2,0,2,2,0,0,0,.39-1.28v-.09a2.18,2.18,0,0,0-.18-.89,1.41,1.41,0,0,0-.5-.62,1.26,1.26,0,0,0-.74-.22,1.23,1.23,0,0,0-1,.49,1.94,1.94,0,0,0-.4,1.28Z"/><path d="M44.09,37.39v.72a1.61,1.61,0,0,1,.6-.59,1.5,1.5,0,0,1,.78-.21,1.27,1.27,0,0,1,1,.38,1.68,1.68,0,0,1,.34,1.15v2.78h-.46V38.84a1.41,1.41,0,0,0-.24-.85,1,1,0,0,0-.76-.27,1.19,1.19,0,0,0-.77.27,1.53,1.53,0,0,0-.49.73v2.9h-.47V37.39Z"/><path d="M49.79,39.46a2.59,2.59,0,0,1,.44-1.57,1.56,1.56,0,0,1,2.5.1V35.62h.47v6h-.44l0-.57a1.5,1.5,0,0,1-1.32.64,1.41,1.41,0,0,1-1.18-.58,2.59,2.59,0,0,1-.45-1.59Zm.48.08a2.26,2.26,0,0,0,.32,1.28,1.06,1.06,0,0,0,.92.47,1.26,1.26,0,0,0,1.22-.76v-2a1.24,1.24,0,0,0-1.22-.82,1,1,0,0,0-.91.46A2.33,2.33,0,0,0,50.27,39.54Z"/><path d="M54.17,39.44a2.47,2.47,0,0,1,.24-1.1,1.75,1.75,0,0,1,1.64-1,1.75,1.75,0,0,1,1.37.59,2.29,2.29,0,0,1,.52,1.57v.1a2.57,2.57,0,0,1-.23,1.1,1.78,1.78,0,0,1-.67.76,1.89,1.89,0,0,1-1,.26,1.71,1.71,0,0,1-1.36-.59,2.28,2.28,0,0,1-.53-1.57Zm.47.13A1.92,1.92,0,0,0,55,40.81a1.25,1.25,0,0,0,1,.49,1.26,1.26,0,0,0,1-.49,2,2,0,0,0,.39-1.28v-.09a2.18,2.18,0,0,0-.18-.89,1.43,1.43,0,0,0-.51-.62,1.24,1.24,0,0,0-.74-.22,1.26,1.26,0,0,0-1,.49,2,2,0,0,0-.39,1.28Z"/><path d="M60.54,41.69a1.9,1.9,0,0,1-1-.26,1.87,1.87,0,0,1-.68-.74,2.34,2.34,0,0,1-.24-1.07v-.16a2.44,2.44,0,0,1,.24-1.1,1.82,1.82,0,0,1,.65-.77,1.63,1.63,0,0,1,.92-.28,1.53,1.53,0,0,1,1.22.53,2.11,2.11,0,0,1,.45,1.43v.26h-3v.09a1.75,1.75,0,0,0,.41,1.2,1.3,1.3,0,0,0,1,.48,1.57,1.57,0,0,0,.67-.14,1.41,1.41,0,0,0,.52-.44L62,41A1.71,1.71,0,0,1,60.54,41.69Zm-.08-4a1.17,1.17,0,0,0-.89.39,1.74,1.74,0,0,0-.44,1h2.54v-.05a1.6,1.6,0,0,0-.35-1A1.1,1.1,0,0,0,60.46,37.71Z"/><path d="M65.57,40.54a.66.66,0,0,0-.28-.56,2.09,2.09,0,0,0-.84-.33,4.11,4.11,0,0,1-.87-.27,1.11,1.11,0,0,1-.46-.38,1,1,0,0,1-.15-.54,1,1,0,0,1,.41-.82,1.7,1.7,0,0,1,1.08-.33,1.75,1.75,0,0,1,1.13.35,1.11,1.11,0,0,1,.43.91h-.47a.73.73,0,0,0-.31-.61,1.2,1.2,0,0,0-.78-.25,1.3,1.3,0,0,0-.75.2.65.65,0,0,0-.27.54.57.57,0,0,0,.23.49,2.64,2.64,0,0,0,.85.32,4.29,4.29,0,0,1,.92.3,1.27,1.27,0,0,1,.45.4,1.08,1.08,0,0,1-.28,1.41,1.8,1.8,0,0,1-1.13.32,1.91,1.91,0,0,1-1.19-.35,1.1,1.1,0,0,1-.46-.91h.46a.82.82,0,0,0,.35.64,1.42,1.42,0,0,0,.84.23,1.28,1.28,0,0,0,.79-.22A.63.63,0,0,0,65.57,40.54Z"/><path d="M69.48,37.39l0,.72a1.59,1.59,0,0,1,.59-.59,1.53,1.53,0,0,1,.79-.21,1.28,1.28,0,0,1,1,.38,1.73,1.73,0,0,1,.33,1.15v2.78h-.46V38.84a1.29,1.29,0,0,0-.24-.85,1,1,0,0,0-.76-.27A1.16,1.16,0,0,0,70,38a1.54,1.54,0,0,0-.5.73v2.9H69V37.39Z"/><path d="M73.17,39.44a2.47,2.47,0,0,1,.24-1.1,1.84,1.84,0,0,1,.67-.76,1.8,1.8,0,0,1,1-.27,1.74,1.74,0,0,1,1.36.59A2.29,2.29,0,0,1,77,39.47v.1a2.44,2.44,0,0,1-.24,1.1,1.78,1.78,0,0,1-.67.76,1.86,1.86,0,0,1-1,.26,1.71,1.71,0,0,1-1.36-.59,2.28,2.28,0,0,1-.53-1.57Zm.47.13a1.87,1.87,0,0,0,.4,1.24,1.32,1.32,0,0,0,2,0,2,2,0,0,0,.39-1.28v-.09a2.18,2.18,0,0,0-.18-.89,1.41,1.41,0,0,0-.5-.62,1.26,1.26,0,0,0-.74-.22,1.23,1.23,0,0,0-1,.49,1.94,1.94,0,0,0-.4,1.28Z"/><path d="M78.64,36.31v1.08h.87v.38h-.87v2.82a.86.86,0,0,0,.13.53.49.49,0,0,0,.42.17l.38,0,0,.38a1.7,1.7,0,0,1-.5.06.83.83,0,0,1-.7-.28,1.27,1.27,0,0,1-.22-.82V37.77h-.78v-.38h.78V36.31Z"/><path d="M6.66,51.22a3.08,3.08,0,0,1-.09-.59,1.67,1.67,0,0,1-.62.49,1.9,1.9,0,0,1-.81.17,1.4,1.4,0,0,1-1-.34,1.09,1.09,0,0,1-.37-.86,1.12,1.12,0,0,1,.51-1,2.46,2.46,0,0,1,1.43-.36h.85v-.48a.94.94,0,0,0-.28-.72,1.18,1.18,0,0,0-.82-.25,1.23,1.23,0,0,0-.8.25.71.71,0,0,0-.32.6H3.88a1.08,1.08,0,0,1,.47-.87,1.76,1.76,0,0,1,1.15-.37,1.66,1.66,0,0,1,1.11.35,1.23,1.23,0,0,1,.42,1v2a2.6,2.6,0,0,0,.13.92v0Zm-1.47-.34A1.55,1.55,0,0,0,6,50.65a1.3,1.3,0,0,0,.54-.6v-.93H5.73a2.09,2.09,0,0,0-1.09.25.8.8,0,0,0-.4.69.76.76,0,0,0,.27.59A1,1,0,0,0,5.19,50.88Z"/><path d="M8.8,51.22H8.33v-6H8.8Z"/><path d="M11.08,50.24l.07.37.1-.39,1-3.23h.4l1,3.21.11.44.09-.41L14.73,47h.49L14,51.22h-.4L12.5,47.86l-.05-.23,0,.24-1.07,3.35h-.39L9.71,47h.48Z"/><path d="M18.77,51.22a2,2,0,0,1-.09-.59,1.63,1.63,0,0,1-.63.49,1.83,1.83,0,0,1-.8.17,1.4,1.4,0,0,1-1-.34,1.1,1.1,0,0,1-.38-.86,1.13,1.13,0,0,1,.52-1,2.46,2.46,0,0,1,1.43-.36h.85v-.48a1,1,0,0,0-.28-.72,1.18,1.18,0,0,0-.82-.25,1.23,1.23,0,0,0-.8.25.71.71,0,0,0-.32.6H16a1.08,1.08,0,0,1,.47-.87,1.76,1.76,0,0,1,1.15-.37,1.66,1.66,0,0,1,1.11.35,1.3,1.3,0,0,1,.42,1v2a2.6,2.6,0,0,0,.13.92v0Zm-1.47-.34a1.58,1.58,0,0,0,.84-.23,1.3,1.3,0,0,0,.54-.6v-.93h-.84a2.09,2.09,0,0,0-1.09.25.78.78,0,0,0-.4.69.76.76,0,0,0,.27.59A1,1,0,0,0,17.3,50.88Z"/><path d="M21.67,50.54,22.9,47h.51L21.6,51.93l-.09.22a1.12,1.12,0,0,1-1.07.77,1.49,1.49,0,0,1-.36-.05v-.39l.24,0a.83.83,0,0,0,.56-.17,1.26,1.26,0,0,0,.36-.58l.21-.57L19.85,47h.51Z"/><path d="M26.66,50.14a.66.66,0,0,0-.28-.56,2.09,2.09,0,0,0-.84-.33,4.11,4.11,0,0,1-.87-.27,1.11,1.11,0,0,1-.46-.38,1,1,0,0,1-.15-.54,1,1,0,0,1,.41-.82,1.69,1.69,0,0,1,1.07-.33,1.76,1.76,0,0,1,1.14.35,1.14,1.14,0,0,1,.43.91h-.47a.73.73,0,0,0-.31-.61,1.21,1.21,0,0,0-.79-.25,1.29,1.29,0,0,0-.74.2.65.65,0,0,0-.27.54.57.57,0,0,0,.23.49,2.64,2.64,0,0,0,.85.32,4.29,4.29,0,0,1,.92.3,1.27,1.27,0,0,1,.45.4A1.08,1.08,0,0,1,26.7,51a1.8,1.8,0,0,1-1.13.32,1.91,1.91,0,0,1-1.19-.35,1.1,1.1,0,0,1-.46-.91h.46a.82.82,0,0,0,.35.64,1.42,1.42,0,0,0,.84.23,1.28,1.28,0,0,0,.79-.22A.63.63,0,0,0,26.66,50.14Z"/><path d="M30.59,47.7a1.72,1.72,0,0,1,.59-.58,1.53,1.53,0,0,1,.79-.21,1.28,1.28,0,0,1,1,.38,1.73,1.73,0,0,1,.33,1.15v2.78h-.46V48.44a1.29,1.29,0,0,0-.24-.85,1,1,0,0,0-.76-.27,1.16,1.16,0,0,0-.76.27,1.54,1.54,0,0,0-.5.73v2.9h-.46v-6h.46Z"/><path d="M37.19,51.22a2,2,0,0,1-.09-.59,1.79,1.79,0,0,1-.63.49,1.87,1.87,0,0,1-.81.17,1.39,1.39,0,0,1-1-.34,1.07,1.07,0,0,1-.38-.86,1.12,1.12,0,0,1,.51-1,2.46,2.46,0,0,1,1.43-.36h.85v-.48a.94.94,0,0,0-.28-.72,1.16,1.16,0,0,0-.81-.25,1.24,1.24,0,0,0-.81.25.73.73,0,0,0-.32.6H34.4a1.1,1.1,0,0,1,.47-.87A1.78,1.78,0,0,1,36,46.91a1.71,1.71,0,0,1,1.12.35,1.3,1.3,0,0,1,.42,1v2a2.39,2.39,0,0,0,.13.92v0Zm-1.47-.34a1.54,1.54,0,0,0,.83-.23,1.3,1.3,0,0,0,.54-.6v-.93h-.83a2.13,2.13,0,0,0-1.1.25A.8.8,0,0,0,35,50.65,1,1,0,0,0,35.72,50.88Z"/><path d="M40.06,50.57,41.35,47h.48l-1.58,4.23h-.38L38.28,47h.48Z"/><path d="M44.18,51.29a1.82,1.82,0,0,1-1-.26,1.84,1.84,0,0,1-.67-.74,2.22,2.22,0,0,1-.25-1.07v-.16a2.44,2.44,0,0,1,.24-1.1,1.91,1.91,0,0,1,.66-.77,1.58,1.58,0,0,1,.91-.28,1.53,1.53,0,0,1,1.22.53,2.11,2.11,0,0,1,.45,1.43v.26h-3v.09a1.8,1.8,0,0,0,.41,1.2,1.32,1.32,0,0,0,1,.48,1.53,1.53,0,0,0,.66-.14,1.41,1.41,0,0,0,.52-.44l.29.23A1.71,1.71,0,0,1,44.18,51.29Zm-.09-4a1.17,1.17,0,0,0-.89.39,1.81,1.81,0,0,0-.44,1H45.3v0a1.55,1.55,0,0,0-.35-1A1.09,1.09,0,0,0,44.09,47.31Z"/><path d="M49.35,45.91V47h.87v.38h-.87v2.82a.94.94,0,0,0,.12.53.52.52,0,0,0,.43.17l.38,0v.38a1.61,1.61,0,0,1-.5.06A.8.8,0,0,1,49.1,51a1.27,1.27,0,0,1-.22-.82V47.37H48.1V47h.78V45.91Z"/><path d="M51.65,47.7a1.72,1.72,0,0,1,.59-.58,1.56,1.56,0,0,1,.79-.21,1.28,1.28,0,0,1,1,.38,1.79,1.79,0,0,1,.34,1.15v2.78h-.47V48.44a1.29,1.29,0,0,0-.24-.85,1,1,0,0,0-.75-.27,1.19,1.19,0,0,0-.77.27,1.62,1.62,0,0,0-.5.73v2.9h-.46v-6h.46Z"/><path d="M57.22,51.29a1.82,1.82,0,0,1-1-.26,1.94,1.94,0,0,1-.68-.74,2.34,2.34,0,0,1-.24-1.07v-.16a2.44,2.44,0,0,1,.24-1.1,1.91,1.91,0,0,1,.66-.77,1.58,1.58,0,0,1,.91-.28,1.53,1.53,0,0,1,1.22.53,2.11,2.11,0,0,1,.45,1.43v.26h-3v.09a1.75,1.75,0,0,0,.41,1.2,1.3,1.3,0,0,0,1,.48,1.53,1.53,0,0,0,.66-.14,1.41,1.41,0,0,0,.52-.44l.29.23A1.71,1.71,0,0,1,57.22,51.29Zm-.09-4a1.17,1.17,0,0,0-.89.39,1.74,1.74,0,0,0-.44,1h2.54v0a1.6,1.6,0,0,0-.35-1A1.1,1.1,0,0,0,57.13,47.31Z"/><path d="M64.19,50.14a.66.66,0,0,0-.28-.56,2.22,2.22,0,0,0-.84-.33A3.76,3.76,0,0,1,62.2,49a1.14,1.14,0,0,1-.47-.38,1,1,0,0,1-.15-.54,1,1,0,0,1,.42-.82,1.69,1.69,0,0,1,1.07-.33,1.78,1.78,0,0,1,1.14.35,1.13,1.13,0,0,1,.42.91h-.46a.75.75,0,0,0-.31-.61,1.21,1.21,0,0,0-.79-.25,1.29,1.29,0,0,0-.74.2.66.66,0,0,0-.28.54.58.58,0,0,0,.24.49,2.56,2.56,0,0,0,.84.32,4.1,4.1,0,0,1,.92.3,1.22,1.22,0,0,1,.46.4,1,1,0,0,1,.15.56,1,1,0,0,1-.43.85,1.82,1.82,0,0,1-1.13.32,2,2,0,0,1-1.2-.35,1.12,1.12,0,0,1-.46-.91h.47a.82.82,0,0,0,.35.64,1.42,1.42,0,0,0,.84.23,1.28,1.28,0,0,0,.79-.22A.63.63,0,0,0,64.19,50.14Z"/><path d="M68.38,51.22a2,2,0,0,1-.09-.59,1.79,1.79,0,0,1-.63.49,1.84,1.84,0,0,1-.81.17,1.39,1.39,0,0,1-1-.34,1.1,1.1,0,0,1-.38-.86,1.12,1.12,0,0,1,.51-1,2.49,2.49,0,0,1,1.44-.36h.84v-.48a.94.94,0,0,0-.28-.72,1.14,1.14,0,0,0-.81-.25,1.24,1.24,0,0,0-.81.25.73.73,0,0,0-.32.6h-.47a1.1,1.1,0,0,1,.47-.87,1.78,1.78,0,0,1,1.15-.37,1.69,1.69,0,0,1,1.12.35,1.3,1.3,0,0,1,.42,1v2a2.39,2.39,0,0,0,.13.92v0Zm-1.47-.34a1.6,1.6,0,0,0,.84-.23,1.34,1.34,0,0,0,.53-.6v-.93h-.83a2.13,2.13,0,0,0-1.1.25.8.8,0,0,0-.13,1.28A1,1,0,0,0,66.91,50.88Z"/><path d="M70.42,47l0,.69A1.54,1.54,0,0,1,71,47.1a1.61,1.61,0,0,1,.78-.19,1.18,1.18,0,0,1,1.27.82,1.7,1.7,0,0,1,.61-.61,1.68,1.68,0,0,1,.83-.21c.91,0,1.37.5,1.39,1.49v2.82h-.47V48.43a1.24,1.24,0,0,0-.24-.84,1,1,0,0,0-.79-.27,1.23,1.23,0,0,0-.85.32,1.14,1.14,0,0,0-.38.78v2.8H72.7V48.4a1.2,1.2,0,0,0-.26-.82,1,1,0,0,0-.77-.26,1.16,1.16,0,0,0-.76.25,1.49,1.49,0,0,0-.47.75v2.9H70V47Z"/><path d="M78.72,51.29a1.79,1.79,0,0,1-1-.26,1.87,1.87,0,0,1-.68-.74,2.34,2.34,0,0,1-.24-1.07v-.16a2.43,2.43,0,0,1,.23-1.1,1.91,1.91,0,0,1,.66-.77,1.6,1.6,0,0,1,.91-.28,1.55,1.55,0,0,1,1.23.53,2.11,2.11,0,0,1,.45,1.43v.26h-3v.09a1.8,1.8,0,0,0,.41,1.2,1.32,1.32,0,0,0,1,.48,1.53,1.53,0,0,0,.66-.14,1.34,1.34,0,0,0,.52-.44l.3.23A1.72,1.72,0,0,1,78.72,51.29Zm-.09-4a1.15,1.15,0,0,0-.88.39,1.74,1.74,0,0,0-.44,1h2.53v0a1.55,1.55,0,0,0-.35-1A1.07,1.07,0,0,0,78.63,47.31Z"/><path d="M3.74,58.64A2.46,2.46,0,0,1,4,57.54a1.84,1.84,0,0,1,.67-.76,1.8,1.8,0,0,1,1-.27A1.76,1.76,0,0,1,7,57.1a2.29,2.29,0,0,1,.52,1.57v.1a2.44,2.44,0,0,1-.24,1.1,1.75,1.75,0,0,1-.66.76,1.82,1.82,0,0,1-1,.26,1.73,1.73,0,0,1-1.37-.59,2.27,2.27,0,0,1-.52-1.57Zm.47.13A1.92,1.92,0,0,0,4.6,60a1.24,1.24,0,0,0,1,.49,1.23,1.23,0,0,0,1-.49A2,2,0,0,0,7,58.73v-.09a2.35,2.35,0,0,0-.17-.89,1.43,1.43,0,0,0-.51-.62,1.24,1.24,0,0,0-.74-.22,1.23,1.23,0,0,0-1,.49,2,2,0,0,0-.39,1.28Z"/><path d="M11.19,60.28a1.51,1.51,0,0,1-1.34.61,1.31,1.31,0,0,1-1-.39,1.66,1.66,0,0,1-.36-1.16V56.59h.46v2.69c0,.8.33,1.21,1,1.21a1.2,1.2,0,0,0,1.29-.84V56.59h.46v4.23H11.2Z"/><path d="M13.6,55.51v1.08h.87V57H13.6v2.82a.94.94,0,0,0,.12.53.52.52,0,0,0,.43.17l.38,0v.38a1.61,1.61,0,0,1-.5.06.8.8,0,0,1-.69-.28,1.27,1.27,0,0,1-.22-.82V57h-.78v-.38h.78V55.51Z"/><path d="M18.84,58.75a2.53,2.53,0,0,1-.44,1.56,1.38,1.38,0,0,1-1.17.58,1.56,1.56,0,0,1-1.33-.61v2.16h-.46V56.59h.43l0,.6a1.52,1.52,0,0,1,1.33-.68,1.42,1.42,0,0,1,1.19.57,2.69,2.69,0,0,1,.43,1.6Zm-.47-.09A2.15,2.15,0,0,0,18,57.39a1.06,1.06,0,0,0-.93-.47,1.36,1.36,0,0,0-.74.2,1.34,1.34,0,0,0-.47.61v2a1.21,1.21,0,0,0,.48.56,1.38,1.38,0,0,0,.74.19A1.07,1.07,0,0,0,18,60,2.39,2.39,0,0,0,18.37,58.66Z"/><path d="M22.59,60.28a1.51,1.51,0,0,1-1.35.61,1.29,1.29,0,0,1-1-.39,1.66,1.66,0,0,1-.36-1.16V56.59h.46v2.69c0,.8.33,1.21,1,1.21a1.19,1.19,0,0,0,1.28-.84V56.59h.47v4.23H22.6Z"/><path d="M25,55.51v1.08h.88V57H25v2.82a.94.94,0,0,0,.13.53.51.51,0,0,0,.42.17l.38,0,0,.38a1.66,1.66,0,0,1-.5.06.83.83,0,0,1-.7-.28,1.34,1.34,0,0,1-.21-.82V57h-.78v-.38h.78V55.51Z"/><path d="M29.12,60.82V57h-.7v-.38h.7v-.51a1.4,1.4,0,0,1,.33-1,1.22,1.22,0,0,1,.92-.35,2,2,0,0,1,.5.07l0,.39a1.88,1.88,0,0,0-.43,0,.78.78,0,0,0-.6.24,1,1,0,0,0-.21.68v.53h1V57h-1v3.85Z"/><path d="M31.17,58.64a2.47,2.47,0,0,1,.24-1.1,1.84,1.84,0,0,1,.67-.76,1.8,1.8,0,0,1,1-.27,1.74,1.74,0,0,1,1.36.59A2.29,2.29,0,0,1,35,58.67v.1a2.44,2.44,0,0,1-.24,1.1,1.75,1.75,0,0,1-1.65,1,1.71,1.71,0,0,1-1.36-.59,2.28,2.28,0,0,1-.53-1.57Zm.47.13A1.87,1.87,0,0,0,32,60a1.32,1.32,0,0,0,2.05,0,2,2,0,0,0,.39-1.28v-.09a2.18,2.18,0,0,0-.18-.89,1.41,1.41,0,0,0-.5-.62,1.26,1.26,0,0,0-.74-.22,1.23,1.23,0,0,0-1,.49,1.94,1.94,0,0,0-.4,1.28Z"/><path d="M37.87,57a1.66,1.66,0,0,0-.32,0,1.15,1.15,0,0,0-.74.24,1.34,1.34,0,0,0-.43.71v2.91h-.47V56.59h.46v.67a1.23,1.23,0,0,1,1.19-.75.87.87,0,0,1,.31.05Z"/><path d="M41.28,55.51v1.08h.87V57h-.87v2.82a.94.94,0,0,0,.12.53.52.52,0,0,0,.43.17l.38,0v.38a1.61,1.61,0,0,1-.5.06.8.8,0,0,1-.69-.28,1.27,1.27,0,0,1-.22-.82V57H40v-.38h.78V55.51Z"/><path d="M43.58,57.3a1.72,1.72,0,0,1,.59-.58,1.56,1.56,0,0,1,.79-.21,1.28,1.28,0,0,1,1,.38A1.79,1.79,0,0,1,46.31,58v2.78h-.47V58a1.29,1.29,0,0,0-.24-.85,1,1,0,0,0-.75-.27,1.19,1.19,0,0,0-.77.27,1.62,1.62,0,0,0-.5.73v2.9h-.46v-6h.46Z"/><path d="M49.15,60.89a1.82,1.82,0,0,1-1-.26,1.94,1.94,0,0,1-.68-.74,2.34,2.34,0,0,1-.24-1.07v-.16a2.44,2.44,0,0,1,.24-1.1,1.91,1.91,0,0,1,.66-.77,1.58,1.58,0,0,1,.91-.28,1.53,1.53,0,0,1,1.22.53,2.11,2.11,0,0,1,.45,1.43v.26h-3v.09a1.75,1.75,0,0,0,.41,1.2,1.3,1.3,0,0,0,1,.48,1.53,1.53,0,0,0,.66-.14,1.41,1.41,0,0,0,.52-.44l.29.23A1.68,1.68,0,0,1,49.15,60.89Zm-.09-4a1.17,1.17,0,0,0-.89.39,1.74,1.74,0,0,0-.44,1h2.54v0a1.6,1.6,0,0,0-.35-1A1.1,1.1,0,0,0,49.06,56.91Z"/><path d="M56.12,59.74a.66.66,0,0,0-.28-.56,2.22,2.22,0,0,0-.84-.33,3.76,3.76,0,0,1-.87-.27,1.14,1.14,0,0,1-.47-.38,1,1,0,0,1-.15-.54,1,1,0,0,1,.42-.82A1.69,1.69,0,0,1,55,56.51a1.78,1.78,0,0,1,1.14.35,1.13,1.13,0,0,1,.42.91H56.1a.75.75,0,0,0-.31-.61,1.21,1.21,0,0,0-.79-.25,1.27,1.27,0,0,0-.74.2.66.66,0,0,0-.28.54.59.59,0,0,0,.23.49,2.74,2.74,0,0,0,.85.32,4.1,4.1,0,0,1,.92.3,1.22,1.22,0,0,1,.46.4,1,1,0,0,1,.15.56,1,1,0,0,1-.43.85,1.82,1.82,0,0,1-1.13.32,2,2,0,0,1-1.2-.35,1.12,1.12,0,0,1-.46-.91h.47a.82.82,0,0,0,.35.64,1.42,1.42,0,0,0,.84.23,1.3,1.3,0,0,0,.79-.22A.63.63,0,0,0,56.12,59.74Z"/><path d="M60.31,60.82a2,2,0,0,1-.09-.59,1.79,1.79,0,0,1-.63.49,1.84,1.84,0,0,1-.81.17,1.39,1.39,0,0,1-1-.34,1.1,1.1,0,0,1-.38-.86,1.12,1.12,0,0,1,.51-1,2.49,2.49,0,0,1,1.44-.36h.84v-.48a.91.91,0,0,0-.28-.71,1.1,1.1,0,0,0-.81-.26,1.24,1.24,0,0,0-.81.25.73.73,0,0,0-.32.6h-.47a1.1,1.1,0,0,1,.47-.87,1.78,1.78,0,0,1,1.15-.37,1.69,1.69,0,0,1,1.12.35,1.3,1.3,0,0,1,.42,1v2a2.39,2.39,0,0,0,.13.92v0Zm-1.47-.34a1.6,1.6,0,0,0,.84-.23,1.34,1.34,0,0,0,.53-.6v-.93h-.83a2.13,2.13,0,0,0-1.1.25.8.8,0,0,0-.13,1.28A1,1,0,0,0,58.84,60.48Z"/><path d="M62.35,56.59l0,.69A1.54,1.54,0,0,1,63,56.7a1.61,1.61,0,0,1,.78-.19,1.18,1.18,0,0,1,1.27.82,1.62,1.62,0,0,1,.61-.61,1.68,1.68,0,0,1,.83-.21c.91,0,1.37.5,1.39,1.49v2.82h-.47V58a1.24,1.24,0,0,0-.24-.84,1,1,0,0,0-.79-.27,1.23,1.23,0,0,0-.85.32,1.14,1.14,0,0,0-.38.78v2.8h-.47V58a1.2,1.2,0,0,0-.26-.82,1.05,1.05,0,0,0-.77-.26,1.16,1.16,0,0,0-.76.25,1.49,1.49,0,0,0-.47.75v2.9H61.9V56.59Z"/><path d="M70.65,60.89a1.79,1.79,0,0,1-1-.26,1.87,1.87,0,0,1-.68-.74,2.34,2.34,0,0,1-.24-1.07v-.16a2.43,2.43,0,0,1,.23-1.1,1.91,1.91,0,0,1,.66-.77,1.6,1.6,0,0,1,.91-.28,1.55,1.55,0,0,1,1.23.53,2.11,2.11,0,0,1,.45,1.43v.26h-3v.09a1.8,1.8,0,0,0,.41,1.2,1.32,1.32,0,0,0,1,.48,1.53,1.53,0,0,0,.66-.14,1.34,1.34,0,0,0,.52-.44l.3.23A1.71,1.71,0,0,1,70.65,60.89Zm-.09-4a1.15,1.15,0,0,0-.88.39,1.74,1.74,0,0,0-.44,1h2.53v0a1.55,1.55,0,0,0-.35-1A1.07,1.07,0,0,0,70.56,56.91Z"/><path d="M4,65a.38.38,0,0,1,.08-.23.32.32,0,0,1,.24-.09.3.3,0,0,1,.23.09.33.33,0,0,1,.09.23.29.29,0,0,1-.09.22.3.3,0,0,1-.23.09.32.32,0,0,1-.24-.09A.33.33,0,0,1,4,65Zm.55,5.45H4.05V66.19h.47Z"/><path d="M6.23,66.19l0,.72a1.59,1.59,0,0,1,.59-.59,1.53,1.53,0,0,1,.79-.21,1.28,1.28,0,0,1,1,.38A1.73,1.73,0,0,1,9,67.64v2.78H8.51V67.64a1.29,1.29,0,0,0-.24-.85,1,1,0,0,0-.76-.27,1.16,1.16,0,0,0-.76.27,1.54,1.54,0,0,0-.5.73v2.9H5.79V66.19Z"/><path d="M13.58,68.34a2.55,2.55,0,0,1-.44,1.57,1.38,1.38,0,0,1-1.17.58,1.56,1.56,0,0,1-1.33-.61V72h-.46V66.19h.43l0,.6A1.52,1.52,0,0,1,12,66.11a1.42,1.42,0,0,1,1.19.57,2.62,2.62,0,0,1,.43,1.6Zm-.47-.08A2.15,2.15,0,0,0,12.78,67a1.06,1.06,0,0,0-.93-.47,1.33,1.33,0,0,0-.73.2,1.29,1.29,0,0,0-.48.61v2a1.26,1.26,0,0,0,.48.56,1.48,1.48,0,0,0,.74.19,1.07,1.07,0,0,0,.92-.47A2.39,2.39,0,0,0,13.11,68.26Z"/><path d="M17.33,69.88a1.51,1.51,0,0,1-1.34.61,1.31,1.31,0,0,1-1-.39,1.66,1.66,0,0,1-.36-1.16V66.19h.46v2.69c0,.8.33,1.21,1,1.21a1.2,1.2,0,0,0,1.29-.84V66.19h.46v4.23h-.45Z"/><path d="M19.74,65.11v1.08h.87v.38h-.87v2.82a.94.94,0,0,0,.12.53.52.52,0,0,0,.43.17l.38,0,0,.38a1.7,1.7,0,0,1-.5.06.82.82,0,0,1-.7-.28,1.27,1.27,0,0,1-.22-.82V66.57h-.78v-.38h.78V65.11Z"/></svg>