<svg id="Layer_1" data-name="Layer 1" xmlns="http://www.w3.org/2000/svg" viewBox="0 0 478 117"><defs><style>.cls-1{fill:none;stroke:#000;stroke-miterlimit:10;}</style></defs><title>exp</title><rect class="cls-1" x="291.73" y="47.27" width="91.25" height="63.48"/><line class="cls-1" x1="292.45" y1="111.22" x2="263.71" y2="86.79"/><line class="cls-1" x1="292.45" y1="47.99" x2="263.71" y2="25"/><line class="cls-1" x1="382.98" y1="47.99" x2="355.68" y2="25"/><line class="cls-1" x1="263.71" y1="25" x2="355.68" y2="25"/><path d="M317.91,75.31a4.07,4.07,0,0,1,.89,3v4.19h-1.34v-1.2a2.75,2.75,0,0,1-2.69,1.39,3.26,3.26,0,0,1-2.06-.59A2,2,0,0,1,312,80.5a2.14,2.14,0,0,1,.54-1.45,3.44,3.44,0,0,1,1.44-1,5.73,5.73,0,0,1,2-.33,13.81,13.81,0,0,1,1.78.1A2.8,2.8,0,0,0,317,76a2.57,2.57,0,0,0-1.77-.54,2.92,2.92,0,0,0-1.13.22,3.18,3.18,0,0,0-1,.66l-.61-.8a3.85,3.85,0,0,1,2.82-1.1A3.48,3.48,0,0,1,317.91,75.31Zm-1,5.66a3.17,3.17,0,0,0,.82-2.16,11.06,11.06,0,0,0-1.68-.12,4.19,4.19,0,0,0-2.07.43,1.42,1.42,0,0,0-.76,1.31q0,1.29,1.68,1.29A2.69,2.69,0,0,0,316.9,81Z"/><path d="M322.2,82.18A3.41,3.41,0,0,1,321,80.76a5.18,5.18,0,0,1-.46-2.3,4.86,4.86,0,0,1,.48-2.27,3.29,3.29,0,0,1,1.24-1.36,3.19,3.19,0,0,1,1.6-.44,2.62,2.62,0,0,1,1.39.37,2.32,2.32,0,0,1,.91,1V71h1.31v.12a.46.46,0,0,0-.13.22,1.94,1.94,0,0,0,0,.41l0,9.49a6.39,6.39,0,0,0,0,.68,1.54,1.54,0,0,0,.14.54h-1.22a1.82,1.82,0,0,1-.15-.54,6.75,6.75,0,0,1,0-.68,2.83,2.83,0,0,1-1,1,2.43,2.43,0,0,1-1.33.38A2.85,2.85,0,0,1,322.2,82.18Zm3.34-1.46a4.25,4.25,0,0,0,.5-2.22,4.1,4.1,0,0,0-.54-2.24,1.79,1.79,0,0,0-1.63-.85,1.85,1.85,0,0,0-1.59.77,3.57,3.57,0,0,0-.55,2.09,4.4,4.4,0,0,0,.58,2.41,1.88,1.88,0,0,0,1.66.89A1.67,1.67,0,0,0,325.54,80.72Z"/><path d="M330.82,82.18a3.49,3.49,0,0,1-1.21-1.42,5.18,5.18,0,0,1-.46-2.3,4.86,4.86,0,0,1,.48-2.27,3.36,3.36,0,0,1,1.24-1.36,3.2,3.2,0,0,1,1.61-.44,2.61,2.61,0,0,1,1.38.37,2.32,2.32,0,0,1,.91,1V71h1.31v.12a.46.46,0,0,0-.13.22,1.94,1.94,0,0,0,0,.41l0,9.49a6.39,6.39,0,0,0,0,.68,1.8,1.8,0,0,0,.14.54h-1.22a1.82,1.82,0,0,1-.15-.54c0-.18,0-.41,0-.68a2.83,2.83,0,0,1-1,1,2.43,2.43,0,0,1-1.33.38A2.85,2.85,0,0,1,330.82,82.18Zm3.35-1.46a4.34,4.34,0,0,0,.5-2.22,4,4,0,0,0-.55-2.24,1.79,1.79,0,0,0-1.63-.85,1.82,1.82,0,0,0-1.58.77,3.5,3.5,0,0,0-.56,2.09,4.4,4.4,0,0,0,.58,2.41,1.88,1.88,0,0,0,1.67.89A1.69,1.69,0,0,0,334.17,80.72Z"/><path d="M338.46,81.24a7,7,0,0,1-1-4.07,7,7,0,0,1,1-4,3.47,3.47,0,0,1,5.67,0,7,7,0,0,1,1,4,7,7,0,0,1-1,4.07,3.55,3.55,0,0,1-5.69,0Zm4.77-.78a8.15,8.15,0,0,0,0-6.54,2.13,2.13,0,0,0-3.83,0,8.15,8.15,0,0,0,0,6.54,2.18,2.18,0,0,0,3.85,0Z"/><path d="M346.86,74.6h1.2V76a3.84,3.84,0,0,1,1.18-1.16,2.89,2.89,0,0,1,1.5-.43,2,2,0,0,1,1.68.8,4.05,4.05,0,0,1,.63,2.5v4.77h-1.21V77.74a2.87,2.87,0,0,0-.4-1.71,1.25,1.25,0,0,0-1.05-.53,2.17,2.17,0,0,0-1.08.31,2.55,2.55,0,0,0-.89.87,2.3,2.3,0,0,0-.36,1.27v4.53h-1.2Z"/><path d="M356.13,81.59a4.14,4.14,0,0,1-1.05-3,4.78,4.78,0,0,1,.49-2.24,3.48,3.48,0,0,1,1.3-1.43,3.55,3.55,0,0,1,1.83-.49,3,3,0,0,1,2.32,1,3.9,3.9,0,0,1,.89,2.79q0,.19,0,.57h-5.61a3.22,3.22,0,0,0,.81,2.19,2.53,2.53,0,0,0,1.88.74,2.64,2.64,0,0,0,2-.87l.69.67a3.41,3.41,0,0,1-2.76,1.21A3.74,3.74,0,0,1,356.13,81.59Zm4.52-3.83a2.54,2.54,0,0,0-.56-1.75,1.85,1.85,0,0,0-1.47-.65,2.1,2.1,0,0,0-1.5.6,2.93,2.93,0,0,0-.8,1.8Z"/><line class="cls-1" x1="268.02" y1="65.24" x2="268.02" y2="53.74"/><line class="cls-1" x1="287.5" y1="64.5" x2="268.02" y2="53.74"/><line class="cls-1" x1="287.39" y1="74.42" x2="287.39" y2="64.36"/><line class="cls-1" x1="268.02" y1="65.24" x2="287.5" y2="74.5"/><line class="cls-1" x1="268.02" y1="65.24" x2="235.68" y2="65.24"/><line class="cls-1" x1="288" y1="74.5" x2="246.52" y2="74.36"/><line class="cls-1" x1="234.97" y1="65.24" x2="246.5" y2="74.5"/><line class="cls-1" x1="263.71" y1="25" x2="263.71" y2="65.24"/><line class="cls-1" x1="263.5" y1="75" x2="263.71" y2="86.79"/><line class="cls-1" x1="382.5" y1="74.5" x2="414" y2="74.5"/><line class="cls-1" x1="382.98" y1="65.24" x2="400.16" y2="65.67"/><line class="cls-1" x1="413.5" y1="74.5" x2="400.16" y2="65.67"/><path d="M254.3,70.38a1.62,1.62,0,0,1,.33,1,2,2,0,0,1-.23.94,1.72,1.72,0,0,1-.66.68,2,2,0,0,1-1,.25,2.4,2.4,0,0,1-1-.19,2.06,2.06,0,0,1-.79-.54l.47-.56v0a2.45,2.45,0,0,0,.53.5,1.36,1.36,0,0,0,.71.17,1.13,1.13,0,0,0,.9-.35,1.32,1.32,0,0,0,.31-.93,1.17,1.17,0,0,0-.39-1,1.65,1.65,0,0,0-1.08-.31,2.33,2.33,0,0,0-.33,0v-.58a1.73,1.73,0,0,0,1.25-.34,1.25,1.25,0,0,0,.33-.92.93.93,0,0,0-.25-.69.9.9,0,0,0-.66-.26,1.66,1.66,0,0,0-1.17.47l-.43-.43a2.1,2.1,0,0,1,1.59-.65,1.64,1.64,0,0,1,1.21.43,1.72,1.72,0,0,1,.19,2.07,1.38,1.38,0,0,1-.75.55A1.85,1.85,0,0,1,254.3,70.38Zm-2.88,1.55,0,0,0,0S251.4,71.92,251.42,71.93Zm.1.06a.09.09,0,0,1-.07,0l0,0,.06,0A0,0,0,0,1,251.52,72Z"/><path d="M257,70l8.48,0c.29,0,.53-.43.26-.64-1-.74-1.93-1.45-2.94-2.14-.4-.27-.77.38-.38.65,1,.65,1.88,1.32,2.79,2l.27-.64-8.48,0a.38.38,0,0,0,0,.75Z"/><path d="M264.73,69.72c-.51.6-1.05,1.18-1.61,1.73-.35.34.18.87.53.53.56-.55,1.1-1.13,1.61-1.73.31-.37-.22-.9-.53-.53Z"/><path d="M395.89,72.07V70.84h-2.17v-.41L396,67.06h.47v3.32h.65v.47h-.65v1.22Zm-1.52-1.7h1.52v-2.3Z"/><path d="M52.72,38a2.86,2.86,0,0,1,.62,2.07V43H52.4v-.84a1.9,1.9,0,0,1-1.87,1,2.27,2.27,0,0,1-1.43-.41,1.35,1.35,0,0,1-.51-1.1,1.5,1.5,0,0,1,.37-1A2.31,2.31,0,0,1,50,40a3.86,3.86,0,0,1,1.39-.24,11.21,11.21,0,0,1,1.23.07,1.91,1.91,0,0,0-.48-1.3,1.79,1.79,0,0,0-1.23-.38,2.14,2.14,0,0,0-.79.16,2.19,2.19,0,0,0-.69.46L49,38.16a2.66,2.66,0,0,1,2-.76A2.43,2.43,0,0,1,52.72,38ZM52,42a2.23,2.23,0,0,0,.56-1.51,8.34,8.34,0,0,0-1.16-.08,2.91,2.91,0,0,0-1.44.3,1,1,0,0,0-.53.91q0,.9,1.17.9A1.86,1.86,0,0,0,52,42Z"/><path d="M55.7,42.79a2.44,2.44,0,0,1-.84-1,3.68,3.68,0,0,1-.32-1.6,3.27,3.27,0,0,1,.34-1.58,2.26,2.26,0,0,1,.86-.94,2.13,2.13,0,0,1,1.12-.31,1.88,1.88,0,0,1,1,.25,1.58,1.58,0,0,1,.63.7V35h.91v.08a.51.51,0,0,0-.09.16,2.11,2.11,0,0,0,0,.29v6.6a3.18,3.18,0,0,0,0,.47,1.07,1.07,0,0,0,.1.38h-.85a1.36,1.36,0,0,1-.11-.38c0-.12,0-.28,0-.47a2.11,2.11,0,0,1-.68.71,1.76,1.76,0,0,1-.93.26A2.05,2.05,0,0,1,55.7,42.79Zm2.33-1a3.07,3.07,0,0,0,.35-1.55A2.86,2.86,0,0,0,58,38.67a1.26,1.26,0,0,0-1.13-.59,1.3,1.3,0,0,0-1.11.53,2.53,2.53,0,0,0-.38,1.46,3,3,0,0,0,.4,1.68,1.31,1.31,0,0,0,1.16.61A1.17,1.17,0,0,0,58,41.78Z"/><path d="M61.7,42.79a2.44,2.44,0,0,1-.84-1,3.68,3.68,0,0,1-.32-1.6,3.27,3.27,0,0,1,.34-1.58,2.26,2.26,0,0,1,.86-.94,2.13,2.13,0,0,1,1.12-.31,1.88,1.88,0,0,1,1,.25,1.58,1.58,0,0,1,.63.7V35h.91v.08a.51.51,0,0,0-.09.16,2.11,2.11,0,0,0,0,.29v6.6a3.18,3.18,0,0,0,0,.47,1.07,1.07,0,0,0,.1.38h-.85a1.36,1.36,0,0,1-.11-.38c0-.12,0-.28,0-.47a2.11,2.11,0,0,1-.68.71,1.76,1.76,0,0,1-.93.26A2.05,2.05,0,0,1,61.7,42.79Zm2.33-1a3.07,3.07,0,0,0,.35-1.55A2.86,2.86,0,0,0,64,38.67a1.26,1.26,0,0,0-1.13-.59,1.3,1.3,0,0,0-1.11.53,2.53,2.53,0,0,0-.38,1.46,3,3,0,0,0,.4,1.68,1.31,1.31,0,0,0,1.16.61A1.17,1.17,0,0,0,64,41.78Z"/><path d="M67,42.14a5,5,0,0,1-.7-2.84A4.85,4.85,0,0,1,67,36.5a2.41,2.41,0,0,1,3.94,0,4.85,4.85,0,0,1,.71,2.8,5,5,0,0,1-.7,2.84,2.48,2.48,0,0,1-4,0Zm3.32-.54a4.65,4.65,0,0,0,.47-2.3A4.54,4.54,0,0,0,70.33,37a1.48,1.48,0,0,0-2.66,0,4.54,4.54,0,0,0-.48,2.26,4.65,4.65,0,0,0,.47,2.3,1.52,1.52,0,0,0,2.68,0Z"/><path d="M72.86,37.52h.84v1a2.54,2.54,0,0,1,.82-.81,2,2,0,0,1,1-.3,1.41,1.41,0,0,1,1.17.56,2.75,2.75,0,0,1,.44,1.74V43h-.84V39.7a2.07,2.07,0,0,0-.27-1.19.87.87,0,0,0-.74-.37,1.49,1.49,0,0,0-.75.22A1.69,1.69,0,0,0,74,39a1.67,1.67,0,0,0-.25.88V43h-.84Z"/><path d="M79.31,42.38a2.91,2.91,0,0,1-.72-2.1,3.45,3.45,0,0,1,.33-1.56,2.41,2.41,0,0,1,2.19-1.34,2.1,2.1,0,0,1,1.61.66,2.77,2.77,0,0,1,.62,2c0,.09,0,.22,0,.39h-3.9A2.25,2.25,0,0,0,80,41.91a1.78,1.78,0,0,0,1.31.51,1.8,1.8,0,0,0,1.41-.61l.48.47a2.35,2.35,0,0,1-1.92.84A2.64,2.64,0,0,1,79.31,42.38Zm3.15-2.67a1.81,1.81,0,0,0-.39-1.22,1.29,1.29,0,0,0-1-.45,1.49,1.49,0,0,0-1,.42,2,2,0,0,0-.55,1.25Z"/><path d="M94.74,39.74A1.85,1.85,0,0,1,95.12,41a2.29,2.29,0,0,1-.26,1.1,2,2,0,0,1-.77.79,2.41,2.41,0,0,1-1.21.29,3,3,0,0,1-1.13-.21,2.5,2.5,0,0,1-.92-.64l.55-.66h0a2.61,2.61,0,0,0,.62.59,1.56,1.56,0,0,0,.82.2A1.31,1.31,0,0,0,93.9,42a1.58,1.58,0,0,0,.36-1.09,1.35,1.35,0,0,0-.45-1.11,1.92,1.92,0,0,0-1.27-.38l-.38,0v-.67a2.07,2.07,0,0,0,1.46-.4A1.46,1.46,0,0,0,94,37.3a1.07,1.07,0,0,0-.3-.8,1,1,0,0,0-.77-.3,1.93,1.93,0,0,0-1.37.55l-.5-.51a2.47,2.47,0,0,1,1.86-.76,2,2,0,0,1,1.42.51,1.79,1.79,0,0,1,.52,1.35,1.88,1.88,0,0,1-.3,1.06,1.55,1.55,0,0,1-.87.64A2.14,2.14,0,0,1,94.74,39.74Zm-3.37,1.81,0,0,0,0C91.36,41.55,91.35,41.53,91.37,41.55Zm.12.06a.09.09,0,0,1-.07,0l0-.06.06.06S91.51,41.62,91.49,41.61Z"/><path d="M86.82,67V65.16H83.58v-.61l3.42-5h.7v5h1v.71h-1V67Zm-2.27-2.54h2.27V61Z"/><path d="M56.32,53c.19,3-.19,10.79,3.06,12.45,1.84.93,4.72.06,6.65-.11l9.8-.85c1.91-.16,1.93-3.16,0-3l-11.76,1c-2.37.2-3.15.35-3.91-2s-.69-5.1-.84-7.5c-.12-1.92-3.12-1.93-3,0Z"/><path d="M66.16,57a20.52,20.52,0,0,0,9.91,5.86l-.66-2.51A38.54,38.54,0,0,0,69.17,67c-1.16,1.55,1.45,3,2.59,1.52a35.17,35.17,0,0,1,5.77-6.05,1.51,1.51,0,0,0-.66-2.5,17.56,17.56,0,0,1-8.59-5.09C67,53.48,64.84,55.6,66.16,57Z"/><path d="M13.87,9.08H10.94V17h-.72V9.08H7.3V8.47h6.57Z"/><path d="M15.78,11.73a2.47,2.47,0,0,1,.88-.88,2.39,2.39,0,0,1,1.18-.31,1.88,1.88,0,0,1,1.52.58,2.56,2.56,0,0,1,.5,1.72V17h-.7V12.83a1.89,1.89,0,0,0-.36-1.26,1.39,1.39,0,0,0-1.13-.42,1.78,1.78,0,0,0-1.15.41,2.34,2.34,0,0,0-.74,1.1V17h-.7V8h.7Z"/><path d="M24.12,17.12a2.78,2.78,0,0,1-1.46-.4,2.73,2.73,0,0,1-1-1.11,3.52,3.52,0,0,1-.36-1.6v-.25a3.84,3.84,0,0,1,.35-1.65,2.93,2.93,0,0,1,1-1.15A2.43,2.43,0,0,1,24,10.54a2.3,2.3,0,0,1,1.83.79,3.2,3.2,0,0,1,.68,2.15v.4H22V14a2.67,2.67,0,0,0,.61,1.8,2,2,0,0,0,1.56.72,2.19,2.19,0,0,0,1-.21,2.31,2.31,0,0,0,.79-.66l.44.34A2.59,2.59,0,0,1,24.12,17.12Zm-.13-6a1.73,1.73,0,0,0-1.33.58A2.72,2.72,0,0,0,22,13.28h3.8V13.2a2.34,2.34,0,0,0-.52-1.49A1.63,1.63,0,0,0,24,11.14Z"/><path d="M31.29,17V11.23H30.24v-.57h1.05V9.89a2.08,2.08,0,0,1,.49-1.49,1.8,1.8,0,0,1,1.38-.52,2.57,2.57,0,0,1,.75.1l-.06.58a2.51,2.51,0,0,0-.64-.07,1.16,1.16,0,0,0-.9.36,1.5,1.5,0,0,0-.32,1v.79H33.5v.57H32V17Z"/><path d="M38.83,16.2a2.28,2.28,0,0,1-2,.92,2,2,0,0,1-1.54-.59,2.6,2.6,0,0,1-.54-1.74V10.66h.7v4c0,1.2.49,1.81,1.46,1.81a1.8,1.8,0,0,0,1.93-1.26V10.66h.71V17h-.68Z"/><path d="M42,10.66l0,1.08a2.53,2.53,0,0,1,.89-.89,2.39,2.39,0,0,1,1.18-.31,1.9,1.9,0,0,1,1.52.58,2.56,2.56,0,0,1,.5,1.72V17h-.7V12.83a1.89,1.89,0,0,0-.36-1.26,1.4,1.4,0,0,0-1.13-.42,1.76,1.76,0,0,0-1.15.41,2.43,2.43,0,0,0-.75,1.1V17h-.69V10.66Z"/><path d="M50.28,16.53a1.84,1.84,0,0,0,1.23-.42A1.45,1.45,0,0,0,52.05,15h.67a2,2,0,0,1-.36,1.06,2.33,2.33,0,0,1-.89.75,2.66,2.66,0,0,1-1.19.27,2.42,2.42,0,0,1-2-.87,3.5,3.5,0,0,1-.73-2.33v-.21a4.1,4.1,0,0,1,.32-1.66,2.51,2.51,0,0,1,2.38-1.51,2.47,2.47,0,0,1,1.72.62,2.28,2.28,0,0,1,.72,1.64h-.67a1.69,1.69,0,0,0-.54-1.2,1.72,1.72,0,0,0-1.23-.46,1.75,1.75,0,0,0-1.48.69,3.07,3.07,0,0,0-.52,1.92V14a3.06,3.06,0,0,0,.52,1.9A1.78,1.78,0,0,0,50.28,16.53Z"/><path d="M55.21,9v1.62h1.31v.57H55.21v4.23a1.3,1.3,0,0,0,.19.79.75.75,0,0,0,.64.26,4.54,4.54,0,0,0,.57-.06l0,.57a2.42,2.42,0,0,1-.75.1,1.22,1.22,0,0,1-1-.42,2,2,0,0,1-.33-1.24V11.23H53.34v-.57h1.17V9Z"/><path d="M57.94,8.83a.52.52,0,0,1,.12-.34.48.48,0,0,1,.36-.13.48.48,0,0,1,.35.13.48.48,0,0,1,.13.34.44.44,0,0,1-.13.33.48.48,0,0,1-.35.13.43.43,0,0,1-.48-.46ZM58.76,17h-.7V10.66h.7Z"/><path d="M60.28,13.74a3.84,3.84,0,0,1,.35-1.65,2.67,2.67,0,0,1,1-1.14,2.7,2.7,0,0,1,1.46-.41,2.6,2.6,0,0,1,2.05.89,3.39,3.39,0,0,1,.79,2.35v.15a3.7,3.7,0,0,1-.36,1.65,2.57,2.57,0,0,1-1,1.14,2.79,2.79,0,0,1-1.47.4,2.61,2.61,0,0,1-2-.89,3.39,3.39,0,0,1-.79-2.35Zm.7.19a2.91,2.91,0,0,0,.59,1.87,1.91,1.91,0,0,0,1.55.73,1.89,1.89,0,0,0,1.53-.73,3,3,0,0,0,.59-1.93v-.13A3.19,3.19,0,0,0,65,12.41a2.15,2.15,0,0,0-.75-.94,2,2,0,0,0-1.12-.33,1.89,1.89,0,0,0-1.53.74A3,3,0,0,0,61,13.8Z"/><path d="M68.05,10.66l0,1.08a2.53,2.53,0,0,1,.89-.89,2.36,2.36,0,0,1,1.18-.31,1.86,1.86,0,0,1,1.51.58,2.56,2.56,0,0,1,.51,1.72V17h-.7V12.83a1.89,1.89,0,0,0-.36-1.26A1.4,1.4,0,0,0,70,11.15a1.76,1.76,0,0,0-1.15.41,2.36,2.36,0,0,0-.75,1.1V17h-.69V10.66Z"/><path d="M78.41,15.54l.11.55.14-.58,1.52-4.85h.6l1.51,4.81.16.67.14-.62,1.3-4.86h.72L82.77,17h-.6l-1.63-5-.08-.34-.07.35-1.6,5h-.6l-1.84-6.34h.72Z"/><path d="M85.56,13.74a3.7,3.7,0,0,1,.35-1.65,2.67,2.67,0,0,1,2.47-1.55,2.61,2.61,0,0,1,2.05.89,3.39,3.39,0,0,1,.79,2.35v.15a3.7,3.7,0,0,1-.36,1.65,2.59,2.59,0,0,1-1,1.14,2.79,2.79,0,0,1-1.47.4,2.63,2.63,0,0,1-2-.89,3.44,3.44,0,0,1-.78-2.35Zm.7.19a2.91,2.91,0,0,0,.59,1.87,2,2,0,0,0,3.08,0,3,3,0,0,0,.59-1.93v-.13a3.19,3.19,0,0,0-.27-1.33,2.11,2.11,0,0,0-.76-.94,2,2,0,0,0-2.64.41,3,3,0,0,0-.59,1.92Z"/><path d="M95.59,11.26a2.29,2.29,0,0,0-.47,0,1.72,1.72,0,0,0-1.11.36,2.06,2.06,0,0,0-.65,1.07V17h-.7V10.66h.69v1a1.87,1.87,0,0,1,1.79-1.13,1.15,1.15,0,0,1,.46.08Z"/><path d="M98.21,13.81l-.81.77V17h-.7V8h.7v5.76l.67-.72,2.42-2.38h.89l-2.69,2.67L101.61,17h-.84Z"/><path d="M106.38,15.39a1,1,0,0,0-.42-.84,3.11,3.11,0,0,0-1.27-.49,6,6,0,0,1-1.31-.41,1.82,1.82,0,0,1-.69-.57,1.4,1.4,0,0,1-.22-.81,1.53,1.53,0,0,1,.62-1.24,2.94,2.94,0,0,1,3.31,0,1.67,1.67,0,0,1,.64,1.37h-.7a1.14,1.14,0,0,0-.47-.93,2.09,2.09,0,0,0-2.28-.06.94.94,0,0,0-.42.8.87.87,0,0,0,.35.73,3.41,3.41,0,0,0,1.27.48,6.24,6.24,0,0,1,1.38.46,1.87,1.87,0,0,1,.69.6,1.58,1.58,0,0,1,.22.83,1.53,1.53,0,0,1-.65,1.29,2.75,2.75,0,0,1-1.69.48,2.84,2.84,0,0,1-1.8-.54,1.67,1.67,0,0,1-.68-1.36h.7a1.23,1.23,0,0,0,.52,1,2.11,2.11,0,0,0,1.26.35,1.94,1.94,0,0,0,1.18-.33A1,1,0,0,0,106.38,15.39Z"/><path d="M112.36,17h-.71V8h.71Z"/><path d="M114.22,8.83a.48.48,0,0,1,.13-.34.46.46,0,0,1,.35-.13.48.48,0,0,1,.36.13.53.53,0,0,1,.13.34.45.45,0,0,1-.49.46.46.46,0,0,1-.35-.13A.44.44,0,0,1,114.22,8.83Zm.83,8.17h-.71V10.66h.71Z"/><path d="M118.46,13.81l-.81.77V17H117V8h.7v5.76l.67-.72,2.42-2.38h.89l-2.69,2.67L121.86,17H121Z"/><path d="M125.17,17.12a2.84,2.84,0,0,1-1.47-.4,2.78,2.78,0,0,1-1-1.11,3.52,3.52,0,0,1-.37-1.6v-.25a3.7,3.7,0,0,1,.36-1.65,2.85,2.85,0,0,1,1-1.15,2.41,2.41,0,0,1,1.37-.42,2.3,2.3,0,0,1,1.83.79,3.2,3.2,0,0,1,.67,2.15v.4H123V14a2.68,2.68,0,0,0,.62,1.8,2,2,0,0,0,1.56.72,2.25,2.25,0,0,0,1-.21,2.19,2.19,0,0,0,.78-.66l.44.34A2.57,2.57,0,0,1,125.17,17.12Zm-.13-6a1.77,1.77,0,0,0-1.34.58,2.72,2.72,0,0,0-.66,1.56h3.81V13.2a2.39,2.39,0,0,0-.52-1.49A1.63,1.63,0,0,0,125,11.14Z"/><path d="M132.92,9v1.62h1.31v.57h-1.31v4.23a1.3,1.3,0,0,0,.19.79.75.75,0,0,0,.63.26,4.21,4.21,0,0,0,.57-.06l0,.57a2.42,2.42,0,0,1-.75.1,1.25,1.25,0,0,1-1.05-.42,2,2,0,0,1-.33-1.24V11.23h-1.16v-.57h1.16V9Z"/><path d="M136.38,11.73a2.5,2.5,0,0,1,.89-.88,2.38,2.38,0,0,1,1.17-.31,1.88,1.88,0,0,1,1.52.58,2.56,2.56,0,0,1,.5,1.72V17h-.69V12.83a2,2,0,0,0-.36-1.26,1.42,1.42,0,0,0-1.14-.42,1.8,1.8,0,0,0-1.15.41,2.41,2.41,0,0,0-.74,1.1V17h-.7V8h.7Z"/><path d="M142.23,8.83a.48.48,0,0,1,.13-.34.54.54,0,0,1,.7,0,.49.49,0,0,1,.14.34.45.45,0,0,1-.14.33.48.48,0,0,1-.83-.33Zm.82,8.17h-.7V10.66h.7Z"/><path d="M148.76,15.39a1,1,0,0,0-.42-.84,3.11,3.11,0,0,0-1.27-.49,6.19,6.19,0,0,1-1.31-.41,1.82,1.82,0,0,1-.69-.57,1.4,1.4,0,0,1-.22-.81,1.53,1.53,0,0,1,.62-1.24,2.94,2.94,0,0,1,3.31,0,1.67,1.67,0,0,1,.64,1.37h-.7a1.12,1.12,0,0,0-.47-.93,2.09,2.09,0,0,0-2.28-.06.94.94,0,0,0-.42.8.87.87,0,0,0,.35.73,3.48,3.48,0,0,0,1.27.48,6.24,6.24,0,0,1,1.38.46,1.87,1.87,0,0,1,.69.6,1.58,1.58,0,0,1,.22.83,1.53,1.53,0,0,1-.65,1.29,2.75,2.75,0,0,1-1.69.48,2.79,2.79,0,0,1-1.79-.54,1.65,1.65,0,0,1-.69-1.36h.7a1.23,1.23,0,0,0,.52,1,2.11,2.11,0,0,0,1.26.35,1.94,1.94,0,0,0,1.18-.33A.94.94,0,0,0,148.76,15.39Z"/><path d="M150.87,16.58a.49.49,0,0,1,.13-.35.44.44,0,0,1,.36-.14.46.46,0,0,1,.37.14.5.5,0,0,1,.14.35.48.48,0,0,1-.14.34.54.54,0,0,1-.37.13.51.51,0,0,1-.36-.13A.47.47,0,0,1,150.87,16.58Zm0-5.41a.49.49,0,0,1,.13-.35.5.5,0,0,1,.37-.14.49.49,0,0,1,.36.14.5.5,0,0,1,.14.35.46.46,0,0,1-.14.34.53.53,0,0,1-.36.13.54.54,0,0,1-.37-.13A.45.45,0,0,1,150.88,11.17Z"/><path d="M208,17h-.72V8.47H208Z"/><path d="M211.2,9v1.62h1.31v.57H211.2v4.23a1.3,1.3,0,0,0,.19.79.73.73,0,0,0,.63.26,4.21,4.21,0,0,0,.57-.06l0,.57a2.42,2.42,0,0,1-.75.1,1.25,1.25,0,0,1-1.05-.42,2,2,0,0,1-.33-1.24V11.23h-1.16v-.57h1.16V9Z"/><path d="M217.52,10.66l0,1a2.32,2.32,0,0,1,2.05-1.15,1.79,1.79,0,0,1,1.91,1.23,2.41,2.41,0,0,1,.91-.91,2.53,2.53,0,0,1,1.25-.32c1.36,0,2.05.75,2.08,2.23V17H225V12.82a2,2,0,0,0-.37-1.26,1.5,1.5,0,0,0-1.17-.41,1.87,1.87,0,0,0-1.28.49,1.73,1.73,0,0,0-.58,1.16V17h-.7V12.77a1.8,1.8,0,0,0-.39-1.22,1.55,1.55,0,0,0-1.16-.4,1.8,1.8,0,0,0-1.14.38,2.25,2.25,0,0,0-.7,1.12V17h-.7V10.66Z"/><path d="M227.47,8.83a.53.53,0,0,1,.13-.34.48.48,0,0,1,.36-.13.48.48,0,0,1,.35.13.48.48,0,0,1,.13.34.44.44,0,0,1-.13.33.48.48,0,0,1-.35.13.45.45,0,0,1-.49-.46ZM228.3,17h-.7V10.66h.7Z"/><path d="M229.92,13.77a3.82,3.82,0,0,1,.66-2.36,2.13,2.13,0,0,1,1.79-.87,2.22,2.22,0,0,1,2,1l0-.91H235v6.21a2.71,2.71,0,0,1-.68,1.94,2.46,2.46,0,0,1-1.86.72,2.78,2.78,0,0,1-1.26-.3,2.48,2.48,0,0,1-.95-.79l.39-.42a2.23,2.23,0,0,0,1.77.91,1.8,1.8,0,0,0,1.37-.51,2.07,2.07,0,0,0,.51-1.44v-.8a2.26,2.26,0,0,1-2,.94,2.14,2.14,0,0,1-1.77-.88,3.88,3.88,0,0,1-.67-2.37Zm.71.12a3.29,3.29,0,0,0,.49,1.92,1.58,1.58,0,0,0,1.37.7,1.88,1.88,0,0,0,1.83-1.16V12.4a2,2,0,0,0-.7-.93,1.94,1.94,0,0,0-1.12-.32,1.56,1.56,0,0,0-1.37.7A3.49,3.49,0,0,0,230.63,13.89Z"/><path d="M237.56,11.73a2.47,2.47,0,0,1,.88-.88,2.42,2.42,0,0,1,1.18-.31,1.88,1.88,0,0,1,1.52.58,2.56,2.56,0,0,1,.5,1.72V17H241V12.83a2,2,0,0,0-.37-1.26,1.39,1.39,0,0,0-1.13-.42,1.78,1.78,0,0,0-1.15.41,2.41,2.41,0,0,0-.74,1.1V17h-.7V8h.7Z"/><path d="M244.54,9v1.62h1.31v.57h-1.31v4.23a1.3,1.3,0,0,0,.19.79.73.73,0,0,0,.63.26,4.21,4.21,0,0,0,.57-.06l0,.57a2.42,2.42,0,0,1-.75.1,1.25,1.25,0,0,1-1.05-.42,2,2,0,0,1-.33-1.24V11.23h-1.16v-.57h1.16V9Z"/><path d="M255.32,13.89a3.82,3.82,0,0,1-.65,2.36,2.11,2.11,0,0,1-1.77.87,2.27,2.27,0,0,1-2-1l0,.87h-.66V8h.7v3.58a2.22,2.22,0,0,1,2-1,2.12,2.12,0,0,1,1.78.86,3.84,3.84,0,0,1,.65,2.39Zm-.7-.12a3.29,3.29,0,0,0-.49-1.94,1.59,1.59,0,0,0-1.37-.68,1.92,1.92,0,0,0-1.14.33,2.05,2.05,0,0,0-.71,1v2.86a1.88,1.88,0,0,0,1.87,1.2,1.56,1.56,0,0,0,1.35-.69A3.48,3.48,0,0,0,254.62,13.77Z"/><path d="M259.33,17.12a2.84,2.84,0,0,1-1.47-.4,2.78,2.78,0,0,1-1-1.11,3.52,3.52,0,0,1-.37-1.6v-.25a3.7,3.7,0,0,1,.36-1.65,2.85,2.85,0,0,1,1-1.15,2.43,2.43,0,0,1,1.37-.42,2.3,2.3,0,0,1,1.83.79,3.2,3.2,0,0,1,.68,2.15v.4h-4.53V14a2.68,2.68,0,0,0,.62,1.8,2,2,0,0,0,1.56.72,2.25,2.25,0,0,0,1-.21,2.19,2.19,0,0,0,.78-.66l.44.34A2.57,2.57,0,0,1,259.33,17.12Zm-.13-6a1.77,1.77,0,0,0-1.34.58,2.65,2.65,0,0,0-.65,1.56H261V13.2a2.39,2.39,0,0,0-.52-1.49A1.63,1.63,0,0,0,259.2,11.14Z"/><path d="M266.69,11.73a2.47,2.47,0,0,1,.88-.88,2.39,2.39,0,0,1,1.18-.31,1.9,1.9,0,0,1,1.52.58,2.56,2.56,0,0,1,.5,1.72V17h-.7V12.83a1.89,1.89,0,0,0-.36-1.26,1.39,1.39,0,0,0-1.13-.42,1.76,1.76,0,0,0-1.15.41,2.34,2.34,0,0,0-.74,1.1V17H266V8h.7Z"/><path d="M275,17.12a2.78,2.78,0,0,1-1.46-.4,2.73,2.73,0,0,1-1-1.11,3.52,3.52,0,0,1-.36-1.6v-.25a3.84,3.84,0,0,1,.35-1.65,2.93,2.93,0,0,1,1-1.15,2.43,2.43,0,0,1,1.37-.42,2.3,2.3,0,0,1,1.83.79,3.2,3.2,0,0,1,.68,2.15v.4h-4.53V14a2.68,2.68,0,0,0,.62,1.8,2,2,0,0,0,1.56.72,2.25,2.25,0,0,0,1-.21,2.19,2.19,0,0,0,.78-.66l.44.34A2.56,2.56,0,0,1,275,17.12Zm-.13-6a1.73,1.73,0,0,0-1.33.58,2.72,2.72,0,0,0-.66,1.56h3.8V13.2a2.34,2.34,0,0,0-.52-1.49A1.63,1.63,0,0,0,274.9,11.14Z"/><path d="M279.56,17h-.7V8h.7Z"/><path d="M286.56,13.89a3.82,3.82,0,0,1-.66,2.36,2.07,2.07,0,0,1-1.75.87,2.37,2.37,0,0,1-2-.92v3.24h-.69V10.66h.65l0,.9a2.25,2.25,0,0,1,2-1,2.11,2.11,0,0,1,1.78.86,3.94,3.94,0,0,1,.65,2.39Zm-.7-.12a3.23,3.23,0,0,0-.5-1.91,1.61,1.61,0,0,0-1.39-.71,1.84,1.84,0,0,0-1.82,1.22v3a1.85,1.85,0,0,0,.73.83,2.07,2.07,0,0,0,1.1.29,1.6,1.6,0,0,0,1.38-.71A3.54,3.54,0,0,0,285.86,13.77Z"/><path d="M288.62,17V11.23h-1.05v-.57h1.05V9.89a2.08,2.08,0,0,1,.49-1.49,1.8,1.8,0,0,1,1.38-.52,2.57,2.57,0,0,1,.75.1l-.06.58a2.51,2.51,0,0,0-.64-.07,1.16,1.16,0,0,0-.9.36,1.5,1.5,0,0,0-.32,1v.79h1.51v.57h-1.51V17Z"/><path d="M296.16,16.2a2.28,2.28,0,0,1-2,.92,2,2,0,0,1-1.54-.59,2.6,2.6,0,0,1-.54-1.74V10.66h.7v4c0,1.2.49,1.81,1.46,1.81a1.8,1.8,0,0,0,1.93-1.26V10.66h.71V17h-.68Z"/><path d="M299.46,17h-.7V8h.7Z"/><path d="M305.38,9v1.62h1.31v.57h-1.31v4.23a1.3,1.3,0,0,0,.19.79.72.72,0,0,0,.63.26,4.21,4.21,0,0,0,.57-.06l0,.57a2.42,2.42,0,0,1-.75.1A1.25,1.25,0,0,1,305,16.7a2,2,0,0,1-.33-1.24V11.23h-1.16v-.57h1.16V9Z"/><path d="M307.64,13.74a3.7,3.7,0,0,1,.35-1.65,2.67,2.67,0,0,1,2.47-1.55,2.61,2.61,0,0,1,2.05.89,3.39,3.39,0,0,1,.79,2.35v.15a3.7,3.7,0,0,1-.36,1.65,2.59,2.59,0,0,1-1,1.14,2.79,2.79,0,0,1-1.47.4,2.63,2.63,0,0,1-2.05-.89,3.44,3.44,0,0,1-.78-2.35Zm.7.19a2.91,2.91,0,0,0,.59,1.87,2,2,0,0,0,3.08,0,3,3,0,0,0,.59-1.93v-.13a3.19,3.19,0,0,0-.27-1.33,2.11,2.11,0,0,0-.76-.94,2,2,0,0,0-2.64.41,3,3,0,0,0-.59,1.92Z"/><path d="M318.75,9v1.62h1.31v.57h-1.31v4.23a1.37,1.37,0,0,0,.19.79.75.75,0,0,0,.64.26,4.37,4.37,0,0,0,.57-.06l0,.57a2.52,2.52,0,0,1-.75.1,1.25,1.25,0,0,1-1.05-.42,2,2,0,0,1-.33-1.24V11.23h-1.17v-.57h1.17V9Z"/><path d="M322.21,11.73a2.58,2.58,0,0,1,.89-.88,2.39,2.39,0,0,1,1.18-.31,1.86,1.86,0,0,1,1.51.58,2.56,2.56,0,0,1,.51,1.72V17h-.7V12.83a1.89,1.89,0,0,0-.36-1.26,1.4,1.4,0,0,0-1.13-.42,1.76,1.76,0,0,0-1.15.41,2.43,2.43,0,0,0-.75,1.1V17h-.69V8h.69Z"/><path d="M328.06,8.83a.53.53,0,0,1,.13-.34.46.46,0,0,1,.35-.13.45.45,0,0,1,.49.47.44.44,0,0,1-.13.33.48.48,0,0,1-.36.13.46.46,0,0,1-.35-.13A.49.49,0,0,1,328.06,8.83Zm.83,8.17h-.7V10.66h.7Z"/><path d="M331.46,10.66l0,1.08a2.55,2.55,0,0,1,.9-.89,2.32,2.32,0,0,1,1.17-.31,1.88,1.88,0,0,1,1.52.58,2.56,2.56,0,0,1,.5,1.72V17h-.69V12.83a2,2,0,0,0-.36-1.26,1.42,1.42,0,0,0-1.14-.42,1.8,1.8,0,0,0-1.15.41,2.41,2.41,0,0,0-.74,1.1V17h-.7V10.66Z"/><path d="M338.89,13.81l-.8.77V17h-.71V8h.71v5.76l.66-.72,2.43-2.38h.88l-2.69,2.67L342.29,17h-.83Z"/><path d="M345.79,13.74a3.7,3.7,0,0,1,.36-1.65,2.65,2.65,0,0,1,1-1.14,2.71,2.71,0,0,1,1.47-.41,2.63,2.63,0,0,1,2.05.89,3.44,3.44,0,0,1,.78,2.35v.15a3.84,3.84,0,0,1-.35,1.65,2.66,2.66,0,0,1-1,1.14,2.79,2.79,0,0,1-1.47.4,2.63,2.63,0,0,1-2.05-.89,3.44,3.44,0,0,1-.79-2.35Zm.71.19a2.9,2.9,0,0,0,.58,1.87,2,2,0,0,0,3.09,0,3,3,0,0,0,.59-1.93v-.13a3.19,3.19,0,0,0-.27-1.33,2.17,2.17,0,0,0-.76-.94,1.91,1.91,0,0,0-1.11-.33,1.87,1.87,0,0,0-1.53.74,2.94,2.94,0,0,0-.59,1.92Z"/><path d="M353.4,17V11.23h-1v-.57h1V9.89a2.08,2.08,0,0,1,.5-1.49,1.8,1.8,0,0,1,1.38-.52A2.55,2.55,0,0,1,356,8l0,.58a2.56,2.56,0,0,0-.64-.07,1.15,1.15,0,0,0-.9.36,1.45,1.45,0,0,0-.32,1v.79h1.51v.57h-1.51V17Z"/><path d="M359.75,8.83a.48.48,0,0,1,.13-.34.54.54,0,0,1,.7,0,.49.49,0,0,1,.14.34.45.45,0,0,1-.14.33.48.48,0,0,1-.83-.33Zm.83,8.17h-.71V10.66h.71Z"/><path d="M363.57,9v1.62h1.31v.57h-1.31v4.23a1.3,1.3,0,0,0,.19.79.75.75,0,0,0,.64.26,4.26,4.26,0,0,0,.56-.06l0,.57a2.42,2.42,0,0,1-.75.1,1.22,1.22,0,0,1-1-.42,2,2,0,0,1-.33-1.24V11.23H361.7v-.57h1.17V9Z"/><path d="M370,17h-.7V8h.7Z"/><path d="M371.9,8.83a.53.53,0,0,1,.13-.34.46.46,0,0,1,.35-.13.45.45,0,0,1,.49.47.44.44,0,0,1-.13.33.48.48,0,0,1-.36.13.46.46,0,0,1-.35-.13A.49.49,0,0,1,371.9,8.83Zm.83,8.17H372V10.66h.7Z"/><path d="M376.14,13.81l-.8.77V17h-.71V8h.71v5.76L376,13l2.42-2.38h.89l-2.69,2.67L379.54,17h-.83Z"/><path d="M382.85,17.12a2.78,2.78,0,0,1-1.46-.4,2.73,2.73,0,0,1-1-1.11A3.52,3.52,0,0,1,380,14v-.25a3.7,3.7,0,0,1,.35-1.65,2.93,2.93,0,0,1,1-1.15,2.43,2.43,0,0,1,1.37-.42,2.3,2.3,0,0,1,1.83.79,3.2,3.2,0,0,1,.68,2.15v.4H380.7V14a2.68,2.68,0,0,0,.62,1.8,2,2,0,0,0,1.56.72,2.25,2.25,0,0,0,1-.21,2.19,2.19,0,0,0,.78-.66l.44.34A2.56,2.56,0,0,1,382.85,17.12Zm-.13-6a1.73,1.73,0,0,0-1.33.58,2.6,2.6,0,0,0-.66,1.56h3.8V13.2a2.34,2.34,0,0,0-.52-1.49A1.63,1.63,0,0,0,382.72,11.14Z"/><path d="M393.51,17a3.35,3.35,0,0,1-.13-.88,2.54,2.54,0,0,1-.94.74,3,3,0,0,1-1.21.26,2.11,2.11,0,0,1-1.48-.51,1.66,1.66,0,0,1-.57-1.29,1.71,1.71,0,0,1,.77-1.47,3.72,3.72,0,0,1,2.15-.54h1.27v-.72a1.39,1.39,0,0,0-.42-1.07,1.72,1.72,0,0,0-1.22-.39,1.9,1.9,0,0,0-1.21.38,1.11,1.11,0,0,0-.48.9h-.71A1.63,1.63,0,0,1,390,11.1a2.7,2.7,0,0,1,1.73-.56,2.5,2.5,0,0,1,1.67.53,1.91,1.91,0,0,1,.63,1.48v3a3.69,3.69,0,0,0,.19,1.38V17Zm-2.2-.5a2.42,2.42,0,0,0,1.26-.34,2.07,2.07,0,0,0,.8-.91v-1.4h-1.25a3.12,3.12,0,0,0-1.64.39,1.15,1.15,0,0,0-.6,1,1.13,1.13,0,0,0,.4.88A1.47,1.47,0,0,0,391.31,16.5Z"/><path d="M399.49,10.66l0,1a2.27,2.27,0,0,1,.88-.86,2.42,2.42,0,0,1,1.17-.29,1.77,1.77,0,0,1,1.9,1.23,2.48,2.48,0,0,1,.91-.91,2.55,2.55,0,0,1,1.25-.32c1.36,0,2.06.75,2.08,2.23V17H407V12.82a1.89,1.89,0,0,0-.36-1.26,1.52,1.52,0,0,0-1.18-.41,1.89,1.89,0,0,0-1.28.49,1.78,1.78,0,0,0-.58,1.16V17h-.7V12.77a1.75,1.75,0,0,0-.38-1.22,1.58,1.58,0,0,0-1.17-.4,1.75,1.75,0,0,0-1.13.38,2.26,2.26,0,0,0-.71,1.12V17h-.7V10.66Z"/><path d="M413.49,17a3.35,3.35,0,0,1-.13-.88,2.54,2.54,0,0,1-.94.74,3,3,0,0,1-1.21.26,2.11,2.11,0,0,1-1.48-.51,1.66,1.66,0,0,1-.57-1.29,1.71,1.71,0,0,1,.77-1.47,3.72,3.72,0,0,1,2.15-.54h1.27v-.72a1.39,1.39,0,0,0-.42-1.07,1.72,1.72,0,0,0-1.22-.39,1.9,1.9,0,0,0-1.21.38,1.11,1.11,0,0,0-.48.9h-.71A1.63,1.63,0,0,1,410,11.1a2.7,2.7,0,0,1,1.73-.56,2.5,2.5,0,0,1,1.67.53,1.91,1.91,0,0,1,.63,1.48v3a3.69,3.69,0,0,0,.19,1.38V17Zm-2.2-.5a2.42,2.42,0,0,0,1.26-.34,2,2,0,0,0,.8-.91v-1.4H412.1a3.12,3.12,0,0,0-1.64.39,1.14,1.14,0,0,0-.59,1,1.12,1.12,0,0,0,.39.88A1.47,1.47,0,0,0,411.29,16.5Z"/><path d="M418.26,16.53a1.84,1.84,0,0,0,1.23-.42A1.45,1.45,0,0,0,420,15h.67a2,2,0,0,1-.36,1.06,2.33,2.33,0,0,1-.89.75,2.69,2.69,0,0,1-1.19.27,2.46,2.46,0,0,1-2-.87,3.55,3.55,0,0,1-.73-2.33v-.21a3.93,3.93,0,0,1,.33-1.66,2.51,2.51,0,0,1,2.38-1.51,2.49,2.49,0,0,1,1.72.62,2.28,2.28,0,0,1,.72,1.64H420a1.71,1.71,0,0,0-1.77-1.66,1.75,1.75,0,0,0-1.48.69,3.07,3.07,0,0,0-.52,1.92V14a3.06,3.06,0,0,0,.52,1.9A1.78,1.78,0,0,0,418.26,16.53Z"/><path d="M422.8,11.73a2.47,2.47,0,0,1,.88-.88,2.39,2.39,0,0,1,1.18-.31,1.9,1.9,0,0,1,1.52.58,2.56,2.56,0,0,1,.5,1.72V17h-.7V12.83a1.89,1.89,0,0,0-.36-1.26,1.39,1.39,0,0,0-1.13-.42,1.78,1.78,0,0,0-1.15.41,2.34,2.34,0,0,0-.74,1.1V17h-.7V8h.7Z"/><path d="M428.64,8.83a.53.53,0,0,1,.13-.34.48.48,0,0,1,.36-.13.48.48,0,0,1,.35.13.48.48,0,0,1,.13.34.44.44,0,0,1-.13.33.48.48,0,0,1-.35.13.45.45,0,0,1-.49-.46Zm.83,8.17h-.7V10.66h.7Z"/><path d="M432,10.66l0,1.08a2.45,2.45,0,0,1,.89-.89,2.35,2.35,0,0,1,1.17-.31,1.88,1.88,0,0,1,1.52.58,2.61,2.61,0,0,1,.51,1.72V17h-.7V12.83a2,2,0,0,0-.36-1.26,1.42,1.42,0,0,0-1.14-.42,1.8,1.8,0,0,0-1.15.41,2.41,2.41,0,0,0-.74,1.1V17h-.69V10.66Z"/><path d="M440.42,17.12a2.73,2.73,0,0,1-2.48-1.51,3.52,3.52,0,0,1-.36-1.6v-.25a3.84,3.84,0,0,1,.35-1.65,2.93,2.93,0,0,1,1-1.15,2.43,2.43,0,0,1,1.37-.42,2.3,2.3,0,0,1,1.83.79,3.15,3.15,0,0,1,.68,2.15v.4h-4.52V14a2.63,2.63,0,0,0,.62,1.8,2,2,0,0,0,1.55.72,2.19,2.19,0,0,0,1-.21,2.31,2.31,0,0,0,.79-.66l.44.34A2.59,2.59,0,0,1,440.42,17.12Zm-.13-6a1.74,1.74,0,0,0-1.33.58,2.72,2.72,0,0,0-.66,1.56h3.8V13.2a2.34,2.34,0,0,0-.52-1.49A1.63,1.63,0,0,0,440.29,11.14Z"/><path d="M444,16.58a.49.49,0,0,1,.13-.35.45.45,0,0,1,.36-.14.46.46,0,0,1,.37.14.5.5,0,0,1,.14.35.48.48,0,0,1-.14.34.54.54,0,0,1-.37.13.53.53,0,0,1-.36-.13A.47.47,0,0,1,444,16.58Zm0-5.41a.49.49,0,0,1,.13-.35.5.5,0,0,1,.37-.14.51.51,0,0,1,.37.14.54.54,0,0,1,.13.35.49.49,0,0,1-.13.34.55.55,0,0,1-.37.13.54.54,0,0,1-.37-.13A.45.45,0,0,1,444,11.17Z"/><path d="M383,70l8.48,0c.29,0,.53-.43.26-.64-1-.74-1.93-1.45-2.94-2.14-.4-.27-.77.38-.38.65,1,.65,1.88,1.32,2.79,2l.27-.64-8.48,0a.38.38,0,0,0,0,.75Z"/><path d="M390.73,69.72c-.51.6-1.05,1.18-1.61,1.73-.35.34.18.87.53.53.56-.55,1.1-1.13,1.61-1.73.31-.37-.22-.9-.53-.53Z"/></svg>