<svg id="Layer_1" data-name="Layer 1" xmlns="http://www.w3.org/2000/svg" viewBox="0 0 229 134"><title>exp</title><path d="M153.93,23.73h0a1.7,1.7,0,0,0-.47-.35,1.06,1.06,0,0,0-.45-.09,1.31,1.31,0,0,0-.66.18,1.25,1.25,0,0,0-.51.53,1.87,1.87,0,0,0-.2.9v2.37h-.71V22.8h.73l0,.82a1.49,1.49,0,0,1,.58-.68,1.56,1.56,0,0,1,.84-.25,1.61,1.61,0,0,1,1.19.49Zm-.1,0s0,0,0,0l.06,0,0,.05-.07,0Zm.14,0-.05,0v0S154,23.8,154,23.79Z"/><path d="M155.73,26.76a2.35,2.35,0,0,1-.59-1.71,2.8,2.8,0,0,1,.27-1.27,2,2,0,0,1,.74-.81,2,2,0,0,1,1-.28,1.73,1.73,0,0,1,1.32.54,2.23,2.23,0,0,1,.5,1.59,2.14,2.14,0,0,1,0,.32h-3.18a1.82,1.82,0,0,0,.46,1.24,1.57,1.57,0,0,0,2.22-.08l.4.39a1.94,1.94,0,0,1-1.57.68A2.12,2.12,0,0,1,155.73,26.76Zm2.57-2.17a1.45,1.45,0,0,0-.32-1,1,1,0,0,0-.84-.37,1.24,1.24,0,0,0-.85.34,1.67,1.67,0,0,0-.45,1Z"/><path d="M163.4,23.2a2.33,2.33,0,0,1,.51,1.7v2.37h-.77v-.68a1.55,1.55,0,0,1-1.52.79,1.79,1.79,0,0,1-1.17-.34,1.08,1.08,0,0,1-.42-.89,1.2,1.2,0,0,1,.3-.82,2,2,0,0,1,.82-.55,3.39,3.39,0,0,1,1.13-.19,7.73,7.73,0,0,1,1,.06,1.53,1.53,0,0,0-.4-1.06,1.41,1.41,0,0,0-1-.31,1.59,1.59,0,0,0-.64.13,1.71,1.71,0,0,0-.56.37l-.35-.45a2.16,2.16,0,0,1,1.6-.63A2,2,0,0,1,163.4,23.2Zm-.57,3.22a1.86,1.86,0,0,0,.46-1.23,5.65,5.65,0,0,0-.95-.07,2.26,2.26,0,0,0-1.17.25.79.79,0,0,0-.43.74c0,.49.31.73.95.73A1.54,1.54,0,0,0,162.83,26.42Z"/><path d="M165.83,27.1a2,2,0,0,1-.68-.81,2.84,2.84,0,0,1-.26-1.3,2.8,2.8,0,0,1,.27-1.29,2,2,0,0,1,.7-.77,1.86,1.86,0,0,1,.91-.25,1.46,1.46,0,0,1,.79.21,1.36,1.36,0,0,1,.52.57V20.77h.74v.06a.28.28,0,0,0-.07.13,1.25,1.25,0,0,0,0,.24v5.38c0,.16,0,.28,0,.39a.84.84,0,0,0,.08.3h-.7a1.11,1.11,0,0,1-.08-.3c0-.11,0-.23,0-.39a1.64,1.64,0,0,1-.56.58,1.38,1.38,0,0,1-.76.21A1.66,1.66,0,0,1,165.83,27.1Zm1.9-.82A2.49,2.49,0,0,0,168,25a2.36,2.36,0,0,0-.31-1.27,1.14,1.14,0,0,0-1.83,0,2,2,0,0,0-.31,1.19,2.44,2.44,0,0,0,.33,1.36,1,1,0,0,0,.94.5A1,1,0,0,0,167.73,26.28Z"/><path d="M170.1,27.27v-6.1h3.51v.59h-2.82v1.92h2.28v.6h-2.28v3Z"/><path d="M178.4,23.73h0a2.06,2.06,0,0,0-.47-.35,1.06,1.06,0,0,0-.45-.09,1.35,1.35,0,0,0-.67.18,1.29,1.29,0,0,0-.5.53,1.76,1.76,0,0,0-.2.9v2.37h-.71V22.8h.73l0,.82a1.41,1.41,0,0,1,.57-.68,1.63,1.63,0,0,1,2,.24Zm-.11,0s0,0,0,0l.06,0,0,.05-.07,0Zm.14,0-.05,0,0,0S178.46,23.8,178.43,23.79Z"/><path d="M180.5,27.06a2.08,2.08,0,0,1-.73-.82,2.65,2.65,0,0,1-.26-1.21,2.58,2.58,0,0,1,.26-1.2,2.11,2.11,0,0,1,.73-.83,2.06,2.06,0,0,1,2.14,0,2.11,2.11,0,0,1,.73.83,2.59,2.59,0,0,1,.27,1.2,2.66,2.66,0,0,1-.27,1.21,2.08,2.08,0,0,1-.73.82,2.12,2.12,0,0,1-2.14,0Zm1.75-.52a1.48,1.48,0,0,0,.47-.62,2.33,2.33,0,0,0,.17-.9,2,2,0,0,0-.37-1.25,1.15,1.15,0,0,0-1-.48,1.16,1.16,0,0,0-.95.48,2,2,0,0,0-.37,1.25,2.33,2.33,0,0,0,.17.9,1.48,1.48,0,0,0,.47.62,1.11,1.11,0,0,0,.68.22A1.09,1.09,0,0,0,182.25,26.54Z"/><path d="M184.39,22.8H185v.44a1.27,1.27,0,0,1,.41-.39.87.87,0,0,1,.5-.16.81.81,0,0,1,.52.19.79.79,0,0,1,.28.47,1.09,1.09,0,0,1,.4-.48,1.07,1.07,0,0,1,.61-.18.76.76,0,0,1,.66.32,1.4,1.4,0,0,1,.2.83v3.43H188V24.1a1.55,1.55,0,0,0-.11-.72.34.34,0,0,0-.31-.17.48.48,0,0,0-.34.17,1.27,1.27,0,0,0-.27.42,1.41,1.41,0,0,0-.1.52v2.95h-.66V24.16a1.79,1.79,0,0,0-.1-.74.42.42,0,0,0-.39-.19.5.5,0,0,0-.3.13,1.09,1.09,0,0,0-.25.38,1.54,1.54,0,0,0-.1.55v3h-.64Z"/><path d="M189.67,27.27v-6.1h3.52v.59h-2.83v1.92h2.28v.6h-2.28v3Z"/><path d="M195.18,27.06a2.08,2.08,0,0,1-.73-.82,2.65,2.65,0,0,1-.26-1.21,2.58,2.58,0,0,1,.26-1.2,2.11,2.11,0,0,1,.73-.83,2.06,2.06,0,0,1,2.14,0,2.11,2.11,0,0,1,.73.83,2.58,2.58,0,0,1,.26,1.2,2.65,2.65,0,0,1-.26,1.21,2.08,2.08,0,0,1-.73.82,2.12,2.12,0,0,1-2.14,0Zm1.75-.52a1.48,1.48,0,0,0,.47-.62,2.33,2.33,0,0,0,.17-.9,2,2,0,0,0-.37-1.25,1.16,1.16,0,0,0-.95-.48,1.15,1.15,0,0,0-.95.48,2,2,0,0,0-.37,1.25,2.33,2.33,0,0,0,.17.9,1.48,1.48,0,0,0,.47.62,1.16,1.16,0,0,0,1.36,0Z"/><path d="M200.08,27.06a2,2,0,0,1-.74-.82,2.79,2.79,0,0,1-.26-1.21,2.71,2.71,0,0,1,.26-1.2,2.06,2.06,0,0,1,.74-.83,1.9,1.9,0,0,1,1.06-.3,1.94,1.94,0,0,1,1.07.3,2,2,0,0,1,.73.83,2.59,2.59,0,0,1,.27,1.2,2.66,2.66,0,0,1-.27,1.21,1.93,1.93,0,0,1-1.8,1.11A2,2,0,0,1,200.08,27.06Zm1.74-.52a1.48,1.48,0,0,0,.47-.62,2.16,2.16,0,0,0,.17-.9,2,2,0,0,0-.37-1.25,1.15,1.15,0,0,0-1-.48,1.16,1.16,0,0,0-.95.48,2.06,2.06,0,0,0-.37,1.25,2.33,2.33,0,0,0,.17.9,1.57,1.57,0,0,0,.47.62,1.11,1.11,0,0,0,.68.22A1.09,1.09,0,0,0,201.82,26.54Z"/><path d="M155,33.78c.16,2.53-.15,9,2.66,10.4,1.57.77,3.89.08,5.53-.06l8-.7c1.91-.16,1.92-3.16,0-3l-9.59.84c-1.84.16-2.4.41-2.92-1.44a29,29,0,0,1-.68-6c-.12-1.92-3.13-1.93-3,0Z"/><path d="M164.71,37.24a17,17,0,0,0,8.21,4.85l-.66-2.51a31.84,31.84,0,0,0-5.14,5.49c-1.15,1.54,1.45,3,2.59,1.51a29.15,29.15,0,0,1,4.67-4.88,1.51,1.51,0,0,0-.66-2.5,14.11,14.11,0,0,1-6.89-4.08c-1.32-1.41-3.44.71-2.12,2.12Z"/><path d="M181.31,38.93a.9.9,0,0,1-.2-.59,2.87,2.87,0,0,1,1-1.84l.34.31a2.57,2.57,0,0,0-.45.53,1.09,1.09,0,0,0-.18.49.2.2,0,0,0,0,.15l.17.18a2.06,2.06,0,0,1,.21.21.38.38,0,0,1,.07.22.59.59,0,0,1-.16.4.57.57,0,0,1-.42.17A.63.63,0,0,1,181.31,38.93Z"/><path d="M188.26,42.75,187.64,41h-2l-.61,1.78h-.68l2.25-6.21h.08L189,42.75Zm-2.4-2.31h1.61l-.81-2.33Z"/><path d="M190.73,38.86a2.36,2.36,0,0,0,.46-.55,1,1,0,0,0,.18-.48.27.27,0,0,0-.05-.15l-.17-.18a2.06,2.06,0,0,1-.21-.21.38.38,0,0,1-.07-.21.56.56,0,0,1,.16-.41.57.57,0,0,1,.42-.17.61.61,0,0,1,.46.23.85.85,0,0,1,.2.59,3,3,0,0,1-1,1.84Z"/><path d="M108.31,21.88h0l-1.11.6-.16-.65,1.39-.75h.73v6.36h-.83Z"/><path d="M111.62,26.56a2.19,2.19,0,0,0,1.13.34c.63,0,.92-.31.92-.7s-.24-.64-.88-.87c-.85-.31-1.25-.77-1.25-1.34a1.46,1.46,0,0,1,1.63-1.39,2.48,2.48,0,0,1,1.17.29l-.22.63a1.83,1.83,0,0,0-1-.28c-.51,0-.79.3-.79.65s.28.57.9.8c.82.31,1.24.73,1.24,1.43s-.64,1.42-1.77,1.42a2.75,2.75,0,0,1-1.33-.32Z"/><path d="M116.65,21.35v1.36h1.23v.65h-1.23v2.55c0,.59.16.92.64.92a2.57,2.57,0,0,0,.5,0l0,.64a2.07,2.07,0,0,1-.76.12,1.2,1.2,0,0,1-.93-.36,1.75,1.75,0,0,1-.33-1.24V23.36h-.74v-.65h.74V21.57Z"/><path d="M124.3,27.26a3.15,3.15,0,0,1-1.36.28,2.25,2.25,0,0,1-2.36-2.42,2.41,2.41,0,0,1,2.54-2.51,3.07,3.07,0,0,1,1.2.24l-.2.67a2,2,0,0,0-1-.23,1.64,1.64,0,0,0-1.67,1.79,1.62,1.62,0,0,0,1.64,1.77,2.42,2.42,0,0,0,1.06-.23Z"/><path d="M127.93,27.44l-.07-.6h0a1.74,1.74,0,0,1-1.45.71,1.34,1.34,0,0,1-1.44-1.36c0-1.15,1-1.77,2.84-1.76v-.1a1,1,0,0,0-1.07-1.1,2.37,2.37,0,0,0-1.24.36l-.19-.57a3,3,0,0,1,1.55-.42c1.45,0,1.8,1,1.8,1.94v1.77a6.45,6.45,0,0,0,.08,1.13ZM127.8,25c-.94,0-2,.15-2,1.07a.76.76,0,0,0,.81.82,1.17,1.17,0,0,0,1.14-.79.91.91,0,0,0,0-.27Z"/><path d="M130,20.5h.86v6.94H130Z"/><path d="M132.33,20.5h.86v6.94h-.86Z"/><path d="M134.44,23.49a.58.58,0,1,1,1.16,0,.58.58,0,1,1-1.16,0Zm0,3.45a.58.58,0,1,1,.57.61A.57.57,0,0,1,134.44,26.94Z"/><path d="M153.93,59.61h0a1.94,1.94,0,0,0-.47-.35,1.06,1.06,0,0,0-.45-.09,1.33,1.33,0,0,0-1.17.71,1.87,1.87,0,0,0-.2.9v2.38h-.71V58.68h.73l0,.83a1.46,1.46,0,0,1,.58-.69,1.55,1.55,0,0,1,.84-.24,1.58,1.58,0,0,1,1.19.49Zm-.1,0s0,0,0,0l.06,0,0,.05-.07,0Zm.14,0-.05,0v0S154,59.68,154,59.67Z"/><path d="M155.73,62.65a2.39,2.39,0,0,1-.59-1.72,2.75,2.75,0,0,1,.27-1.26,1.88,1.88,0,0,1,.74-.81,2,2,0,0,1,1-.28,1.76,1.76,0,0,1,1.32.53,2.23,2.23,0,0,1,.5,1.59,2.14,2.14,0,0,1,0,.32h-3.18a1.85,1.85,0,0,0,.46,1.25,1.45,1.45,0,0,0,1.07.42,1.48,1.48,0,0,0,1.15-.5l.4.38a1.91,1.91,0,0,1-1.57.68A2.15,2.15,0,0,1,155.73,62.65Zm2.57-2.18a1.49,1.49,0,0,0-.32-1,1.07,1.07,0,0,0-.84-.37,1.2,1.2,0,0,0-.85.35,1.64,1.64,0,0,0-.45,1Z"/><path d="M163.4,59.09a2.29,2.29,0,0,1,.51,1.69v2.38h-.77v-.69a1.55,1.55,0,0,1-1.52.79,1.85,1.85,0,0,1-1.17-.33A1.11,1.11,0,0,1,160,62a1.22,1.22,0,0,1,.3-.82,1.9,1.9,0,0,1,.82-.54,3.15,3.15,0,0,1,1.13-.2,7.73,7.73,0,0,1,1,.06,1.55,1.55,0,0,0-.4-1.06,1.46,1.46,0,0,0-1-.31,1.78,1.78,0,0,0-.64.13,1.88,1.88,0,0,0-.56.37l-.35-.45a2.16,2.16,0,0,1,1.6-.62A2,2,0,0,1,163.4,59.09Zm-.57,3.21a1.82,1.82,0,0,0,.46-1.23,6.94,6.94,0,0,0-.95-.07,2.26,2.26,0,0,0-1.17.25.79.79,0,0,0-.43.74c0,.49.31.74.95.74A1.55,1.55,0,0,0,162.83,62.3Z"/><path d="M165.83,63a1.88,1.88,0,0,1-.68-.8,2.9,2.9,0,0,1-.26-1.3,2.81,2.81,0,0,1,.27-1.3,1.85,1.85,0,0,1,.7-.76,1.76,1.76,0,0,1,.91-.25,1.54,1.54,0,0,1,.79.2,1.36,1.36,0,0,1,.52.57V56.65h.74v.07a.25.25,0,0,0-.07.12,1.25,1.25,0,0,0,0,.24v5.38a3.84,3.84,0,0,0,0,.39,1,1,0,0,0,.08.31h-.7a1.29,1.29,0,0,1-.08-.31c0-.1,0-.23,0-.39a1.64,1.64,0,0,1-.56.58,1.38,1.38,0,0,1-.76.21A1.66,1.66,0,0,1,165.83,63Zm1.9-.82A2.45,2.45,0,0,0,168,60.9a2.4,2.4,0,0,0-.31-1.28,1.14,1.14,0,0,0-1.83,0,2,2,0,0,0-.31,1.19,2.44,2.44,0,0,0,.33,1.36,1.05,1.05,0,0,0,.94.51A1,1,0,0,0,167.73,62.16Z"/><path d="M170.1,63.16V57.05h3.51v.6h-2.82v1.91h2.28v.6h-2.28v3Z"/><path d="M178.4,59.61h0a2.42,2.42,0,0,0-.47-.35,1.06,1.06,0,0,0-.45-.09,1.3,1.3,0,0,0-1.17.71,1.76,1.76,0,0,0-.2.9v2.38h-.71V58.68h.73l0,.83a1.39,1.39,0,0,1,.57-.69,1.58,1.58,0,0,1,.85-.24,1.55,1.55,0,0,1,1.18.49Zm-.11,0s0,0,0,0l.06,0,0,.05-.07,0Zm.14,0-.05,0,0,0S178.46,59.68,178.43,59.67Z"/><path d="M180.5,62.94a2,2,0,0,1-.73-.82,2.92,2.92,0,0,1,0-2.41,2.11,2.11,0,0,1,.73-.83,2.12,2.12,0,0,1,2.14,0,2.11,2.11,0,0,1,.73.83,2.82,2.82,0,0,1,0,2.41,2,2,0,0,1-.73.82,2.12,2.12,0,0,1-2.14,0Zm1.75-.52a1.48,1.48,0,0,0,.47-.62,2.28,2.28,0,0,0,.17-.89,2,2,0,0,0-.37-1.25,1.13,1.13,0,0,0-1-.49,1.14,1.14,0,0,0-.95.49,2,2,0,0,0-.37,1.25,2.28,2.28,0,0,0,.17.89,1.48,1.48,0,0,0,.47.62,1.12,1.12,0,0,0,.68.23A1.09,1.09,0,0,0,182.25,62.42Z"/><path d="M184.39,58.68H185v.44a1.27,1.27,0,0,1,.41-.39.94.94,0,0,1,.5-.15.8.8,0,0,1,.52.18.82.82,0,0,1,.28.47,1.1,1.1,0,0,1,1-.65.76.76,0,0,1,.66.31,1.42,1.42,0,0,1,.2.83v3.44H188V60a1.57,1.57,0,0,0-.11-.73.34.34,0,0,0-.31-.16.47.47,0,0,0-.34.16,1.22,1.22,0,0,0-.27.43,1.32,1.32,0,0,0-.1.51v3h-.66V60a1.7,1.7,0,0,0-.1-.73.41.41,0,0,0-.39-.2.46.46,0,0,0-.3.14,1,1,0,0,0-.25.37,1.54,1.54,0,0,0-.1.55v3h-.64Z"/><path d="M189.67,63.16V57.05h3.52v.6h-2.83v1.91h2.28v.6h-2.28v3Z"/><path d="M195.18,62.94a2,2,0,0,1-.73-.82,2.92,2.92,0,0,1,0-2.41,2.11,2.11,0,0,1,.73-.83,2.12,2.12,0,0,1,2.14,0,2.11,2.11,0,0,1,.73.83,2.92,2.92,0,0,1,0,2.41,2,2,0,0,1-.73.82,2.12,2.12,0,0,1-2.14,0Zm1.75-.52a1.48,1.48,0,0,0,.47-.62,2.28,2.28,0,0,0,.17-.89,2,2,0,0,0-.37-1.25,1.14,1.14,0,0,0-.95-.49,1.13,1.13,0,0,0-.95.49,2,2,0,0,0-.37,1.25,2.28,2.28,0,0,0,.17.89,1.48,1.48,0,0,0,.47.62,1.12,1.12,0,0,0,1.36,0Z"/><path d="M200.08,62.94a2,2,0,0,1-.74-.82,2.92,2.92,0,0,1,0-2.41,2.06,2.06,0,0,1,.74-.83,2,2,0,0,1,1.06-.29,1.92,1.92,0,0,1,1.8,1.12,2.82,2.82,0,0,1,0,2.41,1.93,1.93,0,0,1-1.8,1.11A1.9,1.9,0,0,1,200.08,62.94Zm1.74-.52a1.48,1.48,0,0,0,.47-.62,2.11,2.11,0,0,0,.17-.89,2,2,0,0,0-.37-1.25,1.13,1.13,0,0,0-1-.49,1.14,1.14,0,0,0-.95.49,2,2,0,0,0-.37,1.25,2.28,2.28,0,0,0,.17.89,1.57,1.57,0,0,0,.47.62,1.12,1.12,0,0,0,.68.23A1.09,1.09,0,0,0,201.82,62.42Z"/><path d="M155,69.66c.16,2.54-.15,9,2.66,10.4,1.57.77,3.89.09,5.53-.06l8-.69c1.91-.17,1.92-3.17,0-3l-9.59.83c-1.84.16-2.4.41-2.92-1.44a29,29,0,0,1-.68-6c-.12-1.92-3.13-1.93-3,0Z"/><path d="M164.71,73.12A16.88,16.88,0,0,0,172.92,78l-.66-2.5A31.78,31.78,0,0,0,167.12,81c-1.15,1.55,1.45,3,2.59,1.51a28.71,28.71,0,0,1,4.67-4.87,1.51,1.51,0,0,0-.66-2.51A14.11,14.11,0,0,1,166.83,71c-1.32-1.41-3.44.72-2.12,2.12Z"/><path d="M181.31,74.81a.89.89,0,0,1-.2-.58,2.85,2.85,0,0,1,1-1.84l.34.3a2.64,2.64,0,0,0-.45.54,1,1,0,0,0-.18.49.19.19,0,0,0,0,.14l.17.18.21.21a.41.41,0,0,1,.07.22.56.56,0,0,1-.58.57A.63.63,0,0,1,181.31,74.81Z"/><path d="M184.7,72.53h1.73a2.4,2.4,0,0,1,1.52.4,1.28,1.28,0,0,1,.5,1.08,1.52,1.52,0,0,1-.24.83,1.26,1.26,0,0,1-.66.52,1.69,1.69,0,0,1,.83.61,1.6,1.6,0,0,1,.32,1,1.51,1.51,0,0,1-.57,1.25,2.66,2.66,0,0,1-1.71.46H184.7Zm1.63,2.53c1,0,1.44-.33,1.44-1a.88.88,0,0,0-.32-.71,1.58,1.58,0,0,0-1-.27h-1.07v2Zm.21,3c1,0,1.43-.38,1.43-1.15s-.53-1.25-1.6-1.25h-1V78Z"/><path d="M190.73,74.74a2.54,2.54,0,0,0,.46-.54,1,1,0,0,0,.18-.48.3.3,0,0,0-.05-.16l-.17-.18a1,1,0,0,1-.21-.21.38.38,0,0,1-.07-.21.56.56,0,0,1,.16-.41.57.57,0,0,1,.42-.16.58.58,0,0,1,.46.23.8.8,0,0,1,.2.58,3,3,0,0,1-1,1.84Z"/><path d="M106.44,63.32v-.53l.68-.65c1.62-1.55,2.35-2.37,2.36-3.33a1.13,1.13,0,0,0-1.26-1.24,2.18,2.18,0,0,0-1.35.54l-.27-.61a2.78,2.78,0,0,1,1.8-.64,1.78,1.78,0,0,1,1.94,1.85c0,1.17-.85,2.12-2.19,3.41l-.51.47v0h2.86v.71Z"/><path d="M111.73,59.87c0-.49,0-.89,0-1.28h.77l.05.78h0a1.73,1.73,0,0,1,1.56-.89c.66,0,1.67.39,1.67,2v2.82h-.86V60.59c0-.76-.28-1.39-1.09-1.39a1.23,1.23,0,0,0-1.16.88,1.16,1.16,0,0,0-.06.4v2.84h-.86Z"/><path d="M121.25,56.38V62.1c0,.42,0,.9,0,1.22h-.77l0-.82h0a1.74,1.74,0,0,1-1.61.93,2.16,2.16,0,0,1-2-2.41A2.27,2.27,0,0,1,119,58.48a1.55,1.55,0,0,1,1.42.73h0V56.38Zm-.86,4.14a1.55,1.55,0,0,0,0-.37,1.25,1.25,0,0,0-1.24-1c-.89,0-1.42.78-1.42,1.83s.47,1.75,1.4,1.75a1.29,1.29,0,0,0,1.26-1,1.5,1.5,0,0,0,0-.37Z"/><path d="M128.13,63.15a3.27,3.27,0,0,1-1.36.27A2.25,2.25,0,0,1,124.42,61,2.4,2.4,0,0,1,127,58.49a2.78,2.78,0,0,1,1.19.25l-.19.66a2,2,0,0,0-1-.22,1.78,1.78,0,0,0,0,3.56A2.44,2.44,0,0,0,128,62.5Z"/><path d="M131.76,63.32l-.06-.59h0a1.79,1.79,0,0,1-1.45.7,1.35,1.35,0,0,1-1.45-1.36c0-1.14,1-1.77,2.85-1.76v-.1a1,1,0,0,0-1.08-1.09,2.3,2.3,0,0,0-1.23.35l-.2-.57a3,3,0,0,1,1.56-.42c1.45,0,1.8,1,1.8,1.94v1.77a6.45,6.45,0,0,0,.08,1.13Zm-.12-2.41c-.94,0-2,.14-2,1.06a.76.76,0,0,0,.81.82,1.18,1.18,0,0,0,1.15-.79.86.86,0,0,0,0-.27Z"/><path d="M133.86,56.38h.86v6.94h-.86Z"/><path d="M136.17,56.38H137v6.94h-.86Z"/><path d="M138.27,59.37a.59.59,0,1,1,1.17,0,.59.59,0,1,1-1.17,0Zm0,3.45a.59.59,0,1,1,.58.61A.58.58,0,0,1,138.27,62.82Z"/><path d="M153.93,96.68h0a1.7,1.7,0,0,0-.47-.35,1.06,1.06,0,0,0-.45-.09,1.31,1.31,0,0,0-.66.18,1.25,1.25,0,0,0-.51.53,1.87,1.87,0,0,0-.2.9v2.37h-.71V95.75h.73l0,.82a1.49,1.49,0,0,1,.58-.68,1.56,1.56,0,0,1,.84-.25,1.61,1.61,0,0,1,1.19.49Zm-.1,0s0,0,0,0l.06,0,0,0-.07,0Zm.14,0-.05,0v0S154,96.75,154,96.74Z"/><path d="M155.73,99.71a2.35,2.35,0,0,1-.59-1.71,2.8,2.8,0,0,1,.27-1.27,2,2,0,0,1,.74-.81,2,2,0,0,1,1-.28,1.73,1.73,0,0,1,1.32.54,2.23,2.23,0,0,1,.5,1.59,2.14,2.14,0,0,1,0,.32h-3.18a1.82,1.82,0,0,0,.46,1.24,1.57,1.57,0,0,0,2.22-.08l.4.39a1.94,1.94,0,0,1-1.57.68A2.12,2.12,0,0,1,155.73,99.71Zm2.57-2.17a1.47,1.47,0,0,0-.32-1,1,1,0,0,0-.84-.37,1.24,1.24,0,0,0-.85.34,1.67,1.67,0,0,0-.45,1Z"/><path d="M163.4,96.15a2.33,2.33,0,0,1,.51,1.7v2.37h-.77v-.68a1.55,1.55,0,0,1-1.52.79,1.79,1.79,0,0,1-1.17-.34,1.08,1.08,0,0,1-.42-.89,1.22,1.22,0,0,1,.3-.82,2,2,0,0,1,.82-.55,3.39,3.39,0,0,1,1.13-.19,7.73,7.73,0,0,1,1,.06,1.53,1.53,0,0,0-.4-1.06,1.41,1.41,0,0,0-1-.31,1.59,1.59,0,0,0-.64.13,1.71,1.71,0,0,0-.56.37l-.35-.45a2.16,2.16,0,0,1,1.6-.63A2,2,0,0,1,163.4,96.15Zm-.57,3.22a1.86,1.86,0,0,0,.46-1.23,5.65,5.65,0,0,0-.95-.07,2.26,2.26,0,0,0-1.17.25.79.79,0,0,0-.43.74c0,.49.31.73.95.73A1.54,1.54,0,0,0,162.83,99.37Z"/><path d="M165.83,100.05a2,2,0,0,1-.68-.8,2.92,2.92,0,0,1-.26-1.31,2.8,2.8,0,0,1,.27-1.29,2,2,0,0,1,.7-.77,1.86,1.86,0,0,1,.91-.25,1.46,1.46,0,0,1,.79.21,1.36,1.36,0,0,1,.52.57V93.72h.74v.06a.28.28,0,0,0-.07.13,1.25,1.25,0,0,0,0,.24v5.38c0,.16,0,.28,0,.39a.84.84,0,0,0,.08.3h-.7a1.11,1.11,0,0,1-.08-.3c0-.11,0-.23,0-.39a1.64,1.64,0,0,1-.56.58,1.38,1.38,0,0,1-.76.21A1.66,1.66,0,0,1,165.83,100.05Zm1.9-.82A2.49,2.49,0,0,0,168,98a2.36,2.36,0,0,0-.31-1.27,1.14,1.14,0,0,0-1.83,0,2,2,0,0,0-.31,1.19,2.44,2.44,0,0,0,.33,1.36,1.05,1.05,0,0,0,.94.51A1,1,0,0,0,167.73,99.23Z"/><path d="M170.1,100.22v-6.1h3.51v.59h-2.82v1.92h2.28v.6h-2.28v3Z"/><path d="M178.4,96.68h0a2.06,2.06,0,0,0-.47-.35,1.06,1.06,0,0,0-.45-.09,1.35,1.35,0,0,0-.67.18,1.29,1.29,0,0,0-.5.53,1.76,1.76,0,0,0-.2.9v2.37h-.71V95.75h.73l0,.82a1.41,1.41,0,0,1,.57-.68,1.63,1.63,0,0,1,2,.24Zm-.11,0s0,0,0,0l.06,0,0,0-.07,0Zm.14,0-.05,0,0,0S178.46,96.75,178.43,96.74Z"/><path d="M180.5,100a2.08,2.08,0,0,1-.73-.82,2.65,2.65,0,0,1-.26-1.21,2.58,2.58,0,0,1,.26-1.2,2.11,2.11,0,0,1,.73-.83,2.06,2.06,0,0,1,2.14,0,2.11,2.11,0,0,1,.73.83,2.59,2.59,0,0,1,.27,1.2,2.66,2.66,0,0,1-.27,1.21,2.08,2.08,0,0,1-.73.82,2.12,2.12,0,0,1-2.14,0Zm1.75-.52a1.48,1.48,0,0,0,.47-.62,2.33,2.33,0,0,0,.17-.9,2,2,0,0,0-.37-1.24,1.13,1.13,0,0,0-1-.49,1.14,1.14,0,0,0-.95.49,2,2,0,0,0-.37,1.24,2.33,2.33,0,0,0,.17.9,1.48,1.48,0,0,0,.47.62,1.11,1.11,0,0,0,.68.22A1.09,1.09,0,0,0,182.25,99.49Z"/><path d="M184.39,95.75H185v.44a1.27,1.27,0,0,1,.41-.39.87.87,0,0,1,.5-.16.81.81,0,0,1,.52.19.79.79,0,0,1,.28.47,1.09,1.09,0,0,1,.4-.48,1.07,1.07,0,0,1,.61-.18.76.76,0,0,1,.66.32,1.4,1.4,0,0,1,.2.83v3.43H188V97.05a1.55,1.55,0,0,0-.11-.72.34.34,0,0,0-.31-.17.48.48,0,0,0-.34.17,1.27,1.27,0,0,0-.27.42,1.41,1.41,0,0,0-.1.52v3h-.66V97.11a1.79,1.79,0,0,0-.1-.74.42.42,0,0,0-.39-.19.5.5,0,0,0-.3.13,1.09,1.09,0,0,0-.25.38,1.54,1.54,0,0,0-.1.55v3h-.64Z"/><path d="M189.67,100.22v-6.1h3.52v.59h-2.83v1.92h2.28v.6h-2.28v3Z"/><path d="M195.18,100a2.08,2.08,0,0,1-.73-.82,2.65,2.65,0,0,1-.26-1.21,2.58,2.58,0,0,1,.26-1.2,2.11,2.11,0,0,1,.73-.83,2.06,2.06,0,0,1,2.14,0,2.11,2.11,0,0,1,.73.83,2.58,2.58,0,0,1,.26,1.2,2.65,2.65,0,0,1-.26,1.21,2.08,2.08,0,0,1-.73.82,2.12,2.12,0,0,1-2.14,0Zm1.75-.52a1.48,1.48,0,0,0,.47-.62,2.33,2.33,0,0,0,.17-.9,2,2,0,0,0-.37-1.24,1.14,1.14,0,0,0-.95-.49,1.13,1.13,0,0,0-.95.49,2,2,0,0,0-.37,1.24,2.33,2.33,0,0,0,.17.9,1.48,1.48,0,0,0,.47.62,1.16,1.16,0,0,0,1.36,0Z"/><path d="M200.08,100a2,2,0,0,1-.74-.82,2.79,2.79,0,0,1-.26-1.21,2.71,2.71,0,0,1,.26-1.2,2.06,2.06,0,0,1,.74-.83,1.9,1.9,0,0,1,1.06-.3,1.94,1.94,0,0,1,1.07.3,2,2,0,0,1,.73.83,2.59,2.59,0,0,1,.27,1.2,2.66,2.66,0,0,1-.27,1.21,1.93,1.93,0,0,1-1.8,1.11A2,2,0,0,1,200.08,100Zm1.74-.52a1.48,1.48,0,0,0,.47-.62,2.16,2.16,0,0,0,.17-.9,2,2,0,0,0-.37-1.24,1.13,1.13,0,0,0-1-.49,1.14,1.14,0,0,0-.95.49,2,2,0,0,0-.37,1.24,2.33,2.33,0,0,0,.17.9,1.57,1.57,0,0,0,.47.62,1.11,1.11,0,0,0,.68.22A1.09,1.09,0,0,0,201.82,99.49Z"/><path d="M155,106.73c.16,2.53-.15,9,2.66,10.4,1.57.77,3.89.08,5.53-.06l8-.7c1.91-.16,1.92-3.16,0-3l-9.59.84c-1.84.16-2.4.41-2.92-1.44a29,29,0,0,1-.68-6c-.12-1.92-3.13-1.93-3,0Z"/><path d="M164.71,110.19a17,17,0,0,0,8.21,4.85l-.66-2.51a32.15,32.15,0,0,0-5.14,5.48c-1.15,1.55,1.45,3,2.59,1.52a29.15,29.15,0,0,1,4.67-4.88,1.51,1.51,0,0,0-.66-2.5,14.11,14.11,0,0,1-6.89-4.08c-1.32-1.41-3.44.71-2.12,2.12Z"/><path d="M181.31,111.87a.85.85,0,0,1-.2-.58,2.87,2.87,0,0,1,1-1.84l.34.31a2.57,2.57,0,0,0-.45.53,1.09,1.09,0,0,0-.18.49.2.2,0,0,0,0,.15l.17.18a2.06,2.06,0,0,1,.21.21.38.38,0,0,1,.07.22.59.59,0,0,1-.16.4.57.57,0,0,1-.42.16A.59.59,0,0,1,181.31,111.87Z"/><path d="M187.35,115.21l.33-.2a1.67,1.67,0,0,0,.54-.55l.51.34a2,2,0,0,1-.72.74,1.82,1.82,0,0,1-1,.25,2.25,2.25,0,0,1-1.22-.33,2.29,2.29,0,0,1-.85-1,4,4,0,0,1-.32-1.74,4.1,4.1,0,0,1,.34-1.82,2.31,2.31,0,0,1,.87-1,2.26,2.26,0,0,1,1.14-.3,2,2,0,0,1,1.12.32,2.16,2.16,0,0,1,.72.88l-.59.28a0,0,0,0,1,0,0,1.82,1.82,0,0,0-.57-.72,1.29,1.29,0,0,0-.69-.2,1.37,1.37,0,0,0-1.22.67,3.32,3.32,0,0,0-.45,1.86,3.69,3.69,0,0,0,.23,1.34,2.12,2.12,0,0,0,.61.91,1.29,1.29,0,0,0,.86.33Zm.78-4.23.08.06-.07,0,0-.07Zm.08.06h0C188.25,111.09,188.25,111.09,188.21,111Z"/><path d="M190.73,111.81a2.36,2.36,0,0,0,.46-.55,1,1,0,0,0,.18-.48.25.25,0,0,0-.05-.15l-.17-.18a2.06,2.06,0,0,1-.21-.21.38.38,0,0,1-.07-.21.56.56,0,0,1,.16-.41.57.57,0,0,1,.42-.17.61.61,0,0,1,.46.23.84.84,0,0,1,.2.58,3,3,0,0,1-1,1.84Z"/><path d="M106.65,99.4a2.81,2.81,0,0,0,1.4.4c1.11,0,1.45-.7,1.44-1.23,0-.89-.81-1.27-1.64-1.27h-.48v-.65h.48c.62,0,1.42-.32,1.42-1.07,0-.51-.33-1-1.12-1a2.28,2.28,0,0,0-1.27.42l-.22-.63a3,3,0,0,1,1.66-.49c1.25,0,1.82.75,1.82,1.52a1.58,1.58,0,0,1-1.18,1.5v0a1.64,1.64,0,0,1,1.42,1.63c0,1-.79,1.91-2.32,1.91a3.28,3.28,0,0,1-1.65-.43Z"/><path d="M111.73,97.13c0-.55,0-1,0-1.47h.76l0,.92h0a1.41,1.41,0,0,1,1.31-1,.93.93,0,0,1,.24,0v.81a1.23,1.23,0,0,0-.29,0,1.21,1.21,0,0,0-1.16,1.11,2.25,2.25,0,0,0,0,.4v2.52h-.85Z"/><path d="M118.92,93.45v5.72c0,.42,0,.9,0,1.22h-.77l0-.82h0a1.74,1.74,0,0,1-1.61.93,2.16,2.16,0,0,1-2-2.41,2.27,2.27,0,0,1,2.13-2.54,1.57,1.57,0,0,1,1.42.72h0V93.45Zm-.86,4.13a1.53,1.53,0,0,0,0-.36,1.25,1.25,0,0,0-1.24-1c-.89,0-1.42.79-1.42,1.83s.47,1.75,1.4,1.75a1.28,1.28,0,0,0,1.26-1,1.53,1.53,0,0,0,0-.38Z"/><path d="M125.8,100.21a3.06,3.06,0,0,1-1.35.28,2.25,2.25,0,0,1-2.36-2.42,2.4,2.4,0,0,1,2.54-2.51,3,3,0,0,1,1.19.24l-.19.67a2,2,0,0,0-1-.23A1.64,1.64,0,0,0,123,98a1.62,1.62,0,0,0,1.64,1.77,2.45,2.45,0,0,0,1.06-.23Z"/><path d="M129.44,100.39l-.07-.6h0a1.78,1.78,0,0,1-1.45.71,1.35,1.35,0,0,1-1.45-1.36c0-1.15,1-1.77,2.85-1.76v-.1a1,1,0,0,0-1.08-1.1,2.31,2.31,0,0,0-1.23.36l-.19-.57a2.86,2.86,0,0,1,1.55-.42c1.45,0,1.8,1,1.8,1.93v1.77a6.5,6.5,0,0,0,.08,1.14ZM129.31,98c-.94,0-2,.15-2,1.07a.77.77,0,0,0,.82.82,1.18,1.18,0,0,0,1.14-.79.91.91,0,0,0,.05-.27Z"/><path d="M131.53,93.45h.86v6.94h-.86Z"/><path d="M133.84,93.45h.86v6.94h-.86Z"/><path d="M135.94,96.44a.59.59,0,1,1,1.17,0,.59.59,0,1,1-1.17,0Zm0,3.45a.59.59,0,1,1,1.17,0,.59.59,0,1,1-1.17,0Z"/><path d="M4.72,17.69v8.08h-1V17.69Z"/><path d="M6.63,21.54c0-.6,0-1.1,0-1.58h.93l0,.94h0a2,2,0,0,1,1.83-1.07A1.71,1.71,0,0,1,11.06,21h0a2.35,2.35,0,0,1,.65-.76A2,2,0,0,1,13,19.83c.77,0,1.91.51,1.91,2.52v3.42h-1V22.48c0-1.11-.41-1.78-1.26-1.78a1.36,1.36,0,0,0-1.25,1,1.62,1.62,0,0,0-.08.52v3.59h-1V22.29c0-.92-.41-1.59-1.21-1.59a1.44,1.44,0,0,0-1.31,1.05,1.5,1.5,0,0,0-.09.52v3.5h-1Z"/><path d="M16.64,21.86c0-.74,0-1.34-.05-1.9h.95l.05,1h0a2.28,2.28,0,0,1,2.06-1.13c1.41,0,2.46,1.19,2.46,3,0,2.09-1.27,3.12-2.63,3.12A2.05,2.05,0,0,1,17.71,25h0v3.15h-1Zm1,1.55a2.82,2.82,0,0,0,.05.43,1.63,1.63,0,0,0,1.59,1.23c1.11,0,1.76-.91,1.76-2.24,0-1.16-.61-2.16-1.73-2.16A1.68,1.68,0,0,0,17.76,22a1.56,1.56,0,0,0-.08.43Z"/><path d="M28.33,24.19c0,.6,0,1.12,0,1.58h-.93l-.06-.95h0a2.16,2.16,0,0,1-1.91,1.08c-.92,0-2-.5-2-2.54V20h1.06v3.22c0,1.1.33,1.85,1.29,1.85a1.53,1.53,0,0,0,1.39-1,1.57,1.57,0,0,0,.1-.54V20h1.06Z"/><path d="M30.08,21.78c0-.69,0-1.28,0-1.82H31l0,1.14H31a1.74,1.74,0,0,1,1.61-1.27,1,1,0,0,1,.3,0v1a1.94,1.94,0,0,0-.36,0,1.48,1.48,0,0,0-1.42,1.35,3.52,3.52,0,0,0-.05.49v3.1h-1Z"/><path d="M35.23,18.33a.66.66,0,0,1-1.31,0,.65.65,0,0,1,.66-.66A.63.63,0,0,1,35.23,18.33Zm-1.18,7.44V20h1.06v5.81Z"/><path d="M38.13,18.3V20h1.51v.81H38.13V23.9c0,.72.2,1.13.79,1.13a2.08,2.08,0,0,0,.61-.08l0,.8a2.67,2.67,0,0,1-.93.14,1.49,1.49,0,0,1-1.14-.44,2.18,2.18,0,0,1-.41-1.52V20.77h-.9V20h.9V18.57Z"/><path d="M41.32,20l1.28,3.43c.13.39.27.84.37,1.19h0c.11-.35.23-.79.37-1.21L44.51,20h1.12L44.05,24.1c-.76,2-1.28,3-2,3.64a3,3,0,0,1-1.3.68l-.26-.89a2.77,2.77,0,0,0,.92-.51,3.22,3.22,0,0,0,.89-1.18,1,1,0,0,0,.08-.25.91.91,0,0,0-.07-.28L40.17,20Z"/><path d="M46.63,20.92a.71.71,0,0,1,.72-.75.75.75,0,0,1,0,1.5A.71.71,0,0,1,46.63,20.92Zm0,4.24a.71.71,0,0,1,.72-.76.7.7,0,0,1,.7.76.71.71,0,1,1-1.42,0Z"/><path d="M5,36.5H3.38v-.59h4v.59H5.72v4.79H5Z"/><path d="M7.89,35.62h.7V38h0a1.31,1.31,0,0,1,.5-.49,1.47,1.47,0,0,1,.72-.2c.52,0,1.35.32,1.35,1.65v2.3h-.7V39.07c0-.62-.23-1.15-.9-1.15a1,1,0,0,0-.94.7.87.87,0,0,0-.05.34v2.33h-.7Z"/><path d="M12.72,39.49a1.24,1.24,0,0,0,1.33,1.34,2.57,2.57,0,0,0,1.07-.2l.12.5a3,3,0,0,1-1.29.25,1.8,1.8,0,0,1-1.9-2,1.88,1.88,0,0,1,1.81-2.08,1.63,1.63,0,0,1,1.6,1.82,2.5,2.5,0,0,1,0,.33ZM14.78,39a1,1,0,0,0-1-1.14A1.17,1.17,0,0,0,12.73,39Z"/><path d="M18.1,41.29V38h-.54v-.54h.54v-.18a1.82,1.82,0,0,1,.45-1.35,1.35,1.35,0,0,1,.95-.36,1.72,1.72,0,0,1,.59.11l-.09.55a1,1,0,0,0-.45-.09c-.6,0-.75.53-.75,1.12v.2h.93V38H18.8v3.33Z"/><path d="M23.61,40.24c0,.4,0,.75,0,1H23l0-.63h0a1.45,1.45,0,0,1-1.28.72c-.61,0-1.34-.33-1.34-1.69V37.42h.71v2.15c0,.73.22,1.23.86,1.23a1,1,0,0,0,.93-.64,1,1,0,0,0,.06-.36V37.42h.71Z"/><path d="M24.78,38.47c0-.4,0-.72,0-1h.63l0,.64h0a1.44,1.44,0,0,1,1.28-.72c.54,0,1.37.32,1.37,1.64v2.31h-.7V39.06c0-.62-.24-1.14-.9-1.14a1,1,0,0,0-.94.72,1.09,1.09,0,0,0-.05.33v2.32h-.7Z"/><path d="M32,41.15a2.49,2.49,0,0,1-1.11.23,1.84,1.84,0,0,1-1.92-2,2,2,0,0,1,2.07-2,2.48,2.48,0,0,1,1,.19l-.16.55A1.59,1.59,0,0,0,31,37.9a1.34,1.34,0,0,0-1.36,1.47A1.33,1.33,0,0,0,31,40.82a1.94,1.94,0,0,0,.86-.2Z"/><path d="M33.75,36.31v1.11h1V38h-1v2.09c0,.48.14.75.53.75a1.37,1.37,0,0,0,.41,0l0,.53a1.87,1.87,0,0,1-.63.1,1,1,0,0,1-.75-.3,1.44,1.44,0,0,1-.28-1V38h-.6v-.54h.6V36.5Z"/><path d="M36.33,36.34a.41.41,0,0,1-.44.43.42.42,0,0,1-.43-.43.43.43,0,0,1,.44-.44A.41.41,0,0,1,36.33,36.34Zm-.78,4.95V37.42h.7v3.87Z"/><path d="M40.93,39.33A1.89,1.89,0,0,1,39,41.38a1.84,1.84,0,0,1-1.86-2,1.89,1.89,0,0,1,1.92-2A1.83,1.83,0,0,1,40.93,39.33Zm-3.07,0c0,.85.48,1.48,1.17,1.48s1.18-.63,1.18-1.5c0-.65-.33-1.49-1.16-1.49S37.86,38.63,37.86,39.37Z"/><path d="M41.82,38.47c0-.4,0-.72,0-1h.63l0,.64h0a1.44,1.44,0,0,1,1.28-.72c.54,0,1.37.32,1.37,1.64v2.31h-.7V39.06c0-.62-.24-1.14-.9-1.14a1,1,0,0,0-.94.72,1.09,1.09,0,0,0,0,.33v2.32h-.7Z"/><path d="M51.29,35.62V40.3a9.83,9.83,0,0,0,0,1h-.64l0-.67h0a1.42,1.42,0,0,1-1.32.76,1.76,1.76,0,0,1-1.66-2,1.85,1.85,0,0,1,1.74-2.08,1.28,1.28,0,0,1,1.16.59h0V35.62ZM50.59,39a1.53,1.53,0,0,0,0-.3,1,1,0,0,0-1-.81c-.73,0-1.16.64-1.16,1.49s.39,1.44,1.15,1.44a1.07,1.07,0,0,0,1-.84,1.55,1.55,0,0,0,0-.31Z"/><path d="M56,39.33A1.89,1.89,0,0,1,54,41.38a1.84,1.84,0,0,1-1.86-2,1.89,1.89,0,0,1,1.92-2A1.83,1.83,0,0,1,56,39.33Zm-3.07,0c0,.85.48,1.48,1.17,1.48s1.18-.63,1.18-1.5c0-.65-.33-1.49-1.16-1.49S52.9,38.63,52.9,39.37Z"/><path d="M57.25,39.49a1.23,1.23,0,0,0,1.32,1.34,2.62,2.62,0,0,0,1.08-.2l.12.5a3,3,0,0,1-1.29.25,1.8,1.8,0,0,1-1.9-2,1.87,1.87,0,0,1,1.81-2.08A1.64,1.64,0,0,1,60,39.16c0,.14,0,.26,0,.33ZM59.31,39a1,1,0,0,0-1-1.14A1.16,1.16,0,0,0,57.26,39Z"/><path d="M60.77,40.58a1.89,1.89,0,0,0,.92.27c.52,0,.76-.25.76-.57s-.2-.52-.72-.71c-.7-.25-1-.63-1-1.1A1.2,1.2,0,0,1,62,37.34a1.92,1.92,0,0,1,1,.24l-.18.51a1.45,1.45,0,0,0-.79-.23c-.41,0-.64.24-.64.53s.23.47.73.66c.67.25,1,.59,1,1.17s-.53,1.16-1.45,1.16a2.22,2.22,0,0,1-1.09-.27Z"/><path d="M65.73,38.47c0-.4,0-.72,0-1h.62l0,.64h0a1.41,1.41,0,0,1,1.27-.72c.54,0,1.37.32,1.37,1.64v2.31h-.7V39.06c0-.62-.23-1.14-.9-1.14a1,1,0,0,0-.94.72,1.09,1.09,0,0,0,0,.33v2.32h-.7Z"/><path d="M73.67,39.33a1.89,1.89,0,0,1-1.93,2.05,1.83,1.83,0,0,1-1.85-2,1.88,1.88,0,0,1,1.92-2A1.83,1.83,0,0,1,73.67,39.33Zm-3.07,0c0,.85.49,1.48,1.17,1.48S73,40.22,73,39.35c0-.65-.33-1.49-1.16-1.49S70.6,38.63,70.6,39.37Z"/><path d="M75.41,36.31v1.11h1V38h-1v2.09c0,.48.13.75.52.75a1.33,1.33,0,0,0,.41,0l0,.53a1.8,1.8,0,0,1-.62.1,1,1,0,0,1-.76-.3,1.44,1.44,0,0,1-.27-1V38h-.6v-.54h.6V36.5Z"/><path d="M6.11,50.9l-.05-.49H6A1.44,1.44,0,0,1,4.85,51a1.1,1.1,0,0,1-1.19-1.11c0-.93.84-1.45,2.33-1.44v-.08a.8.8,0,0,0-.88-.89,2,2,0,0,0-1,.28l-.16-.46a2.41,2.41,0,0,1,1.28-.34c1.18,0,1.47.8,1.47,1.58V50a5.38,5.38,0,0,0,.06.93Zm-.1-2c-.77,0-1.64.12-1.64.87a.62.62,0,0,0,.66.67A1,1,0,0,0,6,49.82a1,1,0,0,0,0-.23Z"/><path d="M7.82,45.22h.71V50.9H7.82Z"/><path d="M10,47l.51,2c.12.43.22.83.29,1.23h0c.08-.39.21-.8.34-1.22l.63-2h.59L13,49c.15.46.26.87.35,1.26h0a10.18,10.18,0,0,1,.3-1.25L14.2,47h.69L13.65,50.9H13l-.59-1.85c-.14-.43-.25-.82-.35-1.27h0a12,12,0,0,1-.36,1.28l-.62,1.84h-.64L9.27,47Z"/><path d="M17.71,50.9l-.06-.49h0a1.44,1.44,0,0,1-1.18.57,1.1,1.1,0,0,1-1.19-1.11c0-.93.84-1.45,2.33-1.44v-.08a.8.8,0,0,0-.88-.89,2,2,0,0,0-1,.28l-.16-.46a2.41,2.41,0,0,1,1.28-.34c1.18,0,1.47.8,1.47,1.58V50a5.38,5.38,0,0,0,.06.93Zm-.1-2c-.77,0-1.64.12-1.64.87a.62.62,0,0,0,.66.67,1,1,0,0,0,.94-.64,1,1,0,0,0,0-.23Z"/><path d="M19.62,47l.84,2.28c.09.26.19.56.25.79h0c.07-.23.15-.52.25-.8L21.74,47h.75l-1.06,2.75a5.89,5.89,0,0,1-1.33,2.43,1.86,1.86,0,0,1-.86.45l-.18-.59a2,2,0,0,0,.62-.34,2.26,2.26,0,0,0,.59-.79.58.58,0,0,0,.06-.17.85.85,0,0,0,0-.18L18.85,47Z"/><path d="M23,50.18a1.93,1.93,0,0,0,.93.28c.51,0,.75-.26.75-.58s-.2-.52-.72-.71c-.69-.25-1-.63-1-1.1a1.19,1.19,0,0,1,1.34-1.13,1.92,1.92,0,0,1,.95.24l-.18.51a1.45,1.45,0,0,0-.79-.23c-.42,0-.65.24-.65.53s.23.47.74.66c.67.25,1,.59,1,1.17S24.82,51,23.9,51a2.19,2.19,0,0,1-1.09-.27Z"/><path d="M27.94,45.22h.71v2.41h0a1.34,1.34,0,0,1,.51-.49,1.44,1.44,0,0,1,.72-.2c.52,0,1.35.32,1.35,1.65V50.9h-.71V48.67c0-.62-.23-1.15-.89-1.15a1,1,0,0,0-.94.7.87.87,0,0,0-.05.34V50.9h-.71Z"/><path d="M34.53,50.9l-.06-.49h0a1.46,1.46,0,0,1-1.19.57,1.1,1.1,0,0,1-1.18-1.11c0-.93.83-1.45,2.33-1.44v-.08a.8.8,0,0,0-.88-.89,2,2,0,0,0-1,.28l-.16-.46a2.37,2.37,0,0,1,1.27-.34c1.18,0,1.47.8,1.47,1.58V50a5.33,5.33,0,0,0,.07.93Zm-.11-2c-.76,0-1.64.12-1.64.87a.62.62,0,0,0,.67.67,1,1,0,0,0,.93-.64.66.66,0,0,0,0-.23Z"/><path d="M36.45,47l.76,2.17a9.26,9.26,0,0,1,.31,1h0c.09-.32.2-.64.33-1L38.62,47h.74L37.84,50.9h-.67L35.7,47Z"/><path d="M40.34,49.09a1.23,1.23,0,0,0,1.32,1.34,2.53,2.53,0,0,0,1.07-.2l.12.51a3.12,3.12,0,0,1-1.28.24,1.81,1.81,0,0,1-1.91-2,1.88,1.88,0,0,1,1.82-2.08,1.64,1.64,0,0,1,1.6,1.82,2.19,2.19,0,0,1,0,.33Zm2.06-.51a1,1,0,0,0-1-1.14,1.17,1.17,0,0,0-1.08,1.14Z"/><path d="M46.5,45.91V47h1v.53h-1v2.09c0,.48.13.75.52.75a1.33,1.33,0,0,0,.41,0l0,.53a1.59,1.59,0,0,1-.62.1,1,1,0,0,1-.76-.3,1.44,1.44,0,0,1-.27-1V47.56h-.6V47h.6V46.1Z"/><path d="M48.3,45.22H49v2.41h0a1.24,1.24,0,0,1,.5-.49,1.44,1.44,0,0,1,.72-.2c.52,0,1.35.32,1.35,1.65V50.9h-.7V48.67c0-.62-.24-1.15-.9-1.15a1,1,0,0,0-.94.7.87.87,0,0,0,0,.34V50.9h-.7Z"/><path d="M53.13,49.09a1.23,1.23,0,0,0,1.33,1.34,2.6,2.6,0,0,0,1.07-.2l.12.51a3.21,3.21,0,0,1-1.29.24,1.8,1.8,0,0,1-1.9-2,1.87,1.87,0,0,1,1.81-2.08,1.64,1.64,0,0,1,1.6,1.82c0,.14,0,.26,0,.33Zm2.06-.51a1,1,0,0,0-1-1.14,1.16,1.16,0,0,0-1.08,1.14Z"/><path d="M58.34,50.18a1.93,1.93,0,0,0,.93.28c.51,0,.75-.26.75-.58s-.2-.52-.72-.71c-.69-.25-1-.63-1-1.1a1.19,1.19,0,0,1,1.33-1.13,1.93,1.93,0,0,1,1,.24l-.18.51a1.45,1.45,0,0,0-.79-.23c-.42,0-.65.24-.65.53s.23.47.74.66c.67.25,1,.59,1,1.17S60.17,51,59.25,51a2.18,2.18,0,0,1-1.08-.27Z"/><path d="M63.75,50.9l-.06-.49h0a1.45,1.45,0,0,1-1.18.57,1.1,1.1,0,0,1-1.19-1.11c0-.93.83-1.45,2.33-1.44v-.08a.8.8,0,0,0-.88-.89,2,2,0,0,0-1,.28l-.16-.46a2.4,2.4,0,0,1,1.27-.34c1.19,0,1.48.8,1.48,1.58V50a5.38,5.38,0,0,0,.06.93Zm-.1-2c-.77,0-1.64.12-1.64.87a.62.62,0,0,0,.66.67,1,1,0,0,0,.94-.64,1,1,0,0,0,0-.23Z"/><path d="M65.46,48.07c0-.4,0-.73,0-1h.62l0,.62h0a1.34,1.34,0,0,1,1.22-.71,1.13,1.13,0,0,1,1.09.77h0a1.64,1.64,0,0,1,.43-.5,1.3,1.3,0,0,1,.86-.27c.51,0,1.27.33,1.27,1.68V50.9H70.3V48.7c0-.74-.27-1.19-.84-1.19a.91.91,0,0,0-.83.64,1.28,1.28,0,0,0-.06.35v2.4h-.68V48.58c0-.62-.28-1.07-.81-1.07a1,1,0,0,0-.87.71.93.93,0,0,0-.06.34V50.9h-.69Z"/><path d="M72.53,49.09a1.23,1.23,0,0,0,1.32,1.34,2.62,2.62,0,0,0,1.08-.2l.12.51a3.21,3.21,0,0,1-1.29.24,1.8,1.8,0,0,1-1.9-2,1.87,1.87,0,0,1,1.81-2.08,1.64,1.64,0,0,1,1.6,1.82c0,.14,0,.26,0,.33Zm2.06-.51a1,1,0,0,0-1-1.14,1.16,1.16,0,0,0-1.07,1.14Z"/><path d="M7.47,58.53a1.89,1.89,0,0,1-1.93,2,1.84,1.84,0,0,1-1.85-2,1.89,1.89,0,0,1,1.92-2.05A1.83,1.83,0,0,1,7.47,58.53Zm-3.07,0c0,.85.49,1.49,1.18,1.49s1.17-.64,1.17-1.51c0-.65-.33-1.49-1.16-1.49S4.4,57.83,4.4,58.57Z"/><path d="M11.6,59.44c0,.4,0,.75,0,1.06H11l0-.64h0a1.43,1.43,0,0,1-1.28.72c-.61,0-1.33-.33-1.33-1.69V56.63H9v2.14C9,59.5,9.26,60,9.9,60a1,1,0,0,0,.93-.64A1,1,0,0,0,10.9,59V56.63h.7Z"/><path d="M13.62,55.51v1.12h1v.53h-1v2.09c0,.48.13.75.52.75a1.33,1.33,0,0,0,.41,0l0,.53a1.59,1.59,0,0,1-.62.1,1,1,0,0,1-.76-.3,1.44,1.44,0,0,1-.27-1V57.16h-.6v-.53h.6V55.7Z"/><path d="M15.42,57.89c0-.5,0-.9,0-1.26H16l0,.66h0a1.54,1.54,0,0,1,1.38-.75,1.75,1.75,0,0,1,1.64,2,1.83,1.83,0,0,1-1.76,2.08,1.36,1.36,0,0,1-1.19-.6h0v2.1h-.69Zm.69,1a2.58,2.58,0,0,0,0,.29A1.09,1.09,0,0,0,17.2,60c.74,0,1.17-.61,1.17-1.49S18,57.1,17.22,57.1a1.12,1.12,0,0,0-1.06.87,1.35,1.35,0,0,0-.05.29Z"/><path d="M23.21,59.44c0,.4,0,.75,0,1.06h-.63l0-.64h0a1.45,1.45,0,0,1-1.28.72c-.61,0-1.34-.33-1.34-1.69V56.63h.71v2.14c0,.73.22,1.23.86,1.23a1,1,0,0,0,.93-.64A1,1,0,0,0,22.5,59V56.63h.71Z"/><path d="M25.22,55.51v1.12h1v.53h-1v2.09c0,.48.14.75.53.75a1.37,1.37,0,0,0,.41,0l0,.53a1.63,1.63,0,0,1-.62.1,1,1,0,0,1-.76-.3,1.44,1.44,0,0,1-.27-1V57.16h-.6v-.53h.6V55.7Z"/><path d="M28.79,60.5V57.16h-.54v-.53h.54v-.19a1.82,1.82,0,0,1,.45-1.35,1.31,1.31,0,0,1,.94-.36,1.73,1.73,0,0,1,.6.11l-.09.55a1,1,0,0,0-.45-.09c-.6,0-.75.53-.75,1.12v.21h.93v.53h-.93V60.5Z"/><path d="M34.45,58.53a1.89,1.89,0,0,1-1.92,2,1.84,1.84,0,0,1-1.86-2,1.89,1.89,0,0,1,1.92-2.05A1.83,1.83,0,0,1,34.45,58.53Zm-3.07,0c0,.85.49,1.49,1.18,1.49s1.17-.64,1.17-1.51c0-.65-.32-1.49-1.16-1.49S31.38,57.83,31.38,58.57Z"/><path d="M35.34,57.83c0-.45,0-.85,0-1.2h.62l0,.75h0a1.17,1.17,0,0,1,1.07-.84l.2,0v.67a.83.83,0,0,0-.24,0,1,1,0,0,0-.94.9,3.11,3.11,0,0,0,0,.33V60.5h-.7Z"/><path d="M40.5,55.51v1.12h1v.53h-1v2.09c0,.48.14.75.53.75a1.37,1.37,0,0,0,.41,0l0,.53a1.63,1.63,0,0,1-.62.1,1,1,0,0,1-.76-.3,1.44,1.44,0,0,1-.28-1V57.16h-.59v-.53h.59V55.7Z"/><path d="M42.3,54.82H43v2.41h0a1.27,1.27,0,0,1,.51-.49,1.41,1.41,0,0,1,.72-.2c.52,0,1.35.32,1.35,1.65V60.5h-.71V58.27c0-.62-.23-1.15-.89-1.15a1,1,0,0,0-1,.7.88.88,0,0,0,0,.34V60.5H42.3Z"/><path d="M47.13,58.69A1.24,1.24,0,0,0,48.46,60a2.53,2.53,0,0,0,1.07-.2l.12.5a2.93,2.93,0,0,1-1.28.25,1.8,1.8,0,0,1-1.91-2,1.88,1.88,0,0,1,1.82-2.08,1.64,1.64,0,0,1,1.6,1.82,2.19,2.19,0,0,1,0,.33Zm2.07-.51a1,1,0,0,0-1-1.14,1.17,1.17,0,0,0-1.08,1.14Z"/><path d="M52.35,59.78a1.93,1.93,0,0,0,.93.28c.51,0,.75-.26.75-.58s-.2-.52-.72-.71c-.7-.25-1-.63-1-1.1a1.19,1.19,0,0,1,1.33-1.13,1.89,1.89,0,0,1,1,.24l-.17.51a1.45,1.45,0,0,0-.79-.23c-.42,0-.65.24-.65.53s.23.47.73.66c.68.25,1,.59,1,1.17s-.53,1.16-1.45,1.16a2.25,2.25,0,0,1-1.09-.27Z"/><path d="M57.76,60.5,57.7,60h0a1.46,1.46,0,0,1-1.19.57,1.1,1.1,0,0,1-1.18-1.11c0-.93.83-1.45,2.33-1.44V58a.8.8,0,0,0-.88-.89,2,2,0,0,0-1,.28l-.16-.46a2.37,2.37,0,0,1,1.27-.34c1.18,0,1.47.8,1.47,1.58v1.45a5.33,5.33,0,0,0,.07.93Zm-.11-2c-.76,0-1.64.12-1.64.87a.62.62,0,0,0,.67.67,1,1,0,0,0,.93-.64.66.66,0,0,0,0-.23Z"/><path d="M59.47,57.67c0-.4,0-.72,0-1h.61l0,.62h0a1.34,1.34,0,0,1,1.22-.71,1.15,1.15,0,0,1,1.09.77h0a1.64,1.64,0,0,1,.43-.5,1.29,1.29,0,0,1,.85-.27c.52,0,1.28.33,1.28,1.68V60.5h-.69V58.3c0-.74-.27-1.19-.84-1.19a.91.91,0,0,0-.83.64,1,1,0,0,0-.06.35v2.4h-.69V58.18c0-.62-.27-1.07-.8-1.07a1,1,0,0,0-.88.71.93.93,0,0,0-.05.34V60.5h-.69Z"/><path d="M66.53,58.69A1.24,1.24,0,0,0,67.86,60a2.53,2.53,0,0,0,1.07-.2l.12.5a3,3,0,0,1-1.28.25,1.8,1.8,0,0,1-1.91-2,1.88,1.88,0,0,1,1.82-2.08,1.64,1.64,0,0,1,1.6,1.82,2.19,2.19,0,0,1,0,.33Zm2.07-.51a1,1,0,0,0-1-1.14,1.17,1.17,0,0,0-1.08,1.14Z"/><path d="M4.75,65.14a.44.44,0,0,1-.87,0,.43.43,0,0,1,.44-.44A.42.42,0,0,1,4.75,65.14ZM4,70.1V66.23h.7V70.1Z"/><path d="M5.84,67.27c0-.4,0-.73,0-1h.62l0,.64h0a1.42,1.42,0,0,1,1.28-.73c.53,0,1.36.32,1.36,1.64V70.1h-.7V67.86c0-.62-.23-1.14-.89-1.14a1,1,0,0,0-1,.72,1.09,1.09,0,0,0,0,.33V70.1h-.7Z"/><path d="M10.28,67.49c0-.5,0-.9,0-1.26h.63l0,.66h0a1.52,1.52,0,0,1,1.37-.75,1.75,1.75,0,0,1,1.64,2,1.83,1.83,0,0,1-1.76,2.08,1.36,1.36,0,0,1-1.19-.6h0v2.1h-.7Zm.7,1a1.36,1.36,0,0,0,0,.29,1.08,1.08,0,0,0,1.05.82c.75,0,1.18-.61,1.18-1.49s-.41-1.44-1.15-1.44a1.13,1.13,0,0,0-1.07.87,1.35,1.35,0,0,0,0,.29Z"/><path d="M18.07,69c0,.4,0,.75,0,1.06h-.62l0-.64h0a1.43,1.43,0,0,1-1.28.72c-.6,0-1.33-.33-1.33-1.69V66.23h.7v2.14c0,.73.23,1.23.87,1.23A1,1,0,0,0,17.3,69a1,1,0,0,0,.07-.36V66.23h.7Z"/><path d="M20.09,65.11v1.12h1v.53h-1v2.09c0,.48.13.75.53.75a1.25,1.25,0,0,0,.4,0l0,.53a1.59,1.59,0,0,1-.62.1,1,1,0,0,1-.76-.3,1.44,1.44,0,0,1-.27-1V66.76h-.6v-.53h.6V65.3Z"/></svg>