<svg id="Layer_1" data-name="Layer 1" xmlns="http://www.w3.org/2000/svg" viewBox="0 0 469 190"><defs><style>.cls-1{fill:#666;}</style></defs><title>exp</title><path d="M196.47,27.68l0,0a4.74,4.74,0,0,0-1-1,2.17,2.17,0,0,0-1.14-.25,2.08,2.08,0,0,0-1.56.59,2.64,2.64,0,0,0-.57,1.89v.8h3.15v1.19h-3.15v8.4h-1.44v-8.4h-2.08V29.74h2.08v-.8a3.66,3.66,0,0,1,.95-2.77,3.54,3.54,0,0,1,2.57-.93,4.18,4.18,0,0,1,1.71.34,3.12,3.12,0,0,1,1.3,1Zm-.25.06s0,0,.08,0l.11,0-.07.09-.12-.09Zm.23,0c.08.11.1.15.05.11l-.09,0Z"/><path d="M200.79,38.87a4.33,4.33,0,0,1-1.57-1.76,6.15,6.15,0,0,1,0-5.17,4.36,4.36,0,0,1,1.57-1.77,4.18,4.18,0,0,1,2.29-.64,4.14,4.14,0,0,1,2.29.64A4.38,4.38,0,0,1,207,31.94a6.25,6.25,0,0,1,0,5.17,4.36,4.36,0,0,1-1.58,1.76,4.21,4.21,0,0,1-2.29.63A4.26,4.26,0,0,1,200.79,38.87Zm3.75-1.11a3.16,3.16,0,0,0,1-1.34,4.67,4.67,0,0,0,.37-1.92,4.26,4.26,0,0,0-.8-2.67,2.51,2.51,0,0,0-4.07,0,4.2,4.2,0,0,0-.8,2.67,4.67,4.67,0,0,0,.37,1.92,3.22,3.22,0,0,0,1,1.34,2.39,2.39,0,0,0,1.46.48A2.35,2.35,0,0,0,204.54,37.76Z"/><path d="M210,39.33V38.12h2.84V26.59h-2.71V25.37h4.24V38.12h2.81v1.21Z"/><path d="M221.82,39a4.11,4.11,0,0,1-1.47-1.74,6.25,6.25,0,0,1-.57-2.79,5.77,5.77,0,0,1,.59-2.77A4,4,0,0,1,221.88,30a3.8,3.8,0,0,1,2-.54,3.14,3.14,0,0,1,1.69.45,3,3,0,0,1,1.11,1.21V25.37h1.59v.15a.54.54,0,0,0-.16.27,2.83,2.83,0,0,0,0,.5l0,11.55c0,.34,0,.62,0,.83a2.32,2.32,0,0,0,.18.66h-1.49a2,2,0,0,1-.18-.66c0-.21,0-.49,0-.83a3.47,3.47,0,0,1-1.18,1.25,3.05,3.05,0,0,1-1.63.45A3.53,3.53,0,0,1,221.82,39Zm4.07-1.78a5.33,5.33,0,0,0,.61-2.71,5,5,0,0,0-.66-2.73,2.44,2.44,0,0,0-3.92-.09,4.26,4.26,0,0,0-.67,2.55,5.32,5.32,0,0,0,.7,2.93,2.28,2.28,0,0,0,2,1.08A2.05,2.05,0,0,0,225.89,37.19Z"/><path d="M231,39.33V38.12h2.84V26.59h-2.71V25.37h4.24V38.12h2.81v1.21Z"/><path d="M244.66,39.33V28.06l-2.64.77-.34-.82,3.42-1.78h1v13.1Z"/><path d="M269.1,30.6a5,5,0,0,1,1.08,3.63v5.1h-1.64V37.86a3.34,3.34,0,0,1-3.28,1.7,3.88,3.88,0,0,1-2.49-.72,2.32,2.32,0,0,1-.91-1.92,2.67,2.67,0,0,1,.65-1.77A4.21,4.21,0,0,1,264.27,34a6.94,6.94,0,0,1,2.42-.41,15.92,15.92,0,0,1,2.17.13,3.35,3.35,0,0,0-.86-2.28,3.09,3.09,0,0,0-2.15-.66,3.6,3.6,0,0,0-1.37.27,3.81,3.81,0,0,0-1.21.8l-.73-1A4.6,4.6,0,0,1,266,29.53,4.25,4.25,0,0,1,269.1,30.6Zm-1.23,6.9a3.92,3.92,0,0,0,1-2.64,13,13,0,0,0-2-.15,5.08,5.08,0,0,0-2.52.53,1.7,1.7,0,0,0-.92,1.59c0,1.05.67,1.58,2,1.58A3.29,3.29,0,0,0,267.87,37.5Z"/><path d="M274.32,39a4.11,4.11,0,0,1-1.47-1.74,6.25,6.25,0,0,1-.57-2.79,5.77,5.77,0,0,1,.59-2.77A4,4,0,0,1,274.38,30a3.8,3.8,0,0,1,1.95-.54,3.14,3.14,0,0,1,1.69.45,3,3,0,0,1,1.11,1.21V25.37h1.59v.15a.54.54,0,0,0-.16.27,2.83,2.83,0,0,0,0,.5l0,11.55c0,.34,0,.62,0,.83a2.32,2.32,0,0,0,.18.66h-1.49a2,2,0,0,1-.18-.66c0-.21,0-.49,0-.83a3.47,3.47,0,0,1-1.18,1.25,3.05,3.05,0,0,1-1.63.45A3.53,3.53,0,0,1,274.32,39Zm4.07-1.78a5.33,5.33,0,0,0,.61-2.71,5,5,0,0,0-.66-2.73,2.44,2.44,0,0,0-3.92-.09,4.26,4.26,0,0,0-.67,2.55,5.32,5.32,0,0,0,.7,2.93,2.28,2.28,0,0,0,2,1.08A2.05,2.05,0,0,0,278.39,37.19Z"/><path d="M284.82,39a4.11,4.11,0,0,1-1.47-1.74,6.25,6.25,0,0,1-.57-2.79,5.77,5.77,0,0,1,.59-2.77A4,4,0,0,1,284.88,30a3.8,3.8,0,0,1,1.95-.54,3.14,3.14,0,0,1,1.69.45,3,3,0,0,1,1.11,1.21V25.37h1.59v.15a.54.54,0,0,0-.16.27,2.83,2.83,0,0,0,0,.5l0,11.55c0,.34,0,.62,0,.83a2.32,2.32,0,0,0,.18.66h-1.49a2,2,0,0,1-.18-.66c0-.21,0-.49,0-.83a3.47,3.47,0,0,1-1.18,1.25,3.05,3.05,0,0,1-1.63.45A3.53,3.53,0,0,1,284.82,39Zm4.07-1.78a5.33,5.33,0,0,0,.61-2.71,5,5,0,0,0-.66-2.73,2.44,2.44,0,0,0-3.92-.09,4.26,4.26,0,0,0-.67,2.55,5.32,5.32,0,0,0,.7,2.93,2.28,2.28,0,0,0,2,1.08A2.05,2.05,0,0,0,288.89,37.19Z"/><path d="M305.58,41.2V25.26h6v1.26h-4.66V40h4.68V41.2Z"/><path d="M318.16,39.33V28.06l-2.64.77-.34-.82,3.42-1.78h1v13.1Z"/><path d="M327.3,42.23a5.64,5.64,0,0,0,1-1.17,2.26,2.26,0,0,0,.38-1,.47.47,0,0,0-.1-.32c-.07-.08-.2-.21-.38-.38a3.53,3.53,0,0,1-.44-.46.71.71,0,0,1-.15-.46,1.22,1.22,0,0,1,.35-.88,1.18,1.18,0,0,1,.89-.36,1.32,1.32,0,0,1,1,.49,1.83,1.83,0,0,1,.43,1.25c0,1.1-.75,2.41-2.25,4Z"/><path d="M363.63,33.62a3.28,3.28,0,0,1,.67,2.12,4,4,0,0,1-.46,1.92,3.41,3.41,0,0,1-1.35,1.39,4.13,4.13,0,0,1-2.12.51,5.24,5.24,0,0,1-2-.37,4.54,4.54,0,0,1-1.61-1.12l1-1.15,0,0,0,0a4.49,4.49,0,0,0,1.08,1,2.6,2.6,0,0,0,1.44.35,2.33,2.33,0,0,0,1.85-.71,2.77,2.77,0,0,0,.63-1.91,2.36,2.36,0,0,0-.79-2,3.33,3.33,0,0,0-2.21-.65c-.14,0-.37,0-.68,0V31.94a3.62,3.62,0,0,0,2.56-.69,2.59,2.59,0,0,0,.68-1.89,1.9,1.9,0,0,0-.52-1.41,1.79,1.79,0,0,0-1.35-.52,3.42,3.42,0,0,0-2.4,1l-.88-.88a4.33,4.33,0,0,1,3.26-1.34,3.39,3.39,0,0,1,2.49.89,3.17,3.17,0,0,1,.91,2.36,3.33,3.33,0,0,1-.53,1.87,2.75,2.75,0,0,1-1.53,1.11A3.85,3.85,0,0,1,363.63,33.62Zm-5.89,3.17a.45.45,0,0,1,.07.07l0,0C357.71,36.8,357.7,36.76,357.74,36.79Zm.2.12-.13,0,.09-.11.1.11S358,36.92,357.94,36.91Z"/><path d="M369.3,42.23a5.64,5.64,0,0,0,1-1.17,2.26,2.26,0,0,0,.38-1,.47.47,0,0,0-.1-.32c-.07-.08-.2-.21-.38-.38a3.53,3.53,0,0,1-.44-.46.71.71,0,0,1-.15-.46,1.22,1.22,0,0,1,.35-.88,1.18,1.18,0,0,1,.89-.36,1.32,1.32,0,0,1,1,.49,1.83,1.83,0,0,1,.43,1.25c0,1.1-.75,2.41-2.25,4Z"/><path d="M401.47,39.21a1.15,1.15,0,0,1-.36-.84,1.14,1.14,0,0,1,.36-.84,1.18,1.18,0,0,1,.86-.36,1.15,1.15,0,0,1,.84.36,1.14,1.14,0,0,1,.36.84,1.21,1.21,0,0,1-1.2,1.19A1.17,1.17,0,0,1,401.47,39.21Z"/><path d="M412,39.21a1.15,1.15,0,0,1-.36-.84,1.14,1.14,0,0,1,.36-.84,1.18,1.18,0,0,1,.86-.36,1.15,1.15,0,0,1,.84.36,1.14,1.14,0,0,1,.36.84,1.21,1.21,0,0,1-1.2,1.19A1.17,1.17,0,0,1,412,39.21Z"/><path d="M422.47,39.21a1.15,1.15,0,0,1-.36-.84,1.14,1.14,0,0,1,.36-.84,1.18,1.18,0,0,1,.86-.36,1.15,1.15,0,0,1,.84.36,1.14,1.14,0,0,1,.36.84,1.21,1.21,0,0,1-1.2,1.19A1.17,1.17,0,0,1,422.47,39.21Z"/><path d="M437.61,41.2h-6V40h4.69V26.52h-4.66V25.26h6Z"/><path d="M271.6,99.26a5,5,0,0,1,1.08,3.64V108H271v-1.47a3.36,3.36,0,0,1-3.28,1.7,3.88,3.88,0,0,1-2.49-.72,2.35,2.35,0,0,1-.91-1.93,2.64,2.64,0,0,1,.65-1.76,4.21,4.21,0,0,1,1.76-1.16,6.72,6.72,0,0,1,2.42-.41,17.83,17.83,0,0,1,2.17.12,3.37,3.37,0,0,0-.86-2.28,3.09,3.09,0,0,0-2.15-.66,3.43,3.43,0,0,0-1.37.28,3.77,3.77,0,0,0-1.21.79l-.73-1a4.6,4.6,0,0,1,3.42-1.35A4.3,4.3,0,0,1,271.6,99.26Zm-1.23,6.9a3.89,3.89,0,0,0,1-2.63,13,13,0,0,0-2-.15,5.09,5.09,0,0,0-2.52.52,1.72,1.72,0,0,0-.92,1.6c0,1,.67,1.58,2,1.58A3.3,3.3,0,0,0,270.37,106.16Z"/><path d="M276.82,107.63a4,4,0,0,1-1.47-1.73,6.25,6.25,0,0,1-.57-2.79,5.84,5.84,0,0,1,.59-2.78,3.9,3.9,0,0,1,1.51-1.64,3.8,3.8,0,0,1,1.95-.54,3.22,3.22,0,0,1,1.69.44,3,3,0,0,1,1.11,1.22V94h1.59v.14a.62.62,0,0,0-.16.28,2.75,2.75,0,0,0,0,.5l0,11.55c0,.34,0,.61,0,.83a2.32,2.32,0,0,0,.18.66h-1.49a2,2,0,0,1-.18-.66c0-.22,0-.49,0-.83a3.55,3.55,0,0,1-1.18,1.25,3.05,3.05,0,0,1-1.63.45A3.46,3.46,0,0,1,276.82,107.63Zm4.07-1.77a5.36,5.36,0,0,0,.61-2.71,5,5,0,0,0-.66-2.73,2.21,2.21,0,0,0-2-1,2.24,2.24,0,0,0-1.93.93,4.32,4.32,0,0,0-.67,2.56,5.34,5.34,0,0,0,.7,2.93,2.28,2.28,0,0,0,2,1.08A2.07,2.07,0,0,0,280.89,105.86Z"/><path d="M287.32,107.63a4,4,0,0,1-1.47-1.73,6.25,6.25,0,0,1-.57-2.79,5.84,5.84,0,0,1,.59-2.78,3.9,3.9,0,0,1,1.51-1.64,3.8,3.8,0,0,1,1.95-.54,3.22,3.22,0,0,1,1.69.44,3,3,0,0,1,1.11,1.22V94h1.59v.14a.62.62,0,0,0-.16.28,2.75,2.75,0,0,0,0,.5l0,11.55c0,.34,0,.61,0,.83a2.32,2.32,0,0,0,.18.66h-1.49a2,2,0,0,1-.18-.66c0-.22,0-.49,0-.83a3.55,3.55,0,0,1-1.18,1.25,3.05,3.05,0,0,1-1.63.45A3.46,3.46,0,0,1,287.32,107.63Zm4.07-1.77a5.36,5.36,0,0,0,.61-2.71,5,5,0,0,0-.66-2.73,2.21,2.21,0,0,0-2-1,2.24,2.24,0,0,0-1.93.93,4.32,4.32,0,0,0-.67,2.56,5.34,5.34,0,0,0,.7,2.93,2.28,2.28,0,0,0,2,1.08A2.07,2.07,0,0,0,291.39,105.86Z"/><path d="M324.13,102.29a3.26,3.26,0,0,1,.67,2.12,4,4,0,0,1-.46,1.92,3.53,3.53,0,0,1-1.35,1.39,4.13,4.13,0,0,1-2.12.51,5.06,5.06,0,0,1-2-.38,4.39,4.39,0,0,1-1.61-1.11l1-1.16,0,0,0,0a4.3,4.3,0,0,0,1.08,1,2.6,2.6,0,0,0,1.44.36,2.36,2.36,0,0,0,1.85-.71,2.8,2.8,0,0,0,.63-1.91,2.39,2.39,0,0,0-.79-2,3.39,3.39,0,0,0-2.21-.65l-.68,0v-1.17a3.62,3.62,0,0,0,2.56-.69,2.62,2.62,0,0,0,.68-1.89,1.9,1.9,0,0,0-.52-1.41,1.8,1.8,0,0,0-1.35-.53,3.43,3.43,0,0,0-2.4,1l-.88-.88A4.31,4.31,0,0,1,321,94.83a3.4,3.4,0,0,1,2.49.9,3.17,3.17,0,0,1,.91,2.36,3.33,3.33,0,0,1-.53,1.87,2.75,2.75,0,0,1-1.53,1.11A3.78,3.78,0,0,1,324.13,102.29Zm-5.89,3.17.07.06,0,0C318.21,105.47,318.2,105.43,318.24,105.46Zm.2.11a.24.24,0,0,1-.13,0l.09-.1.1.1S318.48,105.58,318.44,105.57Z"/><path d="M352.16,108V96.72l-2.64.78-.34-.82,3.42-1.78h1V108Z"/><path class="cls-1" d="M276.32,120c.19,3-.19,10.79,3.06,12.45,1.84.93,4.72.06,6.65-.11l9.8-.85c1.91-.16,1.93-3.16,0-3l-11.76,1c-2.37.2-3.15.35-3.91-2s-.69-5.1-.84-7.5c-.12-1.92-3.12-1.93-3,0Z"/><path class="cls-1" d="M288.16,124a20.52,20.52,0,0,0,9.91,5.86l-.66-2.51a38.54,38.54,0,0,0-6.24,6.65c-1.16,1.55,1.45,3.05,2.59,1.52a35.17,35.17,0,0,1,5.77-6.05,1.51,1.51,0,0,0-.66-2.5,17.56,17.56,0,0,1-8.59-5.09c-1.33-1.41-3.44.71-2.12,2.12Z"/><path d="M312,131.33v-3.21h-5.67v-1.07l6-8.82h1.24v8.67h1.68v1.24h-1.68v3.19Zm-4-4.45h4v-6Z"/><path d="M17.59,26.73h0a3.22,3.22,0,0,0-.67-.65,1.38,1.38,0,0,0-.76-.17,1.38,1.38,0,0,0-1,.39,1.77,1.77,0,0,0-.38,1.26v.53h2.1v.8h-2.1v5.6h-1V28.9H12.38v-.8h1.39v-.53a2.48,2.48,0,0,1,.63-1.85,2.38,2.38,0,0,1,1.72-.61,2.86,2.86,0,0,1,1.14.22,2.09,2.09,0,0,1,.86.66Zm-.17,0s0,0,.06,0l.07,0,0,.05-.09-.05Zm.16,0c.05.08.06.1,0,.08l-.06,0Z"/><path d="M20.47,34.19a3,3,0,0,1-1-1.17,4.21,4.21,0,0,1,0-3.45,3,3,0,0,1,1-1.18,2.94,2.94,0,0,1,3.06,0,3,3,0,0,1,1,1.18,4.21,4.21,0,0,1,0,3.45,3,3,0,0,1-1,1.17,3,3,0,0,1-3.06,0Zm2.5-.74a2,2,0,0,0,.67-.89,3.08,3.08,0,0,0,.25-1.28,2.85,2.85,0,0,0-.53-1.78,1.67,1.67,0,0,0-2.72,0,2.85,2.85,0,0,0-.53,1.78,3.08,3.08,0,0,0,.25,1.28,2,2,0,0,0,.67.89,1.63,1.63,0,0,0,1.94,0Z"/><path d="M26.61,34.5v-.81H28.5V26H26.69v-.81h2.83v8.5h1.87v.81Z"/><path d="M34.49,34.25a2.74,2.74,0,0,1-1-1.15,4.19,4.19,0,0,1-.38-1.86,3.93,3.93,0,0,1,.39-1.85,2.71,2.71,0,0,1,1-1.1,2.55,2.55,0,0,1,1.3-.36,2.1,2.1,0,0,1,1.13.3,1.85,1.85,0,0,1,.73.81V25.19h1.07v.1a.34.34,0,0,0-.11.18,2.44,2.44,0,0,0,0,.34l0,7.7a4.45,4.45,0,0,0,0,.55,1.26,1.26,0,0,0,.12.44h-1a1.93,1.93,0,0,1-.12-.44c0-.15,0-.33,0-.55a2.33,2.33,0,0,1-.79.83,2,2,0,0,1-1.08.3A2.32,2.32,0,0,1,34.49,34.25Zm2.71-1.18a3.5,3.5,0,0,0,.41-1.8,3.33,3.33,0,0,0-.44-1.82,1.47,1.47,0,0,0-1.32-.69,1.51,1.51,0,0,0-1.29.62,2.88,2.88,0,0,0-.45,1.7,3.57,3.57,0,0,0,.47,2,1.51,1.51,0,0,0,1.35.72A1.36,1.36,0,0,0,37.2,33.07Z"/><path d="M40.61,34.5v-.81H42.5V26H40.69v-.81h2.83v8.5h1.87v.81Z"/><path d="M49.72,34.5V27L48,27.5,47.73,27,50,25.76h.69V34.5Z"/><path d="M62.92,34.5a5.15,5.15,0,0,1-.14-1.35,3,3,0,0,1-1.19,1.1,3.72,3.72,0,0,1-1.72.39,2.41,2.41,0,0,1-1.65-.56,1.85,1.85,0,0,1-.63-1.45A1.87,1.87,0,0,1,58.51,31,4.44,4.44,0,0,1,61,30.37h1.82V29.29a1.81,1.81,0,0,0-.58-1.44,2.47,2.47,0,0,0-1.67-.51,2.66,2.66,0,0,0-1.69.52,1.56,1.56,0,0,0-.68,1.28h-.37a1.9,1.9,0,0,1,.8-1.53A3,3,0,0,1,60.53,27a2.9,2.9,0,0,1,1.9.59,2.15,2.15,0,0,1,.72,1.69v3.53a5,5,0,0,0,.19,1.66v.06Zm-3.05-.23a3.34,3.34,0,0,0,1.79-.47,2.85,2.85,0,0,0,1.12-1.3V30.74H61.07a4,4,0,0,0-2.42.63A1.54,1.54,0,0,0,58,32.65a1.48,1.48,0,0,0,.54,1.15A2,2,0,0,0,59.87,34.27Z"/><path d="M71.18,30.87a4.55,4.55,0,0,1-.74,2.75,2.38,2.38,0,0,1-2,1,3.19,3.19,0,0,1-1.5-.35,2.44,2.44,0,0,1-1-.94v4h-.37V27.1h.37v1.32a2.68,2.68,0,0,1,1-1.08A2.88,2.88,0,0,1,68.4,27a2.42,2.42,0,0,1,2,1,4.56,4.56,0,0,1,.74,2.79Zm-.37-.14a4.3,4.3,0,0,0-.63-2.5,2.08,2.08,0,0,0-1.78-.89,2.6,2.6,0,0,0-1.58.48,2.66,2.66,0,0,0-.93,1.38v3.46a2.33,2.33,0,0,0,.94,1.19,2.85,2.85,0,0,0,1.59.42,2,2,0,0,0,1.76-.9A4.64,4.64,0,0,0,70.81,30.73Z"/><path d="M78.85,30.87a4.55,4.55,0,0,1-.75,2.75,2.37,2.37,0,0,1-2,1,3.12,3.12,0,0,1-1.49-.35,2.53,2.53,0,0,1-1-.94v4h-.37V27.1h.37v1.32a2.68,2.68,0,0,1,1-1.08A2.93,2.93,0,0,1,76.06,27a2.41,2.41,0,0,1,2,1,4.56,4.56,0,0,1,.75,2.79Zm-.38-.14a4.3,4.3,0,0,0-.63-2.5,2.05,2.05,0,0,0-1.77-.89,2.58,2.58,0,0,0-1.58.48,2.62,2.62,0,0,0-.94,1.38v3.46a2.33,2.33,0,0,0,.94,1.19,2.88,2.88,0,0,0,1.59.42,2,2,0,0,0,1.76-.9A4.64,4.64,0,0,0,78.47,30.73Z"/><path d="M81.32,34.5H81V24h.37Z"/><path d="M83.64,24.79a.4.4,0,0,1,.11-.27.37.37,0,0,1,.27-.11.38.38,0,0,1,.38.38.37.37,0,0,1-.11.27.4.4,0,0,1-.27.11.38.38,0,0,1-.38-.38Zm.56,9.71h-.37V27.1h.37Z"/><path d="M89.29,34.64a2.93,2.93,0,0,1-1.65-.49,3.26,3.26,0,0,1-1.17-1.32A4.1,4.1,0,0,1,86.05,31v-.31a4.18,4.18,0,0,1,.41-1.88,3.2,3.2,0,0,1,1.12-1.33A2.77,2.77,0,0,1,89.15,27a2.57,2.57,0,0,1,2,.88A3.33,3.33,0,0,1,92,30.17v.39H86.42V31a3.75,3.75,0,0,0,.37,1.67,3.07,3.07,0,0,0,1,1.2,2.63,2.63,0,0,0,1.45.44A2.83,2.83,0,0,0,90.55,34a2.67,2.67,0,0,0,.93-.76l.26.18A2.78,2.78,0,0,1,89.29,34.64Zm-.14-7.3a2.39,2.39,0,0,0-1.83.8,3.38,3.38,0,0,0-.88,2.05h5.15V30.1a3.16,3.16,0,0,0-.32-1.4,2.37,2.37,0,0,0-.87-1A2.25,2.25,0,0,0,89.15,27.34Z"/><path d="M98.24,32.69c0-.9-.76-1.51-2.3-1.83A4.53,4.53,0,0,1,94,30.1a1.58,1.58,0,0,1-.54-1.27,1.62,1.62,0,0,1,.69-1.34A2.86,2.86,0,0,1,96,27a3,3,0,0,1,1.92.57,1.86,1.86,0,0,1,.72,1.54h-.37a1.54,1.54,0,0,0-.63-1.25A2.58,2.58,0,0,0,96,27.34a2.54,2.54,0,0,0-1.54.42,1.37,1.37,0,0,0-.36,1.84,2.07,2.07,0,0,0,.69.52,8.11,8.11,0,0,0,1.4.44,6.08,6.08,0,0,1,1.45.49,2.08,2.08,0,0,1,.77.68,1.86,1.86,0,0,1,.24,1,1.65,1.65,0,0,1-.72,1.4,3,3,0,0,1-1.88.54,3.23,3.23,0,0,1-2-.57,1.73,1.73,0,0,1-.77-1.45h.37a1.54,1.54,0,0,0,.69,1.21,3,3,0,0,0,1.71.44,2.67,2.67,0,0,0,1.61-.46A1.35,1.35,0,0,0,98.24,32.69Z"/><path d="M104.82,25.11v2h1.69v.37h-1.69v5.26a2.1,2.1,0,0,0,.26,1.16,1,1,0,0,0,.86.38,5.46,5.46,0,0,0,.73-.06l.06.34a2.31,2.31,0,0,1-.77.09,1.39,1.39,0,0,1-1.16-.45,2.32,2.32,0,0,1-.35-1.41V27.47h-1.37V27.1h1.37v-2Z"/><path d="M108.8,28.83a3,3,0,0,1,1.06-1.36,2.59,2.59,0,0,1,1.56-.5,2.21,2.21,0,0,1,1.77.67,3.09,3.09,0,0,1,.58,2V34.5h-.37V29.66a2.67,2.67,0,0,0-.48-1.75,1.88,1.88,0,0,0-1.52-.57,2.28,2.28,0,0,0-1.66.68,3.42,3.42,0,0,0-.94,1.75V34.5h-.37V24h.37Z"/><path d="M118.75,34.64a2.87,2.87,0,0,1-1.64-.49,3.29,3.29,0,0,1-1.18-1.32,4.1,4.1,0,0,1-.42-1.86v-.31a4.32,4.32,0,0,1,.41-1.88,3.15,3.15,0,0,1,1.13-1.33,2.76,2.76,0,0,1,1.56-.48,2.59,2.59,0,0,1,2,.88,3.37,3.37,0,0,1,.78,2.32v.39h-5.54V31a3.63,3.63,0,0,0,.38,1.67,3,3,0,0,0,1,1.2,2.63,2.63,0,0,0,1.45.44A2.88,2.88,0,0,0,120,34a2.64,2.64,0,0,0,.92-.76l.26.18A2.78,2.78,0,0,1,118.75,34.64Zm-.14-7.3a2.39,2.39,0,0,0-1.83.8,3.38,3.38,0,0,0-.88,2.05h5.15V30.1a3,3,0,0,0-.32-1.4,2.37,2.37,0,0,0-.87-1A2.25,2.25,0,0,0,118.61,27.34Z"/><path d="M127.05,34.5v-7h-1.28V27.1h1.28V26a2.35,2.35,0,0,1,.52-1.59,1.8,1.8,0,0,1,1.42-.57,2.79,2.79,0,0,1,.87.11l-.05.36a2.9,2.9,0,0,0-.81-.1,1.47,1.47,0,0,0-1.16.47,2,2,0,0,0-.42,1.35V27.1h2v.37h-2v7Z"/><path d="M135.86,34.5V33.3a2.44,2.44,0,0,1-1,1,3.17,3.17,0,0,1-1.59.36,2.28,2.28,0,0,1-1.82-.71,3.11,3.11,0,0,1-.61-2.06V27.1h.37v4.78a2.63,2.63,0,0,0,.53,1.78,1.88,1.88,0,0,0,1.52.61,2.81,2.81,0,0,0,1.72-.5,2.27,2.27,0,0,0,.84-1.46V27.1h.38v7.4Z"/><path d="M138.94,28.83A3,3,0,0,1,140,27.47a2.59,2.59,0,0,1,1.56-.5,2.21,2.21,0,0,1,1.77.67,3.09,3.09,0,0,1,.58,2V34.5h-.37V29.66a2.67,2.67,0,0,0-.48-1.75,1.88,1.88,0,0,0-1.52-.57,2.28,2.28,0,0,0-1.66.68,3.42,3.42,0,0,0-.94,1.75V34.5h-.37V27.1h.37Z"/><path d="M148.74,34.27a2.53,2.53,0,0,0,1.66-.54,2,2,0,0,0,.71-1.47h.37a2.3,2.3,0,0,1-.83,1.72,2.83,2.83,0,0,1-1.91.66,2.71,2.71,0,0,1-2.21-1,4.23,4.23,0,0,1-.81-2.73v-.24a4.17,4.17,0,0,1,.81-2.69,2.69,2.69,0,0,1,2.19-1,2.76,2.76,0,0,1,1.95.7,2.56,2.56,0,0,1,.81,1.87h-.37a2.25,2.25,0,0,0-.7-1.6,2.41,2.41,0,0,0-1.69-.6,2.29,2.29,0,0,0-1.93.89,3.89,3.89,0,0,0-.7,2.48V31a3.8,3.8,0,0,0,.7,2.43A2.37,2.37,0,0,0,148.74,34.27Z"/><path d="M154.16,25.11v2h1.68v.37h-1.68v5.26a2,2,0,0,0,.26,1.16,1,1,0,0,0,.85.38,5.34,5.34,0,0,0,.73-.06l.07.34a2.34,2.34,0,0,1-.78.09,1.37,1.37,0,0,1-1.15-.45,2.38,2.38,0,0,1-.36-1.41V27.47h-1.36V27.1h1.36v-2Z"/><path d="M157.66,24.79a.4.4,0,0,1,.11-.27.37.37,0,0,1,.27-.11.36.36,0,0,1,.26.11.37.37,0,0,1,.12.27.34.34,0,0,1-.12.27.36.36,0,0,1-.26.11.38.38,0,0,1-.38-.38Zm.56,9.71h-.37V27.1h.37Z"/><path d="M160.09,30.66a4.38,4.38,0,0,1,.4-1.91,3.13,3.13,0,0,1,1.15-1.31,3,3,0,0,1,1.68-.47,3,3,0,0,1,2.82,1.75,4.35,4.35,0,0,1,.42,1.9V31a4.31,4.31,0,0,1-.4,1.9A3.15,3.15,0,0,1,165,34.17a3.08,3.08,0,0,1-1.68.47,3.13,3.13,0,0,1-1.68-.47,3.17,3.17,0,0,1-1.15-1.3,4.29,4.29,0,0,1-.41-1.88Zm.37.29a3.94,3.94,0,0,0,.36,1.69,2.86,2.86,0,0,0,1,1.2,2.68,2.68,0,0,0,1.49.43,2.56,2.56,0,0,0,2.06-1,3.7,3.7,0,0,0,.8-2.45v-.21a3.76,3.76,0,0,0-.37-1.68,2.9,2.9,0,0,0-1-1.21,2.62,2.62,0,0,0-1.48-.43,2.59,2.59,0,0,0-2.07,1,3.68,3.68,0,0,0-.79,2.43Z"/><path d="M168.72,28.83a3,3,0,0,1,1.07-1.36,2.58,2.58,0,0,1,1.55-.5,2.19,2.19,0,0,1,1.77.67,3.09,3.09,0,0,1,.59,2V34.5h-.37V29.66a2.73,2.73,0,0,0-.49-1.75,1.87,1.87,0,0,0-1.52-.57,2.26,2.26,0,0,0-1.65.68,3.37,3.37,0,0,0-.95,1.75V34.5h-.37V27.1h.37Z"/><path d="M13.5,41.91v2h1.68v.37H13.5v5.26a2.1,2.1,0,0,0,.26,1.16,1,1,0,0,0,.86.38,5.46,5.46,0,0,0,.73-.06l.06.34a2.31,2.31,0,0,1-.77.09A1.38,1.38,0,0,1,13.48,51a2.32,2.32,0,0,1-.35-1.41V44.27H11.76V43.9h1.37v-2Z"/><path d="M16.41,47.46a4.38,4.38,0,0,1,.4-1.91A3.2,3.2,0,0,1,18,44.24a3,3,0,0,1,1.68-.47,3.14,3.14,0,0,1,1.67.45,3.1,3.1,0,0,1,1.15,1.3,4.18,4.18,0,0,1,.42,1.9v.33a4.31,4.31,0,0,1-.4,1.9A3.06,3.06,0,0,1,21.33,51a3,3,0,0,1-1.67.48A3.08,3.08,0,0,1,18,51a3,3,0,0,1-1.15-1.3,4.16,4.16,0,0,1-.42-1.88Zm.37.29a4,4,0,0,0,.36,1.69,3,3,0,0,0,1,1.2,2.72,2.72,0,0,0,1.5.43,2.58,2.58,0,0,0,2.06-1,3.7,3.7,0,0,0,.79-2.45v-.21a3.76,3.76,0,0,0-.37-1.68,2.83,2.83,0,0,0-1-1.21,2.6,2.6,0,0,0-1.48-.43,2.55,2.55,0,0,0-2.06,1,3.63,3.63,0,0,0-.8,2.43Z"/><path d="M28.85,41.91v2h1.68v.37H28.85v5.26a2.1,2.1,0,0,0,.26,1.16,1,1,0,0,0,.85.38A5.59,5.59,0,0,0,30.7,51l.06.34a2.34,2.34,0,0,1-.78.09A1.37,1.37,0,0,1,28.83,51a2.38,2.38,0,0,1-.36-1.41V44.27H27.11V43.9h1.36v-2Z"/><path d="M32.82,45.63a3,3,0,0,1,1.07-1.36,2.59,2.59,0,0,1,1.56-.5,2.18,2.18,0,0,1,1.76.67,3.09,3.09,0,0,1,.59,2V51.3h-.37V46.46a2.73,2.73,0,0,0-.49-1.75,1.85,1.85,0,0,0-1.51-.57,2.28,2.28,0,0,0-1.66.68,3.44,3.44,0,0,0-1,1.75V51.3h-.37V40.8h.37Z"/><path d="M42.77,51.44A3,3,0,0,1,41.13,51,3.36,3.36,0,0,1,40,49.63a4.11,4.11,0,0,1-.43-1.86v-.31a4.32,4.32,0,0,1,.41-1.88,3.22,3.22,0,0,1,1.13-1.33,2.77,2.77,0,0,1,1.57-.48,2.57,2.57,0,0,1,2,.88A3.33,3.33,0,0,1,45.45,47v.39H39.9v.4a3.79,3.79,0,0,0,.38,1.67,3,3,0,0,0,1,1.2,2.57,2.57,0,0,0,1.44.44A3,3,0,0,0,44,50.82a2.67,2.67,0,0,0,.93-.76l.26.18A2.79,2.79,0,0,1,42.77,51.44Zm-.13-7.3a2.39,2.39,0,0,0-1.83.8A3.39,3.39,0,0,0,39.92,47h5.16V46.9a3.16,3.16,0,0,0-.32-1.4,2.41,2.41,0,0,0-.88-1A2.3,2.3,0,0,0,42.64,44.14Z"/><path d="M51.08,51.3v-7H49.79V43.9h1.29V42.82a2.3,2.3,0,0,1,.52-1.59A1.79,1.79,0,0,1,53,40.66a3.25,3.25,0,0,1,.88.11l-.06.36A2.8,2.8,0,0,0,53,41a1.44,1.44,0,0,0-1.15.47,2,2,0,0,0-.42,1.35v1H53.4v.37H51.45v7Z"/><path d="M54.83,41.59a.38.38,0,0,1,.37-.38.37.37,0,0,1,.27.11.36.36,0,0,1,.11.27.33.33,0,0,1-.11.27.37.37,0,0,1-.27.11.36.36,0,0,1-.26-.11A.33.33,0,0,1,54.83,41.59Zm.56,9.71H55V43.9h.37Z"/><path d="M61.07,44.18l-.47,0a2.17,2.17,0,0,0-1.58.61,3,3,0,0,0-.84,1.71V51.3h-.37V43.9h.37v1.54a2.73,2.73,0,0,1,.9-1.22,2.49,2.49,0,0,1,1.52-.45,1.56,1.56,0,0,1,.52.07Z"/><path d="M67.06,49.49c0-.9-.77-1.51-2.3-1.83a4.53,4.53,0,0,1-1.92-.76,1.58,1.58,0,0,1-.54-1.27A1.64,1.64,0,0,1,63,44.29a2.88,2.88,0,0,1,1.79-.52,3,3,0,0,1,1.92.57,1.84,1.84,0,0,1,.73,1.54H67a1.54,1.54,0,0,0-.63-1.25,3,3,0,0,0-3.18-.07,1.38,1.38,0,0,0-.35,1.84,1.77,1.77,0,0,0,.69.51,7.08,7.08,0,0,0,1.39.45,5.93,5.93,0,0,1,1.45.49,2,2,0,0,1,.78.69,1.8,1.8,0,0,1,.23,1,1.64,1.64,0,0,1-.71,1.4,3.06,3.06,0,0,1-1.88.54,3.28,3.28,0,0,1-2-.57,1.72,1.72,0,0,1-.76-1.45h.37a1.49,1.49,0,0,0,.69,1.21,3,3,0,0,0,1.71.44,2.69,2.69,0,0,0,1.61-.46A1.37,1.37,0,0,0,67.06,49.49Z"/><path d="M70.29,41.91v2H72v.37H70.29v5.26a2.2,2.2,0,0,0,.25,1.16,1,1,0,0,0,.86.38,5.34,5.34,0,0,0,.73-.06l.07.34a2.34,2.34,0,0,1-.78.09A1.37,1.37,0,0,1,70.27,51a2.38,2.38,0,0,1-.36-1.41V44.27H68.55V43.9h1.36v-2Z"/><path d="M78.07,41.91v2h1.68v.37H78.07v5.26a2.1,2.1,0,0,0,.25,1.16,1,1,0,0,0,.86.38,5.34,5.34,0,0,0,.73-.06l.07.34a2.34,2.34,0,0,1-.78.09A1.37,1.37,0,0,1,78.05,51a2.38,2.38,0,0,1-.36-1.41V44.27H76.33V43.9h1.36v-2Z"/><path d="M83,49.16l.4,1.59,2.17-6.85h.37l2.16,6.85.41-1.59L90,43.9h.43l-2.16,7.4h-.36L86.1,45.74l-.35-1.32-.37,1.32-1.8,5.56h-.37l-2.15-7.4h.43Z"/><path d="M91.71,47.46a4.38,4.38,0,0,1,.4-1.91,3.13,3.13,0,0,1,1.15-1.31,3,3,0,0,1,1.68-.47,3,3,0,0,1,2.82,1.75,4.18,4.18,0,0,1,.42,1.9v.33a4.45,4.45,0,0,1-.4,1.9A3.06,3.06,0,0,1,96.63,51a3,3,0,0,1-1.68.48A3.07,3.07,0,0,1,93.28,51a3.12,3.12,0,0,1-1.16-1.3,4.29,4.29,0,0,1-.41-1.88Zm.37.29a4,4,0,0,0,.36,1.69,2.86,2.86,0,0,0,1,1.2,2.68,2.68,0,0,0,1.49.43,2.56,2.56,0,0,0,2.06-1,3.7,3.7,0,0,0,.8-2.45v-.21a3.76,3.76,0,0,0-.37-1.68,2.9,2.9,0,0,0-1-1.21,2.62,2.62,0,0,0-1.48-.43,2.55,2.55,0,0,0-2.06,1,3.63,3.63,0,0,0-.8,2.43Z"/><path d="M103.22,41.59a.38.38,0,0,1,.37-.38.37.37,0,0,1,.27.11.37.37,0,0,1,.12.27.34.34,0,0,1-.12.27.37.37,0,0,1-.27.11.36.36,0,0,1-.26-.11A.33.33,0,0,1,103.22,41.59Zm.56,9.71h-.37V43.9h.37Z"/><path d="M107,41.91v2h1.68v.37H107v5.26a2.1,2.1,0,0,0,.26,1.16,1,1,0,0,0,.86.38,5.46,5.46,0,0,0,.73-.06l.06.34a2.31,2.31,0,0,1-.77.09A1.38,1.38,0,0,1,107,51a2.32,2.32,0,0,1-.35-1.41V44.27h-1.37V43.9h1.37v-2Z"/><path d="M113.29,51.44a3,3,0,0,1-1.64-.48,3.36,3.36,0,0,1-1.17-1.33,4.11,4.11,0,0,1-.43-1.86v-.31a4.32,4.32,0,0,1,.41-1.88,3.22,3.22,0,0,1,1.13-1.33,2.77,2.77,0,0,1,1.57-.48,2.57,2.57,0,0,1,2,.88A3.33,3.33,0,0,1,116,47v.39h-5.55v.4a3.79,3.79,0,0,0,.38,1.67,2.92,2.92,0,0,0,1,1.2,2.57,2.57,0,0,0,1.44.44,3,3,0,0,0,1.27-.25,2.67,2.67,0,0,0,.93-.76l.26.18A2.79,2.79,0,0,1,113.29,51.44Zm-.13-7.3a2.39,2.39,0,0,0-1.83.8,3.39,3.39,0,0,0-.89,2.05h5.16V46.9a3.16,3.16,0,0,0-.32-1.4,2.41,2.41,0,0,0-.88-1A2.3,2.3,0,0,0,113.16,44.14Z"/><path d="M123,51.3h-.37v-5a2.43,2.43,0,0,0-.49-1.65,2,2,0,0,0-1.53-.54,2.34,2.34,0,0,0-2,1.07,3.53,3.53,0,0,0-.61,1.42V51.3h-.38V43.9H118v1.75a3.16,3.16,0,0,1,1.07-1.39,2.62,2.62,0,0,1,1.55-.49,2.55,2.55,0,0,1,1.52.41,2.06,2.06,0,0,1,.78,1.34A2.65,2.65,0,0,1,124,44.24a3,3,0,0,1,1.66-.47,2.24,2.24,0,0,1,1.78.67,3.09,3.09,0,0,1,.59,2V51.3h-.37V46.51a2.74,2.74,0,0,0-.49-1.8,1.86,1.86,0,0,0-1.53-.57,2.58,2.58,0,0,0-2.14,1.07,2.26,2.26,0,0,0-.49,1.17Z"/><path d="M134.8,49.49c0-.9-.77-1.51-2.3-1.83a4.53,4.53,0,0,1-1.92-.76,1.58,1.58,0,0,1-.54-1.27,1.62,1.62,0,0,1,.69-1.34,2.86,2.86,0,0,1,1.79-.52,3,3,0,0,1,1.92.57,1.86,1.86,0,0,1,.72,1.54h-.37a1.54,1.54,0,0,0-.63-1.25,2.58,2.58,0,0,0-1.64-.49,2.54,2.54,0,0,0-1.54.42,1.37,1.37,0,0,0-.36,1.84,1.77,1.77,0,0,0,.69.51,7.21,7.21,0,0,0,1.4.45,6.08,6.08,0,0,1,1.45.49,2,2,0,0,1,.77.69,1.8,1.8,0,0,1,.24,1,1.65,1.65,0,0,1-.72,1.4,3,3,0,0,1-1.88.54,3.28,3.28,0,0,1-2-.57,1.74,1.74,0,0,1-.76-1.45h.37a1.54,1.54,0,0,0,.69,1.21,3,3,0,0,0,1.71.44,2.67,2.67,0,0,0,1.61-.46A1.37,1.37,0,0,0,134.8,49.49Z"/><path d="M141.38,41.91v2h1.68v.37h-1.68v5.26a2.1,2.1,0,0,0,.26,1.16,1,1,0,0,0,.86.38,5.46,5.46,0,0,0,.73-.06l.06.34a2.31,2.31,0,0,1-.77.09,1.38,1.38,0,0,1-1.16-.45,2.32,2.32,0,0,1-.35-1.41V44.27h-1.37V43.9H141v-2Z"/><path d="M144.29,47.46a4.25,4.25,0,0,1,.41-1.91,3.11,3.11,0,0,1,1.14-1.31,3,3,0,0,1,1.68-.47,3.14,3.14,0,0,1,1.67.45,3.1,3.1,0,0,1,1.15,1.3,4.18,4.18,0,0,1,.42,1.9v.33a4.31,4.31,0,0,1-.4,1.9A3.06,3.06,0,0,1,149.21,51a3,3,0,0,1-1.67.48,3.08,3.08,0,0,1-1.68-.47,3,3,0,0,1-1.15-1.3,4.16,4.16,0,0,1-.42-1.88Zm.37.29a4,4,0,0,0,.36,1.69,3,3,0,0,0,1,1.2,2.72,2.72,0,0,0,1.5.43,2.58,2.58,0,0,0,2.06-1,3.7,3.7,0,0,0,.79-2.45v-.21a3.76,3.76,0,0,0-.37-1.68,2.83,2.83,0,0,0-1-1.21,2.6,2.6,0,0,0-1.48-.43,2.55,2.55,0,0,0-2.06,1,3.63,3.63,0,0,0-.8,2.43Z"/><path d="M18,68.1H17.6v-5a2.48,2.48,0,0,0-.49-1.65,2,2,0,0,0-1.54-.54,2.35,2.35,0,0,0-2,1.07,3.65,3.65,0,0,0-.6,1.42V68.1H12.6V60.7H13v1.75a3.09,3.09,0,0,1,1.07-1.39A2.85,2.85,0,0,1,17.12,61a2,2,0,0,1,.77,1.34A2.73,2.73,0,0,1,19,61a2.94,2.94,0,0,1,1.65-.47,2.22,2.22,0,0,1,1.78.67,3.05,3.05,0,0,1,.59,2V68.1h-.36V63.31a2.8,2.8,0,0,0-.49-1.8,1.86,1.86,0,0,0-1.54-.57A2.55,2.55,0,0,0,18.46,62,2.18,2.18,0,0,0,18,63.18Z"/><path d="M30,68.1a5.22,5.22,0,0,1-.13-1.35,3,3,0,0,1-1.2,1.1,3.68,3.68,0,0,1-1.71.39,2.42,2.42,0,0,1-1.66-.56,1.95,1.95,0,0,1,.3-3.08A4.4,4.4,0,0,1,28,64h1.83V62.89a1.81,1.81,0,0,0-.59-1.44,2.45,2.45,0,0,0-1.67-.51,2.7,2.7,0,0,0-1.69.52,1.55,1.55,0,0,0-.67,1.28h-.37a1.89,1.89,0,0,1,.79-1.53,3,3,0,0,1,1.94-.63,2.83,2.83,0,0,1,1.9.6,2.15,2.15,0,0,1,.73,1.68v3.53A4.69,4.69,0,0,0,30.43,68v.06Zm-3-.23a3.3,3.3,0,0,0,1.78-.47,2.87,2.87,0,0,0,1.13-1.3V64.34H28.16a4,4,0,0,0-2.43.63,1.56,1.56,0,0,0-.68,1.28,1.48,1.48,0,0,0,.54,1.15A2,2,0,0,0,27,67.87Z"/><path d="M34.07,64.1v0L33,65V68.1h-.37V57.6H33v7l.86-.82,3.37-3.11h.52l-3.39,3.16L38,68.1h-.48Z"/><path d="M41.76,68.24a2.92,2.92,0,0,1-1.64-.49A3.26,3.26,0,0,1,39,66.43a4,4,0,0,1-.43-1.86v-.31a4.32,4.32,0,0,1,.41-1.88A3.32,3.32,0,0,1,40.06,61a2.83,2.83,0,0,1,1.57-.47,2.57,2.57,0,0,1,2,.88,3.38,3.38,0,0,1,.79,2.32v.39H38.89v.4a3.79,3.79,0,0,0,.38,1.67,2.92,2.92,0,0,0,1,1.2,2.57,2.57,0,0,0,1.44.44A2.88,2.88,0,0,0,43,67.62a2.56,2.56,0,0,0,.93-.76l.26.18A2.79,2.79,0,0,1,41.76,68.24Zm-.13-7.3a2.41,2.41,0,0,0-1.84.8,3.47,3.47,0,0,0-.88,2h5.16V63.7a3.16,3.16,0,0,0-.32-1.4,2.41,2.41,0,0,0-.88-1A2.3,2.3,0,0,0,41.63,60.94Z"/><path d="M54.29,68.1a5.15,5.15,0,0,1-.14-1.35,3,3,0,0,1-1.2,1.1,3.65,3.65,0,0,1-1.71.39,2.37,2.37,0,0,1-1.65-.56A1.85,1.85,0,0,1,49,66.23a1.87,1.87,0,0,1,.92-1.63A4.4,4.4,0,0,1,52.32,64h1.83V62.89a1.78,1.78,0,0,0-.59-1.44,2.44,2.44,0,0,0-1.67-.51,2.65,2.65,0,0,0-1.68.52,1.53,1.53,0,0,0-.68,1.28h-.37A1.89,1.89,0,0,1,50,61.2a3,3,0,0,1,1.94-.63,2.83,2.83,0,0,1,1.9.6,2.15,2.15,0,0,1,.73,1.68v3.53A4.69,4.69,0,0,0,54.71,68v.06Zm-3-.23A3.34,3.34,0,0,0,53,67.4a2.91,2.91,0,0,0,1.12-1.3V64.34H52.44A4,4,0,0,0,50,65a1.56,1.56,0,0,0-.68,1.28,1.48,1.48,0,0,0,.54,1.15A2,2,0,0,0,51.24,67.87Z"/><path d="M60.62,62.43a3,3,0,0,1,1.06-1.36,2.59,2.59,0,0,1,1.56-.5,2.21,2.21,0,0,1,1.77.67,3.09,3.09,0,0,1,.58,2V68.1h-.37V63.26a2.67,2.67,0,0,0-.48-1.75,1.88,1.88,0,0,0-1.52-.57,2.28,2.28,0,0,0-1.66.68,3.42,3.42,0,0,0-.94,1.75V68.1h-.37V60.7h.37Z"/><path d="M70.57,68.24a2.87,2.87,0,0,1-1.64-.49,3.36,3.36,0,0,1-1.18-1.32,4.1,4.1,0,0,1-.42-1.86v-.31a4.32,4.32,0,0,1,.41-1.88A3.24,3.24,0,0,1,68.87,61a2.83,2.83,0,0,1,1.56-.47,2.59,2.59,0,0,1,2,.88,3.37,3.37,0,0,1,.78,2.32v.39H67.7v.4a3.65,3.65,0,0,0,.38,1.67,3,3,0,0,0,1,1.2,2.63,2.63,0,0,0,1.45.44,2.88,2.88,0,0,0,1.27-.25,2.53,2.53,0,0,0,.92-.76L73,67A2.78,2.78,0,0,1,70.57,68.24Zm-.14-7.3a2.39,2.39,0,0,0-1.83.8,3.41,3.41,0,0,0-.88,2h5.15V63.7a3,3,0,0,0-.32-1.4,2.46,2.46,0,0,0-.87-1A2.33,2.33,0,0,0,70.43,60.94Z"/><path d="M76.29,66l.4,1.59,2.17-6.85h.38l2.15,6.85L81.81,66l1.5-5.26h.43l-2.15,7.4h-.37l-1.83-5.56-.34-1.32-.38,1.32-1.8,5.56H76.5l-2.14-7.4h.42Z"/><path d="M84.42,69.84l-.25-.21a2.66,2.66,0,0,0,.6-1.48V67h.37v1A2.64,2.64,0,0,1,84.42,69.84Z"/><path d="M95.24,66.29c0-.9-.77-1.51-2.3-1.83A4.53,4.53,0,0,1,91,63.7a1.58,1.58,0,0,1-.54-1.27,1.62,1.62,0,0,1,.69-1.34A2.86,2.86,0,0,1,93,60.57a3,3,0,0,1,1.92.57,1.86,1.86,0,0,1,.72,1.54h-.37a1.51,1.51,0,0,0-.63-1.24,3,3,0,0,0-3.18-.08,1.37,1.37,0,0,0-.36,1.84,1.94,1.94,0,0,0,.69.51,7.21,7.21,0,0,0,1.4.45,6.08,6.08,0,0,1,1.45.49,2.08,2.08,0,0,1,.77.68,1.85,1.85,0,0,1,.24,1,1.66,1.66,0,0,1-.72,1.41,3,3,0,0,1-1.88.54,3.23,3.23,0,0,1-2-.57,1.73,1.73,0,0,1-.77-1.45h.37a1.54,1.54,0,0,0,.69,1.21,3,3,0,0,0,1.71.44,2.67,2.67,0,0,0,1.61-.46A1.37,1.37,0,0,0,95.24,66.29Z"/><path d="M102.94,68.1h-.37v-5a2.48,2.48,0,0,0-.49-1.65,2,2,0,0,0-1.54-.54,2.32,2.32,0,0,0-2,1.07A3.53,3.53,0,0,0,98,63.43V68.1h-.38V60.7H98v1.75A3.16,3.16,0,0,1,99,61.06a2.62,2.62,0,0,1,1.55-.49,2.57,2.57,0,0,1,1.52.41,2,2,0,0,1,.77,1.34A2.73,2.73,0,0,1,103.93,61a2.94,2.94,0,0,1,1.65-.47,2.22,2.22,0,0,1,1.78.67,3.11,3.11,0,0,1,.6,2V68.1h-.37V63.31a2.8,2.8,0,0,0-.49-1.8,1.86,1.86,0,0,0-1.54-.57A2.55,2.55,0,0,0,103.43,62a2.18,2.18,0,0,0-.49,1.17Z"/><path d="M115,68.1a4.75,4.75,0,0,1-.14-1.35,3,3,0,0,1-1.2,1.1,3.68,3.68,0,0,1-1.71.39,2.37,2.37,0,0,1-1.65-.56,1.85,1.85,0,0,1-.63-1.45,1.87,1.87,0,0,1,.92-1.63A4.4,4.4,0,0,1,113,64h1.83V62.89a1.81,1.81,0,0,0-.59-1.44,2.44,2.44,0,0,0-1.67-.51,2.7,2.7,0,0,0-1.69.52,1.55,1.55,0,0,0-.67,1.28h-.37a1.89,1.89,0,0,1,.79-1.53,3,3,0,0,1,1.94-.63,2.83,2.83,0,0,1,1.9.6,2.15,2.15,0,0,1,.73,1.68v3.53A4.69,4.69,0,0,0,115.4,68v.06Zm-3-.23a3.3,3.3,0,0,0,1.78-.47,2.87,2.87,0,0,0,1.13-1.3V64.34h-1.71a4,4,0,0,0-2.43.63,1.56,1.56,0,0,0-.68,1.28,1.48,1.48,0,0,0,.54,1.15A2,2,0,0,0,111.93,67.87Z"/><path d="M118,68.1h-.36V57.6H118Z"/><path d="M120.93,68.1h-.37V57.6h.37Z"/><path d="M126,68.24a2.93,2.93,0,0,1-1.65-.49,3.26,3.26,0,0,1-1.17-1.32,4.1,4.1,0,0,1-.42-1.86v-.31a4.18,4.18,0,0,1,.41-1.88A3.22,3.22,0,0,1,124.31,61a2.83,2.83,0,0,1,1.57-.47,2.57,2.57,0,0,1,2,.88,3.33,3.33,0,0,1,.79,2.32v.39h-5.55v.4a3.79,3.79,0,0,0,.38,1.67,3.07,3.07,0,0,0,1,1.2,2.6,2.6,0,0,0,1.45.44,2.83,2.83,0,0,0,1.26-.25,2.56,2.56,0,0,0,.93-.76l.26.18A2.78,2.78,0,0,1,126,68.24Zm-.14-7.3a2.39,2.39,0,0,0-1.83.8,3.35,3.35,0,0,0-.88,2h5.15V63.7a3.16,3.16,0,0,0-.32-1.4,2.46,2.46,0,0,0-.87-1A2.36,2.36,0,0,0,125.88,60.94Z"/><path d="M133.67,61l-.48,0a2.19,2.19,0,0,0-1.58.61,3.07,3.07,0,0,0-.83,1.71V68.1h-.37V60.7h.37v1.54a2.73,2.73,0,0,1,.9-1.22,2.46,2.46,0,0,1,1.51-.45,1.48,1.48,0,0,1,.52.07Z"/><path d="M138.9,68.1h-.37V57.6h.37Z"/><path d="M141.23,58.39a.39.39,0,0,1,.1-.27.4.4,0,0,1,.27-.11.37.37,0,0,1,.27.11.36.36,0,0,1,.11.27.33.33,0,0,1-.11.27.37.37,0,0,1-.27.11.4.4,0,0,1-.27-.11A.36.36,0,0,1,141.23,58.39Zm.56,9.71h-.37V60.7h.37Z"/><path d="M148.77,66.29c0-.9-.76-1.51-2.29-1.83a4.53,4.53,0,0,1-1.93-.76,1.7,1.7,0,0,1,.15-2.61,2.88,2.88,0,0,1,1.79-.52,3,3,0,0,1,1.92.57,1.86,1.86,0,0,1,.72,1.54h-.37a1.51,1.51,0,0,0-.63-1.24,3,3,0,0,0-3.18-.08,1.35,1.35,0,0,0-.35,1.84,1.77,1.77,0,0,0,.69.51,7.08,7.08,0,0,0,1.39.45,6.08,6.08,0,0,1,1.45.49,2,2,0,0,1,.77.68,1.85,1.85,0,0,1,.24,1,1.66,1.66,0,0,1-.72,1.41,3,3,0,0,1-1.88.54,3.25,3.25,0,0,1-2-.57,1.72,1.72,0,0,1-.76-1.45h.36a1.54,1.54,0,0,0,.69,1.21,3,3,0,0,0,1.71.44,2.65,2.65,0,0,0,1.61-.46A1.35,1.35,0,0,0,148.77,66.29Z"/><path d="M152,58.71v2h1.68v.37H152v5.26a2.1,2.1,0,0,0,.25,1.16,1,1,0,0,0,.86.38,5.46,5.46,0,0,0,.73-.06l.06.34a2.27,2.27,0,0,1-.77.09,1.36,1.36,0,0,1-1.15-.45,2.25,2.25,0,0,1-.36-1.41V61.07h-1.37V60.7h1.37v-2Z"/><path d="M155.44,67.77a.39.39,0,0,1,.37-.39.41.41,0,0,1,.39.39.34.34,0,0,1-.12.26.37.37,0,0,1-.27.11.36.36,0,0,1-.26-.11A.33.33,0,0,1,155.44,67.77Z"/><path d="M10.89,11.55a1.6,1.6,0,0,0-.58-1.31,6.24,6.24,0,0,0-2.13-.91,7.41,7.41,0,0,1-2.25-.95,2.22,2.22,0,0,1-1-1.9,2.2,2.2,0,0,1,.94-1.85,3.81,3.81,0,0,1,2.4-.72A4,4,0,0,1,10,4.29a3,3,0,0,1,1.22,1.07,2.83,2.83,0,0,1,.43,1.52h-.85a2.08,2.08,0,0,0-.7-1.64,2.72,2.72,0,0,0-1.87-.62,3,3,0,0,0-1.82.51,1.6,1.6,0,0,0-.68,1.33A1.52,1.52,0,0,0,6.37,7.7a5.82,5.82,0,0,0,2,.85,8.63,8.63,0,0,1,2,.76,2.81,2.81,0,0,1,1,.94,2.35,2.35,0,0,1,.35,1.29,2.29,2.29,0,0,1-.94,1.89,4,4,0,0,1-2.48.71,4.85,4.85,0,0,1-1.93-.38,2.9,2.9,0,0,1-1.33-1,2.67,2.67,0,0,1-.46-1.55h.84a2,2,0,0,0,.79,1.66,3.35,3.35,0,0,0,2.09.61,3.12,3.12,0,0,0,1.87-.52A1.59,1.59,0,0,0,10.89,11.55Z"/><path d="M14.63,4.71V6.6h1.53v.67H14.63v4.94a1.56,1.56,0,0,0,.22.92.87.87,0,0,0,.74.3,6.59,6.59,0,0,0,.67-.07l0,.66a2.52,2.52,0,0,1-.87.12,1.5,1.5,0,0,1-1.23-.49,2.35,2.35,0,0,1-.38-1.44V7.27H12.45V6.6h1.36V4.71Z"/><path d="M20.72,14.14a3.21,3.21,0,0,1-2.89-1.76,4.11,4.11,0,0,1-.42-1.87v-.29a4.29,4.29,0,0,1,.41-1.92A3.21,3.21,0,0,1,19,7a2.82,2.82,0,0,1,1.6-.49,2.66,2.66,0,0,1,2.14.92A3.75,3.75,0,0,1,23.5,9.9v.46H18.22v.15a3.11,3.11,0,0,0,.72,2.1,2.29,2.29,0,0,0,1.81.84,2.44,2.44,0,0,0,2.08-1l.51.39A3,3,0,0,1,20.72,14.14Zm-.15-7A2,2,0,0,0,19,7.84a3.07,3.07,0,0,0-.77,1.82h4.43V9.57a2.68,2.68,0,0,0-.61-1.74A1.89,1.89,0,0,0,20.57,7.16Z"/><path d="M31,10.38a4.44,4.44,0,0,1-.77,2.74,2.43,2.43,0,0,1-2.05,1,2.73,2.73,0,0,1-2.32-1.07v3.77h-.82V6.6h.76l0,1.05A2.63,2.63,0,0,1,28.2,6.47a2.45,2.45,0,0,1,2.08,1A4.58,4.58,0,0,1,31,10.26Zm-.82-.15A3.76,3.76,0,0,0,29.63,8,1.85,1.85,0,0,0,28,7.18a2.27,2.27,0,0,0-1.29.36,2.24,2.24,0,0,0-.82,1v3.55a2.1,2.1,0,0,0,.84,1,2.43,2.43,0,0,0,1.29.34,1.86,1.86,0,0,0,1.61-.83A4.17,4.17,0,0,0,30.22,10.23Z"/><path d="M39.93,14h-.82V5L36.4,6V5.27L39.79,4h.14Z"/><path d="M270.5,175.5h-1.26l-8.58-12.78V175.5h-1.27V160.57h1.27l8.59,12.79V160.57h1.25Z"/><path d="M278.3,175.71a4.84,4.84,0,0,1-2.55-.7,4.67,4.67,0,0,1-1.78-1.95,6,6,0,0,1-.64-2.79v-.44A6.55,6.55,0,0,1,274,167a5,5,0,0,1,1.73-2,4.34,4.34,0,0,1,2.4-.73,4,4,0,0,1,3.2,1.38,5.59,5.59,0,0,1,1.19,3.77V170h-7.92v.23a4.63,4.63,0,0,0,1.08,3.14,3.46,3.46,0,0,0,2.73,1.26,4,4,0,0,0,1.73-.36,3.77,3.77,0,0,0,1.37-1.15l.77.59A4.49,4.49,0,0,1,278.3,175.71Zm-.22-10.46a3,3,0,0,0-2.33,1,4.69,4.69,0,0,0-1.16,2.73h6.66v-.13a4.14,4.14,0,0,0-.91-2.61A2.84,2.84,0,0,0,278.08,165.25Z"/><path d="M287.51,173l.19,1,.24-1,2.67-8.49h1.05l2.63,8.41.29,1.17.23-1.07,2.28-8.51h1.27l-3.23,11.09h-1l-2.85-8.8-.14-.6-.13.61-2.8,8.79h-1.05l-3.22-11.09h1.27Z"/><path d="M307.17,175.5h-1.23V159.75h1.23Z"/><path d="M310.43,161.2a.8.8,0,0,1,.23-.58.79.79,0,0,1,.61-.24.81.81,0,0,1,.62.24.85.85,0,0,1,0,1.16.81.81,0,0,1-.62.24.79.79,0,0,1-.61-.24A.8.8,0,0,1,310.43,161.2Zm1.45,14.3h-1.23V164.41h1.23Z"/><path d="M321.85,172.68a1.75,1.75,0,0,0-.73-1.47,5.71,5.71,0,0,0-2.21-.86,10,10,0,0,1-2.29-.72,3.05,3.05,0,0,1-1.21-1,2.5,2.5,0,0,1-.4-1.42,2.64,2.64,0,0,1,1.1-2.16,4.44,4.44,0,0,1,2.81-.86,4.57,4.57,0,0,1,3,.92,2.93,2.93,0,0,1,1.12,2.39h-1.23a2,2,0,0,0-.81-1.62,3.72,3.72,0,0,0-4-.11,1.67,1.67,0,0,0-.74,1.4,1.52,1.52,0,0,0,.61,1.29,6.5,6.5,0,0,0,2.23.84,10.19,10.19,0,0,1,2.42.81,3.05,3.05,0,0,1,1.19,1,2.85,2.85,0,0,1-.74,3.71,4.83,4.83,0,0,1-3,.85,5,5,0,0,1-3.14-.94,2.92,2.92,0,0,1-1.21-2.38h1.24a2.13,2.13,0,0,0,.9,1.68,3.73,3.73,0,0,0,2.21.6,3.5,3.5,0,0,0,2.07-.56A1.7,1.7,0,0,0,321.85,172.68Z"/><path d="M327.75,161.56v2.85h2.3v1h-2.3v7.4a2.34,2.34,0,0,0,.33,1.38,1.31,1.31,0,0,0,1.12.45,9.45,9.45,0,0,0,1-.1l.05,1a3.85,3.85,0,0,1-1.31.18,2.21,2.21,0,0,1-1.84-.74,3.48,3.48,0,0,1-.57-2.16v-7.4h-2v-1h2v-2.85Z"/><path d="M332.36,174.51a1.15,1.15,0,0,1,.3-.82,1.09,1.09,0,0,1,.87-.33,1.09,1.09,0,0,1,1.19,1.15,1.09,1.09,0,0,1-.3.78,1.14,1.14,0,0,1-.89.32,1.07,1.07,0,0,1-1.17-1.1Zm0-9.06a1.17,1.17,0,0,1,.3-.82,1.09,1.09,0,0,1,.87-.33,1.15,1.15,0,0,1,.89.33,1.17,1.17,0,0,1,.3.82,1.09,1.09,0,0,1-.3.79,1.18,1.18,0,0,1-.89.32,1.12,1.12,0,0,1-.87-.32A1.09,1.09,0,0,1,332.37,165.45Z"/><path d="M344,177.37V161.43h6v1.26h-4.66v13.48h4.68v1.2Z"/><path d="M358.45,175.5v-3.21h-5.67v-1.07l6-8.82H360v8.67h1.68v1.24H360v3.19Zm-4-4.45h4v-6Z"/><path d="M365.74,178.4a6,6,0,0,0,1-1.18,2.18,2.18,0,0,0,.38-1,.46.46,0,0,0-.1-.31,4.38,4.38,0,0,0-.38-.38,5.65,5.65,0,0,1-.44-.46.73.73,0,0,1-.15-.46,1.25,1.25,0,0,1,.35-.89,1.21,1.21,0,0,1,.89-.35,1.29,1.29,0,0,1,1,.49,1.83,1.83,0,0,1,.43,1.25q0,1.63-2.25,3.95Z"/><path d="M387.41,175.37a1.12,1.12,0,0,1-.36-.84,1.15,1.15,0,0,1,.36-.84,1.21,1.21,0,0,1,.86-.35,1.18,1.18,0,0,1,.84.35,1.15,1.15,0,0,1,.36.84,1.12,1.12,0,0,1-.36.84,1.15,1.15,0,0,1-.84.36A1.18,1.18,0,0,1,387.41,175.37Z"/><path d="M397.91,175.37a1.12,1.12,0,0,1-.36-.84,1.15,1.15,0,0,1,.36-.84,1.21,1.21,0,0,1,.86-.35,1.18,1.18,0,0,1,.84.35,1.15,1.15,0,0,1,.36.84,1.12,1.12,0,0,1-.36.84,1.15,1.15,0,0,1-.84.36A1.18,1.18,0,0,1,397.91,175.37Z"/><path d="M408.41,175.37a1.12,1.12,0,0,1-.36-.84,1.15,1.15,0,0,1,.36-.84,1.21,1.21,0,0,1,.86-.35,1.18,1.18,0,0,1,.84.35,1.15,1.15,0,0,1,.36.84,1.12,1.12,0,0,1-.36.84,1.15,1.15,0,0,1-.84.36A1.18,1.18,0,0,1,408.41,175.37Z"/><path d="M423.55,177.37h-6v-1.2h4.68V162.69h-4.66v-1.26h6Z"/><path class="cls-1" d="M357.06,86.57c3.38-4.17,4.36-9,4.89-14.2.79-7.78,1.3-15.59,1.95-23.38.16-1.93-2.84-1.92-3,0l-1.48,17.84c-.5,6-.48,12.68-4.48,17.62-1.2,1.49.91,3.62,2.12,2.12Z"/><path class="cls-1" d="M357.44,86.58,362.91,85c1.84-.54,1.06-3.44-.8-2.89l-5.47,1.6c-1.85.55-1.06,3.44.8,2.9Z"/><path class="cls-1" d="M357.71,84.81l-2.87-4.1a1.54,1.54,0,0,0-2-.54,1.52,1.52,0,0,0-.54,2.06l2.87,4.09a1.54,1.54,0,0,0,2.05.54,1.53,1.53,0,0,0,.54-2Z"/><path class="cls-1" d="M316.76,48.51q.69,19,2.57,38c.19,1.9,3.2,1.92,3,0q-1.89-18.94-2.57-38c-.06-1.93-3.06-1.94-3,0Z"/><path class="cls-1" d="M321.45,89l3.61-3.9c1.3-1.42-.81-3.55-2.13-2.13l-3.6,3.91c-1.31,1.41.81,3.54,2.12,2.12Z"/><path class="cls-1" d="M321.21,86.77l-4.45-3.07c-1.59-1.11-3.09,1.49-1.51,2.59l4.44,3.07c1.6,1.11,3.1-1.49,1.52-2.59Z"/></svg>