<svg id="Layer_1" data-name="Layer 1" xmlns="http://www.w3.org/2000/svg" viewBox="0 0 178 134"><title>exp</title><path d="M67.7,21.68h0a2.42,2.42,0,0,0-.58-.43,1.35,1.35,0,0,0-.55-.11,1.67,1.67,0,0,0-.81.22,1.58,1.58,0,0,0-.63.65,2.29,2.29,0,0,0-.24,1.1V26H64v-5.5h.9l0,1a1.83,1.83,0,0,1,.71-.84,1.88,1.88,0,0,1,1-.3,2,2,0,0,1,1.46.6Zm-.13.05s0,0,0,0l.07,0,0,.06-.08-.05Zm.17,0-.06,0,0,0C67.76,21.74,67.77,21.76,67.74,21.75Z"/><path d="M69.9,25.4a2.88,2.88,0,0,1-.72-2.1,3.41,3.41,0,0,1,.33-1.55,2.46,2.46,0,0,1,.91-1,2.43,2.43,0,0,1,1.28-.34,2.1,2.1,0,0,1,1.61.66A2.76,2.76,0,0,1,73.93,23c0,.09,0,.22,0,.4H70a2.26,2.26,0,0,0,.56,1.53,1.78,1.78,0,0,0,1.31.51,1.8,1.8,0,0,0,1.41-.61l.48.47a2.35,2.35,0,0,1-1.92.84A2.61,2.61,0,0,1,69.9,25.4Zm3.15-2.66a1.81,1.81,0,0,0-.39-1.22,1.29,1.29,0,0,0-1-.45,1.49,1.49,0,0,0-1,.42A2,2,0,0,0,70,22.74Z"/><path d="M79.31,21a2.87,2.87,0,0,1,.62,2.08V26H79v-.84a1.92,1.92,0,0,1-1.87,1,2.21,2.21,0,0,1-1.43-.42,1.33,1.33,0,0,1-.51-1.09,1.48,1.48,0,0,1,.37-1,2.42,2.42,0,0,1,1-.67,4.09,4.09,0,0,1,1.39-.23,9.18,9.18,0,0,1,1.23.07,1.89,1.89,0,0,0-.48-1.3,1.79,1.79,0,0,0-1.23-.38,2,2,0,0,0-.79.16,2.16,2.16,0,0,0-.69.45l-.42-.55a2.67,2.67,0,0,1,2-.77A2.47,2.47,0,0,1,79.31,21ZM78.61,25a2.23,2.23,0,0,0,.56-1.51A8.34,8.34,0,0,0,78,23.39a2.91,2.91,0,0,0-1.44.3,1,1,0,0,0-.53.91q0,.9,1.17.9A1.9,1.9,0,0,0,78.61,25Z"/><path d="M82.29,25.82a2.44,2.44,0,0,1-.84-1,3.71,3.71,0,0,1-.32-1.6,3.27,3.27,0,0,1,.34-1.58,2.2,2.2,0,0,1,.86-.94,2.13,2.13,0,0,1,1.12-.31,1.79,1.79,0,0,1,1,.25,1.58,1.58,0,0,1,.63.7v-3.3H86v.08a.51.51,0,0,0-.09.16,2,2,0,0,0,0,.28v6.6a3.33,3.33,0,0,0,0,.48A1.13,1.13,0,0,0,86,26h-.85a1.47,1.47,0,0,1-.11-.38c0-.13,0-.28,0-.48a2.05,2.05,0,0,1-.68.72,1.76,1.76,0,0,1-.93.26A2.05,2.05,0,0,1,82.29,25.82Zm2.33-1A3,3,0,0,0,85,23.25a2.91,2.91,0,0,0-.38-1.56,1.25,1.25,0,0,0-1.13-.58,1.3,1.3,0,0,0-1.11.53A2.5,2.5,0,0,0,82,23.1a3,3,0,0,0,.4,1.67,1.29,1.29,0,0,0,1.16.62A1.17,1.17,0,0,0,84.62,24.8Z"/><path d="M87.53,26V18.54h4.3v.73H88.37v2.35h2.79v.73H88.37V26Z"/><path d="M97.7,21.68h0a2.42,2.42,0,0,0-.58-.43,1.35,1.35,0,0,0-.55-.11,1.67,1.67,0,0,0-.81.22,1.58,1.58,0,0,0-.63.65,2.29,2.29,0,0,0-.24,1.1V26H94v-5.5h.9l0,1a1.83,1.83,0,0,1,.71-.84,1.88,1.88,0,0,1,1-.3,2,2,0,0,1,1.46.6Zm-.13.05s0,0,0,0l.07,0,0,.06-.08-.05Zm.17,0-.06,0,0,0C97.76,21.74,97.77,21.76,97.74,21.75Z"/><path d="M100.28,25.76a2.46,2.46,0,0,1-.9-1,3.31,3.31,0,0,1-.32-1.47,3.35,3.35,0,0,1,.32-1.48,2.53,2.53,0,0,1,.9-1,2.5,2.5,0,0,1,2.62,0,2.53,2.53,0,0,1,.9,1,3.35,3.35,0,0,1,.32,1.48,3.31,3.31,0,0,1-.32,1.47,2.46,2.46,0,0,1-.9,1,2.56,2.56,0,0,1-2.62,0Zm2.14-.63a1.83,1.83,0,0,0,.58-.77,2.72,2.72,0,0,0,.21-1.09,2.38,2.38,0,0,0-.46-1.53,1.42,1.42,0,0,0-2.32,0,2.38,2.38,0,0,0-.46,1.53,2.72,2.72,0,0,0,.21,1.09,1.83,1.83,0,0,0,.58.77,1.41,1.41,0,0,0,1.66,0Z"/><path d="M105.05,20.54h.79v.54a1.5,1.5,0,0,1,.49-.48,1.12,1.12,0,0,1,.62-.19,1,1,0,0,1,.63.23,1,1,0,0,1,.35.57,1.3,1.3,0,0,1,.49-.58,1.29,1.29,0,0,1,.74-.22.92.92,0,0,1,.81.39,1.67,1.67,0,0,1,.25,1V26h-.79V22.14a1.86,1.86,0,0,0-.14-.89.4.4,0,0,0-.38-.2.59.59,0,0,0-.42.2,1.45,1.45,0,0,0-.33.52,1.77,1.77,0,0,0-.13.63V26h-.8V22.21a2.08,2.08,0,0,0-.13-.91.49.49,0,0,0-.47-.23.63.63,0,0,0-.37.16,1.23,1.23,0,0,0-.3.46,1.76,1.76,0,0,0-.12.68V26h-.79Z"/><path d="M111.53,26V18.54h4.3v.73h-3.46v2.35h2.79v.73h-2.79V26Z"/><path d="M118.28,25.76a2.46,2.46,0,0,1-.9-1,3.31,3.31,0,0,1-.32-1.47,3.35,3.35,0,0,1,.32-1.48,2.53,2.53,0,0,1,.9-1,2.5,2.5,0,0,1,2.62,0,2.53,2.53,0,0,1,.9,1,3.35,3.35,0,0,1,.32,1.48,3.31,3.31,0,0,1-.32,1.47,2.46,2.46,0,0,1-.9,1,2.56,2.56,0,0,1-2.62,0Zm2.14-.63a1.83,1.83,0,0,0,.58-.77,2.72,2.72,0,0,0,.21-1.09,2.38,2.38,0,0,0-.46-1.53,1.42,1.42,0,0,0-2.32,0,2.38,2.38,0,0,0-.46,1.53,2.72,2.72,0,0,0,.21,1.09,1.83,1.83,0,0,0,.58.77,1.41,1.41,0,0,0,1.66,0Z"/><path d="M124.28,25.76a2.46,2.46,0,0,1-.9-1,3.31,3.31,0,0,1-.32-1.47,3.35,3.35,0,0,1,.32-1.48,2.53,2.53,0,0,1,.9-1,2.5,2.5,0,0,1,2.62,0,2.53,2.53,0,0,1,.9,1,3.35,3.35,0,0,1,.32,1.48,3.31,3.31,0,0,1-.32,1.47,2.46,2.46,0,0,1-.9,1,2.56,2.56,0,0,1-2.62,0Zm2.14-.63a1.83,1.83,0,0,0,.58-.77,2.72,2.72,0,0,0,.21-1.09,2.38,2.38,0,0,0-.46-1.53,1.42,1.42,0,0,0-2.32,0,2.38,2.38,0,0,0-.46,1.53,2.72,2.72,0,0,0,.21,1.09,1.83,1.83,0,0,0,.58.77,1.41,1.41,0,0,0,1.66,0Z"/><path d="M137.35,26V19.58l-1.51.45-.19-.47,1.95-1h.59V26Z"/><path d="M145.3,19.52a5.55,5.55,0,0,1,.61,2.81,5.52,5.52,0,0,1-.6,2.83,2,2,0,0,1-3.44,0,5.52,5.52,0,0,1-.6-2.83,5.55,5.55,0,0,1,.61-2.81,1.94,1.94,0,0,1,3.42,0Zm-2.78.55a5.61,5.61,0,0,0-.38,2.26,7.15,7.15,0,0,0,.11,1.38l2.54-3.29a2.05,2.05,0,0,0-.49-.88,1,1,0,0,0-.71-.31A1.19,1.19,0,0,0,142.52,20.07Zm2.14,4.55a5.54,5.54,0,0,0,.38-2.29,8.3,8.3,0,0,0-.08-1.2l-2.55,3.24c.26.7.65,1.06,1.18,1.06A1.18,1.18,0,0,0,144.66,24.62Z"/><path d="M151.3,19.52a5.55,5.55,0,0,1,.61,2.81,5.52,5.52,0,0,1-.6,2.83,2,2,0,0,1-3.44,0,5.52,5.52,0,0,1-.6-2.83,5.55,5.55,0,0,1,.61-2.81,1.94,1.94,0,0,1,3.42,0Zm-2.78.55a5.61,5.61,0,0,0-.38,2.26,7.15,7.15,0,0,0,.11,1.38l2.54-3.29a2.05,2.05,0,0,0-.49-.88,1,1,0,0,0-.71-.31A1.19,1.19,0,0,0,148.52,20.07Zm2.14,4.55a5.54,5.54,0,0,0,.38-2.29,8.3,8.3,0,0,0-.08-1.2l-2.55,3.24c.26.7.65,1.06,1.18,1.06A1.18,1.18,0,0,0,150.66,24.62Z"/><path d="M69.32,34c.19,3-.19,10.79,3.06,12.45,1.84.93,4.72.06,6.65-.11l9.8-.85c1.91-.16,1.93-3.16,0-3l-11.76,1c-2.37.2-3.15.35-3.91-2s-.69-5.1-.84-7.5c-.12-1.92-3.12-1.93-3,0Z"/><path d="M81.16,38a20.52,20.52,0,0,0,9.91,5.86l-.66-2.51A38.54,38.54,0,0,0,84.17,48c-1.16,1.55,1.45,3.05,2.59,1.52a35.17,35.17,0,0,1,5.77-6.05,1.51,1.51,0,0,0-.66-2.5,17.56,17.56,0,0,1-8.59-5.09C82,34.48,79.84,36.6,81.16,38Z"/><path d="M101.28,40.31a1,1,0,0,1-.25-.71,3.49,3.49,0,0,1,1.27-2.26l.42.38a2.93,2.93,0,0,0-.55.66,1.23,1.23,0,0,0-.23.6.28.28,0,0,0,.06.18,2.43,2.43,0,0,0,.22.21,2.74,2.74,0,0,1,.25.27.38.38,0,0,1,.08.26.67.67,0,0,1-.19.49.69.69,0,0,1-.51.21A.73.73,0,0,1,101.28,40.31Z"/><path d="M109.79,45,109,42.82h-2.41L105.87,45H105l2.76-7.61h.09L110.65,45Zm-2.94-2.83h2l-1-2.86Z"/><path d="M112.83,40.24a3.16,3.16,0,0,0,.55-.68,1.21,1.21,0,0,0,.23-.58.35.35,0,0,0-.07-.2,2,2,0,0,0-.21-.21,2.88,2.88,0,0,1-.25-.26.41.41,0,0,1-.09-.26.69.69,0,0,1,.2-.5.66.66,0,0,1,.51-.21.73.73,0,0,1,.57.29,1,1,0,0,1,.25.71,3.65,3.65,0,0,1-1.29,2.26Z"/><path d="M69.7,88.68h0a2.42,2.42,0,0,0-.58-.43,1.35,1.35,0,0,0-.55-.11,1.67,1.67,0,0,0-.81.22,1.58,1.58,0,0,0-.63.65,2.29,2.29,0,0,0-.24,1.1V93H66v-5.5h.9l0,1a1.83,1.83,0,0,1,.71-.84,1.88,1.88,0,0,1,1-.3,2,2,0,0,1,1.46.6Zm-.13,0s0,0,0,0l.07,0,0,.06-.08-.05Zm.17,0-.06,0,0,0C69.76,88.74,69.77,88.76,69.74,88.75Z"/><path d="M71.9,92.4a2.88,2.88,0,0,1-.72-2.1,3.41,3.41,0,0,1,.33-1.55,2.46,2.46,0,0,1,.91-1,2.43,2.43,0,0,1,1.28-.34,2.1,2.1,0,0,1,1.61.66A2.76,2.76,0,0,1,75.93,90c0,.09,0,.22,0,.4H72a2.26,2.26,0,0,0,.56,1.53,1.78,1.78,0,0,0,1.31.51,1.8,1.8,0,0,0,1.41-.61l.48.47a2.35,2.35,0,0,1-1.92.84A2.61,2.61,0,0,1,71.9,92.4Zm3.15-2.66a1.81,1.81,0,0,0-.39-1.22,1.29,1.29,0,0,0-1-.45,1.49,1.49,0,0,0-1,.42A2,2,0,0,0,72,89.74Z"/><path d="M81.31,88a2.87,2.87,0,0,1,.62,2.08V93H81v-.84a1.92,1.92,0,0,1-1.87,1,2.21,2.21,0,0,1-1.43-.42,1.33,1.33,0,0,1-.51-1.09,1.48,1.48,0,0,1,.37-1,2.42,2.42,0,0,1,1-.67,4.09,4.09,0,0,1,1.39-.23,9.18,9.18,0,0,1,1.23.07,1.89,1.89,0,0,0-.48-1.3,1.79,1.79,0,0,0-1.23-.38,2,2,0,0,0-.79.16,2.16,2.16,0,0,0-.69.45l-.42-.55a2.67,2.67,0,0,1,2-.77A2.47,2.47,0,0,1,81.31,88Zm-.7,4a2.23,2.23,0,0,0,.56-1.51A8.34,8.34,0,0,0,80,90.39a2.91,2.91,0,0,0-1.44.3,1,1,0,0,0-.53.91q0,.9,1.17.9A1.9,1.9,0,0,0,80.61,92Z"/><path d="M84.29,92.82a2.44,2.44,0,0,1-.84-1,3.71,3.71,0,0,1-.32-1.6,3.27,3.27,0,0,1,.34-1.58,2.2,2.2,0,0,1,.86-.94,2.13,2.13,0,0,1,1.12-.31,1.79,1.79,0,0,1,1,.25,1.58,1.58,0,0,1,.63.7v-3.3H88v.08a.51.51,0,0,0-.09.16,2,2,0,0,0,0,.28v6.6a3.33,3.33,0,0,0,0,.48A1.13,1.13,0,0,0,88,93h-.85a1.47,1.47,0,0,1-.11-.38c0-.13,0-.28,0-.48a2.05,2.05,0,0,1-.68.72,1.76,1.76,0,0,1-.93.26A2.05,2.05,0,0,1,84.29,92.82Zm2.33-1A3,3,0,0,0,87,90.25a2.91,2.91,0,0,0-.38-1.56,1.25,1.25,0,0,0-1.13-.58,1.3,1.3,0,0,0-1.11.53A2.5,2.5,0,0,0,84,90.1a3,3,0,0,0,.4,1.67,1.29,1.29,0,0,0,1.16.62A1.17,1.17,0,0,0,86.62,91.8Z"/><path d="M89.53,93V85.54h4.3v.73H90.37v2.35h2.79v.73H90.37V93Z"/><path d="M99.7,88.68h0a2.42,2.42,0,0,0-.58-.43,1.35,1.35,0,0,0-.55-.11,1.67,1.67,0,0,0-.81.22,1.58,1.58,0,0,0-.63.65,2.29,2.29,0,0,0-.24,1.1V93H96v-5.5h.9l0,1a1.83,1.83,0,0,1,.71-.84,1.88,1.88,0,0,1,1-.3,2,2,0,0,1,1.46.6Zm-.13,0s0,0,0,0l.07,0,0,.06-.08-.05Zm.17,0-.06,0,0,0C99.76,88.74,99.77,88.76,99.74,88.75Z"/><path d="M102.28,92.76a2.46,2.46,0,0,1-.9-1,3.31,3.31,0,0,1-.32-1.47,3.35,3.35,0,0,1,.32-1.48,2.53,2.53,0,0,1,.9-1,2.5,2.5,0,0,1,2.62,0,2.53,2.53,0,0,1,.9,1,3.35,3.35,0,0,1,.32,1.48,3.31,3.31,0,0,1-.32,1.47,2.46,2.46,0,0,1-.9,1,2.56,2.56,0,0,1-2.62,0Zm2.14-.63a1.83,1.83,0,0,0,.58-.77,2.72,2.72,0,0,0,.21-1.09,2.38,2.38,0,0,0-.46-1.53,1.42,1.42,0,0,0-2.32,0,2.38,2.38,0,0,0-.46,1.53,2.72,2.72,0,0,0,.21,1.09,1.83,1.83,0,0,0,.58.77,1.41,1.41,0,0,0,1.66,0Z"/><path d="M107.05,87.54h.79v.54a1.5,1.5,0,0,1,.49-.48,1.12,1.12,0,0,1,.62-.19,1,1,0,0,1,.63.23,1,1,0,0,1,.35.57,1.3,1.3,0,0,1,.49-.58,1.29,1.29,0,0,1,.74-.22.92.92,0,0,1,.81.39,1.67,1.67,0,0,1,.25,1V93h-.79V89.14a1.86,1.86,0,0,0-.14-.89.4.4,0,0,0-.38-.2.59.59,0,0,0-.42.2,1.45,1.45,0,0,0-.33.52,1.77,1.77,0,0,0-.13.63V93h-.8V89.21a2.08,2.08,0,0,0-.13-.91.49.49,0,0,0-.47-.23.63.63,0,0,0-.37.16,1.23,1.23,0,0,0-.3.46,1.76,1.76,0,0,0-.12.68V93h-.79Z"/><path d="M113.53,93V85.54h4.3v.73h-3.46v2.35h2.79v.73h-2.79V93Z"/><path d="M120.28,92.76a2.46,2.46,0,0,1-.9-1,3.31,3.31,0,0,1-.32-1.47,3.35,3.35,0,0,1,.32-1.48,2.53,2.53,0,0,1,.9-1,2.5,2.5,0,0,1,2.62,0,2.53,2.53,0,0,1,.9,1,3.35,3.35,0,0,1,.32,1.48,3.31,3.31,0,0,1-.32,1.47,2.46,2.46,0,0,1-.9,1,2.56,2.56,0,0,1-2.62,0Zm2.14-.63a1.83,1.83,0,0,0,.58-.77,2.72,2.72,0,0,0,.21-1.09,2.38,2.38,0,0,0-.46-1.53,1.42,1.42,0,0,0-2.32,0,2.38,2.38,0,0,0-.46,1.53,2.72,2.72,0,0,0,.21,1.09,1.83,1.83,0,0,0,.58.77,1.41,1.41,0,0,0,1.66,0Z"/><path d="M126.28,92.76a2.46,2.46,0,0,1-.9-1,3.31,3.31,0,0,1-.32-1.47,3.35,3.35,0,0,1,.32-1.48,2.53,2.53,0,0,1,.9-1,2.5,2.5,0,0,1,2.62,0,2.53,2.53,0,0,1,.9,1,3.35,3.35,0,0,1,.32,1.48,3.31,3.31,0,0,1-.32,1.47,2.46,2.46,0,0,1-.9,1,2.56,2.56,0,0,1-2.62,0Zm2.14-.63a1.83,1.83,0,0,0,.58-.77,2.72,2.72,0,0,0,.21-1.09,2.38,2.38,0,0,0-.46-1.53,1.42,1.42,0,0,0-2.32,0,2.38,2.38,0,0,0-.46,1.53,2.72,2.72,0,0,0,.21,1.09,1.83,1.83,0,0,0,.58.77,1.41,1.41,0,0,0,1.66,0Z"/><path d="M139.35,93V86.58l-1.51.45-.19-.47,1.95-1h.59V93Z"/><path d="M147.3,86.52a6.87,6.87,0,0,1,0,5.64,2,2,0,0,1-3.44,0,6.87,6.87,0,0,1,0-5.64,1.94,1.94,0,0,1,3.42,0Zm-2.78.55a5.61,5.61,0,0,0-.38,2.26,7.15,7.15,0,0,0,.11,1.38l2.54-3.29a2.05,2.05,0,0,0-.49-.88,1,1,0,0,0-.71-.31A1.19,1.19,0,0,0,144.52,87.07Zm2.14,4.55a5.54,5.54,0,0,0,.38-2.29,8.3,8.3,0,0,0-.08-1.2l-2.55,3.24c.26.7.65,1.06,1.18,1.06A1.18,1.18,0,0,0,146.66,91.62Z"/><path d="M153.3,86.52a6.87,6.87,0,0,1,0,5.64,2,2,0,0,1-3.44,0,6.87,6.87,0,0,1,0-5.64,1.94,1.94,0,0,1,3.42,0Zm-2.78.55a5.61,5.61,0,0,0-.38,2.26,7.15,7.15,0,0,0,.11,1.38l2.54-3.29a2.05,2.05,0,0,0-.49-.88,1,1,0,0,0-.71-.31A1.19,1.19,0,0,0,150.52,87.07Zm2.14,4.55a5.54,5.54,0,0,0,.38-2.29,8.3,8.3,0,0,0-.08-1.2l-2.55,3.24c.26.7.65,1.06,1.18,1.06A1.18,1.18,0,0,0,152.66,91.62Z"/><path d="M71.32,101c.19,3-.19,10.79,3.06,12.45,1.84.93,4.72.06,6.65-.11l9.8-.85c1.91-.16,1.93-3.16,0-3l-11.76,1c-2.37.2-3.15.35-3.91-2s-.69-5.1-.84-7.5c-.12-1.92-3.12-1.93-3,0Z"/><path d="M83.16,105a20.52,20.52,0,0,0,9.91,5.86l-.66-2.51A38.54,38.54,0,0,0,86.17,115c-1.16,1.55,1.45,3,2.59,1.52a35.17,35.17,0,0,1,5.77-6,1.51,1.51,0,0,0-.66-2.5,17.56,17.56,0,0,1-8.59-5.09c-1.33-1.41-3.44.71-2.12,2.12Z"/><path d="M103.86,112.84a5.66,5.66,0,0,1-1.15-1.79,5.38,5.38,0,0,1-.4-2,5.25,5.25,0,0,1,.4-2,5.31,5.31,0,0,1,1.12-1.73,5.49,5.49,0,0,1,1.68-1.22l.23.74a5,5,0,0,0-1.88,1.79,4.77,4.77,0,0,0,0,5,5,5,0,0,0,1.93,1.81l-.22.72A5.52,5.52,0,0,1,103.86,112.84Z"/><path d="M109.28,107.31a1,1,0,0,1-.25-.71,3.49,3.49,0,0,1,1.27-2.26l.42.38a2.93,2.93,0,0,0-.55.66,1.23,1.23,0,0,0-.23.6.28.28,0,0,0,.06.18,2.43,2.43,0,0,0,.22.21,2.74,2.74,0,0,1,.25.27.38.38,0,0,1,.08.26.67.67,0,0,1-.19.49.69.69,0,0,1-.51.21A.73.73,0,0,1,109.28,107.31Z"/><path d="M117.79,112l-.76-2.18h-2.41l-.75,2.18H113l2.76-7.61h.09l2.76,7.61Zm-2.94-2.83h2l-1-2.86Z"/><path d="M120.83,107.24a3.16,3.16,0,0,0,.55-.68,1.21,1.21,0,0,0,.23-.58.35.35,0,0,0-.07-.2,2,2,0,0,0-.21-.21,2.88,2.88,0,0,1-.25-.26.41.41,0,0,1-.09-.26.69.69,0,0,1,.2-.5.66.66,0,0,1,.51-.21.73.73,0,0,1,.57.29,1,1,0,0,1,.25.71,3.65,3.65,0,0,1-1.29,2.26Z"/><path d="M126.83,113.66a3.16,3.16,0,0,0,.55-.68,1.21,1.21,0,0,0,.23-.58.24.24,0,0,0-.06-.18s-.12-.12-.22-.22a1.9,1.9,0,0,1-.25-.26.42.42,0,0,1-.09-.27.69.69,0,0,1,.2-.5.66.66,0,0,1,.51-.21.73.73,0,0,1,.57.29,1,1,0,0,1,.25.71,3.65,3.65,0,0,1-1.29,2.26Z"/><path d="M139.61,112v-6.44l-1.52.44-.19-.47,2-1h.59V112Z"/><path d="M147.56,105.5a6.93,6.93,0,0,1,0,5.64,2,2,0,0,1-3.43,0,5.56,5.56,0,0,1-.6-2.84,5.41,5.41,0,0,1,.61-2.8,1.88,1.88,0,0,1,1.71-1A1.91,1.91,0,0,1,147.56,105.5Zm-2.78.54a5.43,5.43,0,0,0-.39,2.26,8,8,0,0,0,.11,1.38l2.55-3.28a2.21,2.21,0,0,0-.49-.89,1,1,0,0,0-.71-.3A1.18,1.18,0,0,0,144.78,106Zm2.13,4.56a5.41,5.41,0,0,0,.39-2.3,7,7,0,0,0-.09-1.2l-2.54,3.24c.26.71.65,1.06,1.18,1.06A1.18,1.18,0,0,0,146.91,110.6Z"/><path d="M151.61,112v-6.44l-1.52.44-.19-.47,2-1h.59V112Z"/><path d="M156.21,113.37a5,5,0,0,0,1.94-1.81,4.77,4.77,0,0,0,.72-2.52,4.7,4.7,0,0,0-.71-2.49,4.87,4.87,0,0,0-1.87-1.79l.22-.74a5.54,5.54,0,0,1,1.69,1.22,5.48,5.48,0,0,1,1.12,1.73,5.25,5.25,0,0,1,.4,2,5.58,5.58,0,0,1-.4,2,5.73,5.73,0,0,1-2.88,3Z"/><path d="M22.74,22.11c0,2.78-1.69,4.25-3.75,4.25s-3.64-1.65-3.64-4.1S17,18,19.11,18,22.74,19.71,22.74,22.11Zm-6.27.13c0,1.72.94,3.27,2.58,3.27s2.59-1.52,2.59-3.36c0-1.6-.84-3.28-2.58-3.28S16.47,20.46,16.47,22.24Z"/><path d="M24.07,17.72h1.05v8.51H24.07Z"/><path d="M31.91,17.72v7c0,.52,0,1.1.05,1.5H31l-.05-1h0a2.14,2.14,0,0,1-2,1.14c-1.4,0-2.48-1.18-2.48-2.95,0-1.93,1.19-3.12,2.6-3.12a1.93,1.93,0,0,1,1.75.89h0V17.72Zm-1.05,5.07a2.2,2.2,0,0,0-.05-.44,1.55,1.55,0,0,0-1.53-1.23c-1.09,0-1.73,1-1.73,2.24s.57,2.15,1.71,2.15a1.59,1.59,0,0,0,1.55-1.26,2.14,2.14,0,0,0,.05-.45Z"/><path d="M33.41,21.39a.72.72,0,1,1,1.43,0,.69.69,0,0,1-.72.74A.7.7,0,0,1,33.41,21.39Zm0,4.23a.72.72,0,1,1,1.43,0,.69.69,0,0,1-.72.74A.7.7,0,0,1,33.41,25.62Z"/><path d="M15.37,92.85V84.76h1.14l2.59,4.09a22.28,22.28,0,0,1,1.45,2.63h0c-.1-1.08-.12-2.07-.12-3.33V84.76h1v8.09H20.39l-2.57-4.11a27.32,27.32,0,0,1-1.51-2.69h0c.06,1,.09,2,.09,3.33v3.46Z"/><path d="M23.82,90.14a1.86,1.86,0,0,0,2,2,3.8,3.8,0,0,0,1.61-.3l.18.76a4.84,4.84,0,0,1-1.93.36A2.7,2.7,0,0,1,22.81,90c0-1.75,1-3.13,2.73-3.13a2.46,2.46,0,0,1,2.39,2.73,4.92,4.92,0,0,1,0,.5Zm3.1-.76a1.5,1.5,0,0,0-1.47-1.71,1.75,1.75,0,0,0-1.62,1.71Z"/><path d="M29.66,87,30.43,90c.17.65.33,1.25.43,1.85h0c.13-.59.32-1.21.52-1.84l.94-3h.89l.9,2.9c.22.7.38,1.31.52,1.9h0A16.31,16.31,0,0,1,35.15,90L36,87H37l-1.87,5.81h-1l-.89-2.77c-.21-.65-.37-1.23-.52-1.91h0a17.93,17.93,0,0,1-.53,1.92l-.93,2.76h-1L28.58,87Z"/><path d="M38.11,88a.72.72,0,1,1,1.43,0,.72.72,0,1,1-1.43,0Zm0,4.23a.72.72,0,1,1,.71.75A.71.71,0,0,1,38.11,92.23Z"/></svg>